<svg viewBox="0 0 171 232" fill="none" xmlns="http://www.w3.org/2000/svg">
<g filter="url(#filter0_dd_4025_5955)">
<g clip-path="url(#clip0_4025_5955)">
<mask id="path-1-inside-1_4025_5955" fill="white">
<rect x="4" y="6" width="141" height="202" rx="4"/>
</mask>
<rect x="4" y="6" width="141" height="202" rx="4" fill="white"/>
<mask id="mask0_4025_5955" style="mask-type:alpha" maskUnits="userSpaceOnUse" x="4" y="6" width="292" height="419">
<rect x="4" y="6" width="292" height="419" fill="#C4C4C4"/>
</mask>
<g mask="url(#mask0_4025_5955)">
<rect x="4" y="6" width="292" height="419" fill="#B7F1FD"/>
<rect x="4" y="6" width="292" height="419" fill="url(#paint0_linear_4025_5955)"/>
<path d="M55.1981 153.636C71.5501 72.35 128.782 39.668 179.59 12.852C230.398 -13.964 300.77 -33.2381 307.486 12.852C314.202 58.9421 307.486 307.828 307.486 307.828C307.486 307.828 290.55 304.476 230.398 365.65C170.246 426.824 238.282 443.584 159.15 485.484C80.0181 527.384 -30.0659 496.378 -30.0659 496.378C-30.0659 496.378 -40.2859 360.203 -24.8099 325.426C-9.33391 290.649 38.846 234.922 55.1981 153.636Z" fill="url(#paint1_linear_4025_5955)"/>
</g>
</g>
<rect x="4" y="6" width="141" height="202" rx="4" stroke="white" stroke-width="20" mask="url(#path-1-inside-1_4025_5955)"/>
</g>
<g filter="url(#filter1_dd_4025_5955)">
<g clip-path="url(#clip1_4025_5955)">
<mask id="path-5-inside-2_4025_5955" fill="white">
<rect x="9" y="10" width="141" height="202" rx="4"/>
</mask>
<rect x="9" y="10" width="141" height="202" rx="4" fill="white"/>
<mask id="mask1_4025_5955" style="mask-type:alpha" maskUnits="userSpaceOnUse" x="9" y="10" width="292" height="419">
<rect x="9" y="10" width="292" height="419" fill="#C4C4C4"/>
</mask>
<g mask="url(#mask1_4025_5955)">
<rect x="9" y="10" width="292" height="419" fill="#B7F1FD"/>
<rect x="9" y="10" width="292" height="419" fill="url(#paint2_linear_4025_5955)"/>
<path d="M60.1981 157.636C76.5501 76.35 133.782 43.668 184.59 16.852C235.398 -9.96397 305.77 -29.2381 312.486 16.852C319.202 62.9421 312.486 311.828 312.486 311.828C312.486 311.828 295.55 308.476 235.398 369.65C175.246 430.824 243.282 447.584 164.15 489.484C85.0181 531.384 -25.0659 500.378 -25.0659 500.378C-25.0659 500.378 -35.2859 364.203 -19.8099 329.426C-4.33391 294.649 43.846 238.922 60.1981 157.636Z" fill="url(#paint3_linear_4025_5955)"/>
</g>
</g>
<rect x="9" y="10" width="141" height="202" rx="4" stroke="white" stroke-width="20" mask="url(#path-5-inside-2_4025_5955)"/>
</g>
<g filter="url(#filter2_dd_4025_5955)">
<g clip-path="url(#clip2_4025_5955)">
<mask id="path-9-inside-3_4025_5955" fill="white">
<rect x="14" y="14" width="141" height="202" rx="4"/>
</mask>
<rect x="14" y="14" width="141" height="202" rx="4" fill="white"/>
<mask id="mask2_4025_5955" style="mask-type:alpha" maskUnits="userSpaceOnUse" x="14" y="14" width="292" height="419">
<rect x="14" y="14" width="292" height="419" fill="#C4C4C4"/>
</mask>
<g mask="url(#mask2_4025_5955)">
<rect x="14" y="14" width="292" height="419" fill="#B7F1FD"/>
<rect x="14" y="14" width="292" height="419" fill="url(#paint4_linear_4025_5955)"/>
<path d="M65.1981 161.636C81.5501 80.35 138.782 47.668 189.59 20.852C240.398 -5.96397 310.77 -25.2381 317.486 20.852C324.202 66.9421 317.486 315.828 317.486 315.828C317.486 315.828 300.55 312.476 240.398 373.65C180.246 434.824 248.282 451.584 169.15 493.484C90.0181 535.384 -20.0659 504.378 -20.0659 504.378C-20.0659 504.378 -30.2859 368.203 -14.8099 333.426C0.66609 298.649 48.846 242.922 65.1981 161.636Z" fill="url(#paint5_linear_4025_5955)"/>
</g>
</g>
<rect x="14" y="14" width="141" height="202" rx="4" stroke="white" stroke-width="20" mask="url(#path-9-inside-3_4025_5955)"/>
</g>
<g filter="url(#filter3_dd_4025_5955)">
<g clip-path="url(#clip3_4025_5955)">
<mask id="path-13-inside-4_4025_5955" fill="white">
<rect x="19" y="18" width="141" height="202" rx="4"/>
</mask>
<rect x="19" y="18" width="141" height="202" rx="4" fill="white"/>
<mask id="mask3_4025_5955" style="mask-type:alpha" maskUnits="userSpaceOnUse" x="19" y="18" width="292" height="419">
<rect x="19" y="18" width="292" height="419" fill="#C4C4C4"/>
</mask>
<g mask="url(#mask3_4025_5955)">
<rect x="19" y="18" width="292" height="419" fill="#B7F1FD"/>
<rect x="19" y="18" width="292" height="419" fill="url(#paint6_linear_4025_5955)"/>
<path d="M70.1981 165.636C86.5501 84.35 143.782 51.668 194.59 24.852C245.398 -1.96397 315.77 -21.2381 322.486 24.852C329.202 70.9421 322.486 319.828 322.486 319.828C322.486 319.828 305.55 316.476 245.398 377.65C185.246 438.824 253.282 455.584 174.15 497.484C95.0181 539.384 -15.0659 508.378 -15.0659 508.378C-15.0659 508.378 -25.2859 372.203 -9.80991 337.426C5.66609 302.649 53.846 246.922 70.1981 165.636Z" fill="url(#paint7_linear_4025_5955)"/>
</g>
</g>
<rect x="19" y="18" width="141" height="202" rx="4" stroke="white" stroke-width="20" mask="url(#path-13-inside-4_4025_5955)"/>
</g>
<g filter="url(#filter4_dd_4025_5955)">
<g clip-path="url(#clip4_4025_5955)">
<mask id="path-17-inside-5_4025_5955" fill="white">
<rect x="24" y="22" width="141" height="202" rx="4"/>
</mask>
<rect x="24" y="22" width="141" height="202" rx="4" fill="white"/>
<mask id="mask4_4025_5955" style="mask-type:alpha" maskUnits="userSpaceOnUse" x="24" y="22" width="292" height="419">
<rect x="24" y="22" width="292" height="419" fill="#C4C4C4"/>
</mask>
<g mask="url(#mask4_4025_5955)">
<rect x="24" y="22" width="292" height="419" fill="#B7F1FD"/>
<rect x="24" y="22" width="292" height="419" fill="url(#paint8_linear_4025_5955)"/>
<path d="M75.1981 169.636C91.5501 88.35 148.782 55.668 199.59 28.852C250.398 2.03603 320.77 -17.2381 327.486 28.852C334.202 74.9421 327.486 323.828 327.486 323.828C327.486 323.828 310.55 320.476 250.398 381.65C190.246 442.824 258.282 459.584 179.15 501.484C100.018 543.384 -10.0659 512.378 -10.0659 512.378C-10.0659 512.378 -20.2859 376.203 -4.80991 341.426C10.6661 306.649 58.846 250.922 75.1981 169.636Z" fill="url(#paint9_linear_4025_5955)"/>
</g>
</g>
<rect x="24" y="22" width="141" height="202" rx="4" stroke="white" stroke-width="20" mask="url(#path-17-inside-5_4025_5955)"/>
</g>
<defs>
<filter id="filter0_dd_4025_5955" x="0" y="0" width="151" height="216" filterUnits="userSpaceOnUse" color-interpolation-filters="sRGB">
<feFlood flood-opacity="0" result="BackgroundImageFix"/>
<feColorMatrix in="SourceAlpha" type="matrix" values="0 0 0 0 0 0 0 0 0 0 0 0 0 0 0 0 0 0 127 0" result="hardAlpha"/>
<feOffset dx="2" dy="-2"/>
<feGaussianBlur stdDeviation="2"/>
<feComposite in2="hardAlpha" operator="out"/>
<feColorMatrix type="matrix" values="0 0 0 0 0 0 0 0 0 0 0 0 0 0 0 0 0 0 0.1 0"/>
<feBlend mode="normal" in2="BackgroundImageFix" result="effect1_dropShadow_4025_5955"/>
<feColorMatrix in="SourceAlpha" type="matrix" values="0 0 0 0 0 0 0 0 0 0 0 0 0 0 0 0 0 0 127 0" result="hardAlpha"/>
<feOffset dy="4"/>
<feGaussianBlur stdDeviation="2"/>
<feComposite in2="hardAlpha" operator="out"/>
<feColorMatrix type="matrix" values="0 0 0 0 0 0 0 0 0 0 0 0 0 0 0 0 0 0 0.25 0"/>
<feBlend mode="normal" in2="effect1_dropShadow_4025_5955" result="effect2_dropShadow_4025_5955"/>
<feBlend mode="normal" in="SourceGraphic" in2="effect2_dropShadow_4025_5955" result="shape"/>
</filter>
<filter id="filter1_dd_4025_5955" x="5" y="4" width="151" height="216" filterUnits="userSpaceOnUse" color-interpolation-filters="sRGB">
<feFlood flood-opacity="0" result="BackgroundImageFix"/>
<feColorMatrix in="SourceAlpha" type="matrix" values="0 0 0 0 0 0 0 0 0 0 0 0 0 0 0 0 0 0 127 0" result="hardAlpha"/>
<feOffset dx="2" dy="-2"/>
<feGaussianBlur stdDeviation="2"/>
<feComposite in2="hardAlpha" operator="out"/>
<feColorMatrix type="matrix" values="0 0 0 0 0 0 0 0 0 0 0 0 0 0 0 0 0 0 0.1 0"/>
<feBlend mode="normal" in2="BackgroundImageFix" result="effect1_dropShadow_4025_5955"/>
<feColorMatrix in="SourceAlpha" type="matrix" values="0 0 0 0 0 0 0 0 0 0 0 0 0 0 0 0 0 0 127 0" result="hardAlpha"/>
<feOffset dy="4"/>
<feGaussianBlur stdDeviation="2"/>
<feComposite in2="hardAlpha" operator="out"/>
<feColorMatrix type="matrix" values="0 0 0 0 0 0 0 0 0 0 0 0 0 0 0 0 0 0 0.25 0"/>
<feBlend mode="normal" in2="effect1_dropShadow_4025_5955" result="effect2_dropShadow_4025_5955"/>
<feBlend mode="normal" in="SourceGraphic" in2="effect2_dropShadow_4025_5955" result="shape"/>
</filter>
<filter id="filter2_dd_4025_5955" x="10" y="8" width="151" height="216" filterUnits="userSpaceOnUse" color-interpolation-filters="sRGB">
<feFlood flood-opacity="0" result="BackgroundImageFix"/>
<feColorMatrix in="SourceAlpha" type="matrix" values="0 0 0 0 0 0 0 0 0 0 0 0 0 0 0 0 0 0 127 0" result="hardAlpha"/>
<feOffset dx="2" dy="-2"/>
<feGaussianBlur stdDeviation="2"/>
<feComposite in2="hardAlpha" operator="out"/>
<feColorMatrix type="matrix" values="0 0 0 0 0 0 0 0 0 0 0 0 0 0 0 0 0 0 0.1 0"/>
<feBlend mode="normal" in2="BackgroundImageFix" result="effect1_dropShadow_4025_5955"/>
<feColorMatrix in="SourceAlpha" type="matrix" values="0 0 0 0 0 0 0 0 0 0 0 0 0 0 0 0 0 0 127 0" result="hardAlpha"/>
<feOffset dy="4"/>
<feGaussianBlur stdDeviation="2"/>
<feComposite in2="hardAlpha" operator="out"/>
<feColorMatrix type="matrix" values="0 0 0 0 0 0 0 0 0 0 0 0 0 0 0 0 0 0 0.25 0"/>
<feBlend mode="normal" in2="effect1_dropShadow_4025_5955" result="effect2_dropShadow_4025_5955"/>
<feBlend mode="normal" in="SourceGraphic" in2="effect2_dropShadow_4025_5955" result="shape"/>
</filter>
<filter id="filter3_dd_4025_5955" x="15" y="12" width="151" height="216" filterUnits="userSpaceOnUse" color-interpolation-filters="sRGB">
<feFlood flood-opacity="0" result="BackgroundImageFix"/>
<feColorMatrix in="SourceAlpha" type="matrix" values="0 0 0 0 0 0 0 0 0 0 0 0 0 0 0 0 0 0 127 0" result="hardAlpha"/>
<feOffset dx="2" dy="-2"/>
<feGaussianBlur stdDeviation="2"/>
<feComposite in2="hardAlpha" operator="out"/>
<feColorMatrix type="matrix" values="0 0 0 0 0 0 0 0 0 0 0 0 0 0 0 0 0 0 0.1 0"/>
<feBlend mode="normal" in2="BackgroundImageFix" result="effect1_dropShadow_4025_5955"/>
<feColorMatrix in="SourceAlpha" type="matrix" values="0 0 0 0 0 0 0 0 0 0 0 0 0 0 0 0 0 0 127 0" result="hardAlpha"/>
<feOffset dy="4"/>
<feGaussianBlur stdDeviation="2"/>
<feComposite in2="hardAlpha" operator="out"/>
<feColorMatrix type="matrix" values="0 0 0 0 0 0 0 0 0 0 0 0 0 0 0 0 0 0 0.25 0"/>
<feBlend mode="normal" in2="effect1_dropShadow_4025_5955" result="effect2_dropShadow_4025_5955"/>
<feBlend mode="normal" in="SourceGraphic" in2="effect2_dropShadow_4025_5955" result="shape"/>
</filter>
<filter id="filter4_dd_4025_5955" x="20" y="16" width="151" height="216" filterUnits="userSpaceOnUse" color-interpolation-filters="sRGB">
<feFlood flood-opacity="0" result="BackgroundImageFix"/>
<feColorMatrix in="SourceAlpha" type="matrix" values="0 0 0 0 0 0 0 0 0 0 0 0 0 0 0 0 0 0 127 0" result="hardAlpha"/>
<feOffset dx="2" dy="-2"/>
<feGaussianBlur stdDeviation="2"/>
<feComposite in2="hardAlpha" operator="out"/>
<feColorMatrix type="matrix" values="0 0 0 0 0 0 0 0 0 0 0 0 0 0 0 0 0 0 0.1 0"/>
<feBlend mode="normal" in2="BackgroundImageFix" result="effect1_dropShadow_4025_5955"/>
<feColorMatrix in="SourceAlpha" type="matrix" values="0 0 0 0 0 0 0 0 0 0 0 0 0 0 0 0 0 0 127 0" result="hardAlpha"/>
<feOffset dy="4"/>
<feGaussianBlur stdDeviation="2"/>
<feComposite in2="hardAlpha" operator="out"/>
<feColorMatrix type="matrix" values="0 0 0 0 0 0 0 0 0 0 0 0 0 0 0 0 0 0 0.25 0"/>
<feBlend mode="normal" in2="effect1_dropShadow_4025_5955" result="effect2_dropShadow_4025_5955"/>
<feBlend mode="normal" in="SourceGraphic" in2="effect2_dropShadow_4025_5955" result="shape"/>
</filter>
<linearGradient id="paint0_linear_4025_5955" x1="-172.368" y1="219.69" x2="240.738" y2="282.185" gradientUnits="userSpaceOnUse">
<stop stop-color="white"/>
<stop offset="1" stop-color="white" stop-opacity="0"/>
</linearGradient>
<linearGradient id="paint1_linear_4025_5955" x1="138.548" y1="-14.95" x2="355.027" y2="430.968" gradientUnits="userSpaceOnUse">
<stop stop-color="#C8F2FF" stop-opacity="0.49"/>
<stop offset="0.998602" stop-color="#16AEDE" stop-opacity="0.2"/>
</linearGradient>
<linearGradient id="paint2_linear_4025_5955" x1="-167.368" y1="223.69" x2="245.738" y2="286.185" gradientUnits="userSpaceOnUse">
<stop stop-color="white"/>
<stop offset="1" stop-color="white" stop-opacity="0"/>
</linearGradient>
<linearGradient id="paint3_linear_4025_5955" x1="143.548" y1="-10.95" x2="360.027" y2="434.968" gradientUnits="userSpaceOnUse">
<stop stop-color="#C8F2FF" stop-opacity="0.49"/>
<stop offset="0.998602" stop-color="#16AEDE" stop-opacity="0.2"/>
</linearGradient>
<linearGradient id="paint4_linear_4025_5955" x1="-162.368" y1="227.69" x2="250.738" y2="290.185" gradientUnits="userSpaceOnUse">
<stop stop-color="white"/>
<stop offset="1" stop-color="white" stop-opacity="0"/>
</linearGradient>
<linearGradient id="paint5_linear_4025_5955" x1="148.548" y1="-6.94995" x2="365.027" y2="438.968" gradientUnits="userSpaceOnUse">
<stop stop-color="#C8F2FF" stop-opacity="0.49"/>
<stop offset="0.998602" stop-color="#16AEDE" stop-opacity="0.2"/>
</linearGradient>
<linearGradient id="paint6_linear_4025_5955" x1="-157.368" y1="231.69" x2="255.738" y2="294.185" gradientUnits="userSpaceOnUse">
<stop stop-color="white"/>
<stop offset="1" stop-color="white" stop-opacity="0"/>
</linearGradient>
<linearGradient id="paint7_linear_4025_5955" x1="153.548" y1="-2.94995" x2="370.027" y2="442.968" gradientUnits="userSpaceOnUse">
<stop stop-color="#C8F2FF" stop-opacity="0.49"/>
<stop offset="0.998602" stop-color="#16AEDE" stop-opacity="0.2"/>
</linearGradient>
<linearGradient id="paint8_linear_4025_5955" x1="-152.368" y1="235.69" x2="260.738" y2="298.185" gradientUnits="userSpaceOnUse">
<stop stop-color="white"/>
<stop offset="1" stop-color="white" stop-opacity="0"/>
</linearGradient>
<linearGradient id="paint9_linear_4025_5955" x1="158.548" y1="1.05005" x2="375.027" y2="446.968" gradientUnits="userSpaceOnUse">
<stop stop-color="#C8F2FF" stop-opacity="0.49"/>
<stop offset="0.998602" stop-color="#16AEDE" stop-opacity="0.2"/>
</linearGradient>
<clipPath id="clip0_4025_5955">
<rect x="4" y="6" width="141" height="202" rx="4" fill="white"/>
</clipPath>
<clipPath id="clip1_4025_5955">
<rect x="9" y="10" width="141" height="202" rx="4" fill="white"/>
</clipPath>
<clipPath id="clip2_4025_5955">
<rect x="14" y="14" width="141" height="202" rx="4" fill="white"/>
</clipPath>
<clipPath id="clip3_4025_5955">
<rect x="19" y="18" width="141" height="202" rx="4" fill="white"/>
</clipPath>
<clipPath id="clip4_4025_5955">
<rect x="24" y="22" width="141" height="202" rx="4" fill="white"/>
</clipPath>
</defs>
</svg>
