<svg viewBox="0 0 223 168" fill="none" xmlns="http://www.w3.org/2000/svg">
<g filter="url(#filter0_d_4025_5958)">
<rect x="4" width="215" height="160" rx="19" fill="#E5F6F8"/>
<rect x="4.5" y="0.5" width="214" height="159" rx="18.5" stroke="white"/>
</g>
<line x1="12" y1="110.5" x2="212" y2="110.5" stroke="#B6E6FB"/>
<path d="M92.6445 130.395C90.7148 129.84 89.3086 129.16 88.4258 128.355C87.5508 127.543 87.1133 126.543 87.1133 125.355C87.1133 124.012 87.6484 122.902 88.7188 122.027C89.7969 121.145 91.1953 120.703 92.9141 120.703C94.0859 120.703 95.1289 120.93 96.043 121.383C96.9648 121.836 97.6758 122.461 98.1758 123.258C98.6836 124.055 98.9375 124.926 98.9375 125.871H96.6758C96.6758 124.84 96.3477 124.031 95.6914 123.445C95.0352 122.852 94.1094 122.555 92.9141 122.555C91.8047 122.555 90.9375 122.801 90.3125 123.293C89.6953 123.777 89.3867 124.453 89.3867 125.32C89.3867 126.016 89.6797 126.605 90.2656 127.09C90.8594 127.566 91.8633 128.004 93.2773 128.402C94.6992 128.801 95.8086 129.242 96.6055 129.727C97.4102 130.203 98.0039 130.762 98.3867 131.402C98.7773 132.043 98.9727 132.797 98.9727 133.664C98.9727 135.047 98.4336 136.156 97.3555 136.992C96.2773 137.82 94.8359 138.234 93.0312 138.234C91.8594 138.234 90.7656 138.012 89.75 137.566C88.7344 137.113 87.9492 136.496 87.3945 135.715C86.8477 134.934 86.5742 134.047 86.5742 133.055H88.8359C88.8359 134.086 89.2148 134.902 89.9727 135.504C90.7383 136.098 91.7578 136.395 93.0312 136.395C94.2188 136.395 95.1289 136.152 95.7617 135.668C96.3945 135.184 96.7109 134.523 96.7109 133.688C96.7109 132.852 96.418 132.207 95.832 131.754C95.2461 131.293 94.1836 130.84 92.6445 130.395ZM104.469 122.25V125.32H106.836V126.996H104.469V134.859C104.469 135.367 104.574 135.75 104.785 136.008C104.996 136.258 105.355 136.383 105.863 136.383C106.113 136.383 106.457 136.336 106.895 136.242V138C106.324 138.156 105.77 138.234 105.23 138.234C104.262 138.234 103.531 137.941 103.039 137.355C102.547 136.77 102.301 135.938 102.301 134.859V126.996H99.9922V125.32H102.301V122.25H104.469ZM117.207 138C117.082 137.75 116.98 137.305 116.902 136.664C115.895 137.711 114.691 138.234 113.293 138.234C112.043 138.234 111.016 137.883 110.211 137.18C109.414 136.469 109.016 135.57 109.016 134.484C109.016 133.164 109.516 132.141 110.516 131.414C111.523 130.68 112.938 130.312 114.758 130.312H116.867V129.316C116.867 128.559 116.641 127.957 116.188 127.512C115.734 127.059 115.066 126.832 114.184 126.832C113.41 126.832 112.762 127.027 112.238 127.418C111.715 127.809 111.453 128.281 111.453 128.836H109.273C109.273 128.203 109.496 127.594 109.941 127.008C110.395 126.414 111.004 125.945 111.77 125.602C112.543 125.258 113.391 125.086 114.312 125.086C115.773 125.086 116.918 125.453 117.746 126.188C118.574 126.914 119.004 127.918 119.035 129.199V135.035C119.035 136.199 119.184 137.125 119.48 137.812V138H117.207ZM113.609 136.348C114.289 136.348 114.934 136.172 115.543 135.82C116.152 135.469 116.594 135.012 116.867 134.449V131.848H115.168C112.512 131.848 111.184 132.625 111.184 134.18C111.184 134.859 111.41 135.391 111.863 135.773C112.316 136.156 112.898 136.348 113.609 136.348ZM128.562 127.266C128.234 127.211 127.879 127.184 127.496 127.184C126.074 127.184 125.109 127.789 124.602 129V138H122.434V125.32H124.543L124.578 126.785C125.289 125.652 126.297 125.086 127.602 125.086C128.023 125.086 128.344 125.141 128.562 125.25V127.266ZM134.094 122.25V125.32H136.461V126.996H134.094V134.859C134.094 135.367 134.199 135.75 134.41 136.008C134.621 136.258 134.98 136.383 135.488 136.383C135.738 136.383 136.082 136.336 136.52 136.242V138C135.949 138.156 135.395 138.234 134.855 138.234C133.887 138.234 133.156 137.941 132.664 137.355C132.172 136.77 131.926 135.938 131.926 134.859V126.996H129.617V125.32H131.926V122.25H134.094Z" fill="#78A240"/>
<path d="M55.4375 59.8818C55.4375 67.7021 54.0029 73.6436 51.1338 77.7061C48.2646 81.7432 44.0371 83.7617 38.4512 83.7617C32.9668 83.7617 28.7646 81.7812 25.8447 77.8203C22.9248 73.834 21.4268 68.0449 21.3506 60.4531V50.5127C21.3506 42.7178 22.7979 36.8145 25.6924 32.8027C28.5869 28.791 32.8145 26.7852 38.375 26.7852C43.8594 26.7852 48.0488 28.7275 50.9434 32.6123C53.8379 36.4717 55.3359 42.1719 55.4375 49.7129V59.8818ZM50.8672 49.9414C50.8672 43.5938 49.8262 38.7949 47.7441 35.5449C45.6875 32.2949 42.5645 30.6699 38.375 30.6699C34.2617 30.6699 31.1641 32.2568 29.082 35.4307C27 38.6045 25.9336 43.2891 25.8828 49.4844V60.377C25.8828 66.6992 26.9492 71.5361 29.082 74.8877C31.2402 78.2393 34.3633 79.915 38.4512 79.915C42.5137 79.915 45.5859 78.2773 47.668 75.002C49.7754 71.7266 50.8418 66.9277 50.8672 60.6055V49.9414ZM98.7031 59.8818C98.7031 67.7021 97.2686 73.6436 94.3994 77.7061C91.5303 81.7432 87.3027 83.7617 81.7168 83.7617C76.2324 83.7617 72.0303 81.7812 69.1104 77.8203C66.1904 73.834 64.6924 68.0449 64.6162 60.4531V50.5127C64.6162 42.7178 66.0635 36.8145 68.958 32.8027C71.8525 28.791 76.0801 26.7852 81.6406 26.7852C87.125 26.7852 91.3145 28.7275 94.209 32.6123C97.1035 36.4717 98.6016 42.1719 98.7031 49.7129V59.8818ZM94.1328 49.9414C94.1328 43.5938 93.0918 38.7949 91.0098 35.5449C88.9531 32.2949 85.8301 30.6699 81.6406 30.6699C77.5273 30.6699 74.4297 32.2568 72.3477 35.4307C70.2656 38.6045 69.1992 43.2891 69.1484 49.4844V60.377C69.1484 66.6992 70.2148 71.5361 72.3477 74.8877C74.5059 78.2393 77.6289 79.915 81.7168 79.915C85.7793 79.915 88.8516 78.2773 90.9336 75.002C93.041 71.7266 94.1074 66.9277 94.1328 60.6055V49.9414ZM108.148 80.2578C108.148 79.3691 108.428 78.6201 108.986 78.0107C109.57 77.376 110.37 77.0586 111.386 77.0586C112.401 77.0586 113.201 77.376 113.785 78.0107C114.369 78.6201 114.661 79.3691 114.661 80.2578C114.661 81.1465 114.369 81.8828 113.785 82.4668C113.201 83.0254 112.401 83.3047 111.386 83.3047C110.37 83.3047 109.57 83.0254 108.986 82.4668C108.428 81.8828 108.148 81.1465 108.148 80.2578ZM108.225 45.1045C108.225 44.2158 108.504 43.4668 109.062 42.8574C109.646 42.2227 110.446 41.9053 111.462 41.9053C112.478 41.9053 113.277 42.2227 113.861 42.8574C114.445 43.4668 114.737 44.2158 114.737 45.1045C114.737 45.9932 114.445 46.7295 113.861 47.3135C113.277 47.8721 112.478 48.1514 111.462 48.1514C110.446 48.1514 109.646 47.8721 109.062 47.3135C108.504 46.7295 108.225 45.9932 108.225 45.1045ZM158.346 59.8818C158.346 67.7021 156.911 73.6436 154.042 77.7061C151.173 81.7432 146.945 83.7617 141.359 83.7617C135.875 83.7617 131.673 81.7812 128.753 77.8203C125.833 73.834 124.335 68.0449 124.259 60.4531V50.5127C124.259 42.7178 125.706 36.8145 128.601 32.8027C131.495 28.791 135.723 26.7852 141.283 26.7852C146.768 26.7852 150.957 28.7275 153.852 32.6123C156.746 36.4717 158.244 42.1719 158.346 49.7129V59.8818ZM153.775 49.9414C153.775 43.5938 152.734 38.7949 150.652 35.5449C148.596 32.2949 145.473 30.6699 141.283 30.6699C137.17 30.6699 134.072 32.2568 131.99 35.4307C129.908 38.6045 128.842 43.2891 128.791 49.4844V60.377C128.791 66.6992 129.857 71.5361 131.99 74.8877C134.148 78.2393 137.271 79.915 141.359 79.915C145.422 79.915 148.494 78.2773 150.576 75.002C152.684 71.7266 153.75 66.9277 153.775 60.6055V49.9414ZM201.611 59.8818C201.611 67.7021 200.177 73.6436 197.308 77.7061C194.438 81.7432 190.211 83.7617 184.625 83.7617C179.141 83.7617 174.938 81.7812 172.019 77.8203C169.099 73.834 167.601 68.0449 167.524 60.4531V50.5127C167.524 42.7178 168.972 36.8145 171.866 32.8027C174.761 28.791 178.988 26.7852 184.549 26.7852C190.033 26.7852 194.223 28.7275 197.117 32.6123C200.012 36.4717 201.51 42.1719 201.611 49.7129V59.8818ZM197.041 49.9414C197.041 43.5938 196 38.7949 193.918 35.5449C191.861 32.2949 188.738 30.6699 184.549 30.6699C180.436 30.6699 177.338 32.2568 175.256 35.4307C173.174 38.6045 172.107 43.2891 172.057 49.4844V60.377C172.057 66.6992 173.123 71.5361 175.256 74.8877C177.414 78.2393 180.537 79.915 184.625 79.915C188.688 79.915 191.76 78.2773 193.842 75.002C195.949 71.7266 197.016 66.9277 197.041 60.6055V49.9414Z" fill="#4A4A4A"/>
<defs>
<filter id="filter0_d_4025_5958" x="0" y="0" width="223" height="168" filterUnits="userSpaceOnUse" color-interpolation-filters="sRGB">
<feFlood flood-opacity="0" result="BackgroundImageFix"/>
<feColorMatrix in="SourceAlpha" type="matrix" values="0 0 0 0 0 0 0 0 0 0 0 0 0 0 0 0 0 0 127 0" result="hardAlpha"/>
<feOffset dy="4"/>
<feGaussianBlur stdDeviation="2"/>
<feComposite in2="hardAlpha" operator="out"/>
<feColorMatrix type="matrix" values="0 0 0 0 0 0 0 0 0 0 0 0 0 0 0 0 0 0 0.25 0"/>
<feBlend mode="normal" in2="BackgroundImageFix" result="effect1_dropShadow_4025_5958"/>
<feBlend mode="normal" in="SourceGraphic" in2="effect1_dropShadow_4025_5958" result="shape"/>
</filter>
</defs>
</svg>
