<svg viewBox="0 0 223 168" fill="none" xmlns="http://www.w3.org/2000/svg">
<g filter="url(#filter0_d_4022_6044)">
<rect x="4" width="215" height="160" rx="19" fill="#EBF9ED"/>
<rect x="4.5" y="0.5" width="214" height="159" rx="18.5" stroke="white"/>
</g>
<line x1="12" y1="110.5" x2="212" y2="110.5" stroke="#94938F"/>
<path d="M92.6445 130.395C90.7148 129.84 89.3086 129.16 88.4258 128.355C87.5508 127.543 87.1133 126.543 87.1133 125.355C87.1133 124.012 87.6484 122.902 88.7188 122.027C89.7969 121.145 91.1953 120.703 92.9141 120.703C94.0859 120.703 95.1289 120.93 96.043 121.383C96.9648 121.836 97.6758 122.461 98.1758 123.258C98.6836 124.055 98.9375 124.926 98.9375 125.871H96.6758C96.6758 124.84 96.3477 124.031 95.6914 123.445C95.0352 122.852 94.1094 122.555 92.9141 122.555C91.8047 122.555 90.9375 122.801 90.3125 123.293C89.6953 123.777 89.3867 124.453 89.3867 125.32C89.3867 126.016 89.6797 126.605 90.2656 127.09C90.8594 127.566 91.8633 128.004 93.2773 128.402C94.6992 128.801 95.8086 129.242 96.6055 129.727C97.4102 130.203 98.0039 130.762 98.3867 131.402C98.7773 132.043 98.9727 132.797 98.9727 133.664C98.9727 135.047 98.4336 136.156 97.3555 136.992C96.2773 137.82 94.8359 138.234 93.0312 138.234C91.8594 138.234 90.7656 138.012 89.75 137.566C88.7344 137.113 87.9492 136.496 87.3945 135.715C86.8477 134.934 86.5742 134.047 86.5742 133.055H88.8359C88.8359 134.086 89.2148 134.902 89.9727 135.504C90.7383 136.098 91.7578 136.395 93.0312 136.395C94.2188 136.395 95.1289 136.152 95.7617 135.668C96.3945 135.184 96.7109 134.523 96.7109 133.688C96.7109 132.852 96.418 132.207 95.832 131.754C95.2461 131.293 94.1836 130.84 92.6445 130.395ZM104.469 122.25V125.32H106.836V126.996H104.469V134.859C104.469 135.367 104.574 135.75 104.785 136.008C104.996 136.258 105.355 136.383 105.863 136.383C106.113 136.383 106.457 136.336 106.895 136.242V138C106.324 138.156 105.77 138.234 105.23 138.234C104.262 138.234 103.531 137.941 103.039 137.355C102.547 136.77 102.301 135.938 102.301 134.859V126.996H99.9922V125.32H102.301V122.25H104.469ZM117.207 138C117.082 137.75 116.98 137.305 116.902 136.664C115.895 137.711 114.691 138.234 113.293 138.234C112.043 138.234 111.016 137.883 110.211 137.18C109.414 136.469 109.016 135.57 109.016 134.484C109.016 133.164 109.516 132.141 110.516 131.414C111.523 130.68 112.938 130.312 114.758 130.312H116.867V129.316C116.867 128.559 116.641 127.957 116.188 127.512C115.734 127.059 115.066 126.832 114.184 126.832C113.41 126.832 112.762 127.027 112.238 127.418C111.715 127.809 111.453 128.281 111.453 128.836H109.273C109.273 128.203 109.496 127.594 109.941 127.008C110.395 126.414 111.004 125.945 111.77 125.602C112.543 125.258 113.391 125.086 114.312 125.086C115.773 125.086 116.918 125.453 117.746 126.188C118.574 126.914 119.004 127.918 119.035 129.199V135.035C119.035 136.199 119.184 137.125 119.48 137.812V138H117.207ZM113.609 136.348C114.289 136.348 114.934 136.172 115.543 135.82C116.152 135.469 116.594 135.012 116.867 134.449V131.848H115.168C112.512 131.848 111.184 132.625 111.184 134.18C111.184 134.859 111.41 135.391 111.863 135.773C112.316 136.156 112.898 136.348 113.609 136.348ZM128.562 127.266C128.234 127.211 127.879 127.184 127.496 127.184C126.074 127.184 125.109 127.789 124.602 129V138H122.434V125.32H124.543L124.578 126.785C125.289 125.652 126.297 125.086 127.602 125.086C128.023 125.086 128.344 125.141 128.562 125.25V127.266ZM134.094 122.25V125.32H136.461V126.996H134.094V134.859C134.094 135.367 134.199 135.75 134.41 136.008C134.621 136.258 134.98 136.383 135.488 136.383C135.738 136.383 136.082 136.336 136.52 136.242V138C135.949 138.156 135.395 138.234 134.855 138.234C133.887 138.234 133.156 137.941 132.664 137.355C132.172 136.77 131.926 135.938 131.926 134.859V126.996H129.617V125.32H131.926V122.25H134.094Z" fill="#78A240"/>
<path d="M119.367 83H114.797V33.0312L99.7148 38.6299V34.3643L118.605 27.3564H119.367V83ZM174.858 59.8818C174.858 67.7021 173.424 73.6436 170.555 77.7061C167.686 81.7432 163.458 83.7617 157.872 83.7617C152.388 83.7617 148.186 81.7812 145.266 77.8203C142.346 73.834 140.848 68.0449 140.771 60.4531V50.5127C140.771 42.7178 142.219 36.8145 145.113 32.8027C148.008 28.791 152.235 26.7852 157.796 26.7852C163.28 26.7852 167.47 28.7275 170.364 32.6123C173.259 36.4717 174.757 42.1719 174.858 49.7129V59.8818ZM170.288 49.9414C170.288 43.5938 169.247 38.7949 167.165 35.5449C165.108 32.2949 161.985 30.6699 157.796 30.6699C153.683 30.6699 150.585 32.2568 148.503 35.4307C146.421 38.6045 145.354 43.2891 145.304 49.4844V60.377C145.304 66.6992 146.37 71.5361 148.503 74.8877C150.661 78.2393 153.784 79.915 157.872 79.915C161.935 79.915 165.007 78.2773 167.089 75.002C169.196 71.7266 170.263 66.9277 170.288 60.6055V49.9414ZM210.088 72.5264C210.088 70.2666 209.174 68.4512 207.346 67.0801C205.543 65.709 202.813 64.6426 199.157 63.8809C195.501 63.0938 192.657 62.2051 190.626 61.2148C188.62 60.1992 187.122 58.9678 186.132 57.5205C185.167 56.0732 184.685 54.3213 184.685 52.2646C184.685 49.0146 186.043 46.3359 188.76 44.2285C191.477 42.0957 194.955 41.0293 199.195 41.0293C203.791 41.0293 207.473 42.1719 210.24 44.457C213.033 46.7168 214.43 49.6748 214.43 53.3311H209.859C209.859 50.9189 208.844 48.9131 206.812 47.3135C204.807 45.7139 202.268 44.9141 199.195 44.9141C196.199 44.9141 193.787 45.5869 191.959 46.9326C190.156 48.2529 189.255 49.9795 189.255 52.1123C189.255 54.1689 190.004 55.7686 191.502 56.9111C193.025 58.0283 195.78 59.0566 199.767 59.9961C203.778 60.9355 206.774 61.9385 208.755 63.0049C210.761 64.0713 212.246 65.3535 213.211 66.8516C214.176 68.3496 214.658 70.165 214.658 72.2979C214.658 75.7764 213.249 78.5566 210.431 80.6387C207.638 82.7207 203.981 83.7617 199.462 83.7617C194.663 83.7617 190.766 82.6064 187.77 80.2959C184.799 77.96 183.313 75.0146 183.313 71.46H187.884C188.062 74.126 189.179 76.208 191.235 77.7061C193.317 79.1787 196.06 79.915 199.462 79.915C202.636 79.915 205.2 79.2168 207.155 77.8203C209.11 76.4238 210.088 74.6592 210.088 72.5264Z" fill="#D2D3D5"/>
<defs>
<filter id="filter0_d_4022_6044" x="0" y="0" width="223" height="168" filterUnits="userSpaceOnUse" color-interpolation-filters="sRGB">
<feFlood flood-opacity="0" result="BackgroundImageFix"/>
<feColorMatrix in="SourceAlpha" type="matrix" values="0 0 0 0 0 0 0 0 0 0 0 0 0 0 0 0 0 0 127 0" result="hardAlpha"/>
<feOffset dy="4"/>
<feGaussianBlur stdDeviation="2"/>
<feComposite in2="hardAlpha" operator="out"/>
<feColorMatrix type="matrix" values="0 0 0 0 0 0 0 0 0 0 0 0 0 0 0 0 0 0 0.25 0"/>
<feBlend mode="normal" in2="BackgroundImageFix" result="effect1_dropShadow_4022_6044"/>
<feBlend mode="normal" in="SourceGraphic" in2="effect1_dropShadow_4022_6044" result="shape"/>
</filter>
</defs>
</svg>
