<svg viewBox="0 0 20 20" xmlns="http://www.w3.org/2000/svg">
    <path fill-rule="evenodd" clip-rule="evenodd" d="M1 4a3 3 0 014.175-2.761A10.055 10.055 0 001.24 5.175 2.99 2.99 0 011 4zM.714 6.282A4 4 0 016.282.714 9.973 9.973 0 0110 0c2.038 0 3.934.61 5.515 1.657a10.054 10.054 0 012.828 2.828A9.953 9.953 0 0120 10c0 2.038-.61 3.934-1.657 5.515a10.055 10.055 0 01-2.828 2.828A9.954 9.954 0 0110 20a9.966 9.966 0 01-3.718-.714 4 4 0 01-5.568-5.568A9.973 9.973 0 010 10c0-1.314.253-2.569.714-3.718zm.381 8.273c.047.091.095.18.144.27a3 3 0 003.936 3.936 10.054 10.054 0 01-4.08-4.206zM16 20a3.982 3.982 0 01-2.282-.714c.381-.153.75-.328 1.107-.525a3 3 0 003.936-3.936c.197-.356.372-.726.525-1.107A4 4 0 0116 20zm3.286-13.718A4 4 0 0013.718.714c.381.153.75.328 1.107.525a3 3 0 013.936 3.936c.197.356.372.726.525 1.107zm-7.076 8.756l2.581 2.582a9.047 9.047 0 002.829-2.829l-2.582-2.581a5.52 5.52 0 01-2.828 2.828zM14.79 2.38A9.047 9.047 0 0117.62 5.21L15.038 7.79a5.52 5.52 0 00-2.828-2.828L14.79 2.38zm-3.354 3.354A4.495 4.495 0 0114.5 10a4.495 4.495 0 01-4.5 4.5A4.495 4.495 0 015.5 10 4.495 4.495 0 0110 5.5c.503 0 .986.082 1.437.234zM4.962 12.21a5.52 5.52 0 002.828 2.828L5.21 17.62A9.047 9.047 0 012.38 14.79l2.582-2.581zm0-4.42L2.38 5.208A9.047 9.047 0 015.21 2.38L7.79 4.962A5.52 5.52 0 004.962 7.79z"></path>
</svg>