<svg viewBox="0 0 252 203" fill="none" xmlns="http://www.w3.org/2000/svg"><path d="M239 1H13C6.373 1 1 6.373 1 13v130c0 6.627 5.373 12 12 12h226c6.627 0 12-5.373 12-12V13c0-6.627-5.373-12-12-12z" fill="#fff" stroke="#D2D3D5" stroke-width="2"/><path d="M238 5H14a9 9 0 00-9 9v128a9 9 0 009 9h224a9 9 0 009-9V14a9 9 0 00-9-9z" fill="#fff" stroke="#D2D3D5" stroke-width="2"/><path d="M219 13h-30v36h30V13z" fill="#fff" stroke="#556879" stroke-width="2"/><path d="M213.5 18.5h-19v1h19v-1zM213.5 24.5h-19v1h19v-1zM213.5 30.5h-19v1h19v-1zM213.5 36.5h-19v1h19v-1zM213.5 42.5h-19v1h19v-1z" stroke="#556879"/><path d="M52 26H12v26h40V26z" fill="#F26724"/><path fill-rule="evenodd" clip-rule="evenodd" d="M50 28H14v22h36V28zm-36-2h-2v26h40V26H14z" fill="#D2D3D5"/><path d="M24 45.111a4 4 0 014-4h8a4 4 0 014 4V50H24V45.11zM32 38.889c2.525 0 4.571-1.99 4.571-4.445C36.571 31.99 34.525 30 32 30s-4.571 1.99-4.571 4.444c0 2.455 2.046 4.445 4.571 4.445z" fill="#fff"/><path d="M52 56H12v26h40V56z" fill="#4D8BBE"/><path fill-rule="evenodd" clip-rule="evenodd" d="M50 58H14v22h36V58zm-36-2h-2v26h40V56H14z" fill="#D2D3D5"/><path d="M24 75.111a4 4 0 014-4h8a4 4 0 014 4V80H24v-4.889zM32 68.889c2.525 0 4.571-1.99 4.571-4.445C36.571 61.99 34.525 60 32 60s-4.571 1.99-4.571 4.444c0 2.455 2.046 4.445 4.571 4.445z" fill="#fff"/><path d="M51 13H13v8h38v-8z" fill="#E8EEF2" stroke="#556879" stroke-width="2"/><path d="M183 13H57v130h126V13z" fill="#fff" stroke="#D2D3D5" stroke-width="2"/><path d="M82.215 195.211L95.343 185h61.314l13.128 10.211c.751.584.338 1.789-.614 1.789H82.829c-.952 0-1.365-1.205-.614-1.789z" fill="#EDEEEF" stroke="#D2D3D5" stroke-width="2"/><path d="M82 200v-3h88v3a2 2 0 01-2 2H84a2 2 0 01-2-2zM96.067 184l1.87-29h56.125l1.871 29H96.067z" fill="#fff" stroke="#D2D3D5" stroke-width="2"/><path d="M97.5 178h57l.5 6H97l.5-6z" fill="#94938F"/><path d="M80 18H62v18h18V18z" fill="#46B1E1" stroke="#D2D3D5" stroke-width="2"/><path d="M71 32a5 5 0 100-10 5 5 0 000 10z" fill="#fff"/><path d="M241 13h-16v130h16V13z" fill="#E8EEF2" stroke="#D2D3D5" stroke-width="2"/><path d="M240 29h-14v14h14V29z" fill="#46B1E1"/><path d="M233 27a5 5 0 100-10 5 5 0 000 10zM233 83a5 5 0 100-10 5 5 0 000 10zM233 55a5 5 0 100-10 5 5 0 000 10zM233 111a5 5 0 10-.001-10.001A5 5 0 00233 111zM233 97a5 5 0 100-10 5 5 0 000 10zM233 69a5 5 0 100-10 5 5 0 000 10z" fill="#556879"/><path d="M233 41a5 5 0 100-10 5 5 0 000 10z" fill="#fff"/><path d="M172 34V18H86v16h86z" fill="#E8EEF2" stroke="#D2D3D5" stroke-width="2"/><path d="M145 26a5 5 0 1110 0 5 5 0 01-10 0zM159 26a5 5 0 1110 0 5 5 0 01-10 0zM103 26a5 5 0 1110 0 5 5 0 01-10 0zM117 26a5 5 0 1110 0 5 5 0 01-10 0zM131 26a5 5 0 1110 0 5 5 0 01-10 0zM89 26a5 5 0 1110 0 5 5 0 01-10 0z" fill="#556879"/><path d="M219 49h-30v94h30V49z" fill="#fff" stroke="#556879" stroke-width="2"/><mask id="a" maskUnits="userSpaceOnUse" x="190" y="50" width="28" height="92"><path d="M217 51h-26v90h26V51z" fill="#fff" stroke="#B6B8BA" stroke-width="2"/></mask><g mask="url(#a)"><path d="M227.688-51.678l-.707-.7L53.032 119.739l.707.7L227.688-51.678zM295.571 15.489l-.707-.7-173.949 172.118.707.699L295.571 15.489zM261.629-18.095l-.707-.7L86.973 153.324l.707.7L261.63-18.095zM329.512 49.073l-.707-.7-173.949 172.118.707.699L329.512 49.073zM224.86-54.477l-.707-.7L50.204 116.941l.707.699L224.86-54.477zM292.742 12.69l-.707-.7-173.949 172.118.707.7L292.742 12.69zM258.801-20.894l-.707-.7L84.145 150.525l.707.7L258.801-20.894zM326.683 46.274l-.707-.7-173.949 172.118.707.7L326.683 46.274zM230.517-48.88l-.707-.7L55.861 122.538l.707.699L230.517-48.88zM298.399 18.288l-.707-.7-173.949 172.118.707.699L298.399 18.288zM264.458-15.296l-.707-.7L89.802 156.122l.707.699L264.458-15.296zM332.34 51.872l-.707-.7L157.684 223.29l.707.699L332.34 51.872zM233.345-46.081l-.707-.7L58.689 125.337l.707.699L233.345-46.081zM301.227 21.087l-.707-.7-173.949 172.117.707.7L301.227 21.086zM267.286-12.498l-.707-.7L92.63 158.92l.707.7L267.286-12.498zM335.169 54.67l-.707-.7-173.949 172.118.707.7L335.169 54.67zM236.174-43.283l-.707-.7L61.518 128.135l.707.7L236.174-43.283zM304.056 23.885l-.707-.7L129.4 195.303l.707.699L304.056 23.885zM270.115-9.699l-.707-.7L95.459 161.72l.707.7L270.115-9.699zM337.997 57.47l-.707-.7-173.949 172.117.707.7L337.997 57.469zM239.002-40.484l-.707-.7L64.346 130.934l.707.699L239.002-40.484zM306.884 26.684l-.707-.7-173.949 172.118.707.699L306.884 26.684zM272.943-6.9l-.707-.7L98.287 164.518l.707.7L272.943-6.9zM340.825 60.267l-.707-.7-173.949 172.118.707.7L340.825 60.267zM241.83-37.685l-.707-.7L67.174 133.733l.707.699L241.83-37.685zM309.713 29.483l-.707-.7-173.949 172.118.707.699L309.713 29.483zM275.772-4.102l-.707-.7-173.949 172.118.707.7L275.772-4.102zM343.654 63.066l-.707-.7-173.949 172.118.707.7L343.654 63.066zM244.659-34.887l-.707-.7L70.003 136.531l.707.7L244.66-34.887zM312.541 32.28l-.707-.699L137.885 203.7l.707.699L312.541 32.281zM278.6-1.303l-.707-.7-173.949 172.118.707.7L278.6-1.303zM346.482 65.865l-.707-.7-173.949 172.118.707.699L346.482 65.865zM247.487-32.088l-.707-.7L72.831 139.33l.707.699L247.487-32.088zM315.37 35.08l-.707-.7-173.949 172.118.707.699L315.37 35.08zM281.428 1.496l-.707-.7-173.949 172.118.707.699L281.428 1.496zM349.311 68.663l-.707-.7-173.949 172.118.707.7L349.311 68.663zM250.316-29.29l-.707-.699L75.66 142.13l.707.699L250.316-29.289zM318.198 37.878l-.707-.7-173.949 172.118.707.7L318.198 37.878zM284.257 4.295l-.707-.7-173.949 172.117.707.7L284.257 4.295zM352.139 71.462l-.707-.7L177.483 242.88l.707.7L352.139 71.462zM253.144-26.49l-.707-.7L78.488 144.927l.707.7L253.144-26.491zM321.026 40.677l-.707-.7L146.37 212.095l.707.699L321.026 40.677zM287.085 7.093l-.707-.7-173.949 172.118.707.7L287.085 7.093zM354.968 74.26l-.707-.7-173.949 172.118.707.7L354.968 74.261zM255.973-23.692l-.707-.7L81.317 147.726l.707.699L255.973-23.692zM323.855 43.476l-.707-.7-173.949 172.118.707.699L323.855 43.476zM289.914 9.892l-.707-.7L115.258 181.31l.707.699L289.914 9.892zM357.796 77.06l-.707-.7L183.14 248.477l.707.7L357.796 77.059z" fill="#E8EEF2" stroke="#D7E2EA" stroke-width=".995"/><path d="M219 49h-30v94h30V49z" stroke="#556879" stroke-width="2"/></g></svg>