<svg xmlns="http://www.w3.org/2000/svg" fill="none" viewBox="0 0 228 178"><path fill="#FFBA00" stroke="#414F54" stroke-width="6" d="M14.412 153h199.176a3 3 0 012.994 3.199l-1.063 16a3 3 0 01-2.993 2.801H15.474a3 3 0 01-2.993-2.801l-1.063-16A3 3 0 0114.412 153z"/><path fill="#BE8158" stroke="#414F54" stroke-width="4" d="M32 23h170v17.045H32z"/><path stroke="#414F54" d="M59 23.428c-5.553 3.28-10.45 4.187-21 4.857M77 23.428c-5.553 3.28-30.95 7.83-41.5 8.5M164 23.024s6.129 4.94 11 6.88c4.718 1.878 9.216 5.787 13 2.833.703-.549 1.5-1.62 1.5-1.62M173 23.024c4.659 5.629 8.582 6.623 18 4.451M36 35.974c33.458-3.191 50.516-5.95 78-12.546M55.5 40.426s32.612-12.817 54-10.118c13.579 1.714 18.921 9.21 32.5 10.928 8.874 1.123 14.219 1.53 23 0 6.77-1.18 9.6-5.741 16.5-5.262 4.624.322 11 3.643 11 3.643"/><path stroke="#414F54" d="M77.5 39.617s16.902-7.261 28-5.666c7.997 1.149 18.5 7.69 18.5 7.69"/><path stroke="#414F54" d="M111 40.831s-4.185-3.103-7.5-3.238c-3.664-.149-8.5 3.238-8.5 3.238M129.5 23.833s-2.805 1.93-3.5 3.642c-1.963 4.836 7.132 5.86 13 7.69 6.219 1.939 10.684 2.936 17 1.214 5.145-1.403 11.276-2.491 11-6.88-.285-4.523-12.5-5.666-12.5-5.666"/><path stroke="#414F54" d="M157 28.285c1.19-4.807-8.487-5.035-14.5-4.452-2.882.28-5.757-.1-7 2.024-.752 1.285-1.43 2.815 0 3.642 3.5 2.024 11 4.047 16 3.642 3.163-.256 4.876-2.333 5.5-4.856z"/><path fill="#fff" fill-opacity=".2" d="M38 24.238h157v4.047H38z"/><path fill="#BE8158" stroke="#414F54" stroke-width="4" d="M30 110h170v17.045H30z"/><path stroke="#414F54" d="M35.5 110.428c1.5 17.072 49.016 6.597 76.5 0M157 127s11.759-9.852 22-9c4.39.365 11 2.5 11 2.5"/><path stroke="#414F54" d="M192 118s-14.086-4.476-25.5-1.5c-9.073 2.366-25 10.5-25 10.5"/><path stroke="#414F54" d="M53.5 127.426s32.612-12.817 54-10.118c13.579 1.714 18.921 9.209 32.5 10.928 8.874 1.123 14.219 1.531 23 0 6.77-1.181 9.6-5.741 16.5-5.262 4.624.322 11 3.643 11 3.643M44 111s11.072 4.827 18.5 4.5c6.297-.277 15.5-4.5 15.5-4.5"/><path stroke="#414F54" d="M75.5 126.617s16.902-7.261 28-5.666c7.997 1.149 18.5 7.689 18.5 7.689"/><path stroke="#414F54" d="M109 127.831s-4.185-3.103-7.5-3.238c-3.664-.148-8.5 3.238-8.5 3.238"/><path fill="#fff" fill-opacity=".2" d="M36 112h157v4.047H36z"/><path fill="#BE8158" stroke="#414F54" stroke-width="4" d="M29 40h170v20.018H29z"/><path fill="#fff" fill-opacity=".2" d="M35 41.695h157v4.619H35z"/><path stroke="#414F54" d="M37 47.5s7.072 2.45 11.5 1.5c5.46-1.172 11.5-8.5 11.5-8.5"/><path stroke="#414F54" d="M36 53s8.285.771 13.5 0c6.536-.966 10.907-1.291 16-5.5C68.063 45.382 71 41 71 41M49 59.5s17.69-7.328 25.5-8.5l20-3c7.81-1.172 28.5 3 28.5 3s18.997 3.757 31 2c7.219-1.057 12.347-.388 18-5 2.576-2.102 5.5-6.5 5.5-6.5"/><path stroke="#414F54" d="M83.5 40s15.198 2.975 25 4.5c10.506 1.635 16.37 3.713 27 3.5 8.476-.17 13.44-.373 21.5-3 3.827-1.248 9.5-4 9.5-4"/><path stroke="#414F54" d="M111.5 41s10.003 2.176 16.5 3c4.279.542 6.787 1.926 11 1 3.411-.75 8-4 8-4M131.5 54.5s21.729 5.606 35.5 3.5c7.026-1.074 11.787-.772 17.5-5 2.999-2.219 6.5-7 6.5-7"/><path fill="#BE8158" stroke="#414F54" stroke-width="4" d="M27 128h170v20.018H27z"/><path stroke="#414F54" d="M54 128.771c-5.553 3.743-10.45 4.779-21 5.543M72 128.771c-5.553 3.743-30.95 8.936-41.5 9.7M31 143.09c33.458-3.642 50.516-6.791 78-14.319M50.5 148.171s32.612-14.628 54-11.548c13.579 1.956 18.921 10.51 32.5 12.471 8.874 1.282 14.219 1.748 23 0 6.77-1.347 9.6-6.551 16.5-6.004 4.624.367 11 4.157 11 4.157"/><path stroke="#414F54" d="M72.5 147.247s16.902-8.287 28-6.467c7.997 1.312 18.5 8.776 18.5 8.776"/><path stroke="#414F54" d="M106 148.632s-4.185-3.541-7.5-3.695c-3.664-.169-8.5 3.695-8.5 3.695M135.833 129s-2.106 1.437-2.628 2.712c-1.475 3.6 5.355 4.363 9.762 5.725 4.67 1.443 8.023 2.186 12.766.904 3.863-1.045 8.468-1.855 8.26-5.123-.214-3.367-9.387-4.218-9.387-4.218"/><path stroke="#414F54" d="M155.924 132.416c.902-3.509-6.43-3.675-10.986-3.25-2.184.204-4.362-.073-5.304 1.477-.57.939-1.083 2.056 0 2.66 2.652 1.477 8.335 2.954 12.123 2.659 2.396-.187 3.694-1.704 4.167-3.546z"/><path fill="#fff" fill-opacity=".2" d="M33 129.695h157v4.619H33z"/><path fill="#BE8158" stroke="#414F54" stroke-width="4" d="M32 7h170v14.829H32z"/><path stroke="#414F54" d="M67.5 8.5s-3.5 2.5-12 6-16.5 6-16.5 6M51 23.5L70 14c7.42-3.71 12.79-5.459 21.5-6.5 12.723-1.52 19.925 2.042 32.5 4.5 7.67 1.5 11.685 4.615 19.5 4.5 9.879-.145 14.126-7.674 24-8 8.383-.277 21 4.5 21 4.5"/><path stroke="#414F54" d="M71.5 22.5s12.803-7.742 22-9c12.674-1.734 19.331 5.226 32 7 9.314 1.305 14.764 3.774 24 2 8.237-1.582 11.163-8.087 19.5-9 7.918-.867 20 4 20 4"/><path fill="#fff" fill-opacity=".2" d="M38 7.897h157v3.621H38z"/><path fill="#FFBA00" stroke="#414F54" stroke-width="6" d="M18.17 3h22.005c.639 0 1.126.578 1.014 1.21C38.99 16.655 33.23 51.274 33 73.97c-.167 16.447 1.855 36.862 3.9 53.082a774.61 774.61 0 002.838 20.313c.28 1.821.526 3.382.728 4.635h-23.92c-.228-1.404-.54-3.357-.91-5.752a881.085 881.085 0 01-2.911-20.506C10.602 109.387 8.5 89.299 8.5 74c0-27.643 6.567-60.248 8.745-70.288.086-.398.44-.712.925-.712z"/><path fill="#fff" fill-opacity=".3" d="M26.5 149C16.891 84.12 16 57.568 29 6h-9s-10 42.5-8.5 78c1.079 25.53 7.5 65 7.5 65h7.5z"/><path fill="#FFBA00" stroke="#414F54" stroke-width="6" d="M210.83 3h-22.005a1.03 1.03 0 00-1.014 1.21c2.198 12.444 7.959 47.063 8.189 69.76.167 16.447-1.855 36.862-3.9 53.082a779.983 779.983 0 01-2.838 20.313c-.28 1.821-.526 3.382-.728 4.635h23.92c.228-1.404.54-3.357.909-5.752a883.188 883.188 0 002.912-20.506C218.398 109.387 220.5 89.299 220.5 74c0-27.643-6.567-60.248-8.745-70.288-.086-.398-.441-.712-.925-.712z"/><path fill="#fff" fill-opacity=".3" d="M201.5 6c9.609 64.88 10.5 91.432-2.5 143h11s6.5-35 7.5-74c.655-25.544-8.5-69-8.5-69h-7.5z"/><mask id="a" fill="#fff"><rect width="228" height="28" y="60" rx="4"/></mask><rect width="228" height="28" y="60" fill="#FFBA00" stroke="#414F54" stroke-width="12" mask="url(#a)" rx="4"/><path fill="#fff" fill-opacity=".4" d="M6 66h216v4H6z"/><mask id="b" fill="#fff"><rect width="228" height="28" y="84" rx="4"/></mask><rect width="228" height="28" y="84" fill="#FFBA00" stroke="#414F54" stroke-width="12" mask="url(#b)" rx="4"/><path fill="#fff" fill-opacity=".4" d="M6 90h216v4H6zM14.5 156h199l-.5 4H15l-.5-4z"/><circle cx="112" cy="86" r="35" fill="#FFBA00" stroke="#414F54" stroke-width="6"/><path stroke="#414F54" d="M111 129s14.082 6.989 23.5 10.5c6.538 2.438 10.027 5.252 17 5.5 9.071.323 13.766-3.68 22-7.5 4.835-2.243 6.716-5.803 12-6.5 1.936-.255 5 0 5 0"/><path fill="#806236" fill-rule="evenodd" d="M115.435 89.55c2.7-1.312 4.565-4.123 4.565-7.38 0-4.512-3.582-8.17-8-8.17s-8 3.658-8 8.17c0 3.257 1.865 6.068 4.565 7.38L104 98h16l-4.565-8.45z" clip-rule="evenodd"/><path fill="#414F54" d="M115.435 89.55l-.437-.898-.938.456.496.918.879-.475zm-6.87 0l.879.476.496-.918-.938-.457-.437.9zM104 98l-.88-.475-.797 1.475H104v-1zm16 0v1h1.677l-.797-1.475L120 98zm-1-15.83c0 2.868-1.642 5.334-4.002 6.481l.875 1.8c3.038-1.478 5.127-4.636 5.127-8.28h-2zM112 75c3.846 0 7 3.19 7 7.17h2c0-5.044-4.01-9.17-9-9.17v2zm-7 7.17c0-3.98 3.154-7.17 7-7.17v-2c-4.99 0-9 4.126-9 9.17h2zm4.002 6.481c-2.36-1.147-4.002-3.613-4.002-6.48h-2c0 3.644 2.089 6.802 5.127 8.28l.875-1.8zm-4.122 9.824l4.564-8.449-1.759-.95-4.565 8.449 1.76.95zM120 97h-16v2h16v-2zm-5.444-6.974l4.564 8.45 1.76-.951-4.565-8.45-1.759.951z"/><circle cx="133" cy="86" r="2" fill="#FFBA00" stroke="#414F54" stroke-width="2"/><circle cx="89" cy="86" r="2" fill="#FFBA00" stroke="#414F54" stroke-width="2"/><path fill="#fff" fill-opacity=".4" d="M84 79.5c-4.5 22 13.5 35 13.5 35-2.5 0-22-14.432-16.5-35.5 2.19-8.39 9.1-17 14.5-20 9-5 13-4 13-4S87.345 63.148 84 79.5z"/></svg>