<svg xmlns="http://www.w3.org/2000/svg" xmlns:xlink="http://www.w3.org/1999/xlink" viewBox="0 0 190 190"><path fill="#929191" d="M136.6 85.48c-2.1-.6-4.35.25-6.34 2.11.8-30.62-16.96-45.25-34.94-45.25-18.03 0-34.99 14.47-34.83 45.56-2.28-2.06-4.83-2.93-7.07-2.09-4.32 1.63-5.83 8.97-3.37 16.4 2.46 7.43 7.95 12.13 12.27 10.5a5.54 5.54 0 0 0 2.28-1.69c3.67 9.38 9.38 16.38 15.37 20.9v15.82h30.85v-16.27c5.94-4.76 11.58-12.05 15.24-21.64.9 1.62 2.14 2.78 3.67 3.21 4.42 1.26 9.54-3.9 11.44-11.5 1.9-7.62-.16-14.8-4.58-16.06z"/><path fill="#FFD79D" d="M125.13 96.84c1.9-7.6 7.02-12.76 11.45-11.5 4.42 1.25 6.47 8.44 4.57 16.06-1.9 7.61-7.02 12.76-11.44 11.5-4.42-1.25-6.48-8.44-4.58-16.06z"/><path fill="#D9B580" d="M127.04 98.42c1.21-4.87 4.5-8.16 7.32-7.36 2.83.8 4.15 5.4 2.93 10.28-1.21 4.87-4.5 8.17-7.32 7.36-2.83-.8-4.14-5.4-2.93-10.28z"/><path fill="#FFD79D" d="M65.67 96.17c-2.46-7.43-7.95-12.13-12.27-10.5-4.31 1.63-5.82 8.97-3.36 16.4 2.45 7.43 7.94 12.13 12.26 10.5 4.31-1.63 5.82-8.97 3.37-16.4z"/><path fill="#D9B580" d="M63.88 97.9c-1.57-4.75-5.08-7.75-7.85-6.71-2.76 1.04-3.72 5.74-2.15 10.5 1.57 4.75 5.09 7.75 7.85 6.71s3.72-5.74 2.15-10.5z"/><linearGradient id="a" x1="95.38" x2="95.38" y1="150.75" y2="132.85" gradientUnits="userSpaceOnUse"><stop offset=".28" stop-color="#ffd79d"/><stop offset="1" stop-color="#cca368"/></linearGradient><path fill="url(#a)" d="M79.95 127.67h30.85v19.93H79.95z"/><path fill="#FFD79D" d="M60.57 91.6c-1.64-33.74 15.97-49.4 34.74-49.4 18.77 0 37.32 15.95 34.73 49.4-2.3 29.6-22.18 46.25-34.73 46.25-12.55 0-33.26-15.96-34.74-46.24z"/><g><path fill="#B28E57" d="M89 111.19c.54 1.52 4.98 3.7 6.37 3.7s5.84-2.18 6.39-3.7c-1.87.56-3.82 1.2-6.39 1.2-2.55 0-4.37-.61-6.38-1.2z"/></g><g><path fill="#D9914E" d="M106.57 120.65c-1.98 4.75-6.34 8.03-11.28 8.03-4.95 0-9.12-3.28-11.1-8.03 0 0 5.26.3 11.1.3 5.83 0 11.28-.3 11.28-.3z"/><path fill="none" stroke="#906135" stroke-miterlimit="10" d="M84.5 121s4.62 2.25 10.63 2.25c6 0 11.12-2.3 11.12-2.3" stroke-linecap="round" stroke-linejoin="round"/></g><g><path fill="#ECF7FB" d="M87.08 95.21c-.12-.23-2.77-5.59-9.32-6.1-5.4-.42-8.26 2.93-8.37 3.06a.46.46 0 0 0-.04.55c.12.19 3.03 3.3 8.39 3.88.49.06.99.08 1.49.08 4.52 0 7.57-.8 7.7-.9a.47.47 0 0 0 .15-.57z"/><defs><path id="b" d="M77.76 89.17c-5.39-.42-8.23 2.9-8.34 3.04a.4.4 0 0 0-.04.48c.12.19 3.02 3.28 8.36 3.86.5.05 1 .08 1.48.08 4.52 0 7.56-.8 7.69-.89a.41.41 0 0 0 .13-.5 11.57 11.57 0 0 0-9.28-6.07z"/></defs><clipPath id="c"><use xlink:href="#b" overflow="visible"/></clipPath><g clip-path="url(#c)"><radialGradient id="d" cx="75.34" cy="93.05" r="4.01" gradientTransform="matrix(1.028 0 0 1 1.32 0)" gradientUnits="userSpaceOnUse"><stop offset="0" stop-color="#7b573e"/><stop offset="1" stop-color="#503627"/></radialGradient><ellipse cx="78.78" cy="93.05" fill="url(#d)" rx="4.12" ry="4.01"/><radialGradient id="e" cx="75.34" cy="93.05" r="1.83" gradientTransform="matrix(1.028 0 0 1 1.32 0)" gradientUnits="userSpaceOnUse"><stop offset=".72" stop-color="#010101"/><stop offset="1" stop-color="#5a4524"/></radialGradient><ellipse cx="78.78" cy="93.05" fill="url(#e)" rx="1.89" ry="1.83"/></g><path fill="#ECF7FB" d="M121.23 92.17a10.13 10.13 0 0 0-8.38-3.06c-6.54.51-9.2 5.87-9.31 6.1-.1.2-.04.44.15.58.12.1 3.17.9 7.7.9.5 0 1-.03 1.49-.09 5.36-.58 8.26-3.7 8.38-3.88.11-.18.1-.4-.03-.55z"/><g><defs><path id="f" d="M121.2 92.2c-.11-.12-2.96-3.45-8.34-3.03-6.53.5-9.18 5.84-9.28 6.07a.4.4 0 0 0 .13.5c.13.1 3.16.9 7.68.9.5 0 1-.04 1.48-.09 5.35-.58 8.24-3.67 8.36-3.86a.4.4 0 0 0-.03-.48z"/></defs><clipPath id="g"><use xlink:href="#f" overflow="visible"/></clipPath><g clip-path="url(#g)"><radialGradient id="h" cx="-238" cy="93.05" r="4.01" gradientTransform="matrix(-1.028 0 0 1 -132.82 0)" gradientUnits="userSpaceOnUse"><stop offset="0" stop-color="#7b573e"/><stop offset="1" stop-color="#503627"/></radialGradient><ellipse cx="111.84" cy="93.05" fill="url(#h)" rx="4.12" ry="4.01"/><radialGradient id="i" cx="-238" cy="93.05" r="1.83" gradientTransform="matrix(-1.028 0 0 1 -132.82 0)" gradientUnits="userSpaceOnUse"><stop offset=".72" stop-color="#010101"/><stop offset="1" stop-color="#5a4524"/></radialGradient><ellipse cx="111.84" cy="93.05" fill="url(#i)" rx="1.89" ry="1.83"/></g></g></g><g><path fill="#31302A" d="M76.64 83.76c5.13.74 9.31 2.21 13.03 4.27-2.8-3.46-5.98-5.33-11.37-6.45-4.18-.87-9.64-1.33-13.59 4.6 2.17-1.53 6.42-3.22 11.93-2.42zM114.1 83.76c-5.12.74-9.3 2.21-13.02 4.27 2.8-3.46 5.98-5.33 11.38-6.45 4.17-.87 9.64-1.33 13.58 4.6-2.18-1.53-6.41-3.22-11.94-2.42z"/></g><g fill="#31302A"><path d="M64.58 110.88a5.53 5.53 0 0 1-2.28 1.68c-1.69.64-3.55.3-5.35-.78l8.47 30.5h14.53v-10.51c-5.99-4.51-11.7-11.51-15.37-20.9zM129.7 112.9c-1.52-.44-2.76-1.6-3.65-3.21-3.67 9.58-9.3 16.88-15.25 21.64v10.95h14.52l8.28-29.8a5.5 5.5 0 0 1-3.9.42zM104.9 32.18c-26.08-5.71-51.48 8.07-56.75 30.79a37.38 37.38 0 0 0 .44 18.52h-.04l1.9 6.83a5.66 5.66 0 0 1 2.96-2.65c2.23-.85 4.78.02 7.07 2.08-.01-2.17.06-4.25.2-6.26.8-10.56 3.74-18.9 8.04-25.13-.68 8.64 7 18.8 19.34 25.13 1.06.55 2.15 1.07 3.28 1.55 8.5 3.64 17.14 4.76 24.14 3.61a50.57 50.57 0 0 1-15.98-5.16 46.19 46.19 0 0 1-11.27-8.01 73.1 73.1 0 0 0 19.7 8.01c8.38 2.04 16.22 2.25 22.27.7.08 1.7.09 3.45.04 5.26 2-1.86 4.24-2.71 6.33-2.12 1.53.44 2.77 1.6 3.67 3.22.17.31.33.63.47.97a37.47 37.47 0 0 0 1.88-5.85c5.26-22.72-11.61-45.77-37.69-51.49z"/></g><path fill="none" d="M179.83-.53H10.17a10.7 10.7 0 0 0-10.7 10.7v169.66c0 5.9 4.8 10.7 10.7 10.7h169.66c5.9 0 10.7-4.8 10.7-10.7V10.17c0-5.9-4.8-10.7-10.7-10.7z"/></svg>