<svg xmlns="http://www.w3.org/2000/svg" xmlns:xlink="http://www.w3.org/1999/xlink" viewBox="0 0 190 190"><path fill="#929191" d="M136.6 85.48c-2.1-.6-4.35.25-6.34 2.11.8-30.62-16.96-45.25-34.94-45.25-18.03 0-34.99 14.47-34.83 45.56-2.28-2.06-4.83-2.93-7.07-2.09-4.32 1.63-5.83 8.97-3.37 16.4 2.46 7.43 7.95 12.13 12.27 10.5a5.54 5.54 0 0 0 2.28-1.69c3.67 9.38 9.38 16.38 15.37 20.9v15.82h30.85v-16.27c5.94-4.76 11.58-12.05 15.24-21.64.9 1.62 2.14 2.78 3.67 3.21 4.42 1.26 9.54-3.9 11.44-11.5 1.9-7.62-.16-14.8-4.58-16.06z"/><path fill="#9C6A4A" d="M125.13 96.84c1.9-7.6 7.02-12.76 11.45-11.5 4.42 1.25 6.47 8.44 4.57 16.06-1.9 7.61-7.02 12.76-11.44 11.5-4.42-1.25-6.48-8.44-4.58-16.06z"/><path fill="#805538" d="M127.04 98.42c1.21-4.87 4.5-8.16 7.32-7.36 2.83.8 4.15 5.4 2.93 10.28-1.21 4.87-4.5 8.17-7.32 7.36-2.83-.8-4.14-5.4-2.93-10.28z"/><path fill="#9C6A4A" d="M65.67 96.17c-2.46-7.43-7.95-12.13-12.27-10.5-4.31 1.63-5.82 8.97-3.36 16.4 2.45 7.43 7.94 12.13 12.26 10.5 4.31-1.63 5.82-8.97 3.37-16.4z"/><path fill="#805538" d="M63.88 97.9c-1.57-4.75-5.08-7.75-7.85-6.71-2.76 1.04-3.72 5.74-2.15 10.5 1.57 4.75 5.09 7.75 7.85 6.71s3.72-5.74 2.15-10.5z"/><linearGradient id="s" x1="95.38" x2="95.38" y1="150.75" y2="132.85" gradientUnits="userSpaceOnUse"><stop offset=".31" stop-color="#9c6a4a"/><stop offset="1" stop-color="#6e4a34"/></linearGradient><path fill="url(#s)" d="M79.95 127.67h30.85v19.93H79.95z"/><path fill="#9C6A4A" d="M60.57 91.6c-1.64-33.74 15.97-49.4 34.74-49.4 18.77 0 37.32 15.95 34.73 49.4-2.3 29.6-22.18 46.25-34.73 46.25-12.55 0-33.26-15.96-34.74-46.24z"/><g><path fill="#7A543A" d="M89 111.19c.54 1.52 4.98 3.7 6.37 3.7s5.84-2.18 6.39-3.7c-1.87.56-3.82 1.2-6.39 1.2-2.55 0-4.37-.61-6.38-1.2z"/></g><g><path fill="#834F2F" d="M106.57 120.65c-1.98 4.75-6.34 8.03-11.28 8.03-4.95 0-9.12-3.28-11.1-8.03 0 0 5.26.3 11.1.3 5.83 0 11.28-.3 11.28-.3z"/><path fill="none" stroke="#553727" stroke-miterlimit="10" d="M84.5 121s4.62 2.25 10.63 2.25c6 0 11.12-2.3 11.12-2.3" stroke-linecap="round" stroke-linejoin="round"/></g><g><path fill="#ECF7FB" d="M87.08 95.34c-.11-.24-2.77-5.9-9.32-6.44a9.87 9.87 0 0 0-8.37 3.23.5.5 0 0 0-.04.58c.12.2 3.03 5 8.39 5.61a13.29 13.29 0 0 0 9.19-2.38.5.5 0 0 0 .15-.6z"/><defs><path id="t" d="M77.76 88.96a9.82 9.82 0 0 0-8.34 3.21.44.44 0 0 0-.04.5c.12.2 3.02 4.98 8.36 5.6a13.26 13.26 0 0 0 9.17-2.37.45.45 0 0 0 .13-.53c-.11-.24-2.75-5.87-9.28-6.41z"/></defs><clipPath id="u"><use xlink:href="#t" overflow="visible"/></clipPath><g clip-path="url(#u)"><radialGradient id="v" cx="75.34" cy="93.05" r="4.01" gradientTransform="matrix(1.028 0 0 1 1.32 0)" gradientUnits="userSpaceOnUse"><stop offset="0" stop-color="#7b573e"/><stop offset="1" stop-color="#503627"/></radialGradient><ellipse cx="78.78" cy="93.05" fill="url(#v)" rx="4.12" ry="4.01"/><radialGradient id="w" cx="75.34" cy="93.05" r="1.83" gradientTransform="matrix(1.028 0 0 1 1.32 0)" gradientUnits="userSpaceOnUse"><stop offset=".72" stop-color="#010101"/><stop offset="1" stop-color="#5a4524"/></radialGradient><ellipse cx="78.78" cy="93.05" fill="url(#w)" rx="1.89" ry="1.83"/></g><path fill="#ECF7FB" d="M121.23 92.13a9.9 9.9 0 0 0-8.38-3.23c-6.54.54-9.2 6.2-9.31 6.44a.5.5 0 0 0 .15.6 13.3 13.3 0 0 0 9.19 2.38c5.36-.62 8.26-5.41 8.38-5.61a.5.5 0 0 0-.03-.58z"/><g><defs><path id="x" d="M121.2 92.17a9.82 9.82 0 0 0-8.34-3.21c-6.53.54-9.18 6.17-9.28 6.4-.1.2-.04.41.13.54.13.1 3.16 2.45 7.68 2.45.5 0 1-.02 1.48-.08 5.35-.62 8.24-5.4 8.36-5.6a.44.44 0 0 0-.03-.5z"/></defs><clipPath id="y"><use xlink:href="#x" overflow="visible"/></clipPath><g clip-path="url(#y)"><radialGradient id="z" cx="-238" cy="93.05" r="4.01" gradientTransform="matrix(-1.028 0 0 1 -132.82 0)" gradientUnits="userSpaceOnUse"><stop offset="0" stop-color="#7b573e"/><stop offset="1" stop-color="#503627"/></radialGradient><ellipse cx="111.84" cy="93.05" fill="url(#z)" rx="4.12" ry="4.01"/><radialGradient id="A" cx="-238" cy="93.05" r="1.83" gradientTransform="matrix(-1.028 0 0 1 -132.82 0)" gradientUnits="userSpaceOnUse"><stop offset=".72" stop-color="#010101"/><stop offset="1" stop-color="#5a4524"/></radialGradient><ellipse cx="111.84" cy="93.05" fill="url(#A)" rx="1.89" ry="1.83"/></g></g></g><g><path fill="#31302A" d="M76.64 83.76c5.13.74 9.31 2.21 13.03 4.27-2.8-3.46-5.98-5.33-11.37-6.45-4.18-.87-9.64-1.33-13.59 4.6 2.17-1.53 6.42-3.22 11.93-2.42zM114.1 83.76c-5.12.74-9.3 2.21-13.02 4.27 2.8-3.46 5.98-5.33 11.38-6.45 4.17-.87 9.64-1.33 13.58 4.6-2.18-1.53-6.41-3.22-11.94-2.42z"/></g><path fill="#31302A" d="M139.48 54.47c-3.85-8.96-14.35-18.38-28.53-24.46-21.15-9.07-42.45-7.27-47.57 4.03-.21.47-.38.95-.53 1.43-6.96 4.5-11.94 10.83-13.72 18.48C46.56 65 51.2 76.36 60.53 85.1a63.83 63.83 0 0 1 2.4-16.28c2.6-1.14 5.4-3.06 8.1-5.63 3.9 5.5 10.36 10.64 18.47 14.12 8.5 3.65 14.11 3.82 21.12 2.67a39.28 39.28 0 0 1-11.22-3.15c-5.48-2.35-8.64-4.97-12.34-8.43 1.72.9 3.5 1.75 5.34 2.54 13.83 5.93 27.72 7.2 37.1 4.22.61 3.76.88 7.85.76 12.27 2-1.86 4.24-2.72 6.34-2.12.12.03.23.09.35.13a27.83 27.83 0 0 0 5.35-10.97c1.57-6.77.43-13.66-2.82-19.99z"/><g><g fill="#D95027"><circle cx="58.18" cy="114.16" r="3.58"/><circle cx="130.07" cy="114.16" r="3.58"/></g><path fill="#B24D9D" d="M132.1 82.5s-9.18-.78-13.4-.64c-4.2.14-16.77 3.17-19.1 3.38-2.07.2-4.56.27-5.12.29-.56-.02-3.05-.1-5.11-.29-2.34-.21-14.9-3.23-19.12-3.38-4.2-.14-13.39.65-13.39.65l.13 5.97s.62-.14 1.64 1.37c1.01 1.51 2.18 9.2 5.93 11.8 4.16 2.88 17.79 3.16 21.45.36 3.7-2.83 5.23-9 5.78-9.79.43-.63 1.98-.66 2.57-.65h.24c.59-.02 2.13.02 2.57.65.55.8 2.08 6.96 5.77 9.79 3.67 2.8 17.3 2.52 21.46-.36 3.75-2.6 4.92-10.29 5.93-11.8 1.01-1.51 1.64-1.37 1.64-1.37l.13-5.97zm-48.27 18.21c-2.42 2.23-12.64 1.66-17.4-1.15-4.76-2.8-5.16-10.58-2.5-13.3 1.4-1.45 3.38-2.09 9.52-1.6 8.97.73 14.2 2.38 15.22 5.48 1.01 3.09-2.42 8.34-4.84 10.57zm38.7-1.15c-4.76 2.81-14.98 3.39-17.4 1.15-2.42-2.23-5.85-7.48-4.84-10.57 1.02-3.1 6.25-4.75 15.22-5.47 6.14-.5 8.11.14 9.52 1.58 2.66 2.73 2.26 10.5-2.5 13.31z"/></g><path fill="none" d="M179.83-.53H10.17a10.7 10.7 0 0 0-10.7 10.7v169.66c0 5.9 4.8 10.7 10.7 10.7h169.66c5.9 0 10.7-4.8 10.7-10.7V10.17c0-5.9-4.8-10.7-10.7-10.7z"/></svg>