<svg xmlns="http://www.w3.org/2000/svg" xmlns:xlink="http://www.w3.org/1999/xlink" viewBox="0 0 190 190"><path fill="#929191" d="M136.6 85.48c-2.1-.6-4.35.25-6.34 2.11.8-30.62-16.96-45.25-34.94-45.25-18.03 0-34.99 14.47-34.83 45.56-2.28-2.06-4.83-2.93-7.07-2.09-4.32 1.63-5.83 8.97-3.37 16.4 2.46 7.43 7.95 12.13 12.27 10.5a5.54 5.54 0 0 0 2.28-1.69c3.67 9.38 9.38 16.38 15.37 20.9v15.82h30.85v-16.27c5.94-4.76 11.58-12.05 15.24-21.64.9 1.62 2.14 2.78 3.67 3.21 4.42 1.26 9.54-3.9 11.44-11.5 1.9-7.62-.16-14.8-4.58-16.06z"/><path fill="#FBC8A6" d="M125.13 96.84c1.9-7.6 7.02-12.76 11.45-11.5 4.42 1.25 6.47 8.44 4.57 16.06-1.9 7.61-7.02 12.76-11.44 11.5-4.42-1.25-6.48-8.44-4.58-16.06z"/><path fill="#E3AC8F" d="M127.04 98.42c1.21-4.87 4.5-8.16 7.32-7.36 2.83.8 4.15 5.4 2.93 10.28-1.21 4.87-4.5 8.17-7.32 7.36-2.83-.8-4.14-5.4-2.93-10.28z"/><path fill="#FBC8A6" d="M65.67 96.17c-2.46-7.43-7.95-12.13-12.27-10.5-4.31 1.63-5.82 8.97-3.36 16.4 2.45 7.43 7.94 12.13 12.26 10.5 4.31-1.63 5.82-8.97 3.37-16.4z"/><path fill="#E3AC8F" d="M63.88 97.9c-1.57-4.75-5.08-7.75-7.85-6.71-2.76 1.04-3.72 5.74-2.15 10.5 1.57 4.75 5.09 7.75 7.85 6.71s3.72-5.74 2.15-10.5z"/><linearGradient id="B" x1="95.38" x2="95.38" y1="150.75" y2="132.85" gradientUnits="userSpaceOnUse"><stop offset=".47" stop-color="#fbc8a6"/><stop offset="1" stop-color="#e3ac8f"/></linearGradient><path fill="url(#B)" d="M79.95 127.67h30.85v19.93H79.95z"/><path fill="#FBC8A6" d="M60.57 91.6c-1.64-33.74 15.97-49.4 34.74-49.4 18.77 0 37.32 15.95 34.73 49.4-2.3 29.6-22.18 46.25-34.73 46.25-12.55 0-33.26-15.96-34.74-46.24z"/><g><path fill="#D5A384" d="M89 111.19c.54 1.52 4.98 3.7 6.37 3.7s5.84-2.18 6.39-3.7c-1.87.56-3.82 1.2-6.39 1.2-2.55 0-4.37-.61-6.38-1.2z"/></g><g><path fill="#CD7257" d="M106.57 120.65c-1.98 4.75-6.34 8.03-11.28 8.03-4.95 0-9.12-3.28-11.1-8.03 0 0 5.26.3 11.1.3 5.83 0 11.28-.3 11.28-.3z"/><path fill="none" stroke="#984834" stroke-miterlimit="10" d="M84.5 121s4.62 2.25 10.63 2.25c6 0 11.12-2.3 11.12-2.3" stroke-linecap="round" stroke-linejoin="round"/></g><g><path fill="#ECF7FB" d="M87.08 95.34c-.11-.24-2.77-5.9-9.32-6.44a9.87 9.87 0 0 0-8.37 3.23.5.5 0 0 0-.04.58c.12.2 3.03 5 8.39 5.61a13.29 13.29 0 0 0 9.19-2.38.5.5 0 0 0 .15-.6z"/><defs><path id="C" d="M77.76 88.96a9.82 9.82 0 0 0-8.34 3.21.44.44 0 0 0-.04.5c.12.2 3.02 4.98 8.36 5.6a13.26 13.26 0 0 0 9.17-2.37.45.45 0 0 0 .13-.53c-.11-.24-2.75-5.87-9.28-6.41z"/></defs><clipPath id="D"><use xlink:href="#C" overflow="visible"/></clipPath><g clip-path="url(#D)"><radialGradient id="E" cx="75.34" cy="93.05" r="4.01" gradientTransform="matrix(1.028 0 0 1 1.32 0)" gradientUnits="userSpaceOnUse"><stop offset="0" stop-color="#7b573e"/><stop offset="1" stop-color="#503627"/></radialGradient><ellipse cx="78.78" cy="93.05" fill="url(#E)" rx="4.12" ry="4.01"/><radialGradient id="F" cx="75.34" cy="93.05" r="1.83" gradientTransform="matrix(1.028 0 0 1 1.32 0)" gradientUnits="userSpaceOnUse"><stop offset=".72" stop-color="#010101"/><stop offset="1" stop-color="#5a4524"/></radialGradient><ellipse cx="78.78" cy="93.05" fill="url(#F)" rx="1.89" ry="1.83"/></g><path fill="#ECF7FB" d="M121.23 92.13a9.9 9.9 0 0 0-8.38-3.23c-6.54.54-9.2 6.2-9.31 6.44a.5.5 0 0 0 .15.6 13.3 13.3 0 0 0 9.19 2.38c5.36-.62 8.26-5.41 8.38-5.61a.5.5 0 0 0-.03-.58z"/><g><defs><path id="G" d="M121.2 92.17a9.82 9.82 0 0 0-8.34-3.21c-6.53.54-9.18 6.17-9.28 6.4-.1.2-.04.41.13.54.13.1 3.16 2.45 7.68 2.45.5 0 1-.02 1.48-.08 5.35-.62 8.24-5.4 8.36-5.6a.44.44 0 0 0-.03-.5z"/></defs><clipPath id="H"><use xlink:href="#G" overflow="visible"/></clipPath><g clip-path="url(#H)"><radialGradient id="I" cx="-238" cy="93.05" r="4.01" gradientTransform="matrix(-1.028 0 0 1 -132.82 0)" gradientUnits="userSpaceOnUse"><stop offset="0" stop-color="#7b573e"/><stop offset="1" stop-color="#503627"/></radialGradient><ellipse cx="111.84" cy="93.05" fill="url(#I)" rx="4.12" ry="4.01"/><radialGradient id="J" cx="-238" cy="93.05" r="1.83" gradientTransform="matrix(-1.028 0 0 1 -132.82 0)" gradientUnits="userSpaceOnUse"><stop offset=".72" stop-color="#010101"/><stop offset="1" stop-color="#5a4524"/></radialGradient><ellipse cx="111.84" cy="93.05" fill="url(#J)" rx="1.89" ry="1.83"/></g></g></g><g><path fill="#7A5234" d="M76.64 83.76c5.13.74 9.31 2.21 13.03 4.27-2.8-3.46-5.98-5.33-11.37-6.45-4.18-.87-9.64-1.33-13.59 4.6 2.17-1.53 6.42-3.22 11.93-2.42zM114.1 83.76c-5.12.74-9.3 2.21-13.02 4.27 2.8-3.46 5.98-5.33 11.38-6.45 4.17-.87 9.64-1.33 13.58 4.6-2.18-1.53-6.41-3.22-11.94-2.42z"/><g fill="#7A5234"><path d="M64.55 110.83a5.53 5.53 0 0 1-2.29 1.69c-3.16 1.19-6.94-1.02-9.71-5.2l4.75 30.08c-.17.61-.4 1.22-.62 1.73-.6 1.54-1.58 2.94-3.87 2.64a3.4 3.4 0 0 1-.57-.1 4.31 4.31 0 0 1-2.27-1.6 5.5 5.5 0 0 1-.99-4 .5.5 0 0 0-.35-.54.52.52 0 0 0-.6.25 7.63 7.63 0 0 0-.58 5.54 8.1 8.1 0 0 0 3.74 4.87 10.3 10.3 0 0 0 7.65 1.03l21.07.1v-15.6c-5.98-4.51-11.7-11.51-15.36-20.89zM138.29 135.93a.51.51 0 0 0-.4.5 5.5 5.5 0 0 1-1.45 3.96 4.78 4.78 0 0 1-3.22 1.55c-2 .14-2.34-.8-2.63-1.97l3.63-27.9a5.78 5.78 0 0 1-4.55.78c-1.52-.44-2.76-1.59-3.66-3.21-3.66 9.58-9.3 16.88-15.24 21.64v16.17l18.84.1v-.02a11.37 11.37 0 0 0 4.9-1.05 8.69 8.69 0 0 0 4.41-4.65 7.3 7.3 0 0 0-.06-5.62.5.5 0 0 0-.57-.28zM101.24 75c-.9-.39-1.78-.8-2.65-1.23a47.62 47.62 0 0 1-10.37-6.9c1.82.97 3.72 1.9 5.7 2.74a71.36 71.36 0 0 0 14.44 4.5c6.12 1.19 11.85 1.37 16.7.58l4.35.15c.63 3.83.92 8.03.8 12.56 1.73-1.61 3.65-2.47 5.5-2.28a4.98 4.98 0 0 1 1.94.64l1.37-10.59h-.14a43.11 43.11 0 0 0 .53-12.4c.26-2.6-.33-5.4-1.65-8.23-5.5-17.91-22.48-31.1-43.01-31.52-25.57-.52-46.94 19-47.73 43.59a42.9 42.9 0 0 0 .18 5.38l-.23-.01 2.78 17.6a8 8 0 0 1 1.67-2.66 5.39 5.39 0 0 1 1.94-1.3c2.24-.85 4.8.02 7.08 2.08-.03-5.6.5-10.67 1.49-15.2a52.6 52.6 0 0 1 1.74-6.18 29.54 29.54 0 0 0 7.65-5.45c3.33 4.7 8.51 9.11 14.99 12.47 1.12.59 2.29 1.14 3.49 1.66 8.5 3.64 17.14 4.76 24.14 3.6a50.44 50.44 0 0 1-12.7-3.6z"/></g></g><g><g fill="#D95027"><circle cx="58.18" cy="114.16" r="3.58"/><circle cx="130.07" cy="114.16" r="3.58"/></g><path fill="#B24D9D" d="M132.1 82.5s-9.18-.78-13.4-.64c-4.2.14-16.77 3.17-19.1 3.38-2.07.2-4.56.27-5.12.29-.56-.02-3.05-.1-5.11-.29-2.34-.21-14.9-3.23-19.12-3.38-4.2-.14-13.39.65-13.39.65l.13 5.97s.62-.14 1.64 1.37c1.01 1.51 2.18 9.2 5.93 11.8 4.16 2.88 17.79 3.16 21.45.36 3.7-2.83 5.23-9 5.78-9.79.43-.63 1.98-.66 2.57-.65h.24c.59-.02 2.13.02 2.57.65.55.8 2.08 6.96 5.77 9.79 3.67 2.8 17.3 2.52 21.46-.36 3.75-2.6 4.92-10.29 5.93-11.8 1.01-1.51 1.64-1.37 1.64-1.37l.13-5.97zm-48.27 18.21c-2.42 2.23-12.64 1.66-17.4-1.15-4.76-2.8-5.16-10.58-2.5-13.3 1.4-1.45 3.38-2.09 9.52-1.6 8.97.73 14.2 2.38 15.22 5.48 1.01 3.09-2.42 8.34-4.84 10.57zm38.7-1.15c-4.76 2.81-14.98 3.39-17.4 1.15-2.42-2.23-5.85-7.48-4.84-10.57 1.02-3.1 6.25-4.75 15.22-5.47 6.14-.5 8.11.14 9.52 1.58 2.66 2.73 2.26 10.5-2.5 13.31z"/></g><path fill="none" d="M179.83-.53H10.17a10.7 10.7 0 0 0-10.7 10.7v169.66c0 5.9 4.8 10.7 10.7 10.7h169.66c5.9 0 10.7-4.8 10.7-10.7V10.17c0-5.9-4.8-10.7-10.7-10.7z"/></svg>