<svg xmlns="http://www.w3.org/2000/svg" xmlns:xlink="http://www.w3.org/1999/xlink" viewBox="0 0 190 190"><path fill="#929191" d="M136.6 85.48c-2.1-.6-4.35.25-6.34 2.11.8-30.62-16.96-45.25-34.94-45.25-18.03 0-34.99 14.47-34.83 45.56-2.28-2.06-4.83-2.93-7.07-2.09-4.32 1.63-5.83 8.97-3.37 16.4 2.46 7.43 7.95 12.13 12.27 10.5a5.54 5.54 0 0 0 2.28-1.69c3.67 9.38 9.38 16.38 15.37 20.9v15.82h30.85v-16.27c5.94-4.76 11.58-12.05 15.24-21.64.9 1.62 2.14 2.78 3.67 3.21 4.42 1.26 9.54-3.9 11.44-11.5 1.9-7.62-.16-14.8-4.58-16.06z"/><path fill="#D09C70" d="M125.13 96.84c1.9-7.6 7.02-12.76 11.45-11.5 4.42 1.25 6.47 8.44 4.57 16.06-1.9 7.61-7.02 12.76-11.44 11.5-4.42-1.25-6.48-8.44-4.58-16.06z"/><path fill="#AB7E55" d="M127.04 98.42c1.21-4.87 4.5-8.16 7.32-7.36 2.83.8 4.15 5.4 2.93 10.28-1.21 4.87-4.5 8.17-7.32 7.36-2.83-.8-4.14-5.4-2.93-10.28z"/><path fill="#D09C70" d="M65.67 96.17c-2.46-7.43-7.95-12.13-12.27-10.5-4.31 1.63-5.82 8.97-3.36 16.4 2.45 7.43 7.94 12.13 12.26 10.5 4.31-1.63 5.82-8.97 3.37-16.4z"/><path fill="#AB7E55" d="M63.88 97.9c-1.57-4.75-5.08-7.75-7.85-6.71-2.76 1.04-3.72 5.74-2.15 10.5 1.57 4.75 5.09 7.75 7.85 6.71s3.72-5.74 2.15-10.5z"/><linearGradient id="j" x1="95.38" x2="95.38" y1="150.75" y2="132.85" gradientUnits="userSpaceOnUse"><stop offset=".26" stop-color="#dea878"/><stop offset="1" stop-color="#a67a55"/></linearGradient><path fill="url(#j)" d="M79.95 127.67h30.85v19.93H79.95z"/><path fill="#D09C70" d="M60.57 91.6c-1.64-33.74 15.97-49.4 34.74-49.4 18.77 0 37.32 15.95 34.73 49.4-2.3 29.6-22.18 46.25-34.73 46.25-12.55 0-33.26-15.96-34.74-46.24z"/><g><path fill="#A1774F" d="M89 111.19c.54 1.52 4.98 3.7 6.37 3.7s5.84-2.18 6.39-3.7c-1.87.56-3.82 1.2-6.39 1.2-2.55 0-4.37-.61-6.38-1.2z"/></g><g><path fill="#BA7747" d="M106.57 120.65c-1.98 4.75-6.34 8.03-11.28 8.03-4.95 0-9.12-3.28-11.1-8.03 0 0 5.26.3 11.1.3 5.83 0 11.28-.3 11.28-.3z"/><path fill="none" stroke="#885E45" stroke-miterlimit="10" d="M84.5 121s4.62 2.25 10.63 2.25c6 0 11.12-2.3 11.12-2.3" stroke-linecap="round" stroke-linejoin="round"/></g><g><path fill="#ECF7FB" d="M87.08 95.34c-.11-.24-2.77-5.9-9.32-6.44a9.87 9.87 0 0 0-8.37 3.23.5.5 0 0 0-.04.58c.12.2 3.03 5 8.39 5.61a13.29 13.29 0 0 0 9.19-2.38.5.5 0 0 0 .15-.6z"/><defs><path id="k" d="M77.76 88.96a9.82 9.82 0 0 0-8.34 3.21.44.44 0 0 0-.04.5c.12.2 3.02 4.98 8.36 5.6a13.26 13.26 0 0 0 9.17-2.37.45.45 0 0 0 .13-.53c-.11-.24-2.75-5.87-9.28-6.41z"/></defs><clipPath id="l"><use xlink:href="#k" overflow="visible"/></clipPath><g clip-path="url(#l)"><radialGradient id="m" cx="75.34" cy="93.05" r="4.01" gradientTransform="matrix(1.028 0 0 1 1.32 0)" gradientUnits="userSpaceOnUse"><stop offset="0" stop-color="#7b573e"/><stop offset="1" stop-color="#503627"/></radialGradient><ellipse cx="78.78" cy="93.05" fill="url(#m)" rx="4.12" ry="4.01"/><radialGradient id="n" cx="75.34" cy="93.05" r="1.83" gradientTransform="matrix(1.028 0 0 1 1.32 0)" gradientUnits="userSpaceOnUse"><stop offset=".72" stop-color="#010101"/><stop offset="1" stop-color="#5a4524"/></radialGradient><ellipse cx="78.78" cy="93.05" fill="url(#n)" rx="1.89" ry="1.83"/></g><path fill="#ECF7FB" d="M121.23 92.13a9.9 9.9 0 0 0-8.38-3.23c-6.54.54-9.2 6.2-9.31 6.44a.5.5 0 0 0 .15.6 13.3 13.3 0 0 0 9.19 2.38c5.36-.62 8.26-5.41 8.38-5.61a.5.5 0 0 0-.03-.58z"/><g><defs><path id="o" d="M121.2 92.17a9.82 9.82 0 0 0-8.34-3.21c-6.53.54-9.18 6.17-9.28 6.4-.1.2-.04.41.13.54.13.1 3.16 2.45 7.68 2.45.5 0 1-.02 1.48-.08 5.35-.62 8.24-5.4 8.36-5.6a.44.44 0 0 0-.03-.5z"/></defs><clipPath id="p"><use xlink:href="#o" overflow="visible"/></clipPath><g clip-path="url(#p)"><radialGradient id="q" cx="-238" cy="93.05" r="4.01" gradientTransform="matrix(-1.028 0 0 1 -132.82 0)" gradientUnits="userSpaceOnUse"><stop offset="0" stop-color="#7b573e"/><stop offset="1" stop-color="#503627"/></radialGradient><ellipse cx="111.84" cy="93.05" fill="url(#q)" rx="4.12" ry="4.01"/><radialGradient id="r" cx="-238" cy="93.05" r="1.83" gradientTransform="matrix(-1.028 0 0 1 -132.82 0)" gradientUnits="userSpaceOnUse"><stop offset=".72" stop-color="#010101"/><stop offset="1" stop-color="#5a4524"/></radialGradient><ellipse cx="111.84" cy="93.05" fill="url(#r)" rx="1.89" ry="1.83"/></g></g></g><g><path fill="#31302A" d="M76.64 83.76c5.13.74 9.31 2.21 13.03 4.27-2.8-3.46-5.98-5.33-11.37-6.45-4.18-.87-9.64-1.33-13.59 4.6 2.17-1.53 6.42-3.22 11.93-2.42zM114.1 83.76c-5.12.74-9.3 2.21-13.02 4.27 2.8-3.46 5.98-5.33 11.38-6.45 4.17-.87 9.64-1.33 13.58 4.6-2.18-1.53-6.41-3.22-11.94-2.42z"/></g><g fill="#31302A"><path d="M140.56 63.75c1.61-10.16-10.24-23.59-28.4-31.38-19.9-8.54-39.85-7.07-44.55 3.3-.21.45-.38.93-.52 1.4A38.26 38.26 0 0 0 59.97 44a36.24 36.24 0 0 0-6.57 12.09 45.94 45.94 0 0 0-2.9 32.09 5.9 5.9 0 0 1 2.9-2.55c2.24-.84 4.8.03 7.08 2.09-.04-8.12 1.08-15.1 3.08-20.98a29.06 29.06 0 0 0 7.97-5.59C75.44 66.66 81.89 71.8 90 75.28l.4.16c8.37 3.51 16.85 4.58 23.74 3.45a50.36 50.36 0 0 1-11.87-3.27l-.83-.34a47.62 47.62 0 0 1-14.56-9.56 73.16 73.16 0 0 0 8.26 4.18c12.71 5.45 25.43 6.81 34.2 4.4.7 3.99 1.02 8.36.9 13.12 1.98-1.86 4.23-2.72 6.32-2.12 1.63.46 2.93 1.73 3.84 3.52a46.12 46.12 0 0 0 .15-25.07zM64.58 110.85a5.54 5.54 0 0 1-2.28 1.68c-2.93 1.1-6.39-.7-9.08-4.3-.02.45-.04.89-.04 1.33 0 14.52 11.09 26.92 26.77 31.96v-9.78c-5.99-4.52-11.7-11.52-15.37-20.9zM129.71 112.87a5.8 5.8 0 0 1-3.06-2.27c-.22-.3-.42-.61-.6-.94l-.9 2.23c-3.66 8.49-8.88 15.02-14.35 19.4v10.34c15.86-4.97 27.12-17.45 27.12-32.07l-.03-.92c-2.36 3.28-5.4 5.01-8.18 4.23z"/><path d="M64.5 110.65l.08.2.06-.08-.13-.12z"/></g><g><path fill="#D8E6F2" d="M161.06 17.98c-.05-.09-.13-.17-.2-.25-2.66-3.39-21.26-3.79-45.88 2.9.1 4.27-14.54 15.06-34.11 24.95-18.79 9.5-35.66 14.9-40.09 13.06l.01.11C19.97 75.3 9.65 89.2 11.52 92.71c.24.45.74.76 1.46.95 1.32.35 3.4.27 6.17-.2 7.42-1.3 17.69-3.36 32.6-9.59a589.06 589.06 0 0 0 38.63-17.95 576.44 576.44 0 0 0 39.54-21.9c9.28-5.69 16.94-10.89 22.36-15.19 6.48-5.14 9.76-9 8.78-10.85z"/><path fill="#73B1E1" d="M80.87 45.58c19.57-9.89 34.22-20.68 34.1-24.95l-.1.03-.1.03-.84-.65a45.35 45.35 0 0 0-11.07-6.25c-5.45 4.09-17.61 11.15-32.13 18.49-11.47 5.8-21.96 10.52-29.1 13.22a43.03 43.03 0 0 0-.86 13.04l-.09.05.1.05c4.43 1.84 21.3-3.56 40.09-13.06z"/><path fill="#D8E6F2" d="M102.86 13.79l-1.24-.46-.6-.23a46.2 46.2 0 0 0-11.49-2.38C69.05 9.15 50.7 21.09 43.65 38.86a43.44 43.44 0 0 0-1.75 5.44l-.12.53-.16.68c7.14-2.7 17.63-7.42 29.1-13.22 14.52-7.34 26.68-14.4 32.13-18.5z"/><path fill="#73B1E1" d="M46.68 53.8l-5.6 21.46 8.42-5.49 9.14.71-6.91-17.86z"/></g><path fill="none" d="M179.83-.53H10.17a10.7 10.7 0 0 0-10.7 10.7v169.66c0 5.9 4.8 10.7 10.7 10.7h169.66c5.9 0 10.7-4.8 10.7-10.7V10.17c0-5.9-4.8-10.7-10.7-10.7z"/></svg>