<svg xmlns="http://www.w3.org/2000/svg" xmlns:xlink="http://www.w3.org/1999/xlink" viewBox="0 0 190 190"><g opacity=".56"><path fill="#918E86" d="M138.1 81.53a8.08 8.08 0 0 0-6.42 1.4c-.06-31.9-6.07-52.73-37.45-52.73-31.43 0-37.36 20.91-37.4 52.89-1.65-1.27-3.41-1.87-5.1-1.56-7.2 1.29-7.07 7.69-5.17 16.33 2.34 10.62 5.51 13.28 10.7 12.35a6.4 6.4 0 0 0 3-1.45c2.83 9.5 7.2 16.9 12.21 22.25v16.61h43.56v-16.6c5.06-5.4 9.45-12.87 12.28-22.5a6.48 6.48 0 0 0 3.26 1.7c5.2.93 8.37-1.74 10.7-12.36 1.8-8.19.49-15.5-4.17-16.33z"/></g><g fill="#FFD79D"><path d="M142.28 97.87c-2.34 10.62-5.51 13.29-10.7 12.36-4.66-.84-7.97-7.2-6.17-15.39 1.7-7.72 5.5-14.6 12.7-13.3 4.65.84 5.97 8.15 4.17 16.33zM46.56 97.87c2.34 10.62 5.51 13.29 10.7 12.36 4.66-.84 7.97-7.2 6.17-15.39-1.8-8.18-7.04-14.14-11.7-13.3-7.2 1.3-7.07 7.69-5.17 16.33z"/></g><g fill="#D6B17A"><path d="M138.62 98.28c-1.26 5.73-3.94 8-7.2 7.41-3.25-.58-5.87-3.8-4.6-9.53 1.26-5.73 4.92-9.9 8.18-9.31 5.8 1.04 4.98 5.24 3.62 11.43zM49.89 98.28c1.26 5.73 3.93 8 7.2 7.41 3.25-.58 5.86-3.8 4.6-9.53-1.26-5.73-4.93-9.9-8.19-9.31-5.8 1.04-4.98 5.24-3.61 11.43z"/></g><linearGradient id="a" x1="94.25" x2="94.25" y1="150.26" y2="135.35" gradientUnits="userSpaceOnUse"><stop offset=".18" stop-color="#ffd79d"/><stop offset="1" stop-color="#caa36b"/></linearGradient><path fill="url(#a)" d="M72.47 131.02h43.56v16.61H72.47z"/><path fill="#FFD79D" d="M131.68 83.4c0 39.83-21.36 58.4-37.43 58.4-16.06 0-37.42-18.57-37.42-58.4 0-32.15 5.87-53.19 37.4-53.19 31.53 0 37.45 21.04 37.45 53.19z"/><path fill="#C3A16D" d="M94.25 112.13a17 17 0 0 1-7.86-1.8c1.43 2.74 5.79 4.7 7.86 4.7 2.08 0 6.44-1.96 7.87-4.7a16.97 16.97 0 0 1-7.87 1.8z"/><path fill="#E0B07E" d="M93.95 123.62c-5.4 0-9.79-1.48-11.42-1.77.82 2.4 3.82 5.84 11.6 5.84 7.8 0 10.97-3.4 11.84-5.88-1.69.29-6.52 1.81-12.02 1.81z"/><path fill="none" stroke="#887454" stroke-miterlimit="10" d="M82.57 122.08s4.96 1.54 11.42 1.54c6.45 0 11.95-1.57 11.95-1.57" stroke-linecap="round" stroke-linejoin="round"/><g><path fill="#31302A" d="M77.02 79.74c5.53.3 6.18.38 10.42 2.08-1.11-3.62-.38-4.9-7.8-5.1-10.47-.3-15.7 2.9-17.35 6.04a30.87 30.87 0 0 1 14.73-3.02zM111.49 79.74c-5.53.3-6.19.38-10.42 2.08 1.1-3.62.38-4.88 7.8-5.1 10.46-.33 15.08 3.48 17.34 6.04a30.87 30.87 0 0 0-14.72-3.02z"/></g><g><path fill="#ECF7FB" d="M85.24 91.85c-.06-.23-3.86-5.72-10.66-5.72-6.66 0-7.85 4.16-7.87 4.21a.4.4 0 0 0 .07.42c.02.02 3.07 2.92 8.3 3.09 6.82.22 9.9-1.49 10.02-1.58a.41.41 0 0 0 .14-.42z"/><defs><path id="b" d="M85.24 91.85c-.06-.23-3.86-5.72-10.66-5.72-6.66 0-7.85 4.16-7.87 4.21a.4.4 0 0 0 .07.42c.02.02 3.07 2.92 8.3 3.09 6.82.22 9.9-1.49 10.02-1.58a.41.41 0 0 0 .14-.42z"/></defs><clipPath id="c"><use xlink:href="#b" overflow="visible"/></clipPath><g clip-path="url(#c)"><radialGradient id="d" cx="10.15" cy="163.96" r="4.11" gradientTransform="matrix(.9935 -.1056 .1139 .9211 47.68 -60.57)" gradientUnits="userSpaceOnUse"><stop offset="0" stop-color="#7b573e"/><stop offset="1" stop-color="#503627"/></radialGradient><path fill="url(#d)" d="M72.36 89.82c.25 2.09 2.3 3.6 4.55 3.35 2.26-.24 3.88-2.13 3.62-4.22-.26-2.09-2.3-3.6-4.56-3.35-2.25.24-3.87 2.13-3.61 4.22z"/><radialGradient id="e" cx="10.15" cy="163.96" r="1.88" gradientTransform="matrix(.9935 -.1056 .1139 .9211 47.68 -60.57)" gradientUnits="userSpaceOnUse"><stop offset=".72" stop-color="#010101"/><stop offset="1" stop-color="#5a4524"/></radialGradient><path fill="url(#e)" d="M78.31 89.19c.12.95-.62 1.82-1.65 1.93-1.03.1-1.97-.58-2.09-1.54-.12-.95.63-1.82 1.66-1.93 1.03-.1 1.96.58 2.08 1.54z"/></g><path fill="#ECF7FB" d="M103.27 91.85c.06-.23 3.85-5.72 10.65-5.72 6.67 0 7.86 4.16 7.88 4.21a.4.4 0 0 1-.08.42c-.02.02-3.06 2.92-8.3 3.09-6.81.22-9.9-1.49-10.01-1.58a.41.41 0 0 1-.14-.42z"/><g><defs><path id="f" d="M103.27 91.85c.06-.23 3.85-5.72 10.65-5.72 6.67 0 7.86 4.16 7.88 4.21a.4.4 0 0 1-.08.42c-.02.02-3.06 2.92-8.3 3.09-6.81.22-9.9-1.49-10.01-1.58a.41.41 0 0 1-.14-.42z"/></defs><clipPath id="g"><use xlink:href="#f" overflow="visible"/></clipPath><g clip-path="url(#g)"><radialGradient id="h" cx="-597.64" cy="94.28" r="4.11" gradientTransform="matrix(-.9935 -.1056 -.1139 .9211 -470.8 -60.57)" gradientUnits="userSpaceOnUse"><stop offset="0" stop-color="#7b573e"/><stop offset="1" stop-color="#503627"/></radialGradient><path fill="url(#h)" d="M116.3 89.82c-.25 2.09-2.3 3.6-4.55 3.35-2.25-.24-3.87-2.13-3.61-4.22.25-2.09 2.3-3.6 4.55-3.35 2.25.24 3.87 2.13 3.62 4.22z"/><radialGradient id="i" cx="-597.64" cy="94.28" r="1.88" gradientTransform="matrix(-.9935 -.1056 -.1139 .9211 -470.8 -60.57)" gradientUnits="userSpaceOnUse"><stop offset=".72" stop-color="#010101"/><stop offset="1" stop-color="#5a4524"/></radialGradient><path fill="url(#i)" d="M110.35 89.19c-.12.95.63 1.82 1.66 1.93 1.03.1 1.96-.58 2.08-1.54.12-.95-.62-1.82-1.66-1.93-1.03-.1-1.96.58-2.08 1.54z"/></g></g></g><path fill="#31302A" d="M110.27 117.8c-1.6-3.4-7.64-1.07-16.16-1.07s-14.92-2.02-16 1.07c-.57 1.6 1.6 16.77 2.12 18.66.53 1.91 3.25 5.7 12.32 6.81.41.08 1.07.12 1.56.12.05 0-.05-.01 0-.01s-.05 0 0 0c.5.01 1-.03 1.41-.1 9.07-1.12 11.8-4.9 12.34-6.82.56-2.03 3.42-16.5 2.4-18.66zm-6.42 11.98c-3.18 1.51-5.84 1.55-6.1.63-.16-.58-.7-2.27-.7-2.27l-2.97.1-3.07-.1s-.53 1.7-.69 2.27c-.27 1.16-2.91.88-6.1-.63-3.83-1.82-4.27-4.16-3.21-8.47.17-.68.42-.83 2.8-.16 8.49 2.41 10.3-.81 10.3-.81s1.82 3.05 10.37.64c2.03-.57 2.36-.28 2.47.17 1.13 4.52.79 6.78-3.1 8.63zM94.57 24.02C69.73 24.3 49.6 44.6 49.62 69.36c0 4.26.61 8.36 1.73 12.25l.38-.09c1.68-.3 3.45.3 5.1 1.56.02-19.63 2.27-31.03 11.27-40.04 1.07 9.21 10.26 16.63 27.7 21.13 14.35 3.7 27.94 1.8 34.2-4.08 1.22 6.71 1.66 14.38 1.67 22.83a8.02 8.02 0 0 1 5.98-1.45 44.86 44.86 0 0 0 1.94-13.12 44.34 44.34 0 0 0-45.02-44.33z"/><g><path fill="#EAB321" d="M140.4 63.65a47.48 47.48 0 0 0-29.1-42.77c-1.47-3.36-4.09-5.6-7.09-5.6h-21c-2.93 0-5.5 2.13-6.99 5.35A45.44 45.44 0 0 0 47 63.46l.02.11c-7.24.84-11.53 1.89-11.53 3.02v2.48c0 3.66 25.93 6.63 57.92 6.63 31.98 0 57.91-2.97 57.91-6.63v-2.48c0-1.1-4.05-2.12-10.91-2.94zm-27.13-41.6c3 37.57 21.63 41.64 21.82 41.67l-.2 1c-.8-.16-19.56-4.18-22.63-42.6l1.01-.08zm-38.9 0l1 .07c-3.06 38.42-21.83 42.44-22.63 42.6l-.19-1c.19-.03 18.81-4.1 21.82-41.68z"/><path fill="#B98E2E" d="M52.74 64.72c.8-.16 19.57-4.18 22.64-42.6l-1.01-.08c-3 37.58-21.63 41.65-21.82 41.68l.2 1zM134.9 64.72l.19-1c-.2-.03-18.82-4.1-21.82-41.68l-1 .08c3.06 38.42 21.83 42.44 22.63 42.6z"/></g><path fill="none" d="M179.08-.53H9.42a10.7 10.7 0 0 0-10.7 10.7v169.66c0 5.9 4.8 10.7 10.7 10.7h169.66c5.9 0 10.7-4.8 10.7-10.7V10.17c0-5.9-4.8-10.7-10.7-10.7z"/></svg>