<svg xmlns="http://www.w3.org/2000/svg" xmlns:xlink="http://www.w3.org/1999/xlink" viewBox="0 0 190 190"><g opacity=".56"><path fill="#918E86" d="M138.1 81.53a8.08 8.08 0 0 0-6.42 1.4c-.06-31.9-6.07-52.73-37.45-52.73-31.43 0-37.36 20.91-37.4 52.89-1.65-1.27-3.41-1.87-5.1-1.56-7.2 1.29-7.07 7.69-5.17 16.33 2.34 10.62 5.51 13.28 10.7 12.35a6.4 6.4 0 0 0 3-1.45c2.83 9.5 7.2 16.9 12.21 22.25v16.61h43.56v-16.6c5.06-5.4 9.45-12.87 12.28-22.5a6.48 6.48 0 0 0 3.26 1.7c5.2.93 8.37-1.74 10.7-12.36 1.8-8.19.49-15.5-4.17-16.33z"/></g><g fill="#9C6A4A"><path d="M142.28 97.87c-2.34 10.62-5.51 13.29-10.7 12.36-4.66-.84-7.97-7.2-6.17-15.39 1.7-7.72 5.5-14.6 12.7-13.3 4.65.84 5.97 8.15 4.17 16.33zM46.56 97.87c2.34 10.62 5.51 13.29 10.7 12.36 4.66-.84 7.97-7.2 6.17-15.39-1.8-8.18-7.04-14.14-11.7-13.3-7.2 1.3-7.07 7.69-5.17 16.33z"/></g><g fill="#7A543A"><path d="M138.62 98.28c-1.26 5.73-3.94 8-7.2 7.41-3.25-.58-5.87-3.8-4.6-9.53 1.26-5.73 4.92-9.9 8.18-9.31 5.8 1.04 4.98 5.24 3.62 11.43zM49.89 98.28c1.26 5.73 3.93 8 7.2 7.41 3.25-.58 5.86-3.8 4.6-9.53-1.26-5.73-4.93-9.9-8.19-9.31-5.8 1.04-4.98 5.24-3.61 11.43z"/></g><linearGradient id="s" x1="94.25" x2="94.25" y1="150.26" y2="135.35" gradientUnits="userSpaceOnUse"><stop offset=".29" stop-color="#9c6a4a"/><stop offset="1" stop-color="#664532"/></linearGradient><path fill="url(#s)" d="M72.47 131.02h43.56v16.61H72.47z"/><path fill="#9C6A4A" d="M131.68 83.4c0 39.83-21.36 58.4-37.43 58.4-16.06 0-37.42-18.57-37.42-58.4 0-32.15 5.87-53.19 37.4-53.19 31.53 0 37.45 21.04 37.45 53.19z"/><path fill="#7A543A" d="M94.25 112.13c-3.38 0-6.63-.64-9.13-1.8.2 2.9 4.82 5.16 9.13 5.16 4.32 0 8.64-2.35 9.14-5.15a22.4 22.4 0 0 1-9.14 1.8z"/><path fill="#7D5638" d="M93.95 123.62c-5.4 0-9.79-1.48-11.42-1.77.33 2.48.1 6.85 11.6 6.85 11.54 0 11.58-4.6 11.84-6.89-1.69.29-6.52 1.81-12.02 1.81z"/><path fill="none" stroke="#553727" stroke-miterlimit="10" d="M82.57 122.08s4.96 1.54 11.42 1.54c6.45 0 11.95-1.57 11.95-1.57" stroke-linecap="round" stroke-linejoin="round"/><g><path fill="#31302A" d="M77.02 80.75c5.53.3 6.18.38 10.42 2.08-1.11-3.62-.44-5.16-7.8-6.12-12.04-1.56-17.34 2.92-17.35 6.05 3.52-1.67 8.77-2.34 14.73-2.01zM111.49 80.75c-5.53.3-6.19.38-10.42 2.08 1.1-3.62.43-5.16 7.8-6.12 12.04-1.56 17.34 2.92 17.34 6.05-3.52-1.67-8.77-2.34-14.72-2.01z"/></g><g><path fill="#ECF7FB" d="M85.24 91.75c-.06-.24-1.16-6.01-10.66-6-6.66 0-7.85 5.15-7.87 5.2a.43.43 0 0 0 .07.44c.1.11.3 2.2 8.3 2.46 6.82.23 9.9-1.56 10.02-1.66a.44.44 0 0 0 .14-.44z"/><defs><path id="t" d="M85.24 91.75c-.06-.24-1.16-6.01-10.66-6-6.66 0-7.85 5.15-7.87 5.2a.43.43 0 0 0 .07.44c.1.11.3 2.2 8.3 2.46 6.82.23 9.9-1.56 10.02-1.66a.44.44 0 0 0 .14-.44z"/></defs><clipPath id="u"><use xlink:href="#t" overflow="visible"/></clipPath><g clip-path="url(#u)"><radialGradient id="v" cx="10.15" cy="163.96" r="4.11" gradientTransform="matrix(.9935 -.1056 .1139 .9211 47.68 -60.57)" gradientUnits="userSpaceOnUse"><stop offset="0" stop-color="#7b573e"/><stop offset="1" stop-color="#503627"/></radialGradient><path fill="url(#v)" d="M72.36 89.82c.25 2.09 2.3 3.6 4.55 3.35 2.26-.24 3.88-2.13 3.62-4.22-.26-2.09-2.3-3.6-4.56-3.35-2.25.24-3.87 2.13-3.61 4.22z"/><radialGradient id="w" cx="10.15" cy="163.96" r="1.88" gradientTransform="matrix(.9935 -.1056 .1139 .9211 47.68 -60.57)" gradientUnits="userSpaceOnUse"><stop offset=".72" stop-color="#010101"/><stop offset="1" stop-color="#5a4524"/></radialGradient><path fill="url(#w)" d="M78.31 89.19c.12.95-.62 1.82-1.65 1.93-1.03.1-1.97-.58-2.09-1.54-.12-.95.63-1.82 1.66-1.93 1.03-.1 1.96.58 2.08 1.54z"/></g><path fill="#ECF7FB" d="M103.27 91.75c.06-.24 1.16-6.01 10.65-6 6.67 0 7.86 5.15 7.88 5.2.05.15.03.31-.08.44-.1.11-.3 2.2-8.3 2.46-6.81.23-9.9-1.56-10.01-1.66a.44.44 0 0 1-.14-.44z"/><g><defs><path id="x" d="M103.27 91.75c.06-.24 1.16-6.01 10.65-6 6.67 0 7.86 5.15 7.88 5.2.05.15.03.31-.08.44-.1.11-.3 2.2-8.3 2.46-6.81.23-9.9-1.56-10.01-1.66a.44.44 0 0 1-.14-.44z"/></defs><clipPath id="y"><use xlink:href="#x" overflow="visible"/></clipPath><g clip-path="url(#y)"><radialGradient id="z" cx="-597.64" cy="94.28" r="4.11" gradientTransform="matrix(-.9935 -.1056 -.1139 .9211 -470.8 -60.57)" gradientUnits="userSpaceOnUse"><stop offset="0" stop-color="#7b573e"/><stop offset="1" stop-color="#503627"/></radialGradient><path fill="url(#z)" d="M116.3 89.82c-.25 2.09-2.3 3.6-4.55 3.35-2.25-.24-3.87-2.13-3.61-4.22.25-2.09 2.3-3.6 4.55-3.35 2.25.24 3.87 2.13 3.62 4.22z"/><radialGradient id="A" cx="-597.64" cy="94.28" r="1.88" gradientTransform="matrix(-.9935 -.1056 -.1139 .9211 -470.8 -60.57)" gradientUnits="userSpaceOnUse"><stop offset=".72" stop-color="#010101"/><stop offset="1" stop-color="#5a4524"/></radialGradient><path fill="url(#A)" d="M110.35 89.19c-.12.95.63 1.82 1.66 1.93 1.03.1 1.96-.58 2.08-1.54.12-.95-.62-1.82-1.66-1.93-1.03-.1-1.96.58-2.08 1.54z"/></g></g></g><path fill="#31302A" d="M94.07 115.8c-34.6-4.02-7.31 36.04-35.39-12.41 0 9.69 7.6 39.1 35.36 39.16h.06c27.77-.06 35.72-29.8 35.72-39.35-28.16 47.43-.92 8.58-35.75 12.6zm.13 11.93c-8.4 5.15-13.3-4.08-13.3-6.52 0-.4.95-.52 6.56.35 5.6.88 6.74-.87 6.74-.87s1.13 1.75 6.74.88c5.6-.88 6.55-.75 6.55-.36 0 2.44-5.5 12.44-13.3 6.52zM94.25 25.5c-27.46 0-40.2 12-40.2 44.47 0 4.28.56 8.42 1.58 12.34.4.22.8.47 1.2.78.02-17.68 1.85-31.97 8.79-41.22 4.17 3.83 15.41 6.58 28.63 6.58 13.21 0 24.44-2.74 28.63-6.57 6.91 9.22 8.77 23.45 8.8 41.04.39-.28.8-.53 1.23-.74 1-3.88 1.55-7.98 1.55-12.21 0-32.47-12.74-44.47-40.2-44.47z"/><path fill="none" d="M179.08-.53H9.42a10.7 10.7 0 0 0-10.7 10.7v169.66c0 5.9 4.8 10.7 10.7 10.7h169.66c5.9 0 10.7-4.8 10.7-10.7V10.17c0-5.9-4.8-10.7-10.7-10.7z"/></svg>