<svg xmlns="http://www.w3.org/2000/svg" xmlns:xlink="http://www.w3.org/1999/xlink" viewBox="0 0 190 190"><g opacity=".56"><path fill="#918E86" d="M138.1 81.53a8.08 8.08 0 0 0-6.42 1.4c-.06-31.9-6.07-52.73-37.45-52.73-31.43 0-37.36 20.91-37.4 52.89-1.65-1.27-3.41-1.87-5.1-1.56-7.2 1.29-7.07 7.69-5.17 16.33 2.34 10.62 5.51 13.28 10.7 12.35a6.4 6.4 0 0 0 3-1.45c2.83 9.5 7.2 16.9 12.21 22.25v16.61h43.56v-16.6c5.06-5.4 9.45-12.87 12.28-22.5a6.48 6.48 0 0 0 3.26 1.7c5.2.93 8.37-1.74 10.7-12.36 1.8-8.19.49-15.5-4.17-16.33z"/></g><g fill="#9C6A4A"><path d="M142.28 97.87c-2.34 10.62-5.51 13.29-10.7 12.36-4.66-.84-7.97-7.2-6.17-15.39 1.7-7.72 5.5-14.6 12.7-13.3 4.65.84 5.97 8.15 4.17 16.33zM46.56 97.87c2.34 10.62 5.51 13.29 10.7 12.36 4.66-.84 7.97-7.2 6.17-15.39-1.8-8.18-7.04-14.14-11.7-13.3-7.2 1.3-7.07 7.69-5.17 16.33z"/></g><g fill="#7A543A"><path d="M138.62 98.28c-1.26 5.73-3.94 8-7.2 7.41-3.25-.58-5.87-3.8-4.6-9.53 1.26-5.73 4.92-9.9 8.18-9.31 5.8 1.04 4.98 5.24 3.62 11.43zM49.89 98.28c1.26 5.73 3.93 8 7.2 7.41 3.25-.58 5.86-3.8 4.6-9.53-1.26-5.73-4.93-9.9-8.19-9.31-5.8 1.04-4.98 5.24-3.61 11.43z"/></g><linearGradient id="s" x1="94.25" x2="94.25" y1="41.74" y2="56.65" gradientUnits="userSpaceOnUse" gradientTransform="matrix(1 0 0 -1 0 192)"><stop offset=".29" stop-color="#9c6a4a"/><stop offset="1" stop-color="#664532"/></linearGradient><path fill="url(#s)" d="M72.47 131.02h43.56v16.61H72.47z"/><path fill="#9C6A4A" d="M131.68 83.4c0 39.83-21.36 58.4-37.43 58.4-16.06 0-37.42-18.57-37.42-58.4 0-32.15 5.87-53.19 37.4-53.19 31.53 0 37.45 21.04 37.45 53.19z"/><path fill="#7A543A" d="M94.25 112.13c-3.38 0-6.63-.64-9.13-1.8.2 2.9 4.82 5.16 9.13 5.16 4.32 0 8.64-2.35 9.14-5.15a22.4 22.4 0 0 1-9.14 1.8z"/><path fill="#7D5638" d="M93.95 123.62c-5.4 0-9.79-1.48-11.42-1.77.33 2.48.1 6.85 11.6 6.85 11.54 0 11.58-4.6 11.84-6.89-1.69.29-6.52 1.81-12.02 1.81z"/><path fill="none" stroke="#553727" stroke-miterlimit="10" d="M82.57 122.08s4.96 1.54 11.42 1.54c6.45 0 11.95-1.57 11.95-1.57" stroke-linecap="round" stroke-linejoin="round"/><path fill="#31302A" d="M77.02 80.75c5.53.3 6.18.38 10.42 2.08-1.11-3.62-.44-5.16-7.8-6.12-12.04-1.56-17.34 2.92-17.35 6.05 3.52-1.67 8.77-2.34 14.73-2.01zM111.49 80.75c-5.53.3-6.19.38-10.42 2.08 1.1-3.62.43-5.16 7.8-6.12 12.04-1.56 17.34 2.92 17.34 6.05-3.52-1.67-8.77-2.34-14.72-2.01z"/><g><path fill="#ECF7FB" d="M85.24 91.75c-.06-.24-1.16-6.01-10.66-6-6.66 0-7.85 5.15-7.87 5.2a.43.43 0 0 0 .07.44c.1.11.3 2.2 8.3 2.46 6.82.23 9.9-1.56 10.02-1.66a.44.44 0 0 0 .14-.44z"/><defs><path id="t" d="M85.24 91.75c-.06-.24-1.16-6.01-10.66-6-6.66 0-7.85 5.15-7.87 5.2a.43.43 0 0 0 .07.44c.1.11.3 2.2 8.3 2.46 6.82.23 9.9-1.56 10.02-1.66a.44.44 0 0 0 .14-.44z"/></defs><clipPath id="u"><use xlink:href="#t" overflow="visible"/></clipPath><g clip-path="url(#u)"><radialGradient id="v" cx="9.63" cy="27.29" r="4.11" gradientTransform="matrix(.9935 -.1056 -.1139 -.9211 69.98 115.54)" gradientUnits="userSpaceOnUse"><stop offset="0" stop-color="#7b573e"/><stop offset="1" stop-color="#503627"/></radialGradient><path fill="url(#v)" d="M72.36 89.82c.25 2.09 2.3 3.6 4.55 3.35 2.26-.24 3.88-2.13 3.62-4.22-.26-2.09-2.3-3.6-4.56-3.35-2.25.24-3.87 2.13-3.61 4.22z"/><radialGradient id="w" cx="9.63" cy="27.29" r="1.88" gradientTransform="matrix(.9935 -.1056 -.1139 -.9211 69.98 115.54)" gradientUnits="userSpaceOnUse"><stop offset=".72" stop-color="#010101"/><stop offset="1" stop-color="#5a4524"/></radialGradient><path fill="url(#w)" d="M78.31 89.19c.12.95-.62 1.82-1.65 1.93-1.03.1-1.97-.58-2.09-1.54-.12-.95.63-1.82 1.66-1.93 1.03-.1 1.96.58 2.08 1.54z"/></g><path fill="#ECF7FB" d="M103.27 91.75c.06-.24 1.16-6.01 10.65-6 6.67 0 7.86 5.15 7.88 5.2.05.15.03.31-.08.44-.1.11-.3 2.2-8.3 2.46-6.81.23-9.9-1.56-10.01-1.66a.44.44 0 0 1-.14-.44z"/><g><defs><path id="x" d="M103.27 91.75c.06-.24 1.16-6.01 10.65-6 6.67 0 7.86 5.15 7.88 5.2.05.15.03.31-.08.44-.1.11-.3 2.2-8.3 2.46-6.81.23-9.9-1.56-10.01-1.66a.44.44 0 0 1-.14-.44z"/></defs><clipPath id="y"><use xlink:href="#x" overflow="visible"/></clipPath><g clip-path="url(#y)"><radialGradient id="z" cx="-606.11" cy="97.89" r="4.11" gradientTransform="matrix(-.9935 -.1056 .1139 -.9211 -501.1 115.54)" gradientUnits="userSpaceOnUse"><stop offset="0" stop-color="#7b573e"/><stop offset="1" stop-color="#503627"/></radialGradient><path fill="url(#z)" d="M116.3 89.82c-.25 2.09-2.3 3.6-4.55 3.35-2.25-.24-3.87-2.13-3.61-4.22.25-2.09 2.3-3.6 4.55-3.35 2.25.24 3.87 2.13 3.62 4.22z"/><radialGradient id="A" cx="-606.11" cy="97.88" r="1.88" gradientTransform="matrix(-.9935 -.1056 .1139 -.9211 -501.1 115.54)" gradientUnits="userSpaceOnUse"><stop offset=".72" stop-color="#010101"/><stop offset="1" stop-color="#5a4524"/></radialGradient><path fill="url(#A)" d="M110.35 89.19c-.12.95.63 1.82 1.66 1.93 1.03.1 1.96-.58 2.08-1.54s-.62-1.82-1.66-1.93c-1.03-.1-1.96.58-2.08 1.54z"/></g></g></g><g><path fill="#31302A" d="M107.19 117.96c-1.3-.76-6.57-2.16-9.95-2.33l-5.59-.01c-3.37.16-8.9 1.56-10.23 2.34-2.82 1.66-3.02 4.65-3.02 4.65s.8 0 6.26.08c4.92.08 9.14-.7 9.64-.83.5.14 4.73.91 9.64.83 5.47-.08 6.27-.08 6.27-.08s-.2-3-3.02-4.65z"/></g><path fill="#31302A" d="M110.27 117.25c-2.11-3.1-7.64-1.07-16.16-1.07s-14.92-2.02-16.01 1.07c-.56 1.6-1.57 15.77-.93 17.65.65 1.92 6.3 7.73 15.38 8.84.4.07 1.07.12 1.56.11.05 0-.05 0 0 0s-.05 0 0 0c.49 0 1-.04 1.4-.11 9.08-1.11 14.76-6.92 15.41-8.84.69-2.03 1.2-14.94-.66-17.65zm-6.42 13c-3.19 1.5-5.84 1.55-6.1.62-.16-.57-.7-2.26-.7-2.26l-2.97.09-3.07-.1s-.53 1.7-.69 2.27c-.27 1.17-2.91.89-6.1-.62-3.83-1.83-4.27-4.17-3.21-8.47.17-.68.42-.84 2.8-.16 8.49 2.4 10.3-.82 10.3-.82s1.82 3.05 10.37.65c2.03-.58 2.36-.29 2.47.17 1.13 4.51.79 6.78-3.1 8.63zM94.25 25.5c-27.46 0-40.2 12-40.2 44.47 0 4.28.56 8.42 1.58 12.34.4.22.8.47 1.2.78.02-17.68 1.85-31.97 8.79-41.22 4.17 3.83 15.41 6.58 28.63 6.58 13.21 0 24.44-2.74 28.63-6.57 6.91 9.22 8.77 23.45 8.8 41.04.39-.28.8-.53 1.23-.74 1-3.88 1.55-7.98 1.55-12.21 0-32.47-12.74-44.47-40.2-44.47z"/><g><path fill="#54585A" d="M133.78 81.66c-.35-.22-.32-.33-8.66-.33-3.52 0-6.86.03-10.38.05-2.55.02-4.43.06-5.81.12-4.74.2-6.44.62-8.13 1.84-.74.54-2.15.7-3.7.7-1.58 0-3.14.03-3.33.04-.19 0-1.74-.03-3.33-.03-1.55 0-2.96-.17-3.7-.7-1.7-1.23-3.4-1.65-8.12-1.85-1.39-.06-3.27-.1-5.82-.12-3.52-.02-6.86-.05-10.38-.05-8.33 0-8.3.11-8.66.33-.35.22-.33 5.75-.17 6.16.1.27.28.42.56.51.28.1 2.62 1.17 3.23 3.77.42 1.81 1.56 9.86 6.44 11.98 2.71 1.17 5.4 1.23 8.28 1.23 2.7 0 5.25-.4 7.4-1.13 4.88-1.62 7.88-4.06 9.22-7.62.62-1.65 1.14-3.3 1.43-4.46.3-1.18.7-1.92.98-2.13.99-.7 2.06-.64 2.61-.63h.06c.55-.01 1.63-.08 2.61.63.28.2.69.95.98 2.13.3 1.17.81 2.81 1.44 4.46 1.34 3.56 4.33 6 9.21 7.62a23.7 23.7 0 0 0 7.4 1.13c2.87 0 5.57-.06 8.28-1.23 4.89-2.12 6.02-10.17 6.44-11.98.6-2.6 2.95-3.67 3.23-3.77s.47-.24.56-.5c.16-.43.19-5.95-.17-6.17zM87 93.45c-1.23 4.91-2.76 6.48-7.48 8.4a23.05 23.05 0 0 1-8.2 1.4c-2.32 0-3.48-.13-5.06-.57-4.79-1.35-5.95-9.24-5.71-13.5.1-1.8.55-3.52 4.97-4.63 1.54-.38 3.1-.58 5.99-.58 5.84 0 11.15.02 13.14 1.3 2.56 1.65 3.32 4.32 2.35 8.18zm34.29 9.23a16.4 16.4 0 0 1-5.07.58c-2.27 0-5.54-.32-8.2-1.4-4.72-1.93-6.25-3.5-7.48-8.41-.96-3.86-.2-6.53 2.35-8.18 2-1.28 7.31-1.3 13.15-1.3 2.9 0 4.45.2 5.98.58 4.42 1.11 4.88 2.82 4.98 4.63.23 4.26-.93 12.15-5.71 13.5z"/></g><path fill="none" d="M179.08-.53H9.42a10.7 10.7 0 0 0-10.7 10.7v169.66c0 5.9 4.8 10.7 10.7 10.7h169.66c5.9 0 10.7-4.8 10.7-10.7V10.17c0-5.9-4.8-10.7-10.7-10.7z"/></svg>