<svg xmlns="http://www.w3.org/2000/svg" xmlns:xlink="http://www.w3.org/1999/xlink" viewBox="0 0 190 190"><path fill="#918E86" d="M138.1 81.53a8.08 8.08 0 0 0-6.42 1.4c-.06-31.9-6.07-52.73-37.45-52.73-31.43 0-37.36 20.91-37.4 52.89-1.65-1.27-3.41-1.87-5.1-1.56-7.2 1.29-7.07 7.69-5.17 16.33 2.34 10.62 5.51 13.28 10.7 12.35a6.4 6.4 0 0 0 3-1.45c2.83 9.5 7.2 16.9 12.21 22.25v16.61h43.56v-16.6c5.06-5.4 9.45-12.87 12.28-22.5a6.48 6.48 0 0 0 3.26 1.7c5.2.93 8.37-1.74 10.7-12.36 1.8-8.19.49-15.5-4.17-16.33z"/><g fill="#FBC8A6"><path d="M142.28 97.87c-2.34 10.62-5.51 13.29-10.7 12.36-4.66-.84-7.97-7.2-6.16-15.39 1.7-7.72 5.48-14.6 12.68-13.3 4.66.84 5.98 8.15 4.18 16.33zM46.56 97.87c2.34 10.62 5.51 13.29 10.7 12.36 4.66-.84 7.97-7.2 6.17-15.39-1.8-8.18-7.04-14.14-11.7-13.3-7.2 1.3-7.07 7.69-5.16 16.33z"/></g><g fill="#E3A584"><path d="M138.62 98.28c-1.26 5.73-3.93 8-7.2 7.41-3.25-.58-5.86-3.8-4.6-9.53 1.26-5.73 4.92-9.9 8.18-9.31 5.8 1.04 4.98 5.24 3.62 11.43zM49.89 98.28c1.26 5.73 3.93 8 7.2 7.41 3.25-.58 5.86-3.8 4.6-9.53-1.26-5.73-4.93-9.9-8.19-9.31-5.8 1.04-4.97 5.24-3.61 11.43z"/></g><linearGradient id="B" x1="94.25" x2="94.25" y1="150.26" y2="135.35" gradientUnits="userSpaceOnUse"><stop offset=".31" stop-color="#fbc8a6"/><stop offset="1" stop-color="#cd8a67"/></linearGradient><path fill="url(#B)" d="M72.47 131.02h43.56v16.61H72.47z"/><path fill="#FBC8A6" d="M131.68 83.4c0 39.83-21.36 58.4-37.42 58.4-16.07 0-37.43-18.57-37.43-58.4 0-32.15 5.87-53.19 37.4-53.19 31.53 0 37.45 21.04 37.45 53.19z"/><path fill="#B57E5E" d="M94.25 112.13a17 17 0 0 1-7.86-1.8c1.43 2.74 5.79 4.7 7.86 4.7 2.08 0 6.44-1.96 7.87-4.7a16.97 16.97 0 0 1-7.87 1.8z"/><g><path fill="#E3A584" d="M93.95 123.62c-5.4 0-9.79-1.48-11.41-1.77 2.34 2.01 1.69 5.84 11.6 5.84 9.94 0 9.47-3.85 11.83-5.88-1.69.29-6.52 1.81-12.02 1.81z"/><path fill="none" stroke="#AE7B5E" stroke-miterlimit="10" d="M82.57 122.08s4.96 1.54 11.42 1.54 11.95-1.57 11.95-1.57" stroke-linecap="round" stroke-linejoin="round"/></g><g><path fill="#ECF7FB" d="M85.24 91.75c-.06-.24-1.16-6.01-10.66-6-6.66 0-7.85 5.15-7.87 5.2a.43.43 0 0 0 .07.44c.1.11.3 2.2 8.31 2.46 6.8.23 9.9-1.56 10-1.66a.44.44 0 0 0 .15-.44z"/><defs><path id="C" d="M85.24 91.75c-.06-.24-1.16-6.01-10.66-6-6.66 0-7.85 5.15-7.87 5.2a.43.43 0 0 0 .07.44c.1.11.3 2.2 8.31 2.46 6.8.23 9.9-1.56 10-1.66a.44.44 0 0 0 .15-.44z"/></defs><clipPath id="D"><use xlink:href="#C" overflow="visible"/></clipPath><g clip-path="url(#D)"><radialGradient id="E" cx="10.15" cy="163.96" r="4.11" gradientTransform="matrix(.9935 -.1056 .1139 .9211 47.68 -60.57)" gradientUnits="userSpaceOnUse"><stop offset=".01" stop-color="#b37852"/><stop offset=".73" stop-color="#7b573e"/><stop offset="1" stop-color="#57321d"/></radialGradient><path fill="url(#E)" d="M72.36 89.82c.26 2.09 2.3 3.6 4.55 3.35 2.26-.24 3.88-2.13 3.62-4.22-.26-2.09-2.3-3.6-4.55-3.35-2.26.24-3.88 2.13-3.62 4.22z"/><radialGradient id="F" cx="10.15" cy="163.96" r="1.88" gradientTransform="matrix(.9935 -.1056 .1139 .9211 47.68 -60.57)" gradientUnits="userSpaceOnUse"><stop offset=".72" stop-color="#010101"/><stop offset="1" stop-color="#5a4524"/></radialGradient><path fill="url(#F)" d="M78.31 89.19c.12.95-.62 1.82-1.65 1.93-1.03.1-1.97-.58-2.09-1.54-.12-.95.63-1.82 1.66-1.93 1.03-.1 1.96.58 2.08 1.54z"/></g><path fill="#ECF7FB" d="M103.27 91.75c.06-.24 1.16-6.01 10.65-6 6.67 0 7.86 5.15 7.88 5.2.06.15.03.31-.07.44-.1.11-.3 2.2-8.31 2.46-6.81.23-9.9-1.56-10.01-1.66a.45.45 0 0 1-.14-.44z"/><g><defs><path id="G" d="M103.27 91.75c.06-.24 1.16-6.01 10.65-6 6.67 0 7.86 5.15 7.88 5.2.06.15.03.31-.07.44-.1.11-.3 2.2-8.31 2.46-6.81.23-9.9-1.56-10.01-1.66a.45.45 0 0 1-.14-.44z"/></defs><clipPath id="H"><use xlink:href="#G" overflow="visible"/></clipPath><g clip-path="url(#H)"><radialGradient id="I" cx="-597.64" cy="94.28" r="4.11" gradientTransform="matrix(-.9935 -.1056 -.1139 .9211 -470.8 -60.57)" gradientUnits="userSpaceOnUse"><stop offset=".01" stop-color="#b37852"/><stop offset=".73" stop-color="#7b573e"/><stop offset="1" stop-color="#57321d"/></radialGradient><path fill="url(#I)" d="M116.3 89.82c-.25 2.09-2.3 3.6-4.55 3.35-2.25-.24-3.87-2.13-3.61-4.22.26-2.09 2.3-3.6 4.55-3.35 2.26.24 3.88 2.13 3.62 4.22z"/><radialGradient id="J" cx="-597.64" cy="94.28" r="1.88" gradientTransform="matrix(-.9935 -.1056 -.1139 .9211 -470.8 -60.57)" gradientUnits="userSpaceOnUse"><stop offset=".72" stop-color="#010101"/><stop offset="1" stop-color="#5a4524"/></radialGradient><path fill="url(#J)" d="M110.35 89.19c-.11.95.63 1.82 1.66 1.93 1.03.1 1.96-.58 2.08-1.54.12-.95-.62-1.82-1.66-1.93-1.03-.1-1.96.58-2.08 1.54z"/></g></g><g><path fill="#ECF7FB" d="M85.24 91.75c-.06-.24-1.16-6.01-10.66-6-6.66 0-7.85 5.15-7.87 5.2a.43.43 0 0 0 .07.44c.1.11.3 2.2 8.31 2.46 6.8.23 9.9-1.56 10-1.66a.44.44 0 0 0 .15-.44z"/><defs><path id="K" d="M85.24 91.75c-.06-.24-1.16-6.01-10.66-6-6.66 0-7.85 5.15-7.87 5.2a.43.43 0 0 0 .07.44c.1.11.3 2.2 8.31 2.46 6.8.23 9.9-1.56 10-1.66a.44.44 0 0 0 .15-.44z"/></defs><clipPath id="L"><use xlink:href="#K" overflow="visible"/></clipPath><g clip-path="url(#L)"><radialGradient id="M" cx="10.15" cy="163.96" r="4.11" gradientTransform="matrix(.9935 -.1056 .1139 .9211 47.68 -60.57)" gradientUnits="userSpaceOnUse"><stop offset=".01" stop-color="#529ed6"/><stop offset=".73" stop-color="#3c60ad"/><stop offset="1" stop-color="#252542"/></radialGradient><path fill="url(#M)" d="M72.36 89.82c.26 2.09 2.3 3.6 4.55 3.35 2.26-.24 3.88-2.13 3.62-4.22-.26-2.09-2.3-3.6-4.55-3.35-2.26.24-3.88 2.13-3.62 4.22z"/><radialGradient id="N" cx="10.15" cy="163.96" r="1.88" gradientTransform="matrix(.9935 -.1056 .1139 .9211 47.68 -60.57)" gradientUnits="userSpaceOnUse"><stop offset=".82" stop-color="#010101"/><stop offset="1" stop-color="#2f4a76"/></radialGradient><path fill="url(#N)" d="M78.31 89.19c.12.95-.62 1.82-1.65 1.93-1.03.1-1.97-.58-2.09-1.54-.12-.95.63-1.82 1.66-1.93 1.03-.1 1.96.58 2.08 1.54z"/></g><path fill="#ECF7FB" d="M103.27 91.75c.06-.24 1.16-6.01 10.65-6 6.67 0 7.86 5.15 7.88 5.2.06.15.03.31-.07.44-.1.11-.3 2.2-8.31 2.46-6.81.23-9.9-1.56-10.01-1.66a.45.45 0 0 1-.14-.44z"/><g><defs><path id="O" d="M103.27 91.75c.06-.24 1.16-6.01 10.65-6 6.67 0 7.86 5.15 7.88 5.2.06.15.03.31-.07.44-.1.11-.3 2.2-8.31 2.46-6.81.23-9.9-1.56-10.01-1.66a.45.45 0 0 1-.14-.44z"/></defs><clipPath id="P"><use xlink:href="#O" overflow="visible"/></clipPath><g clip-path="url(#P)"><radialGradient id="Q" cx="-597.64" cy="94.28" r="4.11" gradientTransform="matrix(-.9935 -.1056 -.1139 .9211 -470.8 -60.57)" gradientUnits="userSpaceOnUse"><stop offset=".01" stop-color="#529ed6"/><stop offset=".73" stop-color="#3c60ad"/><stop offset="1" stop-color="#252542"/></radialGradient><path fill="url(#Q)" d="M116.3 89.82c-.25 2.09-2.3 3.6-4.55 3.35-2.25-.24-3.87-2.13-3.61-4.22.26-2.09 2.3-3.6 4.55-3.35 2.26.24 3.88 2.13 3.62 4.22z"/><radialGradient id="R" cx="-597.64" cy="94.28" r="1.88" gradientTransform="matrix(-.9935 -.1056 -.1139 .9211 -470.8 -60.57)" gradientUnits="userSpaceOnUse"><stop offset=".82" stop-color="#010101"/><stop offset="1" stop-color="#2f4a76"/></radialGradient><path fill="url(#R)" d="M110.35 89.19c-.11.95.63 1.82 1.66 1.93 1.03.1 1.96-.58 2.08-1.54.12-.95-.62-1.82-1.66-1.93-1.03-.1-1.96.58-2.08 1.54z"/></g></g></g><g><path fill="#ECF7FB" d="M85.24 91.75c-.06-.24-1.16-6.01-10.66-6-6.66 0-7.85 5.15-7.87 5.2a.43.43 0 0 0 .07.44c.1.11.3 2.2 8.31 2.46 6.8.23 9.9-1.56 10-1.66a.44.44 0 0 0 .15-.44z"/><defs><path id="S" d="M85.24 91.75c-.06-.24-1.16-6.01-10.66-6-6.66 0-7.85 5.15-7.87 5.2a.43.43 0 0 0 .07.44c.1.11.3 2.2 8.31 2.46 6.8.23 9.9-1.56 10-1.66a.44.44 0 0 0 .15-.44z"/></defs><clipPath id="T"><use xlink:href="#S" overflow="visible"/></clipPath><g clip-path="url(#T)"><radialGradient id="U" cx="10.15" cy="163.96" r="4.11" gradientTransform="matrix(.9935 -.1056 .1139 .9211 47.68 -60.57)" gradientUnits="userSpaceOnUse"><stop offset=".01" stop-color="#86c556"/><stop offset=".73" stop-color="#277e40"/><stop offset="1" stop-color="#1e543c"/></radialGradient><path fill="url(#U)" d="M72.36 89.82c.26 2.09 2.3 3.6 4.55 3.35 2.26-.24 3.88-2.13 3.62-4.22-.26-2.09-2.3-3.6-4.55-3.35-2.26.24-3.88 2.13-3.62 4.22z"/><radialGradient id="V" cx="10.15" cy="163.96" r="1.88" gradientTransform="matrix(.9935 -.1056 .1139 .9211 47.68 -60.57)" gradientUnits="userSpaceOnUse"><stop offset=".82" stop-color="#010101"/><stop offset="1" stop-color="#2f7756"/></radialGradient><path fill="url(#V)" d="M78.31 89.19c.12.95-.62 1.82-1.65 1.93-1.03.1-1.97-.58-2.09-1.54-.12-.95.63-1.82 1.66-1.93 1.03-.1 1.96.58 2.08 1.54z"/></g><path fill="#ECF7FB" d="M103.27 91.75c.06-.24 1.16-6.01 10.65-6 6.67 0 7.86 5.15 7.88 5.2.06.15.03.31-.07.44-.1.11-.3 2.2-8.31 2.46-6.81.23-9.9-1.56-10.01-1.66a.45.45 0 0 1-.14-.44z"/><g><defs><path id="W" d="M103.27 91.75c.06-.24 1.16-6.01 10.65-6 6.67 0 7.86 5.15 7.88 5.2.06.15.03.31-.07.44-.1.11-.3 2.2-8.31 2.46-6.81.23-9.9-1.56-10.01-1.66a.45.45 0 0 1-.14-.44z"/></defs><clipPath id="X"><use xlink:href="#W" overflow="visible"/></clipPath><g clip-path="url(#X)"><radialGradient id="Y" cx="-597.64" cy="94.28" r="4.11" gradientTransform="matrix(-.9935 -.1056 -.1139 .9211 -470.8 -60.57)" gradientUnits="userSpaceOnUse"><stop offset=".01" stop-color="#86c556"/><stop offset=".73" stop-color="#277e40"/><stop offset="1" stop-color="#1e543c"/></radialGradient><path fill="url(#Y)" d="M116.3 89.82c-.25 2.09-2.3 3.6-4.55 3.35-2.25-.24-3.87-2.13-3.61-4.22.26-2.09 2.3-3.6 4.55-3.35 2.26.24 3.88 2.13 3.62 4.22z"/><radialGradient id="Z" cx="-597.64" cy="94.28" r="1.88" gradientTransform="matrix(-.9935 -.1056 -.1139 .9211 -470.8 -60.57)" gradientUnits="userSpaceOnUse"><stop offset=".82" stop-color="#010101"/><stop offset="1" stop-color="#2f7756"/></radialGradient><path fill="url(#Z)" d="M110.35 89.19c-.11.95.63 1.82 1.66 1.93 1.03.1 1.96-.58 2.08-1.54.12-.95-.62-1.82-1.66-1.93-1.03-.1-1.96.58-2.08 1.54z"/></g></g></g></g><g><path fill="#CA6C29" d="M77.02 80.75c5.53.3 6.19.38 10.42 2.08-1.11-3.62-.44-5.16-7.8-6.12-12.04-1.56-15.27 3.58-17.34 6.05 3.51-1.67 8.77-2.34 14.72-2.01zM111.49 80.75c-5.53.3-6.19.38-10.42 2.08 1.11-3.62.44-5.16 7.8-6.12 12.04-1.56 15.27 3.58 17.34 6.05-3.51-1.67-8.77-2.34-14.72-2.01z"/><g fill="#CA6C29"><path d="M56.83 83.12c.02-15.48 1.43-28.36 6.43-37.54A46.62 46.62 0 0 0 50.9 81.76l.83-.2c1.69-.3 3.45.3 5.1 1.56zM137.63 81.51a46.61 46.61 0 0 0-12.43-35.98c5.02 9.15 6.45 21.99 6.48 37.43a8.01 8.01 0 0 1 5.95-1.45z"/></g><path fill="#CA6C29" d="M94.07 115.77c-34.6-4.03-7.31 36.03-35.38-12.42 0 9.7 7.59 39.1 35.35 39.16h.06c27.77-.05 35.73-29.8 35.73-39.35-28.17 47.43-.93 8.58-35.76 12.6zm.13 11.92c-8.4 5.15-13.3-4.08-13.3-6.52 0-.39.95-.52 6.56.36 5.6.88 6.74-.88 6.74-.88s1.13 1.76 6.74.88c5.6-.88 6.55-.75 6.55-.36 0 2.44-5.5 12.44-13.3 6.52z"/><g><path fill="#CA6C29" d="M137.23 81.44a37.3 37.3 0 0 0 2.22-21.65 37.5 37.5 0 0 0-5.9-13.93c-1.27-2.65-3.59-5.23-6.7-7.55-10.28-9.03-25.32-13.41-40.8-10.55-25.08 4.64-41.81 26.5-37.4 48.83.38 1.85.89 3.63 1.51 5.37.49-.17 1-.32 1.57-.42 1.7-.3 3.45.3 5.1 1.56 0-4.82.15-9.4.49-13.69 3.46-2.06 7.6-6.7 11-12.74a50.4 50.4 0 0 0 3.02-6.33c4.9 5.85 14.69 10.9 26.59 13.02 13.2 2.34 25.4.43 31.89-4.33 1.36 6.97 1.84 15 1.86 23.9a7.95 7.95 0 0 1 5.55-1.49z"/></g></g><g><path fill="#58544A" d="M102.36 19.62c.06-.23.1-.47.1-.7 0-2.77-4.06-5-9.06-5-5 0-9.06 2.23-9.06 5 0 .23.04.47.1.7a56.97 56.97 0 0 1 17.92 0z"/><path fill="#5B7347" d="M137.96 52.25c.03.5.05 1 .05 1.5 0 4.81-89.23 4.81-89.23 0 0-.35.02-.7.04-1.06-3.06 1.28-3.16 4.01-3.16 7.2v7.57c0 4.16 1.5 5.32 6.2 6.2 7.88 2.14 23.56 4 42.2 4 18.62 0 34.14-2.4 42.16-4.41 4.5-1.15 6.23-1.63 6.23-5.8V59.9c0-3.63-.73-6.68-4.49-7.64z"/><path fill="#768F4A" d="M138.01 53.75c0-.5-.02-1-.05-1.5-.83-15.35-21.05-30.31-35.6-32.63a57.06 57.06 0 0 0-17.92 0C69.7 21.96 49.4 37.15 48.8 52.69c0 .35-.03.7-.03 1.06 0 4.81 89.23 4.81 89.23 0z"/></g><path fill="none" d="M179.08-.53H9.42a10.7 10.7 0 0 0-10.7 10.7v169.66c0 5.9 4.8 10.7 10.7 10.7h169.66c5.9 0 10.7-4.8 10.7-10.7V10.17c0-5.9-4.8-10.7-10.7-10.7z"/></svg>