<svg xmlns="http://www.w3.org/2000/svg" xmlns:xlink="http://www.w3.org/1999/xlink" viewBox="0 0 190 190"><g opacity=".56"><path fill="#918E86" d="M138.1 81.53a8.08 8.08 0 0 0-6.42 1.4c-.06-31.9-6.07-52.73-37.45-52.73-31.43 0-37.36 20.91-37.4 52.89-1.65-1.27-3.41-1.87-5.1-1.56-7.2 1.29-7.07 7.69-5.17 16.33 2.34 10.62 5.51 13.28 10.7 12.35a6.4 6.4 0 0 0 3-1.45c2.83 9.5 7.2 16.9 12.21 22.25v16.61h43.56v-16.6c5.06-5.4 9.45-12.87 12.28-22.5a6.48 6.48 0 0 0 3.26 1.7c5.2.93 8.37-1.74 10.7-12.36 1.8-8.19.49-15.5-4.17-16.33z"/></g><g fill="#D09C70"><path d="M142.28 97.87c-2.34 10.62-5.51 13.29-10.7 12.36-4.66-.84-7.97-7.2-6.17-15.39 1.7-7.72 5.5-14.6 12.7-13.3 4.65.84 5.97 8.15 4.17 16.33zM46.56 97.87c2.34 10.62 5.51 13.29 10.7 12.36 4.66-.84 7.97-7.2 6.17-15.39-1.8-8.18-7.04-14.14-11.7-13.3-7.2 1.3-7.07 7.69-5.17 16.33z"/></g><g fill="#A87B53"><path d="M138.62 98.28c-1.26 5.73-3.94 8-7.2 7.41-3.25-.58-5.87-3.8-4.6-9.53 1.26-5.73 4.92-9.9 8.18-9.31 5.8 1.04 4.98 5.24 3.62 11.43zM49.89 98.28c1.26 5.73 3.93 8 7.2 7.41 3.25-.58 5.86-3.8 4.6-9.53-1.26-5.73-4.93-9.9-8.19-9.31-5.8 1.04-4.97 5.24-3.61 11.43z"/></g><linearGradient id="j" x1="94.25" x2="94.25" y1="150.26" y2="135.35" gradientUnits="userSpaceOnUse"><stop offset=".29" stop-color="#dea878"/><stop offset="1" stop-color="#a37752"/></linearGradient><path fill="url(#j)" d="M72.47 131.02h43.56v16.61H72.47z"/><path fill="#D09C70" d="M131.68 83.4c0 39.83-21.36 58.4-37.43 58.4-16.06 0-37.42-18.57-37.42-58.4 0-32.15 5.87-53.19 37.4-53.19 31.53 0 37.45 21.04 37.45 53.19z"/><path fill="#A67954" d="M94.25 112.13a17 17 0 0 1-7.86-1.8c1.43 2.74 5.79 4.7 7.86 4.7 2.08 0 6.44-1.96 7.87-4.7a16.97 16.97 0 0 1-7.87 1.8zM93.95 123.62c-5.4 0-9.79-1.48-11.42-1.77 2.35 2.01 1.7 5.84 11.6 5.84 9.95 0 9.48-3.85 11.84-5.88-1.69.29-6.52 1.81-12.02 1.81z"/><path fill="none" stroke="#885E45" stroke-miterlimit="10" d="M82.57 122.08s4.96 1.54 11.42 1.54 11.95-1.57 11.95-1.57" stroke-linecap="round" stroke-linejoin="round"/><g><path fill="#31302A" d="M77.02 80.75c5.53.3 6.19.38 10.42 2.08-1.11-3.62-.44-5.16-7.8-6.12-12.04-1.56-15.27 3.58-17.34 6.05 3.51-1.67 8.77-2.34 14.72-2.01zM111.49 80.75c-5.53.3-6.19.38-10.42 2.08 1.11-3.62.43-5.16 7.8-6.12 12.04-1.56 15.27 3.58 17.34 6.05-3.51-1.67-8.77-2.34-14.72-2.01z"/></g><g><path fill="#ECF7FB" d="M85.24 91.85c-.06-.22-1.16-5.72-10.66-5.72-6.66 0-7.85 4.16-7.87 4.21a.4.4 0 0 0 .07.42c.02.02 3.07 2.92 8.3 3.09 6.82.22 9.9-1.49 10.02-1.58a.41.41 0 0 0 .14-.42z"/><defs><path id="k" d="M85.24 91.85c-.06-.22-1.16-5.72-10.66-5.72-6.66 0-7.85 4.16-7.87 4.21a.4.4 0 0 0 .07.42c.02.02 3.07 2.92 8.3 3.09 6.82.22 9.9-1.49 10.02-1.58a.41.41 0 0 0 .14-.42z"/></defs><clipPath id="l"><use xlink:href="#k" overflow="visible"/></clipPath><g clip-path="url(#l)"><radialGradient id="m" cx="10.15" cy="163.96" r="4.11" gradientTransform="matrix(.9935 -.1056 .1139 .9211 47.68 -60.57)" gradientUnits="userSpaceOnUse"><stop offset=".01" stop-color="#b37852"/><stop offset=".73" stop-color="#7b573e"/><stop offset="1" stop-color="#57321d"/></radialGradient><path fill="url(#m)" d="M72.36 89.82c.25 2.09 2.3 3.6 4.55 3.35 2.26-.24 3.88-2.13 3.62-4.22-.26-2.09-2.3-3.6-4.56-3.35-2.25.24-3.87 2.13-3.61 4.22z"/><radialGradient id="n" cx="10.15" cy="163.96" r="1.88" gradientTransform="matrix(.9935 -.1056 .1139 .9211 47.68 -60.57)" gradientUnits="userSpaceOnUse"><stop offset=".72" stop-color="#010101"/><stop offset="1" stop-color="#5a4524"/></radialGradient><path fill="url(#n)" d="M78.31 89.19c.12.95-.62 1.82-1.65 1.93-1.03.1-1.97-.58-2.09-1.54-.12-.95.63-1.82 1.66-1.93 1.03-.1 1.96.58 2.08 1.54z"/></g><path fill="#ECF7FB" d="M103.27 91.85c.06-.22 1.16-5.72 10.65-5.72 6.67 0 7.86 4.16 7.88 4.21a.4.4 0 0 1-.08.42c-.01.02-3.07 2.92-8.3 3.09-6.81.22-9.9-1.49-10.01-1.58a.41.41 0 0 1-.14-.42z"/><g><defs><path id="o" d="M103.27 91.85c.06-.22 1.16-5.72 10.65-5.72 6.67 0 7.86 4.16 7.88 4.21a.4.4 0 0 1-.08.42c-.01.02-3.07 2.92-8.3 3.09-6.81.22-9.9-1.49-10.01-1.58a.41.41 0 0 1-.14-.42z"/></defs><clipPath id="p"><use xlink:href="#o" overflow="visible"/></clipPath><g clip-path="url(#p)"><radialGradient id="q" cx="-597.64" cy="94.28" r="4.11" gradientTransform="matrix(-.9935 -.1056 -.1139 .9211 -470.8 -60.57)" gradientUnits="userSpaceOnUse"><stop offset=".01" stop-color="#b37852"/><stop offset=".73" stop-color="#7b573e"/><stop offset="1" stop-color="#57321d"/></radialGradient><path fill="url(#q)" d="M116.3 89.82c-.25 2.09-2.3 3.6-4.55 3.35-2.25-.24-3.87-2.13-3.61-4.22.25-2.09 2.3-3.6 4.55-3.35 2.25.24 3.87 2.13 3.62 4.22z"/><radialGradient id="r" cx="-597.64" cy="94.28" r="1.88" gradientTransform="matrix(-.9935 -.1056 -.1139 .9211 -470.8 -60.57)" gradientUnits="userSpaceOnUse"><stop offset=".72" stop-color="#010101"/><stop offset="1" stop-color="#5a4524"/></radialGradient><path fill="url(#r)" d="M110.35 89.19c-.12.95.63 1.82 1.66 1.93 1.03.1 1.96-.58 2.08-1.54.12-.95-.62-1.82-1.66-1.93-1.03-.1-1.96.58-2.08 1.54z"/></g></g></g><g fill="#32383D"><path d="M56.83 83.08c.02-15.48 1.43-28.36 6.43-37.54A46.62 46.62 0 0 0 50.9 81.72c.27-.07.54-.15.83-.2 1.69-.3 3.45.3 5.1 1.56zM137.63 81.47a46.61 46.61 0 0 0-12.43-35.98c5.02 9.15 6.45 21.99 6.48 37.43a8 8 0 0 1 5.95-1.45z"/></g><path fill="#31302A" d="M110.52 117.3c-1.59-3.4-7.64-1.08-16.16-1.08s-14.92-2.02-16 1.07c-.57 1.6 1.6 16.78 2.13 18.66.53 1.92 3.24 5.7 12.31 6.82.41.07 1.07.12 1.56.11.05 0-.04 0 0 0 .05 0-.04 0 0 0 .5 0 1-.04 1.42-.11 9.07-1.11 11.8-4.9 12.33-6.82.56-2.02 3.42-16.5 2.4-18.66zm-6.42 11.97c-3.18 1.52-5.84 1.55-6.1.63-.16-.57-.69-2.26-.69-2.26l-2.98.09-3.06-.1s-.54 1.7-.7 2.27c-.27 1.17-2.91.89-6.1-.63-3.83-1.82-4.27-4.16-3.21-8.46.17-.69.43-.84 2.8-.17 8.49 2.42 10.3-.8 10.3-.8s1.82 3.04 10.38.64c2.02-.58 2.35-.29 2.47.17 1.13 4.51.78 6.77-3.1 8.62z"/><path fill="none" d="M179.08-.53H9.42a10.7 10.7 0 0 0-10.7 10.7v169.66c0 5.9 4.8 10.7 10.7 10.7h169.66c5.9 0 10.7-4.8 10.7-10.7V10.17c0-5.9-4.8-10.7-10.7-10.7z"/></svg>