<svg xmlns="http://www.w3.org/2000/svg" xmlns:xlink="http://www.w3.org/1999/xlink" viewBox="0 0 190 190"><g opacity=".56"><path fill="#918E86" d="M138.1 81.53a8.08 8.08 0 0 0-6.42 1.4c-.06-31.9-6.07-52.73-37.45-52.73-31.43 0-37.36 20.91-37.4 52.89-1.65-1.27-3.41-1.87-5.1-1.56-7.2 1.29-7.07 7.69-5.17 16.33 2.34 10.62 5.51 13.28 10.7 12.35a6.4 6.4 0 0 0 3-1.45c2.83 9.5 7.2 16.9 12.21 22.25v16.61h43.56v-16.6c5.06-5.4 9.45-12.87 12.28-22.5a6.48 6.48 0 0 0 3.26 1.7c5.2.93 8.37-1.74 10.7-12.36 1.8-8.19.49-15.5-4.17-16.33z"/></g><g fill="#D09C70"><path d="M142.28 97.87c-2.34 10.62-5.51 13.29-10.7 12.36-4.66-.84-7.97-7.2-6.17-15.39 1.7-7.72 5.5-14.6 12.7-13.3 4.65.84 5.97 8.15 4.17 16.33zM46.56 97.87c2.34 10.62 5.51 13.29 10.7 12.36 4.66-.84 7.97-7.2 6.17-15.39-1.8-8.18-7.04-14.14-11.7-13.3-7.2 1.3-7.07 7.69-5.17 16.33z"/></g><g fill="#A87B53"><path d="M138.62 98.28c-1.26 5.73-3.94 8-7.2 7.41-3.25-.58-5.87-3.8-4.6-9.53 1.26-5.73 4.92-9.9 8.18-9.31 5.8 1.04 4.98 5.24 3.62 11.43zM49.89 98.28c1.26 5.73 3.93 8 7.2 7.41 3.25-.58 5.86-3.8 4.6-9.53-1.26-5.73-4.93-9.9-8.19-9.31-5.8 1.04-4.97 5.24-3.61 11.43z"/></g><linearGradient id="j" x1="94.25" x2="94.25" y1="41.74" y2="56.65" gradientUnits="userSpaceOnUse" gradientTransform="matrix(1 0 0 -1 0 192)"><stop offset=".29" stop-color="#dea878"/><stop offset="1" stop-color="#a37752"/></linearGradient><path fill="url(#j)" d="M72.47 131.02h43.56v16.61H72.47z"/><path fill="#D09C70" d="M131.68 83.4c0 39.83-21.36 58.4-37.43 58.4-16.06 0-37.42-18.57-37.42-58.4 0-32.15 5.87-53.19 37.4-53.19 31.53 0 37.45 21.04 37.45 53.19z"/><path fill="#A67954" d="M94.25 112.13a17 17 0 0 1-7.86-1.8c1.43 2.74 5.79 4.7 7.86 4.7s6.44-1.96 7.87-4.7a16.97 16.97 0 0 1-7.87 1.8zM93.95 123.62c-5.4 0-9.79-1.48-11.42-1.77 2.35 2.01 1.7 5.84 11.6 5.84 9.95 0 9.48-3.85 11.84-5.88-1.69.29-6.52 1.81-12.02 1.81z"/><path fill="none" stroke="#885E45" stroke-miterlimit="10" d="M82.57 122.08s4.96 1.54 11.42 1.54 11.95-1.57 11.95-1.57" stroke-linecap="round" stroke-linejoin="round"/><g><path fill="#31302A" d="M77.02 80.75c5.53.3 6.19.38 10.42 2.08-1.11-3.62-.44-5.16-7.8-6.12-12.04-1.56-15.27 3.58-17.34 6.05 3.51-1.67 8.77-2.34 14.72-2.01zM111.49 80.75c-5.53.3-6.19.38-10.42 2.08 1.11-3.62.43-5.16 7.8-6.12 12.04-1.56 15.27 3.58 17.34 6.05-3.51-1.67-8.77-2.34-14.72-2.01z"/></g><g><path fill="#ECF7FB" d="M85.24 91.85c-.06-.22-1.16-5.72-10.66-5.72-6.66 0-7.85 4.16-7.87 4.21a.4.4 0 0 0 .07.42c.02.02 3.07 2.92 8.3 3.09 6.82.22 9.9-1.49 10.02-1.58a.41.41 0 0 0 .14-.42z"/><defs><path id="k" d="M85.24 91.85c-.06-.22-1.16-5.72-10.66-5.72-6.66 0-7.85 4.16-7.87 4.21a.4.4 0 0 0 .07.42c.02.02 3.07 2.92 8.3 3.09 6.82.22 9.9-1.49 10.02-1.58a.41.41 0 0 0 .14-.42z"/></defs><clipPath id="l"><use xlink:href="#k" overflow="visible"/></clipPath><g clip-path="url(#l)"><radialGradient id="m" cx="9.63" cy="27.29" r="4.11" gradientTransform="matrix(.9935 -.1056 -.1139 -.9211 69.98 115.54)" gradientUnits="userSpaceOnUse"><stop offset=".01" stop-color="#b37852"/><stop offset=".73" stop-color="#7b573e"/><stop offset="1" stop-color="#57321d"/></radialGradient><path fill="url(#m)" d="M72.36 89.82c.25 2.09 2.3 3.6 4.55 3.35 2.26-.24 3.88-2.13 3.62-4.22-.26-2.09-2.3-3.6-4.56-3.35-2.25.24-3.87 2.13-3.61 4.22z"/><radialGradient id="n" cx="9.63" cy="27.29" r="1.88" gradientTransform="matrix(.9935 -.1056 -.1139 -.9211 69.98 115.54)" gradientUnits="userSpaceOnUse"><stop offset=".72" stop-color="#010101"/><stop offset="1" stop-color="#5a4524"/></radialGradient><path fill="url(#n)" d="M78.31 89.19c.12.95-.62 1.82-1.65 1.93-1.03.1-1.97-.58-2.09-1.54-.12-.95.63-1.82 1.66-1.93 1.03-.1 1.96.58 2.08 1.54z"/></g><path fill="#ECF7FB" d="M103.27 91.85c.06-.22 1.16-5.72 10.65-5.72 6.67 0 7.86 4.16 7.88 4.21a.4.4 0 0 1-.08.42c-.01.02-3.07 2.92-8.3 3.09-6.81.22-9.9-1.49-10.01-1.58a.41.41 0 0 1-.14-.42z"/><g><defs><path id="o" d="M103.27 91.85c.06-.22 1.16-5.72 10.65-5.72 6.67 0 7.86 4.16 7.88 4.21a.4.4 0 0 1-.08.42c-.01.02-3.07 2.92-8.3 3.09-6.81.22-9.9-1.49-10.01-1.58a.41.41 0 0 1-.14-.42z"/></defs><clipPath id="p"><use xlink:href="#o" overflow="visible"/></clipPath><g clip-path="url(#p)"><radialGradient id="q" cx="-606.11" cy="97.89" r="4.11" gradientTransform="matrix(-.9935 -.1056 .1139 -.9211 -501.1 115.54)" gradientUnits="userSpaceOnUse"><stop offset=".01" stop-color="#b37852"/><stop offset=".73" stop-color="#7b573e"/><stop offset="1" stop-color="#57321d"/></radialGradient><path fill="url(#q)" d="M116.3 89.82c-.25 2.09-2.3 3.6-4.55 3.35-2.25-.24-3.87-2.13-3.61-4.22.25-2.09 2.3-3.6 4.55-3.35 2.25.24 3.87 2.13 3.62 4.22z"/><radialGradient id="r" cx="-606.11" cy="97.88" r="1.88" gradientTransform="matrix(-.9935 -.1056 .1139 -.9211 -501.1 115.54)" gradientUnits="userSpaceOnUse"><stop offset=".72" stop-color="#010101"/><stop offset="1" stop-color="#5a4524"/></radialGradient><path fill="url(#r)" d="M110.35 89.19c-.12.95.63 1.82 1.66 1.93 1.03.1 1.96-.58 2.08-1.54.12-.95-.62-1.82-1.66-1.93-1.03-.1-1.96.58-2.08 1.54z"/></g></g></g><path fill="#31302A" d="M110.62 122.43s-.55-2.49-2.52-4.58c-1.42-1.6-14.14-2.58-14.13-2.47 0-.11-12.71.87-14.14 2.47a10.92 10.92 0 0 0-2.52 4.58s3.41-1.1 8.08-1.3c5.74-.22 8.57-1.87 8.58-1.88 0 .01 2.5 1.66 8.57 1.88 4.67.2 8.08 1.3 8.08 1.3zM94.57 24.02C69.73 24.3 49.6 44.6 49.62 69.36c0 4.26.61 8.36 1.73 12.25l.38-.09c1.68-.3 3.45.3 5.1 1.56.02-19.63 2.27-31.03 11.27-40.04 1.07 9.21 10.26 16.63 27.7 21.13 14.35 3.7 27.94 1.8 34.2-4.08 1.22 6.71 1.66 14.38 1.67 22.83a8.02 8.02 0 0 1 5.98-1.45 44.86 44.86 0 0 0 1.94-13.12 44.34 44.34 0 0 0-45.02-44.33z"/><g><path fill="#54585A" d="M133.78 81.66c-.35-.22-.32-.33-8.66-.33-3.52 0-6.86.03-10.38.05-2.55.02-4.43.06-5.81.12-4.74.2-6.44.62-8.13 1.84-.74.54-2.15.7-3.7.7-1.58 0-3.14.03-3.33.04-.19 0-1.74-.03-3.33-.03-1.55 0-2.96-.17-3.7-.7-1.7-1.23-3.4-1.65-8.12-1.85-1.39-.06-3.27-.1-5.82-.12-3.52-.02-6.86-.05-10.38-.05-8.33 0-8.3.11-8.66.33-.35.22-.33 5.75-.17 6.16.1.27.28.42.56.51.28.1 2.62 1.17 3.23 3.77.42 1.81 1.56 9.86 6.44 11.98 2.71 1.17 5.4 1.23 8.28 1.23 2.7 0 5.25-.4 7.4-1.13 4.88-1.62 7.88-4.06 9.22-7.62.62-1.65 1.14-3.3 1.43-4.46.3-1.18.7-1.92.98-2.13.99-.7 2.06-.64 2.61-.63h.06c.55-.01 1.63-.08 2.61.63.28.2.69.95.98 2.13.3 1.17.81 2.81 1.44 4.46 1.34 3.56 4.33 6 9.21 7.62a23.7 23.7 0 0 0 7.4 1.13c2.87 0 5.57-.06 8.28-1.23 4.89-2.12 6.02-10.17 6.44-11.98.6-2.6 2.95-3.67 3.23-3.77s.47-.24.56-.5c.16-.43.19-5.95-.17-6.17zM87 93.45c-1.23 4.91-2.76 6.48-7.48 8.4a23.05 23.05 0 0 1-8.2 1.4c-2.32 0-3.48-.13-5.06-.57-4.79-1.35-5.95-9.24-5.71-13.5.1-1.8.55-3.52 4.97-4.63 1.54-.38 3.1-.58 5.99-.58 5.84 0 11.15.02 13.14 1.3 2.56 1.65 3.32 4.32 2.35 8.18zm34.29 9.23a16.4 16.4 0 0 1-5.07.58c-2.27 0-5.54-.32-8.2-1.4-4.72-1.93-6.25-3.5-7.48-8.41-.96-3.86-.2-6.53 2.35-8.18 2-1.28 7.31-1.3 13.15-1.3 2.9 0 4.45.2 5.98.58 4.42 1.11 4.88 2.82 4.98 4.63.23 4.26-.93 12.15-5.71 13.5z"/></g><path fill="none" d="M179.08-.53H9.42a10.7 10.7 0 0 0-10.7 10.7v169.66c0 5.9 4.8 10.7 10.7 10.7h169.66c5.9 0 10.7-4.8 10.7-10.7V10.17c0-5.9-4.8-10.7-10.7-10.7z"/></svg>