<svg xmlns="http://www.w3.org/2000/svg" xmlns:xlink="http://www.w3.org/1999/xlink" viewBox="0 0 190 190"><path fill="#FFD79D" d="M66.45 104.37c.98 6.94-1.92 13-6.47 13.53-4.56.53-9.05-4.66-10.03-11.6-.98-6.95 1.92-13 6.47-13.54 4.55-.53 9.05 4.67 10.03 11.6z"/><path fill="#D9B785" d="M63.48 104.72c.63 4.44-1.23 8.32-4.14 8.66-2.92.34-5.8-2.99-6.42-7.43-.63-4.44 1.23-8.32 4.14-8.66s5.79 2.98 6.42 7.42z"/><path fill="#FFD79D" d="M122.44 104.37c-.98 6.94 1.91 13 6.47 13.53 4.56.53 9.04-4.66 10.02-11.6.99-6.95-1.91-13-6.47-13.54-4.55-.53-9.04 4.67-10.02 11.6z"/><path fill="#D9B785" d="M125.4 104.72c-.62 4.44 1.24 8.32 4.15 8.66 2.91.34 5.79-2.99 6.41-7.43.63-4.44-1.22-8.32-4.13-8.66-2.92-.34-5.8 2.98-6.42 7.42z"/><linearGradient id="a" x1="94.44" x2="94.44" y1="148.79" y2="135.35" gradientUnits="userSpaceOnUse"><stop offset=".47" stop-color="#ffd79d"/><stop offset="1" stop-color="#d4ab70"/></linearGradient><path fill="url(#a)" d="M82.52 131.45h23.84v14.97H82.52z"/><path fill="#FFD79D" d="M127.63 100.2c0 24.92-20.04 38.74-33.19 38.74-13.15 0-33.18-13.82-33.18-38.74 0-27.57 10.51-43.17 33.18-43.17s33.19 15.6 33.19 43.17z"/><path fill="#D9B785" d="M88.57 115.51c1.43 1.63 4.37 2.82 5.87 2.82s4.44-1.19 5.88-2.81a17.26 17.26 0 0 1-11.75 0z"/><g><path fill="#E0B07E" d="M94.21 125.22c-4.07 0-7.38-1.32-8.61-1.71 1.77 2.7 3.25 5.68 8.75 5.68 5.54 0 7.15-3 8.94-5.73-1.28.38-4.93 1.76-9.08 1.76z"/><path fill="none" stroke="#887454" stroke-miterlimit="10" d="M85.83 123.77s3.92 1.46 8.68 1.46 8.54-1.5 8.54-1.5" stroke-linecap="round" stroke-linejoin="round"/></g><g fill="#31302A"><path d="M87.77 93.84l-.18-.04c-2.76-1.26-4.05-1.78-8.4-2.13-.59-.05-1.21-.07-1.84-.07-3.56 0-6.8.78-8.29 1.51a.45.45 0 0 1-.46-.04.38.38 0 0 1-.13-.42c.94-2.84 4.16-4.35 9.3-4.35.66 0 1.36.03 2.07.08 4.64.34 7.08 2.84 8.3 4.87.1.15.07.34-.06.46a.43.43 0 0 1-.3.13zM100.05 93.71a.38.38 0 0 1-.06-.46c1.22-2.03 3.66-4.53 8.3-4.87.7-.05 1.4-.08 2.07-.08 5.14 0 8.35 1.5 9.3 4.35.05.15 0 .32-.13.42a.45.45 0 0 1-.47.04c-1.49-.73-4.72-1.51-8.29-1.51-.62 0-1.24.02-1.84.07-4.34.35-5.63.87-8.4 2.13l-.18.04a.42.42 0 0 1-.3-.13z"/></g><g><path fill="#ECF7FB" d="M78.92 97.45c-.36 0-.73.02-1.1.06-4.53.5-6.22 3.35-6.33 4.66-.03.37.17.78.58 1.23 1.22 1.31 4.12 2.44 7.6 2.44h.06c3.16-.02 5.47-1 6.57-2.18.28-.3.75-.88.71-1.4-.07-1.04-3.16-4.8-8.09-4.8zm.73 8.37z"/><defs><path id="b" d="M78.92 97.45c-.36 0-.73.02-1.1.06-4.53.5-6.22 3.35-6.33 4.66-.03.37.17.78.58 1.23 1.22 1.31 4.12 2.44 7.6 2.44h.06c3.16-.02 5.47-1 6.57-2.18.28-.3.75-.88.71-1.4-.07-1.04-3.16-4.8-8.09-4.8zm.73 8.85z"/></defs><clipPath id="c"><use xlink:href="#b" overflow="visible"/></clipPath><g clip-path="url(#c)"><radialGradient id="d" cx="81.96" cy="121.88" r="4.46" gradientTransform="matrix(.9686 0 0 .9604 -.14 -15.88)" gradientUnits="userSpaceOnUse"><stop offset=".01" stop-color="#b37852"/><stop offset=".73" stop-color="#7b573e"/><stop offset="1" stop-color="#57321d"/></radialGradient><ellipse cx="79.25" cy="101.17" fill="url(#d)" rx="4.32" ry="4.28"/><radialGradient id="e" cx="81.96" cy="121.88" r="2.04" gradientTransform="matrix(.9686 0 0 .9604 -.14 -15.88)" gradientUnits="userSpaceOnUse"><stop offset=".72" stop-color="#010101"/><stop offset="1" stop-color="#5a4524"/></radialGradient><ellipse cx="79.25" cy="101.17" fill="url(#e)" rx="1.98" ry="1.96"/></g><path fill="#ECF7FB" d="M111.06 97.51a9.82 9.82 0 0 0-1.1-.06c-4.92 0-8.01 3.77-8.09 4.8-.03.53.43 1.1.71 1.4 1.1 1.2 3.42 2.17 6.57 2.19h.07c3.48 0 6.37-1.12 7.6-2.44.4-.45.6-.86.57-1.23-.1-1.3-1.8-4.16-6.33-4.66zm-1.82 8.31z"/><g><defs><path id="f" d="M111.06 97.51a9.82 9.82 0 0 0-1.1-.06c-4.92 0-8.01 3.77-8.09 4.8-.03.53.43 1.1.71 1.4 1.1 1.2 3.42 2.17 6.57 2.19h.07c3.48 0 6.37-1.12 7.6-2.44.4-.45.6-.86.57-1.23-.1-1.3-1.8-4.16-6.33-4.66zm-1.6 8.79z"/></defs><clipPath id="g"><use xlink:href="#f" overflow="visible"/></clipPath><g clip-path="url(#g)"><radialGradient id="h" cx="-226.59" cy="121.88" r="4.46" gradientTransform="matrix(-.9686 0 0 .9604 -110.16 -15.88)" gradientUnits="userSpaceOnUse"><stop offset=".01" stop-color="#b37852"/><stop offset=".73" stop-color="#7b573e"/><stop offset="1" stop-color="#57321d"/></radialGradient><ellipse cx="109.31" cy="101.17" fill="url(#h)" rx="4.32" ry="4.28"/><radialGradient id="i" cx="-226.59" cy="121.88" r="2.04" gradientTransform="matrix(-.9686 0 0 .9604 -110.16 -15.88)" gradientUnits="userSpaceOnUse"><stop offset=".72" stop-color="#010101"/><stop offset="1" stop-color="#5a4524"/></radialGradient><ellipse cx="109.31" cy="101.17" fill="url(#i)" rx="1.98" ry="1.96"/></g></g></g><g><path fill="#ECF7FB" d="M78.92 97.45c-.36 0-.73.02-1.1.06-4.53.5-6.22 3.35-6.33 4.66-.03.37.17.78.58 1.23 1.22 1.31 4.12 2.44 7.6 2.44h.06c3.16-.02 5.47-1 6.57-2.18.28-.3.75-.88.71-1.4-.07-1.04-3.16-4.8-8.09-4.8zm.73 8.37z"/><defs><path id="j" d="M78.92 97.45c-.36 0-.73.02-1.1.06-4.53.5-6.22 3.35-6.33 4.66-.03.37.17.78.58 1.23 1.22 1.31 4.12 2.44 7.6 2.44h.06c3.16-.02 5.47-1 6.57-2.18.28-.3.75-.88.71-1.4-.07-1.04-3.16-4.8-8.09-4.8zm.73 8.85z"/></defs><clipPath id="k"><use xlink:href="#j" overflow="visible"/></clipPath><g clip-path="url(#k)"><radialGradient id="l" cx="81.96" cy="121.88" r="4.46" gradientTransform="matrix(.9686 0 0 .9604 -.14 -15.88)" gradientUnits="userSpaceOnUse"><stop offset=".01" stop-color="#529ed6"/><stop offset=".73" stop-color="#3c60ad"/><stop offset="1" stop-color="#252542"/></radialGradient><ellipse cx="79.25" cy="101.17" fill="url(#l)" rx="4.32" ry="4.28"/><radialGradient id="m" cx="81.96" cy="121.88" r="2.04" gradientTransform="matrix(.9686 0 0 .9604 -.14 -15.88)" gradientUnits="userSpaceOnUse"><stop offset=".82" stop-color="#010101"/><stop offset="1" stop-color="#2f4a76"/></radialGradient><ellipse cx="79.25" cy="101.17" fill="url(#m)" rx="1.98" ry="1.96"/></g><path fill="#ECF7FB" d="M111.06 97.51a9.82 9.82 0 0 0-1.1-.06c-4.92 0-8.01 3.77-8.09 4.8-.03.53.43 1.1.71 1.4 1.1 1.2 3.42 2.17 6.57 2.19h.07c3.48 0 6.37-1.12 7.6-2.44.4-.45.6-.86.57-1.23-.1-1.3-1.8-4.16-6.33-4.66zm-1.82 8.31z"/><g><defs><path id="n" d="M111.06 97.51a9.82 9.82 0 0 0-1.1-.06c-4.92 0-8.01 3.77-8.09 4.8-.03.53.43 1.1.71 1.4 1.1 1.2 3.42 2.17 6.57 2.19h.07c3.48 0 6.37-1.12 7.6-2.44.4-.45.6-.86.57-1.23-.1-1.3-1.8-4.16-6.33-4.66zm-1.6 8.79z"/></defs><clipPath id="o"><use xlink:href="#n" overflow="visible"/></clipPath><g clip-path="url(#o)"><radialGradient id="p" cx="-226.59" cy="121.88" r="4.46" gradientTransform="matrix(-.9686 0 0 .9604 -110.16 -15.88)" gradientUnits="userSpaceOnUse"><stop offset=".01" stop-color="#529ed6"/><stop offset=".73" stop-color="#3c60ad"/><stop offset="1" stop-color="#252542"/></radialGradient><ellipse cx="109.31" cy="101.17" fill="url(#p)" rx="4.32" ry="4.28"/><radialGradient id="q" cx="-226.59" cy="121.88" r="2.04" gradientTransform="matrix(-.9686 0 0 .9604 -110.16 -15.88)" gradientUnits="userSpaceOnUse"><stop offset=".82" stop-color="#010101"/><stop offset="1" stop-color="#2f4a76"/></radialGradient><ellipse cx="109.31" cy="101.17" fill="url(#q)" rx="1.98" ry="1.96"/></g></g><g><path fill="#ECF7FB" d="M78.92 97.45c-.36 0-.73.02-1.1.06-4.53.5-6.22 3.35-6.33 4.66-.03.37.17.78.58 1.23 1.22 1.31 4.12 2.44 7.6 2.44h.06c3.16-.02 5.47-1 6.57-2.18.28-.3.75-.88.71-1.4-.07-1.04-3.16-4.8-8.09-4.8zm.73 8.37z"/><defs><path id="r" d="M78.92 97.45c-.36 0-.73.02-1.1.06-4.53.5-6.22 3.35-6.33 4.66-.03.37.17.78.58 1.23 1.22 1.31 4.12 2.44 7.6 2.44h.06c3.16-.02 5.47-1 6.57-2.18.28-.3.75-.88.71-1.4-.07-1.04-3.16-4.8-8.09-4.8zm.73 8.85z"/></defs><clipPath id="s"><use xlink:href="#r" overflow="visible"/></clipPath><g clip-path="url(#s)"><radialGradient id="t" cx="81.96" cy="121.88" r="4.46" gradientTransform="matrix(.9686 0 0 .9604 -.14 -15.88)" gradientUnits="userSpaceOnUse"><stop offset="0" stop-color="#7b573e"/><stop offset="1" stop-color="#503627"/></radialGradient><ellipse cx="79.25" cy="101.17" fill="url(#t)" rx="4.32" ry="4.28"/><radialGradient id="u" cx="81.96" cy="121.88" r="2.04" gradientTransform="matrix(.9686 0 0 .9604 -.14 -15.88)" gradientUnits="userSpaceOnUse"><stop offset=".72" stop-color="#010101"/><stop offset="1" stop-color="#432f1f"/></radialGradient><ellipse cx="79.25" cy="101.17" fill="url(#u)" rx="1.98" ry="1.96"/></g><path fill="#ECF7FB" d="M111.06 97.51a9.82 9.82 0 0 0-1.1-.06c-4.92 0-8.01 3.77-8.09 4.8-.03.53.43 1.1.71 1.4 1.1 1.2 3.42 2.17 6.57 2.19h.07c3.48 0 6.37-1.12 7.6-2.44.4-.45.6-.86.57-1.23-.1-1.3-1.8-4.16-6.33-4.66zm-1.82 8.31z"/><g><defs><path id="v" d="M111.06 97.51a9.82 9.82 0 0 0-1.1-.06c-4.92 0-8.01 3.77-8.09 4.8-.03.53.43 1.1.71 1.4 1.1 1.2 3.42 2.17 6.57 2.19h.07c3.48 0 6.37-1.12 7.6-2.44.4-.45.6-.86.57-1.23-.1-1.3-1.8-4.16-6.33-4.66zm-1.6 8.79z"/></defs><clipPath id="w"><use xlink:href="#v" overflow="visible"/></clipPath><g clip-path="url(#w)"><radialGradient id="x" cx="-226.59" cy="121.88" r="4.46" gradientTransform="matrix(-.9686 0 0 .9604 -110.16 -15.88)" gradientUnits="userSpaceOnUse"><stop offset="0" stop-color="#7b573e"/><stop offset="1" stop-color="#503627"/></radialGradient><ellipse cx="109.31" cy="101.17" fill="url(#x)" rx="4.32" ry="4.28"/><radialGradient id="y" cx="-226.59" cy="121.88" r="2.04" gradientTransform="matrix(-.9686 0 0 .9604 -110.16 -15.88)" gradientUnits="userSpaceOnUse"><stop offset=".72" stop-color="#010101"/><stop offset="1" stop-color="#432f1f"/></radialGradient><ellipse cx="109.31" cy="101.17" fill="url(#y)" rx="1.98" ry="1.96"/></g></g></g></g><g fill="#31302A"><path d="M128.9 117.9a6.2 6.2 0 0 1-4.1-2.43 38.58 38.58 0 0 1-18.45 20.35v3.92l20.35.08 3.55-21.94c-.45.05-.9.07-1.36.02zM64.05 115.47a6.2 6.2 0 0 1-4.09 2.43c-.12.02-.24 0-.37.02l4.23 21.64 18.69.08v-3.82a38.58 38.58 0 0 1-18.46-20.35zM56.4 92.76a6.7 6.7 0 0 1 5.01 1.69c.74-12.6 4.02-22.3 10.02-28.67 3.55 6.52 12.15 13.3 23.56 17.78 11.91 4.68 23.83 5.66 31.63 3.23.4 2.42.67 4.97.83 7.66a6.7 6.7 0 0 1 5-1.69c.63.07 1.22.26 1.77.53l.85-5.21h-.13a32.36 32.36 0 0 0 .47-10.1c.23-2.11-.3-4.38-1.47-6.7-4.89-14.57-19.98-25.3-38.22-25.65C73 45.23 54.02 61.1 53.31 81.11a32 32 0 0 0 .16 4.38h-.2l1.5 7.72a5.57 5.57 0 0 1 1.63-.45z"/></g><g><path fill="#C73627" d="M62.74 63.05c-2.66 5.09-4.73 9.97-8.03 11.99a30.72 30.72 0 0 1-10.27-13.98c2.9-2.54 8.18-3.07 13.83-4.1a30.69 30.69 0 0 1 4.47 6.1zM66.83 60.04c5.65-1.02 10.92-1.55 13.84-4.1-2-5.52-5.6-10.41-10.28-13.96-3.3 2.02-5.37 6.9-8.03 11.98a30.83 30.83 0 0 0 4.47 6.08z"/><path fill="#E06354" d="M68.9 60.1a10.17 10.17 0 0 1-6.8 5 21.05 21.05 0 0 1-5.98-8.12c1.7-2.78 3.65-4.2 6.8-5a21.07 21.07 0 0 1 5.98 8.11z"/></g><path fill="none" d="M179.83-.53H10.17a10.7 10.7 0 0 0-10.7 10.7v169.66c0 5.9 4.8 10.7 10.7 10.7h169.66c5.9 0 10.7-4.8 10.7-10.7V10.17c0-5.9-4.8-10.7-10.7-10.7z"/></svg>