<svg xmlns="http://www.w3.org/2000/svg" xmlns:xlink="http://www.w3.org/1999/xlink" viewBox="0 0 190 190"><path fill="#9C6A4A" d="M66.45 104.37c.98 6.94-1.92 13-6.47 13.53-4.56.53-9.05-4.66-10.03-11.6-.98-6.95 1.92-13 6.47-13.54 4.55-.53 9.05 4.67 10.03 11.6z"/><path fill="#83573A" d="M63.48 104.72c.63 4.44-1.23 8.32-4.14 8.66-2.92.34-5.8-2.99-6.42-7.43-.63-4.44 1.23-8.32 4.14-8.66s5.79 2.98 6.42 7.42z"/><path fill="#9C6A4A" d="M122.44 104.37c-.98 6.94 1.91 13 6.47 13.53 4.56.53 9.04-4.66 10.02-11.6.99-6.95-1.91-13-6.47-13.54-4.55-.53-9.04 4.67-10.02 11.6z"/><path fill="#83573A" d="M125.4 104.72c-.62 4.44 1.24 8.32 4.15 8.66 2.91.34 5.79-2.99 6.41-7.43.63-4.44-1.22-8.32-4.13-8.66-2.92-.34-5.8 2.98-6.42 7.42z"/><linearGradient id="Y" x1="94.44" x2="94.44" y1="43.21" y2="56.65" gradientUnits="userSpaceOnUse" gradientTransform="matrix(1 0 0 -1 0 192)"><stop offset=".27" stop-color="#9c6a4a"/><stop offset="1" stop-color="#644331"/></linearGradient><path fill="url(#Y)" d="M82.52 131.45h23.84v14.97H82.52z"/><path fill="#9C6A4A" d="M127.63 100.2c0 24.92-20.04 38.74-33.19 38.74s-33.18-13.82-33.18-38.74c0-27.57 10.51-43.17 33.18-43.17s33.19 15.6 33.19 43.17z"/><path fill="#7A5135" d="M88.57 115.51c1.43 1.63 4.37 2.82 5.87 2.82s4.44-1.19 5.88-2.81a17.26 17.26 0 0 1-11.75 0z"/><g><path fill="#80583B" d="M94.21 125.22c-4.07 0-7.38-1.32-8.61-1.71 1.77 2.7 3.25 5.68 8.75 5.68 5.54 0 7.15-3 8.94-5.73-1.28.38-4.93 1.76-9.08 1.76z"/><path fill="none" stroke="#553727" stroke-miterlimit="10" d="M85.83 123.77s3.92 1.46 8.68 1.46 8.54-1.5 8.54-1.5" stroke-linecap="round" stroke-linejoin="round"/></g><g fill="#31302A"><path d="M87.77 93.84l-.18-.04c-2.76-1.26-4.05-1.78-8.4-2.13-.59-.05-1.21-.07-1.84-.07-3.56 0-6.8.78-8.29 1.51a.45.45 0 0 1-.46-.04.38.38 0 0 1-.13-.42c.94-2.84 4.16-4.35 9.3-4.35.66 0 1.36.03 2.07.08 4.64.34 7.08 2.84 8.3 4.87.1.15.07.34-.06.46a.43.43 0 0 1-.3.13zM100.05 93.71a.38.38 0 0 1-.06-.46c1.22-2.03 3.66-4.53 8.3-4.87.7-.05 1.4-.08 2.07-.08 5.14 0 8.35 1.5 9.3 4.35.05.15 0 .32-.13.42a.45.45 0 0 1-.47.04c-1.49-.73-4.72-1.51-8.29-1.51-.62 0-1.24.02-1.84.07-4.34.35-5.63.87-8.4 2.13l-.18.04a.42.42 0 0 1-.3-.13z"/></g><g><path fill="#ECF7FB" d="M78.92 97.45c-.36 0-.73.02-1.1.06-4.53.5-6.22 3.35-6.33 4.66-.03.37.17.78.58 1.23 1.22 1.31 4.12 2.44 7.6 2.44h.06c3.16-.02 5.47-1 6.57-2.18.28-.3.75-.88.71-1.4-.07-1.04-3.16-4.8-8.09-4.8zm.73 8.37z"/><defs><path id="Z" d="M78.92 97.45c-.36 0-.73.02-1.1.06-4.53.5-6.22 3.35-6.33 4.66-.03.37.17.78.58 1.23 1.22 1.31 4.12 2.44 7.6 2.44h.06c3.16-.02 5.47-1 6.57-2.18.28-.3.75-.88.71-1.4-.07-1.04-3.16-4.8-8.09-4.8zm.73 8.85z"/></defs><clipPath id="aa"><use xlink:href="#Z" overflow="visible"/></clipPath><g clip-path="url(#aa)"><radialGradient id="ab" cx="82.09" cy="69.96" r="4.46" gradientTransform="matrix(.9686 0 0 -.9604 -.26 168.36)" gradientUnits="userSpaceOnUse"><stop offset=".01" stop-color="#b37852"/><stop offset=".73" stop-color="#7b573e"/><stop offset="1" stop-color="#57321d"/></radialGradient><ellipse cx="79.25" cy="101.17" fill="url(#ab)" rx="4.32" ry="4.28"/><radialGradient id="ac" cx="82.09" cy="69.96" r="2.04" gradientTransform="matrix(.9686 0 0 -.9604 -.26 168.36)" gradientUnits="userSpaceOnUse"><stop offset=".72" stop-color="#010101"/><stop offset="1" stop-color="#5a4524"/></radialGradient><ellipse cx="79.25" cy="101.17" fill="url(#ac)" rx="1.98" ry="1.96"/></g><path fill="#ECF7FB" d="M111.06 97.51a9.82 9.82 0 0 0-1.1-.06c-4.92 0-8.01 3.77-8.09 4.8-.03.53.43 1.1.71 1.4 1.1 1.2 3.42 2.17 6.57 2.19h.07c3.48 0 6.37-1.12 7.6-2.44.4-.45.6-.86.57-1.23-.1-1.3-1.8-4.16-6.33-4.66zm-1.82 8.31z"/><g><defs><path id="ad" d="M111.06 97.51a9.82 9.82 0 0 0-1.1-.06c-4.92 0-8.01 3.77-8.09 4.8-.03.53.43 1.1.71 1.4 1.1 1.2 3.42 2.17 6.57 2.19h.07c3.48 0 6.37-1.12 7.6-2.44.4-.45.6-.86.57-1.23-.1-1.3-1.8-4.16-6.33-4.66zm-1.6 8.79z"/></defs><clipPath id="ae"><use xlink:href="#ad" overflow="visible"/></clipPath><g clip-path="url(#ae)"><radialGradient id="af" cx="-234.72" cy="69.96" r="4.46" gradientTransform="matrix(-.9686 0 0 -.9604 -118.04 168.36)" gradientUnits="userSpaceOnUse"><stop offset=".01" stop-color="#b37852"/><stop offset=".73" stop-color="#7b573e"/><stop offset="1" stop-color="#57321d"/></radialGradient><ellipse cx="109.31" cy="101.17" fill="url(#af)" rx="4.32" ry="4.28"/><radialGradient id="ag" cx="-234.72" cy="69.96" r="2.04" gradientTransform="matrix(-.9686 0 0 -.9604 -118.04 168.36)" gradientUnits="userSpaceOnUse"><stop offset=".72" stop-color="#010101"/><stop offset="1" stop-color="#5a4524"/></radialGradient><ellipse cx="109.31" cy="101.17" fill="url(#ag)" rx="1.98" ry="1.96"/></g></g></g><g><path fill="#ECF7FB" d="M78.92 97.45c-.36 0-.73.02-1.1.06-4.53.5-6.22 3.35-6.33 4.66-.03.37.17.78.58 1.23 1.22 1.31 4.12 2.44 7.6 2.44h.06c3.16-.02 5.47-1 6.57-2.18.28-.3.75-.88.71-1.4-.07-1.04-3.16-4.8-8.09-4.8zm.73 8.37z"/><defs><path id="ah" d="M78.92 97.45c-.36 0-.73.02-1.1.06-4.53.5-6.22 3.35-6.33 4.66-.03.37.17.78.58 1.23 1.22 1.31 4.12 2.44 7.6 2.44h.06c3.16-.02 5.47-1 6.57-2.18.28-.3.75-.88.71-1.4-.07-1.04-3.16-4.8-8.09-4.8zm.73 8.85z"/></defs><clipPath id="ai"><use xlink:href="#ah" overflow="visible"/></clipPath><g clip-path="url(#ai)"><radialGradient id="aj" cx="82.09" cy="69.96" r="4.46" gradientTransform="matrix(.9686 0 0 -.9604 -.26 168.36)" gradientUnits="userSpaceOnUse"><stop offset=".01" stop-color="#529ed6"/><stop offset=".73" stop-color="#3c60ad"/><stop offset="1" stop-color="#252542"/></radialGradient><ellipse cx="79.25" cy="101.17" fill="url(#aj)" rx="4.32" ry="4.28"/><radialGradient id="ak" cx="82.09" cy="69.96" r="2.04" gradientTransform="matrix(.9686 0 0 -.9604 -.26 168.36)" gradientUnits="userSpaceOnUse"><stop offset=".82" stop-color="#010101"/><stop offset="1" stop-color="#2f4a76"/></radialGradient><ellipse cx="79.25" cy="101.17" fill="url(#ak)" rx="1.98" ry="1.96"/></g><path fill="#ECF7FB" d="M111.06 97.51a9.82 9.82 0 0 0-1.1-.06c-4.92 0-8.01 3.77-8.09 4.8-.03.53.43 1.1.71 1.4 1.1 1.2 3.42 2.17 6.57 2.19h.07c3.48 0 6.37-1.12 7.6-2.44.4-.45.6-.86.57-1.23-.1-1.3-1.8-4.16-6.33-4.66zm-1.82 8.31z"/><g><defs><path id="al" d="M111.06 97.51a9.82 9.82 0 0 0-1.1-.06c-4.92 0-8.01 3.77-8.09 4.8-.03.53.43 1.1.71 1.4 1.1 1.2 3.42 2.17 6.57 2.19h.07c3.48 0 6.37-1.12 7.6-2.44.4-.45.6-.86.57-1.23-.1-1.3-1.8-4.16-6.33-4.66zm-1.6 8.79z"/></defs><clipPath id="am"><use xlink:href="#al" overflow="visible"/></clipPath><g clip-path="url(#am)"><radialGradient id="an" cx="-234.72" cy="69.96" r="4.46" gradientTransform="matrix(-.9686 0 0 -.9604 -118.04 168.36)" gradientUnits="userSpaceOnUse"><stop offset=".01" stop-color="#529ed6"/><stop offset=".73" stop-color="#3c60ad"/><stop offset="1" stop-color="#252542"/></radialGradient><ellipse cx="109.31" cy="101.17" fill="url(#an)" rx="4.32" ry="4.28"/><radialGradient id="ao" cx="-234.72" cy="69.96" r="2.04" gradientTransform="matrix(-.9686 0 0 -.9604 -118.04 168.36)" gradientUnits="userSpaceOnUse"><stop offset=".82" stop-color="#010101"/><stop offset="1" stop-color="#2f4a76"/></radialGradient><ellipse cx="109.31" cy="101.17" fill="url(#ao)" rx="1.98" ry="1.96"/></g></g><g><path fill="#ECF7FB" d="M78.92 97.45c-.36 0-.73.02-1.1.06-4.53.5-6.22 3.35-6.33 4.66-.03.37.17.78.58 1.23 1.22 1.31 4.12 2.44 7.6 2.44h.06c3.16-.02 5.47-1 6.57-2.18.28-.3.75-.88.71-1.4-.07-1.04-3.16-4.8-8.09-4.8zm.73 8.37z"/><defs><path id="ap" d="M78.92 97.45c-.36 0-.73.02-1.1.06-4.53.5-6.22 3.35-6.33 4.66-.03.37.17.78.58 1.23 1.22 1.31 4.12 2.44 7.6 2.44h.06c3.16-.02 5.47-1 6.57-2.18.28-.3.75-.88.71-1.4-.07-1.04-3.16-4.8-8.09-4.8zm.73 8.85z"/></defs><clipPath id="aq"><use xlink:href="#ap" overflow="visible"/></clipPath><g clip-path="url(#aq)"><radialGradient id="ar" cx="82.09" cy="69.96" r="4.46" gradientTransform="matrix(.9686 0 0 -.9604 -.26 168.36)" gradientUnits="userSpaceOnUse"><stop offset="0" stop-color="#7b573e"/><stop offset="1" stop-color="#503627"/></radialGradient><ellipse cx="79.25" cy="101.17" fill="url(#ar)" rx="4.32" ry="4.28"/><radialGradient id="as" cx="82.09" cy="69.96" r="2.04" gradientTransform="matrix(.9686 0 0 -.9604 -.26 168.36)" gradientUnits="userSpaceOnUse"><stop offset=".72" stop-color="#010101"/><stop offset="1" stop-color="#432f1f"/></radialGradient><ellipse cx="79.25" cy="101.17" fill="url(#as)" rx="1.98" ry="1.96"/></g><path fill="#ECF7FB" d="M111.06 97.51a9.82 9.82 0 0 0-1.1-.06c-4.92 0-8.01 3.77-8.09 4.8-.03.53.43 1.1.71 1.4 1.1 1.2 3.42 2.17 6.57 2.19h.07c3.48 0 6.37-1.12 7.6-2.44.4-.45.6-.86.57-1.23-.1-1.3-1.8-4.16-6.33-4.66zm-1.82 8.31z"/><g><defs><path id="at" d="M111.06 97.51a9.82 9.82 0 0 0-1.1-.06c-4.92 0-8.01 3.77-8.09 4.8-.03.53.43 1.1.71 1.4 1.1 1.2 3.42 2.17 6.57 2.19h.07c3.48 0 6.37-1.12 7.6-2.44.4-.45.6-.86.57-1.23-.1-1.3-1.8-4.16-6.33-4.66zm-1.6 8.79z"/></defs><clipPath id="au"><use xlink:href="#at" overflow="visible"/></clipPath><g clip-path="url(#au)"><radialGradient id="av" cx="-234.72" cy="69.96" r="4.46" gradientTransform="matrix(-.9686 0 0 -.9604 -118.04 168.36)" gradientUnits="userSpaceOnUse"><stop offset="0" stop-color="#7b573e"/><stop offset="1" stop-color="#503627"/></radialGradient><ellipse cx="109.31" cy="101.17" fill="url(#av)" rx="4.32" ry="4.28"/><radialGradient id="aw" cx="-234.72" cy="69.96" r="2.04" gradientTransform="matrix(-.9686 0 0 -.9604 -118.04 168.36)" gradientUnits="userSpaceOnUse"><stop offset=".72" stop-color="#010101"/><stop offset="1" stop-color="#432f1f"/></radialGradient><ellipse cx="109.31" cy="101.17" fill="url(#aw)" rx="1.98" ry="1.96"/></g></g></g></g><g fill="#31302A"><path d="M56.42 92.75a6.7 6.7 0 0 1 5 1.7c.48-8 1.96-14.82 4.52-20.36 3.24 2.7 10.92 1.39 18.8-3.6 4.41-2.78 8.07-6.2 10.51-9.54a32.43 32.43 0 0 0 6.98 12.08c6.84 7.6 16.1 11.6 23.92 11.07.66 3.2 1.1 6.64 1.31 10.34a6.7 6.7 0 0 1 5-1.69c2.9.34 5.13 2.93 6.11 6.56 3.7-3.43 5.68-7.37 5.37-11.55-.28-3.71-2.32-7.22-5.73-10.34 4.67-7.24 2.65-18.72-5.6-27.91-9.74-10.84-24.44-14.37-32.83-7.87-.43.33-.82.7-1.2 1.07-23.68-5.6-45.3 3.42-48.54 20.45a25.12 25.12 0 0 0 1.07 12.9c-4.22 3.6-6.5 7.8-6.17 12.26.27 3.67 2.27 7.14 5.6 10.23 1.08-3.22 3.19-5.48 5.88-5.8zM64.07 115.47a6.55 6.55 0 0 1-2.94 2.14c1.22 8.48 7.52 15.17 14.84 15.32.56.01 1.1-.02 1.64-.09a38.75 38.75 0 0 1-13.54-17.37zM124.82 115.47a38.75 38.75 0 0 1-13.14 17.09c5.96 1.43 12.57-1.93 16.05-8.76a20.39 20.39 0 0 0 1.93-5.88c-.25 0-.5 0-.75-.03a6.2 6.2 0 0 1-4.1-2.42z"/></g><g><path fill="#8D3682" d="M133.54 91.71s-11.12-.8-15.28-.65c-4.16.14-16.55 3.2-18.86 3.43-2.03.19-4.49.27-5.04.28-.55-.01-3-.1-5.04-.28-2.3-.22-14.7-3.29-18.86-3.43s-15.27.65-15.27.65l2.19 6.06s.61-.15 1.61 1.38c1 1.54 2.16 9.34 5.85 11.96 4.11 2.92 17.55 3.21 21.17.37 3.64-2.87 5.16-9.12 5.7-9.92.43-.65 1.95-.68 2.54-.67v.01H94.48c.58-.02 2.1.01 2.54.66.54.8 2.05 7.05 5.7 9.92 3.61 2.84 17.05 2.55 21.16-.37 3.7-2.62 4.85-10.43 5.85-11.96 1-1.53 1.62-1.38 1.62-1.38l2.19-6.06zm-49.68 18.46c-2.4 2.26-12.47 1.67-17.17-1.17-4.7-2.85-5.1-10.72-2.46-13.5 1.38-1.45 3.33-2.1 9.39-1.6 8.85.73 14 2.4 15 5.54s-2.38 8.47-4.77 10.73zm38.17-1.17c-4.7 2.84-14.78 3.43-17.16 1.16-2.39-2.26-5.77-7.58-4.77-10.72 1-3.13 6.15-4.8 15-5.54 6.06-.5 8.01.15 9.4 1.6 2.62 2.78 2.23 10.65-2.47 13.5z"/></g><path fill="none" d="M179.83-.53H10.17a10.7 10.7 0 0 0-10.7 10.7v169.66c0 5.9 4.8 10.7 10.7 10.7h169.66c5.9 0 10.7-4.8 10.7-10.7V10.17c0-5.9-4.8-10.7-10.7-10.7z"/></svg>