<svg xmlns="http://www.w3.org/2000/svg" xmlns:xlink="http://www.w3.org/1999/xlink" viewBox="0 0 190 190"><path fill="#FBC8A6" d="M66.45 104.37c.98 6.94-1.91 13-6.47 13.53-4.55.53-9.04-4.66-10.03-11.6-.98-6.95 1.92-13 6.48-13.54 4.55-.53 9.04 4.67 10.02 11.6z"/><path fill="#E3A686" d="M63.48 104.72c.63 4.44-1.22 8.32-4.14 8.66-2.91.34-5.79-2.99-6.42-7.43-.62-4.44 1.23-8.32 4.15-8.66 2.91-.34 5.78 2.98 6.41 7.42z"/><path fill="#FBC8A6" d="M122.44 104.37c-.98 6.94 1.92 13 6.47 13.53 4.56.53 9.05-4.66 10.03-11.6.98-6.95-1.92-13-6.47-13.54-4.56-.53-9.05 4.67-10.03 11.6z"/><path fill="#E3A686" d="M125.41 104.72c-.62 4.44 1.23 8.32 4.14 8.66 2.92.34 5.8-2.99 6.42-7.43.63-4.44-1.22-8.32-4.14-8.66-2.92-.34-5.79 2.98-6.42 7.42z"/><linearGradient id="ax" x1="94.45" x2="94.45" y1="148.79" y2="135.35" gradientUnits="userSpaceOnUse"><stop offset=".23" stop-color="#fbc8a6"/><stop offset="1" stop-color="#c99274"/></linearGradient><path fill="url(#ax)" d="M82.53 131.45h23.84v14.97H82.53z"/><path fill="#FBC8A6" d="M127.63 100.2c0 24.92-20.03 38.74-33.18 38.74-13.16 0-33.19-13.82-33.19-38.74 0-27.57 10.52-43.17 33.19-43.17 22.67 0 33.18 15.6 33.18 43.17z"/><g><path fill="#DE9D70" d="M89.41 115.51c1.23 1.63 3.75 2.82 5.04 2.82s3.8-1.19 5.03-2.81a12.82 12.82 0 0 1-10.07 0z"/></g><g><path fill="#E3AC8F" d="M94.22 125.22c-4.07 0-7.39-1.32-8.62-1.71 1.78 2.7 3.25 5.68 8.76 5.68 5.54 0 7.15-3 8.93-5.73-1.28.38-4.92 1.76-9.07 1.76z"/><path fill="none" stroke="#A77456" stroke-miterlimit="10" d="M85.84 123.77s3.91 1.46 8.68 1.46c4.75 0 8.54-1.5 8.54-1.5" stroke-linecap="round" stroke-linejoin="round"/></g><g><path fill="#ECF7FB" d="M78.93 97.45c-.37 0-.73.02-1.1.06-4.53.5-6.22 3.35-6.33 4.66-.04.37.16.78.58 1.23 1.22 1.31 4.11 2.44 7.6 2.44h.05c3.16-.02 5.47-1 6.58-2.18.28-.3.74-.88.7-1.4-.07-1.04-3.16-4.8-8.08-4.8zm.72 8.37z"/><defs><path id="aG" d="M78.93 97.45c-.37 0-.73.02-1.1.06-4.53.5-6.22 3.35-6.33 4.66-.04.37.16.78.58 1.23 1.22 1.31 4.11 2.44 7.6 2.44h.05c3.16-.02 5.47-1 6.58-2.18.28-.3.74-.88.7-1.4-.07-1.04-3.16-4.8-8.08-4.8zm.72 8.85z"/></defs><clipPath id="aH"><use xlink:href="#aG" overflow="visible"/></clipPath><g clip-path="url(#aH)"><radialGradient id="aI" cx="81.97" cy="121.88" r="4.46" gradientTransform="matrix(.9686 0 0 .9604 -.14 -15.88)" gradientUnits="userSpaceOnUse"><stop offset=".01" stop-color="#529ed6"/><stop offset=".73" stop-color="#3c60ad"/><stop offset="1" stop-color="#252542"/></radialGradient><ellipse cx="79.25" cy="101.17" fill="url(#aI)" rx="4.32" ry="4.28"/><radialGradient id="aJ" cx="81.97" cy="121.88" r="2.04" gradientTransform="matrix(.9686 0 0 .9604 -.14 -15.88)" gradientUnits="userSpaceOnUse"><stop offset=".82" stop-color="#010101"/><stop offset="1" stop-color="#2f4a76"/></radialGradient><ellipse cx="79.26" cy="101.17" fill="url(#aJ)" rx="1.98" ry="1.96"/></g><path fill="#ECF7FB" d="M111.06 97.51a9.86 9.86 0 0 0-1.1-.06c-4.92 0-8 3.77-8.08 4.8-.04.53.43 1.1.7 1.4 1.11 1.2 3.42 2.17 6.58 2.19h.06c3.48 0 6.38-1.12 7.6-2.44.42-.45.61-.86.58-1.23-.11-1.3-1.8-4.16-6.34-4.66zm-1.82 8.31z"/><g><defs><path id="aK" d="M111.06 97.51a9.86 9.86 0 0 0-1.1-.06c-4.92 0-8 3.77-8.08 4.8-.04.53.43 1.1.7 1.4 1.11 1.2 3.42 2.17 6.58 2.19h.06c3.48 0 6.38-1.12 7.6-2.44.42-.45.61-.86.58-1.23-.11-1.3-1.8-4.16-6.34-4.66zm-1.59 8.79z"/></defs><clipPath id="aL"><use xlink:href="#aK" overflow="visible"/></clipPath><g clip-path="url(#aL)"><radialGradient id="aM" cx="-226.6" cy="121.88" r="4.46" gradientTransform="matrix(-.9686 0 0 .9604 -110.16 -15.88)" gradientUnits="userSpaceOnUse"><stop offset=".01" stop-color="#529ed6"/><stop offset=".73" stop-color="#3c60ad"/><stop offset="1" stop-color="#252542"/></radialGradient><ellipse cx="109.32" cy="101.17" fill="url(#aM)" rx="4.32" ry="4.28"/><radialGradient id="aN" cx="-226.6" cy="121.88" r="2.04" gradientTransform="matrix(-.9686 0 0 .9604 -110.16 -15.88)" gradientUnits="userSpaceOnUse"><stop offset=".82" stop-color="#010101"/><stop offset="1" stop-color="#2f4a76"/></radialGradient><ellipse cx="109.32" cy="101.17" fill="url(#aN)" rx="1.98" ry="1.96"/></g></g></g><g><g fill="#32383D"><path d="M64.08 115.47a6.22 6.22 0 0 1-4.1 2.42c-.36.05-.72.04-1.09 0l3.51 20.43c-.14.5-.35 1-.54 1.41-.54 1.25-1.4 2.4-3.45 2.15a3.84 3.84 0 0 1-2.52-1.38 4.2 4.2 0 0 1-.88-3.26.41.41 0 0 0-.3-.44c-.2-.06-.44.02-.54.2-.78 1.35-.97 2.99-.51 4.51a6.7 6.7 0 0 0 3.32 3.96c.64.35 1.33.62 2.06.8 1.13.29 2.3.25 3.47.25l1.32.01 18.7.08v-10.8a38.57 38.57 0 0 1-18.45-20.34zM128.92 117.9a6.2 6.2 0 0 1-4.1-2.43 38.58 38.58 0 0 1-18.45 20.34v10.65l20.34.09v-.01a10.92 10.92 0 0 0 4.35-.86c1.8-.77 3.23-1.9 3.93-3.54.64-1.5.62-3.17-.06-4.57-.08-.18-.3-.27-.51-.23-.21.05-.36.22-.35.42a4.28 4.28 0 0 1-1.3 3.21 4.42 4.42 0 0 1-2.86 1.27c-1.78.1-2.07-.66-2.33-1.61l3.25-22.85c-.63.14-1.27.19-1.91.11zM56.43 92.75a6.7 6.7 0 0 1 5 1.7c.28-4.61.88-8.83 1.83-12.64 4.11.04 9.86-3.17 14.64-8.5 4.35 3.81 10.21 7.36 17.1 10.07 11.9 4.68 23.82 5.66 31.62 3.23.4 2.47.69 5.08.85 7.83a6.7 6.7 0 0 1 5-1.69c.65.08 1.26.28 1.84.56l.77-5.41h-.13a32.34 32.34 0 0 0 .47-10.1c.23-2.11-.3-4.38-1.47-6.7-4.89-14.57-19.98-25.3-38.22-25.64-22.72-.42-41.7 15.46-42.41 35.47-.05 1.48.01 2.94.16 4.38h-.2l1.37 7.98a5.53 5.53 0 0 1 1.78-.54z"/><g><path d="M88.16 93.73l-.19-.04c-2.76-1.26-4.05-1.78-8.39-2.13-.6-.05-1.22-.07-1.84-.07-3.57 0-6.8.78-8.3 1.51a.45.45 0 0 1-.46-.04.38.38 0 0 1-.13-.42c.95-2.84 4.16-4.35 9.3-4.35.67 0 1.36.03 2.07.08 4.64.34 7.08 2.84 8.3 4.87.1.15.07.34-.06.46a.42.42 0 0 1-.3.13zM100.43 93.6a.38.38 0 0 1-.06-.46c1.23-2.03 3.66-4.53 8.3-4.87.71-.05 1.4-.08 2.07-.08 5.14 0 8.36 1.5 9.3 4.35.06.15 0 .32-.13.42a.45.45 0 0 1-.46.04c-1.5-.73-4.72-1.51-8.3-1.51-.62 0-1.24.02-1.84.07-4.34.35-5.63.87-8.39 2.13l-.18.04a.44.44 0 0 1-.31-.13z"/></g></g></g><path fill="none" d="M179.83-.53H10.17a10.7 10.7 0 0 0-10.7 10.7v169.66c0 5.9 4.8 10.7 10.7 10.7h169.66c5.9 0 10.7-4.8 10.7-10.7V10.17c0-5.9-4.8-10.7-10.7-10.7z"/></svg>