<svg xmlns="http://www.w3.org/2000/svg" xmlns:xlink="http://www.w3.org/1999/xlink" viewBox="0 0 190 190"><path fill="#D09C70" d="M66.45 104.37c.98 6.94-1.92 13-6.47 13.53-4.56.53-9.05-4.66-10.03-11.6-.98-6.95 1.92-13 6.47-13.54 4.55-.53 9.05 4.67 10.03 11.6z"/><path fill="#AF7E52" d="M63.48 104.72c.63 4.44-1.23 8.32-4.14 8.66-2.92.34-5.8-2.99-6.42-7.43-.63-4.44 1.23-8.32 4.14-8.66s5.79 2.98 6.42 7.42z"/><path fill="#D09C70" d="M122.44 104.37c-.98 6.94 1.91 13 6.47 13.53 4.56.53 9.04-4.66 10.02-11.6.99-6.95-1.91-13-6.47-13.54-4.55-.53-9.04 4.67-10.02 11.6z"/><path fill="#AF7E52" d="M125.4 104.72c-.62 4.44 1.24 8.32 4.15 8.66 2.91.34 5.79-2.99 6.41-7.43.63-4.44-1.22-8.32-4.13-8.66-2.92-.34-5.8 2.98-6.42 7.42z"/><linearGradient id="z" x1="94.44" x2="94.44" y1="148.79" y2="135.35" gradientUnits="userSpaceOnUse"><stop offset=".29" stop-color="#dea878"/><stop offset="1" stop-color="#9c6c45"/></linearGradient><path fill="url(#z)" d="M82.52 131.45h23.84v14.97H82.52z"/><path fill="#D09C70" d="M127.63 100.2c0 24.92-20.04 38.74-33.19 38.74-13.15 0-33.18-13.82-33.18-38.74 0-27.57 10.51-43.17 33.18-43.17s33.19 15.6 33.19 43.17z"/><path fill="#9C7146" d="M88.57 115.51c1.43 1.63 4.37 2.82 5.87 2.82s4.44-1.19 5.88-2.81a17.26 17.26 0 0 1-11.75 0z"/><g><path fill="#AB7D57" d="M94.21 125.22c-4.07 0-7.38-1.32-8.61-1.71 1.77 2.7 3.25 5.68 8.75 5.68 5.54 0 7.15-3 8.94-5.73-1.28.38-4.93 1.76-9.08 1.76z"/><path fill="none" stroke="#885E45" stroke-miterlimit="10" d="M85.83 123.77s3.92 1.46 8.68 1.46 8.54-1.5 8.54-1.5" stroke-linecap="round" stroke-linejoin="round"/></g><g fill="#31302A"><path d="M87.77 93.84l-.18-.04c-2.76-1.26-4.05-1.78-8.4-2.13-.59-.05-1.21-.07-1.84-.07-3.56 0-6.8.78-8.29 1.51a.45.45 0 0 1-.46-.04.38.38 0 0 1-.13-.42c.94-2.84 4.16-4.35 9.3-4.35.66 0 1.36.03 2.07.08 4.64.34 7.08 2.84 8.3 4.87.1.15.07.34-.06.46a.43.43 0 0 1-.3.13zM100.05 93.71a.38.38 0 0 1-.06-.46c1.22-2.03 3.66-4.53 8.3-4.87.7-.05 1.4-.08 2.07-.08 5.14 0 8.35 1.5 9.3 4.35.05.15 0 .32-.13.42a.45.45 0 0 1-.47.04c-1.49-.73-4.72-1.51-8.29-1.51-.62 0-1.24.02-1.84.07-4.34.35-5.63.87-8.4 2.13l-.18.04a.42.42 0 0 1-.3-.13z"/></g><g><path fill="#ECF7FB" d="M78.92 97.45c-.36 0-.73.02-1.1.06-4.53.5-6.22 3.35-6.33 4.66-.03.37.17.78.58 1.23 1.22 1.31 4.12 2.44 7.6 2.44h.06c3.16-.02 5.47-1 6.57-2.18.28-.3.75-.88.71-1.4-.07-1.04-3.16-4.8-8.09-4.8zm.73 8.37z"/><defs><path id="A" d="M78.92 97.45c-.36 0-.73.02-1.1.06-4.53.5-6.22 3.35-6.33 4.66-.03.37.17.78.58 1.23 1.22 1.31 4.12 2.44 7.6 2.44h.06c3.16-.02 5.47-1 6.57-2.18.28-.3.75-.88.71-1.4-.07-1.04-3.16-4.8-8.09-4.8zm.73 8.85z"/></defs><clipPath id="B"><use xlink:href="#A" overflow="visible"/></clipPath><g clip-path="url(#B)"><radialGradient id="C" cx="81.96" cy="121.88" r="4.46" gradientTransform="matrix(.9686 0 0 .9604 -.14 -15.88)" gradientUnits="userSpaceOnUse"><stop offset=".01" stop-color="#b37852"/><stop offset=".73" stop-color="#7b573e"/><stop offset="1" stop-color="#57321d"/></radialGradient><ellipse cx="79.25" cy="101.17" fill="url(#C)" rx="4.32" ry="4.28"/><radialGradient id="D" cx="81.96" cy="121.88" r="2.04" gradientTransform="matrix(.9686 0 0 .9604 -.14 -15.88)" gradientUnits="userSpaceOnUse"><stop offset=".72" stop-color="#010101"/><stop offset="1" stop-color="#5a4524"/></radialGradient><ellipse cx="79.25" cy="101.17" fill="url(#D)" rx="1.98" ry="1.96"/></g><path fill="#ECF7FB" d="M111.06 97.51a9.82 9.82 0 0 0-1.1-.06c-4.92 0-8.01 3.77-8.09 4.8-.03.53.43 1.1.71 1.4 1.1 1.2 3.42 2.17 6.57 2.19h.07c3.48 0 6.37-1.12 7.6-2.44.4-.45.6-.86.57-1.23-.1-1.3-1.8-4.16-6.33-4.66zm-1.82 8.31z"/><g><defs><path id="E" d="M111.06 97.51a9.82 9.82 0 0 0-1.1-.06c-4.92 0-8.01 3.77-8.09 4.8-.03.53.43 1.1.71 1.4 1.1 1.2 3.42 2.17 6.57 2.19h.07c3.48 0 6.37-1.12 7.6-2.44.4-.45.6-.86.57-1.23-.1-1.3-1.8-4.16-6.33-4.66zm-1.6 8.79z"/></defs><clipPath id="F"><use xlink:href="#E" overflow="visible"/></clipPath><g clip-path="url(#F)"><radialGradient id="G" cx="-226.59" cy="121.88" r="4.46" gradientTransform="matrix(-.9686 0 0 .9604 -110.16 -15.88)" gradientUnits="userSpaceOnUse"><stop offset=".01" stop-color="#b37852"/><stop offset=".73" stop-color="#7b573e"/><stop offset="1" stop-color="#57321d"/></radialGradient><ellipse cx="109.31" cy="101.17" fill="url(#G)" rx="4.32" ry="4.28"/><radialGradient id="H" cx="-226.59" cy="121.88" r="2.04" gradientTransform="matrix(-.9686 0 0 .9604 -110.16 -15.88)" gradientUnits="userSpaceOnUse"><stop offset=".72" stop-color="#010101"/><stop offset="1" stop-color="#5a4524"/></radialGradient><ellipse cx="109.31" cy="101.17" fill="url(#H)" rx="1.98" ry="1.96"/></g></g></g><g><path fill="#ECF7FB" d="M78.92 97.45c-.36 0-.73.02-1.1.06-4.53.5-6.22 3.35-6.33 4.66-.03.37.17.78.58 1.23 1.22 1.31 4.12 2.44 7.6 2.44h.06c3.16-.02 5.47-1 6.57-2.18.28-.3.75-.88.71-1.4-.07-1.04-3.16-4.8-8.09-4.8zm.73 8.37z"/><defs><path id="I" d="M78.92 97.45c-.36 0-.73.02-1.1.06-4.53.5-6.22 3.35-6.33 4.66-.03.37.17.78.58 1.23 1.22 1.31 4.12 2.44 7.6 2.44h.06c3.16-.02 5.47-1 6.57-2.18.28-.3.75-.88.71-1.4-.07-1.04-3.16-4.8-8.09-4.8zm.73 8.85z"/></defs><clipPath id="J"><use xlink:href="#I" overflow="visible"/></clipPath><g clip-path="url(#J)"><radialGradient id="K" cx="81.96" cy="121.88" r="4.46" gradientTransform="matrix(.9686 0 0 .9604 -.14 -15.88)" gradientUnits="userSpaceOnUse"><stop offset=".01" stop-color="#529ed6"/><stop offset=".73" stop-color="#3c60ad"/><stop offset="1" stop-color="#252542"/></radialGradient><ellipse cx="79.25" cy="101.17" fill="url(#K)" rx="4.32" ry="4.28"/><radialGradient id="L" cx="81.96" cy="121.88" r="2.04" gradientTransform="matrix(.9686 0 0 .9604 -.14 -15.88)" gradientUnits="userSpaceOnUse"><stop offset=".82" stop-color="#010101"/><stop offset="1" stop-color="#2f4a76"/></radialGradient><ellipse cx="79.25" cy="101.17" fill="url(#L)" rx="1.98" ry="1.96"/></g><path fill="#ECF7FB" d="M111.06 97.51a9.82 9.82 0 0 0-1.1-.06c-4.92 0-8.01 3.77-8.09 4.8-.03.53.43 1.1.71 1.4 1.1 1.2 3.42 2.17 6.57 2.19h.07c3.48 0 6.37-1.12 7.6-2.44.4-.45.6-.86.57-1.23-.1-1.3-1.8-4.16-6.33-4.66zm-1.82 8.31z"/><g><defs><path id="M" d="M111.06 97.51a9.82 9.82 0 0 0-1.1-.06c-4.92 0-8.01 3.77-8.09 4.8-.03.53.43 1.1.71 1.4 1.1 1.2 3.42 2.17 6.57 2.19h.07c3.48 0 6.37-1.12 7.6-2.44.4-.45.6-.86.57-1.23-.1-1.3-1.8-4.16-6.33-4.66zm-1.6 8.79z"/></defs><clipPath id="N"><use xlink:href="#M" overflow="visible"/></clipPath><g clip-path="url(#N)"><radialGradient id="O" cx="-226.59" cy="121.88" r="4.46" gradientTransform="matrix(-.9686 0 0 .9604 -110.16 -15.88)" gradientUnits="userSpaceOnUse"><stop offset=".01" stop-color="#529ed6"/><stop offset=".73" stop-color="#3c60ad"/><stop offset="1" stop-color="#252542"/></radialGradient><ellipse cx="109.31" cy="101.17" fill="url(#O)" rx="4.32" ry="4.28"/><radialGradient id="P" cx="-226.59" cy="121.88" r="2.04" gradientTransform="matrix(-.9686 0 0 .9604 -110.16 -15.88)" gradientUnits="userSpaceOnUse"><stop offset=".82" stop-color="#010101"/><stop offset="1" stop-color="#2f4a76"/></radialGradient><ellipse cx="109.31" cy="101.17" fill="url(#P)" rx="1.98" ry="1.96"/></g></g><g><path fill="#ECF7FB" d="M78.92 97.45c-.36 0-.73.02-1.1.06-4.53.5-6.22 3.35-6.33 4.66-.03.37.17.78.58 1.23 1.22 1.31 4.12 2.44 7.6 2.44h.06c3.16-.02 5.47-1 6.57-2.18.28-.3.75-.88.71-1.4-.07-1.04-3.16-4.8-8.09-4.8zm.73 8.37z"/><defs><path id="Q" d="M78.92 97.45c-.36 0-.73.02-1.1.06-4.53.5-6.22 3.35-6.33 4.66-.03.37.17.78.58 1.23 1.22 1.31 4.12 2.44 7.6 2.44h.06c3.16-.02 5.47-1 6.57-2.18.28-.3.75-.88.71-1.4-.07-1.04-3.16-4.8-8.09-4.8zm.73 8.85z"/></defs><clipPath id="R"><use xlink:href="#Q" overflow="visible"/></clipPath><g clip-path="url(#R)"><radialGradient id="S" cx="81.96" cy="121.88" r="4.46" gradientTransform="matrix(.9686 0 0 .9604 -.14 -15.88)" gradientUnits="userSpaceOnUse"><stop offset="0" stop-color="#7b573e"/><stop offset="1" stop-color="#503627"/></radialGradient><ellipse cx="79.25" cy="101.17" fill="url(#S)" rx="4.32" ry="4.28"/><radialGradient id="T" cx="81.96" cy="121.88" r="2.04" gradientTransform="matrix(.9686 0 0 .9604 -.14 -15.88)" gradientUnits="userSpaceOnUse"><stop offset=".72" stop-color="#010101"/><stop offset="1" stop-color="#432f1f"/></radialGradient><ellipse cx="79.25" cy="101.17" fill="url(#T)" rx="1.98" ry="1.96"/></g><path fill="#ECF7FB" d="M111.06 97.51a9.82 9.82 0 0 0-1.1-.06c-4.92 0-8.01 3.77-8.09 4.8-.03.53.43 1.1.71 1.4 1.1 1.2 3.42 2.17 6.57 2.19h.07c3.48 0 6.37-1.12 7.6-2.44.4-.45.6-.86.57-1.23-.1-1.3-1.8-4.16-6.33-4.66zm-1.82 8.31z"/><g><defs><path id="U" d="M111.06 97.51a9.82 9.82 0 0 0-1.1-.06c-4.92 0-8.01 3.77-8.09 4.8-.03.53.43 1.1.71 1.4 1.1 1.2 3.42 2.17 6.57 2.19h.07c3.48 0 6.37-1.12 7.6-2.44.4-.45.6-.86.57-1.23-.1-1.3-1.8-4.16-6.33-4.66zm-1.6 8.79z"/></defs><clipPath id="V"><use xlink:href="#U" overflow="visible"/></clipPath><g clip-path="url(#V)"><radialGradient id="W" cx="-226.59" cy="121.88" r="4.46" gradientTransform="matrix(-.9686 0 0 .9604 -110.16 -15.88)" gradientUnits="userSpaceOnUse"><stop offset="0" stop-color="#7b573e"/><stop offset="1" stop-color="#503627"/></radialGradient><ellipse cx="109.31" cy="101.17" fill="url(#W)" rx="4.32" ry="4.28"/><radialGradient id="X" cx="-226.59" cy="121.88" r="2.04" gradientTransform="matrix(-.9686 0 0 .9604 -110.16 -15.88)" gradientUnits="userSpaceOnUse"><stop offset=".72" stop-color="#010101"/><stop offset="1" stop-color="#432f1f"/></radialGradient><ellipse cx="109.31" cy="101.17" fill="url(#X)" rx="1.98" ry="1.96"/></g></g></g></g><g><path fill="#31302A" d="M146.8 107.07c0-6.7-3.46-12.36-8.2-14.16 3.4-3.71 3.99-10.25 1.07-16.21a17.22 17.22 0 0 0-7.2-7.7c3.43-6.92-2.55-16.99-14.12-23.22-11.78-6.35-25.07-6.41-30.54-.36l-.65.11c-.29-.19-.58-.38-.9-.55-6.83-3.54-17.93.9-24.79 9.9-3.65 4.78-5.34 9.9-5.12 14.16a17.23 17.23 0 0 0-7.12 7.65c-2.91 5.97-2.32 12.5 1.06 16.22-4.73 1.8-8.2 7.45-8.2 14.16 0 6.21 2.98 11.52 7.2 13.7a9.54 9.54 0 0 0-1.35 4.66c0 8.7 14.68 13.89 34.6 15.34v-4.95a38.58 38.58 0 0 1-18.46-20.35 6.2 6.2 0 0 1-4.1 2.43c-4.55.53-9.04-4.67-10.02-11.6-.98-6.95 1.92-13 6.47-13.54a6.7 6.7 0 0 1 5 1.68c.4-6.84 1.56-12.82 3.48-17.88.37.24.75.48 1.15.7 7.68 4.08 19.22.8 25.77-7.35a21.27 21.27 0 0 0 2.79-4.48 22.91 22.91 0 0 0 7.12 7.82c7.23 5.05 16.13 5.81 21.9 2.4 2.14 5.24 3.4 11.53 3.83 18.8a6.7 6.7 0 0 1 5-1.7c4.56.54 7.46 6.6 6.48 13.54-.98 6.94-5.47 12.14-10.03 11.6a6.2 6.2 0 0 1-4.1-2.42 38.57 38.57 0 0 1-18.44 20.35v4.97c20.04-1.43 34.84-6.62 34.84-15.36a9.6 9.6 0 0 0-1.4-4.76c4.1-2.24 6.98-7.49 6.98-13.6z"/></g><path fill="none" d="M179.83-.53H10.17a10.7 10.7 0 0 0-10.7 10.7v169.66c0 5.9 4.8 10.7 10.7 10.7h169.66c5.9 0 10.7-4.8 10.7-10.7V10.17c0-5.9-4.8-10.7-10.7-10.7z"/></svg>