<svg xmlns="http://www.w3.org/2000/svg" xmlns:xlink="http://www.w3.org/1999/xlink" viewBox="0 0 190 190"><path fill="#9C6A4A" d="M67 103.81c.98 6.85-1.88 12.83-6.38 13.35-4.5.53-8.92-4.6-9.9-11.45-.96-6.85 1.9-12.82 6.4-13.35 4.48-.53 8.92 4.6 9.88 11.45z"/><path fill="#83593E" d="M64.08 104.15c.61 4.39-1.22 8.21-4.09 8.55-2.88.34-5.71-2.94-6.33-7.33-.62-4.38 1.2-8.2 4.08-8.55 2.88-.33 5.71 2.95 6.34 7.33z"/><path fill="#9C6A4A" d="M122.25 103.81c-.96 6.85 1.9 12.83 6.39 13.35 4.5.53 8.92-4.6 9.9-11.45.96-6.85-1.9-12.82-6.4-13.35-4.49-.53-8.92 4.6-9.88 11.45z"/><path fill="#83593E" d="M125.19 104.15c-.63 4.39 1.2 8.21 4.08 8.55 2.88.34 5.71-2.94 6.33-7.33.62-4.38-1.2-8.2-4.08-8.55-2.88-.33-5.72 2.95-6.34 7.33z"/><linearGradient id="s" x1="94.63" x2="94.63" y1="147.65" y2="134.38" gradientUnits="userSpaceOnUse"><stop offset=".31" stop-color="#9c6a4a"/><stop offset=".35" stop-color="#9a6849"/><stop offset="1" stop-color="#714c36"/></linearGradient><path fill="url(#s)" d="M82.87 130.53h23.52v14.78H82.87z"/><path fill="#9C6A4A" d="M127.38 99.7c0 24.59-19.77 38.22-32.75 38.22S61.88 124.3 61.88 99.7c0-27.2 10.38-42.6 32.75-42.6 22.37 0 32.75 15.4 32.75 42.6z"/><path fill="#83593E" d="M88.16 113.4c0 2.58 3.35 4.07 6.42 4.07 3.08 0 6.43-1.49 6.43-4.07-1.55 1.1-3.97 1.34-6.43 1.34-2.45 0-4.88-.23-6.42-1.34z"/><g><path fill="#80583B" d="M94.4 124.39c-4.01 0-7.28-1.31-8.5-1.7 0 2.78 1.81 5.61 8.64 5.61 6.88 0 8.81-2.83 8.81-5.66-1.25.38-4.85 1.75-8.95 1.75z"/><path fill="none" stroke="#553727" stroke-miterlimit="10" d="M86.13 122.96s3.87 1.43 8.57 1.43c4.69 0 8.43-1.47 8.43-1.47" stroke-linecap="round" stroke-linejoin="round"/></g><g fill="#31302A"><path d="M88.42 93.3l-.18-.03c-2.72-1.24-4-1.75-8.28-2.1-.59-.05-1.2-.07-1.82-.07-3.52 0-6.7.78-8.18 1.5a.44.44 0 0 1-.46-.05.37.37 0 0 1-.13-.41c.94-2.8 4.11-4.29 9.18-4.29.66 0 1.35.03 2.04.08 4.58.33 6.99 2.8 8.2 4.8.09.15.06.33-.07.46a.42.42 0 0 1-.3.12zM100.53 93.19a.37.37 0 0 1-.06-.46c1.21-2 3.62-4.47 8.2-4.8.7-.05 1.38-.08 2.04-.08 5.07 0 8.24 1.48 9.18 4.29.05.15 0 .31-.13.41a.44.44 0 0 1-.46.05c-1.47-.72-4.66-1.5-8.18-1.5-.62 0-1.23.03-1.82.07-4.28.35-5.56.86-8.28 2.1l-.19.04a.43.43 0 0 1-.3-.12z"/></g><g><path fill="#ECF7FB" d="M79.31 96.98c-.35 0-.72.02-1.08.06-4.47.5-6.14 3.31-6.25 4.6-.03.37.16.77.58 1.22 1.2 1.3 4.05 2.4 7.49 2.4h.06c3.12-.02 5.4-.98 6.49-2.15.27-.3.73-.87.7-1.39-.08-1.01-3.13-4.73-7.99-4.73zm.72 8.27z"/><defs><path id="t" d="M79.31 96.98c-.35 0-.72.02-1.08.06-4.47.5-6.14 3.31-6.25 4.6-.03.37.16.77.58 1.22 1.2 1.3 4.05 2.4 7.49 2.4h.06c3.12-.02 5.4-.98 6.49-2.15.27-.3.73-.87.7-1.39-.08-1.01-3.13-4.73-7.99-4.73zm.72 8.74z"/></defs><clipPath id="u"><use xlink:href="#t" overflow="visible"/></clipPath><g clip-path="url(#u)"><radialGradient id="v" cx="82.36" cy="121.34" r="4.4" gradientTransform="matrix(.9686 0 0 .9604 -.14 -15.88)" gradientUnits="userSpaceOnUse"><stop offset="0" stop-color="#7b573e"/><stop offset="1" stop-color="#503627"/></radialGradient><ellipse cx="79.64" cy="100.66" fill="url(#v)" rx="4.26" ry="4.23"/><radialGradient id="w" cx="82.36" cy="121.34" r="2.01" gradientTransform="matrix(.9686 0 0 .9604 -.14 -15.88)" gradientUnits="userSpaceOnUse"><stop offset=".72" stop-color="#010101"/><stop offset="1" stop-color="#432f1f"/></radialGradient><ellipse cx="79.64" cy="100.66" fill="url(#w)" rx="1.95" ry="1.94"/></g><path fill="#ECF7FB" d="M111.03 97.05a9.83 9.83 0 0 0-1.08-.06c-4.86 0-7.91 3.72-7.99 4.73-.04.52.43 1.1.7 1.39 1.1 1.17 3.37 2.14 6.49 2.15h.06c3.43 0 6.3-1.1 7.5-2.4.4-.44.6-.85.57-1.22-.11-1.29-1.78-4.1-6.25-4.6zm-1.8 8.2z"/><g><defs><path id="x" d="M111.03 97.05a9.83 9.83 0 0 0-1.08-.06c-4.86 0-7.91 3.72-7.99 4.73-.04.52.43 1.1.7 1.39 1.1 1.17 3.37 2.14 6.49 2.15h.06c3.43 0 6.3-1.1 7.5-2.4.4-.44.6-.85.57-1.22-.11-1.29-1.78-4.1-6.25-4.6zm-1.58 8.67z"/></defs><clipPath id="y"><use xlink:href="#x" overflow="visible"/></clipPath><g clip-path="url(#y)"><radialGradient id="z" cx="-226.58" cy="121.34" r="4.4" gradientTransform="matrix(-.9686 0 0 .9604 -110.16 -15.88)" gradientUnits="userSpaceOnUse"><stop offset="0" stop-color="#7b573e"/><stop offset="1" stop-color="#503627"/></radialGradient><ellipse cx="109.3" cy="100.66" fill="url(#z)" rx="4.26" ry="4.23"/><radialGradient id="A" cx="-226.58" cy="121.34" r="2.01" gradientTransform="matrix(-.9686 0 0 .9604 -110.16 -15.88)" gradientUnits="userSpaceOnUse"><stop offset=".72" stop-color="#010101"/><stop offset="1" stop-color="#432f1f"/></radialGradient><ellipse cx="109.3" cy="100.66" fill="url(#A)" rx="1.95" ry="1.94"/></g></g></g><path fill="#31302A" d="M94.63 42.08c-22.7 0-41.11 17.91-41.11 40a39 39 0 0 0 1.56 10.9c.63-.35 1.3-.59 2.03-.67a6.6 6.6 0 0 1 4.94 1.66c.91-15.45 5.68-26.47 14.67-32.25l.17.03c3.08-1.44 9.86-2.44 17.74-2.44s14.66 1 17.74 2.44l.17-.03c9 5.78 13.76 16.8 14.67 32.25a6.6 6.6 0 0 1 4.94-1.66c.72.08 1.4.32 2.03.67a39 39 0 0 0 1.56-10.9c0-22.09-18.4-40-41.11-40z"/><g><path fill="#E57435" d="M58.75 74.85a46.27 46.27 0 0 1 9.57-7.7c-.28-1.6-.44-3.25-.44-4.93 0-12.7 8.52-23.4 20.01-26.44-17.88 1.82-30.53 10.85-31.98 21.97L53 79.88c1.66-1.36 3.94-3.1 5.74-5.03zM133.26 57.75C131.9 47.02 119.2 37.7 101.34 35.8c11.46 3.07 19.94 13.75 19.94 26.42 0 1.67-.15 3.3-.44 4.89a45.81 45.81 0 0 1 8.59 6.78c2.2 2.24 4.86 4.3 6.7 5.86l-2.87-22z"/><path fill="#E57435" d="M94.58 36.91c-13.6 0-24.67 11.35-24.67 25.3 0 1.31.1 2.6.29 3.85a50.16 50.16 0 0 1 24.38-6.2 49.9 49.9 0 0 1 24.39 6.16c.18-1.24.28-2.51.28-3.8 0-13.96-11.07-25.3-24.67-25.3z"/><path fill="#AD4D25" d="M98.61 35.22c-.22-1.15-2.12-2.05-4.47-2.05-2.46 0-4.45 1-4.5 2.22a26.19 26.19 0 0 1 8.97-.17z"/><path fill="#EDC257" d="M136.14 79.75c-1.85-1.57-4.5-3.62-6.71-5.86a45.73 45.73 0 0 0-8.59-6.78c.29-1.59.44-3.22.44-4.9 0-12.66-8.48-23.34-19.94-26.4a26.03 26.03 0 0 0-13.45-.03c-11.5 3.05-20 13.74-20 26.44 0 1.68.15 3.32.44 4.92a46.24 46.24 0 0 0-9.58 7.71c-1.8 1.92-4.08 3.67-5.74 5.03-1.3 1.06-.41 1.89-.41 2.37 0 3.3 6.21-2.68 18.31-7.42l1.9-.73c6.42-2.35 13.85-4.24 21.77-4.24s15.35 1.9 21.76 4.27a90 90 0 0 1 1.9.73c12.1 4.78 18.33 10.8 18.33 7.39 0-.5.9-1.38-.43-2.5zM94.58 59.87a50.16 50.16 0 0 0-24.38 6.19 26.03 26.03 0 0 1-.29-3.84c0-13.96 11.07-25.3 24.67-25.3 13.6 0 24.67 11.34 24.67 25.3 0 1.29-.1 2.56-.28 3.8a49.92 49.92 0 0 0-24.39-6.15z"/></g><path fill="none" d="M179.83-.53H10.17a10.7 10.7 0 0 0-10.7 10.7v169.66c0 5.9 4.8 10.7 10.7 10.7h169.66c5.9 0 10.7-4.8 10.7-10.7V10.17c0-5.9-4.8-10.7-10.7-10.7z"/></svg>