<svg xmlns="http://www.w3.org/2000/svg" xmlns:xlink="http://www.w3.org/1999/xlink" viewBox="0 0 190 190"><path fill="#FBC8A6" d="M66.96 103.81c.97 6.85-1.9 12.83-6.39 13.35-4.49.53-8.92-4.6-9.89-11.45-.97-6.85 1.9-12.82 6.38-13.35 4.5-.53 8.93 4.6 9.9 11.45z"/><path fill="#E3A584" d="M64.03 104.15c.62 4.39-1.21 8.21-4.09 8.55-2.87.34-5.7-2.94-6.33-7.33-.62-4.38 1.21-8.2 4.09-8.55 2.88-.33 5.7 2.95 6.33 7.33z"/><path fill="#FBC8A6" d="M122.2 103.81c-.96 6.85 1.9 12.83 6.39 13.35 4.5.53 8.93-4.6 9.9-11.45.97-6.85-1.9-12.82-6.39-13.35-4.5-.53-8.92 4.6-9.9 11.45z"/><path fill="#E3A584" d="M125.14 104.15c-.62 4.39 1.2 8.21 4.08 8.55 2.88.34 5.72-2.94 6.33-7.33.63-4.38-1.2-8.2-4.08-8.55-2.88-.33-5.71 2.95-6.33 7.33z"/><linearGradient id="B" x1="94.58" x2="94.58" y1="147.65" y2="134.38" gradientUnits="userSpaceOnUse"><stop offset=".31" stop-color="#fbc8a6"/><stop offset="1" stop-color="#cd8a67"/></linearGradient><path fill="url(#B)" d="M82.82 130.53h23.52v14.78H82.82z"/><path fill="#FBC8A6" d="M127.33 99.7c0 24.59-19.77 38.22-32.75 38.22S61.84 124.3 61.84 99.7c0-27.2 10.37-42.6 32.74-42.6 22.37 0 32.75 15.4 32.75 42.6z"/><g><path fill="#B57E5E" d="M89.61 114.8c1.22 1.62 3.7 2.79 4.97 2.79 1.28 0 3.75-1.17 4.97-2.78a12.65 12.65 0 0 1-9.94 0z"/></g><g><path fill="#E3A584" d="M94.36 124.39c-4.02 0-7.29-1.31-8.5-1.7 1.75 2.67 3.2 5.61 8.63 5.61 5.47 0 7.06-2.96 8.82-5.66-1.26.38-4.86 1.75-8.95 1.75z"/><path fill="none" stroke="#A77456" stroke-miterlimit="10" d="M86.09 122.96s3.86 1.43 8.56 1.43c4.7 0 8.43-1.47 8.43-1.47" stroke-linecap="round" stroke-linejoin="round"/></g><g><path fill="#ECF7FB" d="M79.27 96.98c-.36 0-.72.02-1.08.06-4.47.5-6.15 3.31-6.25 4.6-.03.37.16.77.57 1.22 1.2 1.3 4.06 2.4 7.5 2.4h.05c3.12-.02 5.4-.98 6.49-2.15.28-.3.74-.87.7-1.39-.07-1.01-3.12-4.73-7.98-4.73zm.72 8.27z"/><defs><path id="C" d="M79.27 96.98c-.36 0-.72.02-1.08.06-4.47.5-6.15 3.31-6.25 4.6-.03.37.16.77.57 1.22 1.2 1.3 4.06 2.4 7.5 2.4h.05c3.12-.02 5.4-.98 6.49-2.15.28-.3.74-.87.7-1.39-.07-1.01-3.12-4.73-7.98-4.73zm.72 8.74z"/></defs><clipPath id="D"><use xlink:href="#C" overflow="visible"/></clipPath><g clip-path="url(#D)"><radialGradient id="E" cx="82.31" cy="121.34" r="4.4" gradientTransform="matrix(.9686 0 0 .9604 -.14 -15.88)" gradientUnits="userSpaceOnUse"><stop offset=".01" stop-color="#b37852"/><stop offset=".73" stop-color="#7b573e"/><stop offset="1" stop-color="#57321d"/></radialGradient><ellipse cx="79.59" cy="100.66" fill="url(#E)" rx="4.26" ry="4.23"/><radialGradient id="F" cx="82.32" cy="121.34" r="2.01" gradientTransform="matrix(.9686 0 0 .9604 -.14 -15.88)" gradientUnits="userSpaceOnUse"><stop offset=".72" stop-color="#010101"/><stop offset="1" stop-color="#5a4524"/></radialGradient><ellipse cx="79.59" cy="100.66" fill="url(#F)" rx="1.95" ry="1.94"/></g><path fill="#ECF7FB" d="M110.98 97.05a9.83 9.83 0 0 0-1.08-.06c-4.86 0-7.91 3.72-7.98 4.73-.04.52.42 1.1.7 1.39 1.09 1.17 3.36 2.14 6.48 2.15h.06c3.44 0 6.3-1.1 7.5-2.4.4-.44.6-.85.57-1.22-.1-1.29-1.78-4.1-6.25-4.6zm-1.8 8.2z"/><g><defs><path id="G" d="M110.98 97.05a9.83 9.83 0 0 0-1.08-.06c-4.86 0-7.91 3.72-7.98 4.73-.04.52.42 1.1.7 1.39 1.09 1.17 3.36 2.14 6.48 2.15h.06c3.44 0 6.3-1.1 7.5-2.4.4-.44.6-.85.57-1.22-.1-1.29-1.78-4.1-6.25-4.6zm-1.57 8.67z"/></defs><clipPath id="H"><use xlink:href="#G" overflow="visible"/></clipPath><g clip-path="url(#H)"><radialGradient id="I" cx="-226.53" cy="121.34" r="4.4" gradientTransform="matrix(-.9686 0 0 .9604 -110.16 -15.88)" gradientUnits="userSpaceOnUse"><stop offset=".01" stop-color="#b37852"/><stop offset=".73" stop-color="#7b573e"/><stop offset="1" stop-color="#57321d"/></radialGradient><ellipse cx="109.26" cy="100.66" fill="url(#I)" rx="4.26" ry="4.23"/><radialGradient id="J" cx="-226.53" cy="121.34" r="2.01" gradientTransform="matrix(-.9686 0 0 .9604 -110.16 -15.88)" gradientUnits="userSpaceOnUse"><stop offset=".72" stop-color="#010101"/><stop offset="1" stop-color="#5a4524"/></radialGradient><ellipse cx="109.26" cy="100.66" fill="url(#J)" rx="1.95" ry="1.94"/></g></g></g><g><path fill="#CA6C29" d="M132.12 92.25c.27.04.54.09.8.16 1.14-3.6 1.77-7.4 1.77-11.36 0-21.22-17.7-38.42-39.55-38.42-21.84 0-39.54 17.2-39.54 38.42 0 3.9.6 7.65 1.72 11.2 1.64-.12 3.26.5 4.7 1.67.4-6.44 1.45-12.12 3.21-16.96 6.02 5.47 17.38 6.74 28.38 2.5 5.2-2 9.56-4.93 12.77-8.31.33.44.66.89 1.01 1.32 5.67 7 12.95 11.19 18.45 11.16a71.16 71.16 0 0 1 1.31 10.31 6.63 6.63 0 0 1 4.97-1.69z"/><g fill="#CA6C29"><path d="M88.38 93.3l-.19-.03c-2.72-1.24-4-1.75-8.28-2.1-.59-.05-1.2-.07-1.82-.07-3.52 0-6.7.78-8.18 1.5a.44.44 0 0 1-.45-.05.37.37 0 0 1-.14-.41c.94-2.8 4.11-4.29 9.18-4.29.66 0 1.35.03 2.05.08 4.58.33 6.98 2.8 8.19 4.8.09.15.07.33-.06.46a.42.42 0 0 1-.3.12zM100.49 93.19a.37.37 0 0 1-.06-.46c1.2-2 3.61-4.47 8.2-4.8.69-.05 1.38-.08 2.03-.08 5.07 0 8.25 1.48 9.18 4.29.05.15 0 .31-.13.41a.44.44 0 0 1-.46.05c-1.47-.72-4.66-1.5-8.18-1.5-.61 0-1.23.03-1.82.07-4.28.35-5.55.86-8.28 2.1l-.18.04a.43.43 0 0 1-.3-.12z"/></g></g><path fill="none" d="M179.83-.53H10.17a10.7 10.7 0 0 0-10.7 10.7v169.66c0 5.9 4.8 10.7 10.7 10.7h169.66c5.9 0 10.7-4.8 10.7-10.7V10.17c0-5.9-4.8-10.7-10.7-10.7z"/></svg>