<svg xmlns="http://www.w3.org/2000/svg" xmlns:xlink="http://www.w3.org/1999/xlink" viewBox="0 0 190 190"><path fill="#D09C70" d="M67 103.81c.98 6.85-1.88 12.83-6.38 13.35-4.5.53-8.92-4.6-9.9-11.45-.96-6.85 1.9-12.82 6.4-13.35 4.48-.53 8.92 4.6 9.88 11.45z"/><path fill="#AF8560" d="M64.08 104.15c.61 4.39-1.22 8.21-4.09 8.55-2.88.34-5.71-2.94-6.33-7.33-.62-4.38 1.2-8.2 4.08-8.55 2.88-.33 5.71 2.95 6.34 7.33z"/><path fill="#D09C70" d="M122.25 103.81c-.96 6.85 1.9 12.83 6.39 13.35 4.5.53 8.92-4.6 9.9-11.45.96-6.85-1.9-12.82-6.4-13.35-4.49-.53-8.92 4.6-9.88 11.45z"/><path fill="#AF8560" d="M125.19 104.15c-.63 4.39 1.2 8.21 4.08 8.55 2.88.34 5.71-2.94 6.33-7.33.62-4.38-1.2-8.2-4.08-8.55-2.88-.33-5.72 2.95-6.34 7.33z"/><linearGradient id="j" x1="94.63" x2="94.63" y1="147.65" y2="134.38" gradientUnits="userSpaceOnUse"><stop offset=".47" stop-color="#dea878"/><stop offset="1" stop-color="#ad825e"/></linearGradient><path fill="url(#j)" d="M82.87 130.53h23.52v14.78H82.87z"/><path fill="#D09C70" d="M127.38 99.7c0 24.59-19.77 38.22-32.75 38.22S61.88 124.3 61.88 99.7c0-27.2 10.38-42.6 32.75-42.6 22.37 0 32.75 15.4 32.75 42.6z"/><path fill="#A77E56" d="M88.43 113.4c.8 2.6 4.37 4.07 6.15 4.07 1.78 0 5.5-1.5 6.15-4.07-1.48 1.1-3.8 1.34-6.15 1.34-2.35 0-4.67-.23-6.15-1.34z"/><g><path fill="#AB7D57" d="M94.4 124.39c-4.01 0-7.28-1.31-8.5-1.7 0 2.78 3.53 5.61 8.64 5.61 5.15 0 8.81-2.83 8.81-5.66-1.25.38-4.85 1.75-8.95 1.75z"/><path fill="none" stroke="#885E45" stroke-miterlimit="10" d="M86.13 122.96s3.87 1.43 8.57 1.43c4.69 0 8.43-1.47 8.43-1.47" stroke-linecap="round" stroke-linejoin="round"/></g><g fill="#31302A"><path d="M88.42 93.3l-.18-.03c-2.72-1.24-4-1.75-8.28-2.1-.59-.05-1.2-.07-1.82-.07-3.52 0-6.7.78-8.18 1.5a.44.44 0 0 1-.46-.05.37.37 0 0 1-.13-.41c.94-2.8 4.11-4.29 9.18-4.29.66 0 1.35.03 2.04.08 4.58.33 6.99 2.8 8.2 4.8.09.15.06.33-.07.46a.42.42 0 0 1-.3.12zM100.53 93.19a.37.37 0 0 1-.06-.46c1.21-2 3.62-4.47 8.2-4.8.7-.05 1.38-.08 2.04-.08 5.07 0 8.24 1.48 9.18 4.29.05.15 0 .31-.13.41a.44.44 0 0 1-.46.05c-1.47-.72-4.66-1.5-8.18-1.5-.62 0-1.23.03-1.82.07-4.28.35-5.56.86-8.28 2.1l-.19.04a.43.43 0 0 1-.3-.12z"/></g><g><path fill="#ECF7FB" d="M79.31 96.98c-.35 0-.72.02-1.08.06-4.47.5-6.14 3.31-6.25 4.6-.03.37.16.77.58 1.22 1.2 1.3 4.05 2.4 7.49 2.4h.06c3.12-.02 5.4-.98 6.49-2.15.27-.3.73-.87.7-1.39-.08-1.01-3.13-4.73-7.99-4.73zm.72 8.27z"/><defs><path id="k" d="M79.31 96.98c-.35 0-.72.02-1.08.06-4.47.5-6.14 3.31-6.25 4.6-.03.37.16.77.58 1.22 1.2 1.3 4.05 2.4 7.49 2.4h.06c3.12-.02 5.4-.98 6.49-2.15.27-.3.73-.87.7-1.39-.08-1.01-3.13-4.73-7.99-4.73zm.72 8.74z"/></defs><clipPath id="l"><use xlink:href="#k" overflow="visible"/></clipPath><g clip-path="url(#l)"><radialGradient id="m" cx="82.36" cy="121.34" r="4.4" gradientTransform="matrix(.9686 0 0 .9604 -.14 -15.88)" gradientUnits="userSpaceOnUse"><stop offset="0" stop-color="#7b573e"/><stop offset="1" stop-color="#503627"/></radialGradient><ellipse cx="79.64" cy="100.66" fill="url(#m)" rx="4.26" ry="4.23"/><radialGradient id="n" cx="82.36" cy="121.34" r="2.01" gradientTransform="matrix(.9686 0 0 .9604 -.14 -15.88)" gradientUnits="userSpaceOnUse"><stop offset=".72" stop-color="#010101"/><stop offset="1" stop-color="#432f1f"/></radialGradient><ellipse cx="79.64" cy="100.66" fill="url(#n)" rx="1.95" ry="1.94"/></g><path fill="#ECF7FB" d="M111.03 97.05a9.83 9.83 0 0 0-1.08-.06c-4.86 0-7.91 3.72-7.99 4.73-.04.52.43 1.1.7 1.39 1.1 1.17 3.37 2.14 6.49 2.15h.06c3.43 0 6.3-1.1 7.5-2.4.4-.44.6-.85.57-1.22-.11-1.29-1.78-4.1-6.25-4.6zm-1.8 8.2z"/><g><defs><path id="o" d="M111.03 97.05a9.83 9.83 0 0 0-1.08-.06c-4.86 0-7.91 3.72-7.99 4.73-.04.52.43 1.1.7 1.39 1.1 1.17 3.37 2.14 6.49 2.15h.06c3.43 0 6.3-1.1 7.5-2.4.4-.44.6-.85.57-1.22-.11-1.29-1.78-4.1-6.25-4.6zm-1.58 8.67z"/></defs><clipPath id="p"><use xlink:href="#o" overflow="visible"/></clipPath><g clip-path="url(#p)"><radialGradient id="q" cx="-226.58" cy="121.34" r="4.4" gradientTransform="matrix(-.9686 0 0 .9604 -110.16 -15.88)" gradientUnits="userSpaceOnUse"><stop offset="0" stop-color="#7b573e"/><stop offset="1" stop-color="#503627"/></radialGradient><ellipse cx="109.3" cy="100.66" fill="url(#q)" rx="4.26" ry="4.23"/><radialGradient id="r" cx="-226.58" cy="121.34" r="2.01" gradientTransform="matrix(-.9686 0 0 .9604 -110.16 -15.88)" gradientUnits="userSpaceOnUse"><stop offset=".72" stop-color="#010101"/><stop offset="1" stop-color="#432f1f"/></radialGradient><ellipse cx="109.3" cy="100.66" fill="url(#r)" rx="1.95" ry="1.94"/></g></g></g><path fill="#31302A" d="M95.2 42.02c-5.11 0-10 .94-14.49 2.62-.72.23-1.45.48-2.17.75-8.72 3.32-15.13 9.22-17.7 15.45a37.1 37.1 0 0 0-3.65 31.46c1.7-.17 3.37.46 4.85 1.67.38-6.32 1.4-11.9 3.08-16.68 6.3 4.67 17.07 5.55 27.53 1.56 4.28-1.63 8-3.88 11-6.49.27.37.55.75.85 1.11 6.44 7.85 15.26 11.88 21.41 10.3a71.27 71.27 0 0 1 1.3 10.2 6.6 6.6 0 0 1 4.93-1.66c.35.04.68.12 1 .22a37 37 0 0 0 2.03-12.09c0-21.22-17.9-38.41-39.97-38.41z"/><path fill="none" d="M179.83-.53H10.17a10.7 10.7 0 0 0-10.7 10.7v169.66c0 5.9 4.8 10.7 10.7 10.7h169.66c5.9 0 10.7-4.8 10.7-10.7V10.17c0-5.9-4.8-10.7-10.7-10.7z"/></svg>