<svg xmlns="http://www.w3.org/2000/svg" viewBox="-5 -9 24 40">
  <path fill="#fff" fill-rule="evenodd" d="M4.04 13.528c0-1.156.14-2.076.422-2.76.28-.685.794-1.36 1.54-2.024.747-.665 1.245-1.205 1.492-1.622.248-.417.372-.856.372-1.318 0-1.395-.644-2.092-1.93-2.092-.612 0-1.1.188-1.468.563-.367.376-.56.894-.576 1.554H.302C.32 4.252.83 3.02 1.833 2.127 2.833 1.238 4.2.79 5.934.79c1.75 0 3.106.424 4.072 1.27.965.846 1.448 2.04 1.448 3.583 0 .7-.157 1.364-.47 1.987-.314.623-.863 1.314-1.647 2.073l-1.002.953c-.627.602-.986 1.308-1.077 2.117l-.05.755H4.04zm-.358 3.8c0-.553.188-1.01.563-1.368.376-.36.856-.54 1.442-.54s1.067.18 1.442.54c.375.36.562.815.562 1.368 0 .544-.183.994-.55 1.35-.368.354-.853.53-1.455.53-.602 0-1.087-.176-1.454-.53-.368-.356-.55-.806-.55-1.35z"/>
</svg>
