<svg xmlns="http://www.w3.org/2000/svg" xmlns:xlink="http://www.w3.org/1999/xlink" viewBox="0 0 190 190"><path fill="#FBC8A6" d="M43.55 98c.8 10.6 4.87 13.76 10.85 13.84 5.37.08 9.18-5.38 8.57-13.55-.61-8.16-5.45-14.85-10.82-14.93-8.28-.12-9.24 6.02-8.6 14.65z"/><path fill="#E3A584" d="M48.07 99.06c.33 5.38 2.65 7.88 6.02 7.9 3.36.03 6.5-2.43 6.17-7.82-.34-5.39-3.34-9.77-6.7-9.8-6-.03-5.86 3.9-5.5 9.72z"/><path fill="#FBC8A6" d="M145.49 98c-.8 10.6-4.87 13.76-10.85 13.84-5.37.08-9.18-5.38-8.57-13.55.61-8.16 5.45-14.85 10.82-14.93 8.29-.12 9.24 6.02 8.6 14.65z"/><path fill="#E3A584" d="M140.97 99.06c-.33 5.38-2.65 7.88-6.02 7.9-3.36.03-6.5-2.43-6.17-7.82.34-5.39 3.34-9.77 6.7-9.8 6-.03 5.86 3.9 5.5 9.72z"/><linearGradient id="B" x1="94.52" x2="94.52" y1="149.88" y2="131.53" gradientUnits="userSpaceOnUse"><stop offset=".47" stop-color="#fbc8a6"/><stop offset="1" stop-color="#cd8a67"/></linearGradient><path fill="url(#B)" d="M71.33 126.21h46.39v20.44H71.33z"/><path fill="#FBC8A6" d="M132.12 80.94c0 2.38-.12 12.27-.35 14.5-2.35 22.86-11.87 37.42-27.12 38.65-2.19 1.88-3.36 3.28-10.13 3.28-6.77 0-7.75-1.24-10.06-3.26-15.33-.67-24.82-15.67-27.19-38.67-.23-2.23-.35-12.12-.35-14.5 0-26.97 4.45-47.85 37.58-47.85 33.13 0 37.62 20.88 37.62 47.85z"/><g fill="none" stroke="#DEA486" stroke-miterlimit="10" stroke-linecap="round" stroke-linejoin="round"><path d="M116.15 63.45s-9.18-.55-21.14-.55c-11.95 0-22.12.58-22.12.58M110.01 58.67s-6.57-.55-15.13-.55-15.85.58-15.85.58"/></g><path fill="#B57E5E" d="M94.52 106.93c-5.92 0-5.4-.85-7.63-1.5 0 2.25 5.62 4.5 7.63 4.5s7.63-2.15 7.63-4.5c-2.6.68-1.7 1.5-7.63 1.5z"/><path fill="#E3A584" d="M94.22 118.64c-5.22 0-9.49-.5-11.07-.77 0 2.29 1.94 5.56 11.25 5.56 9.35 0 11.48-3.45 11.48-5.6a80.8 80.8 0 0 1-11.66.81z"/><path fill="none" stroke="#AE7B5E" stroke-miterlimit="10" d="M83.19 118.1s4.8.54 11.07.54c6.26 0 11.6-.58 11.6-.58" stroke-linecap="round" stroke-linejoin="round"/><g><path fill="#918E86" d="M73.24 76.94c5.38-.3 12.48.52 14.67.84 1.9-4.3-.81-5.6-8.04-5.8-12.93-.37-17.72 3.7-18.04 7.37 2.9-.61 5.83-2.1 11.4-2.4zM115.8 76.94c-5.37-.3-12.48.52-14.66.84-1.9-4.3.8-5.6 8.03-5.8 12.93-.37 17.72 3.7 18.04 7.37-2.9-.61-5.83-2.1-11.4-2.4z"/></g><g><path fill="#ECF7FB" d="M85.05 89.08c-.38-1.52-1.94-6.01-10.35-5.23-5.15.47-7.16 5.96-7 5.52a.5.5 0 0 0 .06.47c.1.12-.27 1.1 7.54 1.37 6.64.23 9.08-.45 9.66-.95.14-.1.13-1 .09-1.18z"/><defs><path id="C" d="M85.05 89.08c-.38-1.52-1.94-6.01-10.35-5.23-5.15.47-7.16 5.96-7 5.52a.5.5 0 0 0 .06.47c.1.12-.27 1.1 7.54 1.37 6.64.23 9.08-.45 9.66-.95.14-.1.13-1 .09-1.18z"/></defs><clipPath id="D"><use xlink:href="#C" overflow="visible"/></clipPath><g clip-path="url(#D)"><radialGradient id="E" cx="21.04" cy="165.04" r="4.32" gradientTransform="matrix(.9592 -.1058 .11 .9221 38.38 -62.46)" gradientUnits="userSpaceOnUse"><stop offset=".01" stop-color="#b37852"/><stop offset=".73" stop-color="#7b573e"/><stop offset="1" stop-color="#57321d"/></radialGradient><path fill="url(#E)" d="M72.57 87.95a4.14 4.14 0 0 0 4.62 3.53 4.05 4.05 0 0 0 3.67-4.45 4.14 4.14 0 0 0-4.62-3.53 4.05 4.05 0 0 0-3.67 4.45z"/><radialGradient id="F" cx="21.04" cy="165.04" r="1.98" gradientTransform="matrix(.9592 -.1058 .11 .9221 38.38 -62.46)" gradientUnits="userSpaceOnUse"><stop offset=".72" stop-color="#010101"/><stop offset="1" stop-color="#5a4524"/></radialGradient><path fill="url(#F)" d="M78.61 87.28c.12 1.01-.63 1.92-1.68 2.03-1.05.12-2-.6-2.11-1.61-.13-1 .63-1.92 1.68-2.03 1.04-.12 2 .6 2.11 1.61z"/></g><path fill="#ECF7FB" d="M103.99 89.08c.38-1.52 1.94-6.01 10.35-5.23 5.15.47 7.16 5.96 7 5.52a.5.5 0 0 1-.06.47c-.1.12.27 1.1-7.54 1.37-6.64.23-9.08-.45-9.66-.95-.14-.1-.13-1-.09-1.18z"/><g><defs><path id="G" d="M103.99 89.08c.38-1.52 1.94-6.01 10.35-5.23 5.15.47 7.16 5.96 7 5.52a.5.5 0 0 1-.06.47c-.1.12.27 1.1-7.54 1.37-6.64.23-9.08-.45-9.66-.95-.14-.1-.13-1-.09-1.18z"/></defs><clipPath id="H"><use xlink:href="#G" overflow="visible"/></clipPath><g clip-path="url(#H)"><radialGradient id="I" cx="-633.87" cy="89.89" r="4.32" gradientTransform="matrix(-.9592 -.1058 -.11 .9221 -485.8 -62.46)" gradientUnits="userSpaceOnUse"><stop offset=".01" stop-color="#b37852"/><stop offset=".73" stop-color="#7b573e"/><stop offset="1" stop-color="#57321d"/></radialGradient><path fill="url(#I)" d="M116.47 87.95a4.14 4.14 0 0 1-4.62 3.53 4.05 4.05 0 0 1-3.67-4.45 4.14 4.14 0 0 1 4.62-3.53 4.05 4.05 0 0 1 3.67 4.45z"/><radialGradient id="J" cx="-633.87" cy="89.89" r="1.98" gradientTransform="matrix(-.9592 -.1058 -.11 .9221 -485.8 -62.46)" gradientUnits="userSpaceOnUse"><stop offset=".72" stop-color="#010101"/><stop offset="1" stop-color="#5a4524"/></radialGradient><path fill="url(#J)" d="M110.43 87.28c-.12 1.01.63 1.92 1.68 2.03 1.05.12 2-.6 2.11-1.61.12-1-.63-1.92-1.68-2.03-1.04-.12-2 .6-2.11 1.61z"/></g></g><g><path fill="#ECF7FB" d="M85.05 89.08c-.38-1.52-1.93-6.01-10.34-5.23-5.16.47-7.17 5.96-7.01 5.52a.5.5 0 0 0 .06.47c.1.12-.27 1.1 7.54 1.37 6.64.23 9.08-.45 9.66-.95.14-.1.13-1 .1-1.18z"/><defs><path id="K" d="M85.05 89.08c-.38-1.52-1.93-6.01-10.34-5.23-5.16.47-7.17 5.96-7.01 5.52a.5.5 0 0 0 .06.47c.1.12-.27 1.1 7.54 1.37 6.64.23 9.08-.45 9.66-.95.14-.1.13-1 .1-1.18z"/></defs><clipPath id="L"><use xlink:href="#K" overflow="visible"/></clipPath><g clip-path="url(#L)"><radialGradient id="M" cx="21.05" cy="165.04" r="4.32" gradientTransform="matrix(.9592 -.1058 .11 .9221 38.38 -62.46)" gradientUnits="userSpaceOnUse"><stop offset=".01" stop-color="#b37852"/><stop offset=".73" stop-color="#7b573e"/><stop offset="1" stop-color="#57321d"/></radialGradient><path fill="url(#M)" d="M72.57 87.95a4.14 4.14 0 0 0 4.62 3.53 4.05 4.05 0 0 0 3.67-4.45 4.14 4.14 0 0 0-4.62-3.53 4.05 4.05 0 0 0-3.67 4.45z"/><radialGradient id="N" cx="21.04" cy="165.04" r="1.98" gradientTransform="matrix(.9592 -.1058 .11 .9221 38.38 -62.46)" gradientUnits="userSpaceOnUse"><stop offset=".72" stop-color="#010101"/><stop offset="1" stop-color="#5a4524"/></radialGradient><path fill="url(#N)" d="M78.61 87.28c.12 1.01-.63 1.92-1.67 2.03-1.05.12-2-.6-2.12-1.61-.12-1 .63-1.92 1.68-2.03 1.05-.12 2 .6 2.11 1.61z"/></g><path fill="#ECF7FB" d="M104 89.08c.38-1.52 1.93-6.01 10.34-5.23 5.15.47 7.17 5.96 7.01 5.52a.5.5 0 0 1-.07.47c-.1.12.27 1.1-7.54 1.37-6.64.23-9.08-.45-9.66-.95-.13-.1-.13-1-.09-1.18z"/><defs><path id="O" d="M104 89.08c.38-1.52 1.93-6.01 10.34-5.23 5.15.47 7.17 5.96 7.01 5.52a.5.5 0 0 1-.07.47c-.1.12.27 1.1-7.54 1.37-6.64.23-9.08-.45-9.66-.95-.13-.1-.13-1-.09-1.18z"/></defs><clipPath id="P"><use xlink:href="#O" overflow="visible"/></clipPath><g clip-path="url(#P)"><radialGradient id="Q" cx="-633.87" cy="89.89" r="4.32" gradientTransform="matrix(-.9592 -.1058 -.11 .9221 -485.8 -62.46)" gradientUnits="userSpaceOnUse"><stop offset=".01" stop-color="#b37852"/><stop offset=".73" stop-color="#7b573e"/><stop offset="1" stop-color="#57321d"/></radialGradient><path fill="url(#Q)" d="M116.47 87.95a4.14 4.14 0 0 1-4.62 3.53 4.05 4.05 0 0 1-3.67-4.45 4.14 4.14 0 0 1 4.62-3.53 4.05 4.05 0 0 1 3.67 4.45z"/><radialGradient id="R" cx="-633.88" cy="89.89" r="1.98" gradientTransform="matrix(-.9592 -.1058 -.11 .9221 -485.8 -62.46)" gradientUnits="userSpaceOnUse"><stop offset=".72" stop-color="#010101"/><stop offset="1" stop-color="#5a4524"/></radialGradient><path fill="url(#R)" d="M110.43 87.28c-.12 1.01.63 1.92 1.68 2.03 1.05.12 2-.6 2.11-1.61.13-1-.63-1.92-1.68-2.03-1.04-.12-1.99.6-2.11 1.61z"/></g><path fill="#ECF7FB" d="M85.05 89.08c-.38-1.52-1.93-6.01-10.34-5.23-5.16.47-7.17 5.96-7.02 5.52a.5.5 0 0 0 .07.47c.1.12-.27 1.1 7.54 1.37 6.64.23 9.08-.45 9.66-.95.14-.1.13-1 .1-1.18z"/><defs><path id="S" d="M85.05 89.08c-.38-1.52-1.93-6.01-10.34-5.23-5.16.47-7.17 5.96-7.02 5.52a.5.5 0 0 0 .07.47c.1.12-.27 1.1 7.54 1.37 6.64.23 9.08-.45 9.66-.95.14-.1.13-1 .1-1.18z"/></defs><clipPath id="T"><use xlink:href="#S" overflow="visible"/></clipPath><g clip-path="url(#T)"><radialGradient id="U" cx="21.04" cy="165.04" r="4.32" gradientTransform="matrix(.9592 -.1058 .11 .9221 38.38 -62.46)" gradientUnits="userSpaceOnUse"><stop offset=".01" stop-color="#b37852"/><stop offset=".73" stop-color="#7b573e"/><stop offset="1" stop-color="#57321d"/></radialGradient><path fill="url(#U)" d="M72.57 87.95a4.14 4.14 0 0 0 4.62 3.53 4.05 4.05 0 0 0 3.67-4.45 4.14 4.14 0 0 0-4.62-3.53 4.05 4.05 0 0 0-3.67 4.45z"/><radialGradient id="V" cx="21.04" cy="165.04" r="1.98" gradientTransform="matrix(.9592 -.1058 .11 .9221 38.38 -62.46)" gradientUnits="userSpaceOnUse"><stop offset=".72" stop-color="#010101"/><stop offset="1" stop-color="#5a4524"/></radialGradient><path fill="url(#V)" d="M78.61 87.28c.12 1.01-.63 1.92-1.68 2.03-1.05.12-2-.6-2.11-1.61-.12-1 .63-1.92 1.68-2.03 1.04-.12 2 .6 2.11 1.61z"/></g><path fill="#ECF7FB" d="M103.99 89.08c.38-1.52 1.94-6.01 10.35-5.23 5.15.47 7.16 5.96 7.01 5.52a.5.5 0 0 1-.07.47c-.1.12.27 1.1-7.54 1.37-6.64.23-9.08-.45-9.66-.95-.13-.1-.13-1-.09-1.18z"/><defs><path id="W" d="M103.99 89.08c.38-1.52 1.94-6.01 10.35-5.23 5.15.47 7.16 5.96 7.01 5.52a.5.5 0 0 1-.07.47c-.1.12.27 1.1-7.54 1.37-6.64.23-9.08-.45-9.66-.95-.13-.1-.13-1-.09-1.18z"/></defs><clipPath id="X"><use xlink:href="#W" overflow="visible"/></clipPath><g clip-path="url(#X)"><radialGradient id="Y" cx="-633.87" cy="89.89" r="4.32" gradientTransform="matrix(-.9592 -.1058 -.11 .9221 -485.8 -62.46)" gradientUnits="userSpaceOnUse"><stop offset=".01" stop-color="#b37852"/><stop offset=".73" stop-color="#7b573e"/><stop offset="1" stop-color="#57321d"/></radialGradient><path fill="url(#Y)" d="M116.47 87.95a4.14 4.14 0 0 1-4.62 3.53 4.06 4.06 0 0 1-3.67-4.45 4.14 4.14 0 0 1 4.62-3.53 4.05 4.05 0 0 1 3.67 4.45z"/><radialGradient id="Z" cx="-633.87" cy="89.89" r="1.98" gradientTransform="matrix(-.9592 -.1058 -.11 .9221 -485.8 -62.46)" gradientUnits="userSpaceOnUse"><stop offset=".72" stop-color="#010101"/><stop offset="1" stop-color="#5a4524"/></radialGradient><path fill="url(#Z)" d="M110.43 87.28c-.12 1.01.63 1.92 1.68 2.03 1.05.12 2-.6 2.11-1.61.13-1-.63-1.92-1.68-2.03-1.04-.12-2 .6-2.11 1.61z"/></g><path fill="#ECF7FB" d="M85.05 89.08c-.38-1.52-1.94-6.01-10.35-5.23-5.15.47-7.16 5.96-7 5.52a.5.5 0 0 0 .06.47c.1.12-.27 1.1 7.54 1.37 6.64.23 9.08-.45 9.66-.95.13-.1.13-1 .09-1.18z"/><g><defs><path id="aa" d="M85.05 89.08c-.38-1.52-1.94-6.01-10.35-5.23-5.15.47-7.16 5.96-7 5.52a.5.5 0 0 0 .06.47c.1.12-.27 1.1 7.54 1.37 6.64.23 9.08-.45 9.66-.95.13-.1.13-1 .09-1.18z"/></defs><clipPath id="ab"><use xlink:href="#aa" overflow="visible"/></clipPath><g clip-path="url(#ab)"><radialGradient id="ac" cx="21.04" cy="165.04" r="4.32" gradientTransform="matrix(.9592 -.1058 .11 .9221 38.38 -62.46)" gradientUnits="userSpaceOnUse"><stop offset=".34" stop-color="#7b573e"/><stop offset="1" stop-color="#57321d"/></radialGradient><path fill="url(#ac)" d="M72.57 87.95a4.14 4.14 0 0 0 4.62 3.53 4.05 4.05 0 0 0 3.67-4.45 4.14 4.14 0 0 0-4.62-3.53 4.05 4.05 0 0 0-3.67 4.45z"/><radialGradient id="ad" cx="21.04" cy="165.04" r="1.98" gradientTransform="matrix(.9592 -.1058 .11 .9221 38.38 -62.46)" gradientUnits="userSpaceOnUse"><stop offset=".72" stop-color="#010101"/><stop offset="1" stop-color="#5a4524"/></radialGradient><path fill="url(#ad)" d="M78.61 87.28c.12 1.01-.63 1.92-1.68 2.03-1.05.12-2-.6-2.11-1.61-.13-1 .63-1.92 1.68-2.03 1.04-.12 2 .6 2.11 1.61z"/></g></g><path fill="#ECF7FB" d="M103.99 89.08c.38-1.52 1.94-6.01 10.35-5.23 5.15.47 7.16 5.96 7 5.52a.5.5 0 0 1-.06.47c-.1.12.27 1.1-7.54 1.37-6.64.23-9.08-.45-9.66-.95-.14-.1-.13-1-.09-1.18z"/><g><defs><path id="ae" d="M103.99 89.08c.38-1.52 1.94-6.01 10.35-5.23 5.15.47 7.16 5.96 7 5.52a.5.5 0 0 1-.06.47c-.1.12.27 1.1-7.54 1.37-6.64.23-9.08-.45-9.66-.95-.14-.1-.13-1-.09-1.18z"/></defs><clipPath id="af"><use xlink:href="#ae" overflow="visible"/></clipPath><g clip-path="url(#af)"><radialGradient id="ag" cx="-633.87" cy="89.89" r="4.32" gradientTransform="matrix(-.9592 -.1058 -.11 .9221 -485.8 -62.46)" gradientUnits="userSpaceOnUse"><stop offset=".34" stop-color="#7b573e"/><stop offset="1" stop-color="#57321d"/></radialGradient><path fill="url(#ag)" d="M116.47 87.95a4.14 4.14 0 0 1-4.62 3.53 4.05 4.05 0 0 1-3.67-4.45 4.14 4.14 0 0 1 4.62-3.53 4.05 4.05 0 0 1 3.67 4.45z"/><radialGradient id="ah" cx="-633.87" cy="89.89" r="1.98" gradientTransform="matrix(-.9592 -.1058 -.11 .9221 -485.8 -62.46)" gradientUnits="userSpaceOnUse"><stop offset=".72" stop-color="#010101"/><stop offset="1" stop-color="#5a4524"/></radialGradient><path fill="url(#ah)" d="M110.43 87.28c-.12 1.01.63 1.92 1.68 2.03 1.05.12 2-.6 2.11-1.61.12-1-.63-1.92-1.68-2.03a1.9 1.9 0 0 0-2.11 1.61z"/></g></g><path fill="#ECF7FB" d="M85.05 89.08c-.38-1.52-1.93-6.01-10.34-5.23-5.16.47-7.17 5.96-7.01 5.52a.5.5 0 0 0 .06.47c.1.12-.27 1.1 7.54 1.37 6.64.23 9.08-.45 9.66-.95.14-.1.13-1 .1-1.18z"/><g><defs><path id="ai" d="M85.05 89.08c-.38-1.52-1.93-6.01-10.34-5.23-5.16.47-7.17 5.96-7.01 5.52a.5.5 0 0 0 .06.47c.1.12-.27 1.1 7.54 1.37 6.64.23 9.08-.45 9.66-.95.14-.1.13-1 .1-1.18z"/></defs><clipPath id="aj"><use xlink:href="#ai" overflow="visible"/></clipPath><g clip-path="url(#aj)"><radialGradient id="ak" cx="21.05" cy="165.04" r="4.32" gradientTransform="matrix(.9592 -.1058 .11 .9221 38.38 -62.46)" gradientUnits="userSpaceOnUse"><stop offset=".01" stop-color="#529ed6"/><stop offset=".73" stop-color="#3c60ad"/><stop offset="1" stop-color="#252542"/></radialGradient><path fill="url(#ak)" d="M72.57 87.95a4.14 4.14 0 0 0 4.62 3.53 4.05 4.05 0 0 0 3.67-4.45 4.14 4.14 0 0 0-4.62-3.53 4.05 4.05 0 0 0-3.67 4.45z"/><radialGradient id="al" cx="21.04" cy="165.04" r="1.98" gradientTransform="matrix(.9592 -.1058 .11 .9221 38.38 -62.46)" gradientUnits="userSpaceOnUse"><stop offset=".82" stop-color="#010101"/><stop offset="1" stop-color="#2f4a76"/></radialGradient><path fill="url(#al)" d="M78.61 87.28c.12 1.01-.63 1.92-1.67 2.03-1.05.12-2-.6-2.12-1.61-.12-1 .63-1.92 1.68-2.03 1.05-.12 2 .6 2.11 1.61z"/></g></g><path fill="#ECF7FB" d="M104 89.08c.38-1.52 1.93-6.01 10.34-5.23 5.15.47 7.17 5.96 7.01 5.52a.5.5 0 0 1-.07.47c-.1.12.27 1.1-7.54 1.37-6.64.23-9.08-.45-9.66-.95-.13-.1-.13-1-.09-1.18z"/><g><defs><path id="am" d="M104 89.08c.38-1.52 1.93-6.01 10.34-5.23 5.15.47 7.17 5.96 7.01 5.52a.5.5 0 0 1-.07.47c-.1.12.27 1.1-7.54 1.37-6.64.23-9.08-.45-9.66-.95-.13-.1-.13-1-.09-1.18z"/></defs><clipPath id="an"><use xlink:href="#am" overflow="visible"/></clipPath><g clip-path="url(#an)"><radialGradient id="ao" cx="-633.87" cy="89.89" r="4.32" gradientTransform="matrix(-.9592 -.1058 -.11 .9221 -485.8 -62.46)" gradientUnits="userSpaceOnUse"><stop offset=".01" stop-color="#529ed6"/><stop offset=".73" stop-color="#3c60ad"/><stop offset="1" stop-color="#252542"/></radialGradient><path fill="url(#ao)" d="M116.47 87.95a4.14 4.14 0 0 1-4.62 3.53 4.05 4.05 0 0 1-3.67-4.45 4.14 4.14 0 0 1 4.62-3.53 4.05 4.05 0 0 1 3.67 4.45z"/><radialGradient id="ap" cx="-633.88" cy="89.89" r="1.98" gradientTransform="matrix(-.9592 -.1058 -.11 .9221 -485.8 -62.46)" gradientUnits="userSpaceOnUse"><stop offset=".82" stop-color="#010101"/><stop offset="1" stop-color="#2f4a76"/></radialGradient><path fill="url(#ap)" d="M110.43 87.28c-.12 1.01.63 1.92 1.68 2.03 1.05.12 2-.6 2.11-1.61.13-1-.63-1.92-1.68-2.03-1.04-.12-1.99.6-2.11 1.61z"/></g></g></g></g><g fill="#918E86"><path d="M56.96 85.25c-.03-1.89-.04-3.52-.04-4.3 0-14.43 1.27-27.1 7.52-35.78-8.8 7.15-14.31 17.39-14.31 28.76 0 3.26.46 6.43 1.3 9.46.25-.01.47-.03.72-.03 1.7.03 3.33.71 4.8 1.9zM132.08 85.25a7.9 7.9 0 0 1 4.8-1.89c.26 0 .48.02.72.03.86-3.03 1.31-6.2 1.31-9.46 0-11.41-5.55-21.68-14.4-28.83 6.31 8.68 7.6 21.38 7.6 35.84 0 .8 0 2.42-.03 4.31z"/></g><path fill="#918E86" d="M101.44 51.97c-10.92-3.3-17.33-9.78-14.31-14.47 1.45-2.27 5.25-3.86 9.6-4.37-7.8-.78-15.05 1.27-16.45 1.57-2.4.6-15.78 10.12 13.55 17.27 5.74 1.4 11.4 2.23 16.05 1.69-2.74-.28-5.6-.83-8.44-1.7zM94.33 111.28c-36.02-3.99-7.62 35.74-36.87-12.3 0 9.62-.1 38.76 36.83 38.83h.07c36.89-.07 37.22-29.54 37.22-39.02-29.34 47.03-1 8.5-37.25 12.5zm.13 11.83c-8.74 5.1-13.83-4.04-13.83-6.46 0-.4.98-.52 6.81.35 5.84.87 7.02-.87 7.02-.87s1.18 1.74 7.01.87c5.84-.87 6.82-.74 6.82-.35 0 2.41-5.72 12.33-13.83 6.46z"/><g><path fill="#3F444D" d="M90.37 149.74c-7.9 2.75-14.87 5.69-20.77 5.35a23.98 23.98 0 0 1-.04-18.78c5.9-.37 12.89 2.55 20.8 5.26.47 2.7.48 5.46.01 8.17zM98.14 149.72c7.9 2.71 14.9 5.62 20.8 5.26a23.99 23.99 0 0 0-.04-18.78c-5.9-.34-12.89 2.6-20.78 5.35-.47 2.71-.46 5.46.02 8.17z"/><path fill="#636D7B" d="M100.66 151.09a21.53 21.53 0 0 1-12.95.02 16.34 16.34 0 0 1-.03-10.9 21.54 21.54 0 0 1 12.95-.04 16.38 16.38 0 0 1 .03 10.92z"/></g><path fill="none" d="M179.83-.53H10.17a10.7 10.7 0 0 0-10.7 10.7v169.66c0 5.9 4.8 10.7 10.7 10.7h169.66c5.9 0 10.7-4.8 10.7-10.7V10.17c0-5.9-4.8-10.7-10.7-10.7z"/></svg>