<svg xmlns="http://www.w3.org/2000/svg" xmlns:xlink="http://www.w3.org/1999/xlink" viewBox="0 0 190 190"><path fill="#D09C70" d="M43.55 98c.8 10.6 4.87 13.76 10.85 13.84 5.37.08 9.18-5.38 8.57-13.55-.61-8.16-5.45-14.85-10.82-14.93-8.28-.12-9.24 6.02-8.6 14.65z"/><path fill="#AB825E" d="M48.06 99.06c.34 5.38 2.66 7.88 6.02 7.9 3.37.03 6.51-2.43 6.18-7.82-.34-5.39-3.34-9.77-6.7-9.8-6-.03-5.86 3.9-5.5 9.72z"/><path fill="#D09C70" d="M145.49 98c-.8 10.6-4.87 13.76-10.85 13.84-5.37.08-9.18-5.38-8.57-13.55.61-8.16 5.45-14.85 10.82-14.93 8.28-.12 9.24 6.02 8.6 14.65z"/><path fill="#AB825E" d="M140.97 99.06c-.33 5.38-2.65 7.88-6.02 7.9-3.36.03-6.5-2.43-6.17-7.82.34-5.39 3.34-9.77 6.7-9.8 6-.03 5.86 3.9 5.5 9.72z"/><linearGradient id="j" x1="94.52" x2="94.52" y1="149.88" y2="131.53" gradientUnits="userSpaceOnUse"><stop offset=".47" stop-color="#d09c70"/><stop offset="1" stop-color="#996c43"/></linearGradient><path fill="url(#j)" d="M71.33 126.21h46.39v20.44H71.33z"/><path fill="#D09C70" d="M132.12 80.94c0 2.38-.12 12.27-.35 14.5-2.36 22.86-11.88 37.42-27.12 38.65-2.19 1.88-3.36 3.28-10.13 3.28-6.77 0-7.75-1.24-10.06-3.26-15.33-.67-24.82-15.67-27.2-38.67-.22-2.23-.34-12.12-.34-14.5 0-26.97 4.45-47.85 37.58-47.85 33.12 0 37.62 20.88 37.62 47.85z"/><path fill="#A77E56" d="M94.52 106.93c-5.92 0-5.4-.85-7.63-1.5 0 2.25 5.62 4.5 7.63 4.5s7.62-2.15 7.62-4.5c-2.58.68-1.69 1.5-7.62 1.5z"/><path fill="#AB7D57" d="M94.22 118.64c-5.22 0-9.49-.5-11.07-.77 0 2.29 1.94 5.56 11.25 5.56 9.35 0 11.48-3.45 11.48-5.6-1.63.28-6.32.81-11.66.81z"/><path fill="none" stroke="#885E45" stroke-miterlimit="10" d="M83.19 118.1s4.8.54 11.07.54c6.26 0 11.6-.58 11.6-.58" stroke-linecap="round" stroke-linejoin="round"/><g><path fill="#78756F" d="M73.24 76.94c5.37-.3 12.48.52 14.66.84 1.9-4.3-.8-5.6-8.03-5.8-12.93-.37-17.72 3.7-18.04 7.37 2.9-.61 5.83-2.1 11.4-2.4zM115.8 76.94c-5.38-.3-12.48.52-14.67.84-1.9-4.3.81-5.6 8.04-5.8 12.93-.37 17.72 3.7 18.04 7.37-2.9-.61-5.83-2.1-11.41-2.4z"/></g><g><path fill="#ECF7FB" d="M85.05 89.08c-.38-1.52-1.94-6.01-10.35-5.23-5.15.47-7.16 5.96-7 5.52a.5.5 0 0 0 .06.47c.1.12-.27 1.1 7.54 1.37 6.64.23 9.08-.45 9.66-.95.13-.1.13-1 .09-1.18z"/><defs><path id="k" d="M85.05 89.08c-.38-1.52-1.94-6.01-10.35-5.23-5.15.47-7.16 5.96-7 5.52a.5.5 0 0 0 .06.47c.1.12-.27 1.1 7.54 1.37 6.64.23 9.08-.45 9.66-.95.13-.1.13-1 .09-1.18z"/></defs><clipPath id="l"><use xlink:href="#k" overflow="visible"/></clipPath><g clip-path="url(#l)"><radialGradient id="m" cx="21.04" cy="165.04" r="4.32" gradientTransform="matrix(.9592 -.1058 .11 .9221 38.38 -62.46)" gradientUnits="userSpaceOnUse"><stop offset=".01" stop-color="#b37852"/><stop offset=".73" stop-color="#7b573e"/><stop offset="1" stop-color="#57321d"/></radialGradient><path fill="url(#m)" d="M72.56 87.95a4.14 4.14 0 0 0 4.63 3.53 4.05 4.05 0 0 0 3.67-4.45 4.14 4.14 0 0 0-4.62-3.53 4.05 4.05 0 0 0-3.67 4.45z"/><radialGradient id="n" cx="21.04" cy="165.04" r="1.98" gradientTransform="matrix(.9592 -.1058 .11 .9221 38.38 -62.46)" gradientUnits="userSpaceOnUse"><stop offset=".72" stop-color="#010101"/><stop offset="1" stop-color="#5a4524"/></radialGradient><path fill="url(#n)" d="M78.61 87.28c.12 1.01-.63 1.92-1.68 2.03-1.05.12-2-.6-2.12-1.61-.12-1 .64-1.92 1.69-2.03 1.04-.12 2 .6 2.11 1.61z"/></g><path fill="#ECF7FB" d="M103.99 89.08c.38-1.52 1.94-6.01 10.34-5.23 5.16.47 7.17 5.96 7.02 5.52a.5.5 0 0 1-.07.47c-.1.12.27 1.1-7.54 1.37-6.64.23-9.08-.45-9.66-.95-.14-.1-.13-1-.1-1.18z"/><g><defs><path id="o" d="M103.99 89.08c.38-1.52 1.94-6.01 10.34-5.23 5.16.47 7.17 5.96 7.02 5.52a.5.5 0 0 1-.07.47c-.1.12.27 1.1-7.54 1.37-6.64.23-9.08-.45-9.66-.95-.14-.1-.13-1-.1-1.18z"/></defs><clipPath id="p"><use xlink:href="#o" overflow="visible"/></clipPath><g clip-path="url(#p)"><radialGradient id="q" cx="-633.87" cy="89.89" r="4.32" gradientTransform="matrix(-.9592 -.1058 -.11 .9221 -485.8 -62.46)" gradientUnits="userSpaceOnUse"><stop offset=".01" stop-color="#b37852"/><stop offset=".73" stop-color="#7b573e"/><stop offset="1" stop-color="#57321d"/></radialGradient><path fill="url(#q)" d="M116.47 87.95a4.14 4.14 0 0 1-4.62 3.53 4.05 4.05 0 0 1-3.67-4.45 4.14 4.14 0 0 1 4.62-3.53 4.05 4.05 0 0 1 3.67 4.45z"/><radialGradient id="r" cx="-633.87" cy="89.89" r="1.98" gradientTransform="matrix(-.9592 -.1058 -.11 .9221 -485.8 -62.46)" gradientUnits="userSpaceOnUse"><stop offset=".72" stop-color="#010101"/><stop offset="1" stop-color="#5a4524"/></radialGradient><path fill="url(#r)" d="M110.43 87.28c-.12 1.01.63 1.92 1.68 2.03 1.05.12 2-.6 2.11-1.61.12-1-.63-1.92-1.68-2.03a1.9 1.9 0 0 0-2.11 1.61z"/></g></g></g><g fill="none" stroke="#AF8560" stroke-miterlimit="10" stroke-linecap="round" stroke-linejoin="round"><path d="M116.15 63.45s-9.18-.55-21.14-.55c-11.95 0-22.12.58-22.12.58M110.01 58.67s-6.58-.55-15.14-.55-15.84.58-15.84.58"/></g><g fill="#78756F"><path d="M56.96 85.25c-.03-1.89-.04-3.52-.04-4.3 0-14.43 1.27-27.1 7.52-35.78-8.8 7.15-14.31 17.39-14.31 28.76 0 3.26.46 6.43 1.3 9.46.25-.01.47-.03.72-.03 1.7.03 3.33.71 4.8 1.9zM132.08 85.25a7.9 7.9 0 0 1 4.8-1.89c.26 0 .48.02.72.03.86-3.03 1.31-6.2 1.31-9.46 0-11.41-5.55-21.68-14.4-28.83 6.31 8.68 7.6 21.38 7.6 35.84 0 .8 0 2.42-.03 4.31z"/></g><path fill="#78756F" d="M101.44 51.97c-10.92-3.3-17.33-9.78-14.31-14.47 1.45-2.27 5.25-3.86 9.6-4.37-7.8-.78-15.05 1.27-16.45 1.57-2.4.6-15.78 10.12 13.55 17.27 5.74 1.4 11.4 2.23 16.05 1.69-2.74-.28-5.6-.83-8.44-1.7zM109.58 112.27c-1.48-2.02-15.06-2.18-15.06-2.18s-13.58.16-15.06 2.18c-2.1 2.85-1.04 5.37-1.04 5.37s1.9-.26 6.9-.18c4.75.08 9.2.23 9.2.23s4.45-.15 9.2-.23c5-.08 6.9.18 6.9.18s1.05-2.52-1.04-5.37z"/><path fill="none" d="M179.83-.53H10.17a10.7 10.7 0 0 0-10.7 10.7v169.66c0 5.9 4.8 10.7 10.7 10.7h169.66c5.9 0 10.7-4.8 10.7-10.7V10.17c0-5.9-4.8-10.7-10.7-10.7z"/></svg>