<svg xmlns="http://www.w3.org/2000/svg" xmlns:xlink="http://www.w3.org/1999/xlink" viewBox="0 0 190 190"><path fill="#D4D0C2" d="M135.29 86.08a5.38 5.38 0 0 0-3.55.28 36.32 36.32 0 0 0 3.51-9.23c4.85-20.96-9.7-42-32.5-46.98-22.8-4.99-45.2 7.95-50.05 28.91a36.73 36.73 0 0 0 4.84 27.89c-1.65-.88-3.34-1.12-4.88-.54-4.29 1.62-5.78 8.92-3.34 16.3 2.44 7.37 7.9 12.04 12.18 10.42.58-.22 1.1-.55 1.59-.96 3.2 11.28 8.37 15.93 14.57 19.17v14.57h33.36v-15.04c6.1-3.65 11.02-8.37 14.25-19.88a5.89 5.89 0 0 0 3.2 2.48c4.4 1.24 9.48-3.87 11.37-11.44 1.88-7.56-.16-14.7-4.55-15.95z"/><g><path fill="#9C6A4A" d="M123.96 97.51c1.89-7.56 6.98-12.68 11.37-11.43 4.4 1.25 6.43 8.39 4.55 15.95-1.89 7.57-6.98 12.68-11.37 11.44-4.4-1.25-6.43-8.4-4.55-15.96z"/><path fill="#7F573D" d="M125.86 99.08c1.2-4.84 4.46-8.12 7.27-7.32 2.82.8 4.12 5.37 2.91 10.21-1.2 4.84-4.46 8.12-7.27 7.32-2.81-.8-4.12-5.37-2.91-10.21z"/><path fill="#9C6A4A" d="M64.89 96.84c-2.44-7.38-7.9-12.05-12.19-10.43-4.28 1.62-5.78 8.92-3.34 16.3 2.44 7.37 7.9 12.04 12.18 10.42 4.29-1.62 5.79-8.91 3.35-16.29z"/><path fill="#7F573D" d="M63.12 98.57c-1.57-4.73-5.06-7.71-7.8-6.68-2.75 1.04-3.7 5.7-2.15 10.43 1.57 4.72 5.06 7.7 7.8 6.67 2.75-1.03 3.7-5.7 2.15-10.42z"/><linearGradient id="s" x1="94.38" x2="94.38" y1="148.49" y2="133.83" gradientUnits="userSpaceOnUse"><stop offset=".28" stop-color="#9c6a4a"/><stop offset="1" stop-color="#6e4b35"/></linearGradient><path fill="url(#s)" d="M77.7 129.58h33.36v16.33H77.7z"/><path fill="#9C6A4A" d="M59.81 88.2c-1.63-35.02 15.86-51.26 34.5-51.26 18.66 0 37.08 16.55 34.51 51.26-2.28 30.8-9.26 37.92-19.1 43.45-5.2 2.93-7.53 5.59-15.4 5.59-7.6 0-9.84-2.61-15.27-5.22-10.14-4.89-17.78-12.42-19.24-43.82z"/><path fill="none" stroke="#83593E" stroke-miterlimit="10" d="M111.12 67.24s-6.68-2.57-15.37-2.57-16.08 2.6-16.08 2.6M105.49 72.6s-4.29-.82-9.86-.82c-5.58 0-10.33.83-10.33.83" stroke-linecap="round" stroke-linejoin="round"/><g><path fill="#7F563B" d="M87.45 110.75c0 1.7 4.24 3.68 6.93 3.68 2.7 0 6.93-2.14 6.93-3.68-2.13 0-2 1.19-6.93 1.19-4.92 0-4.77-1.2-6.92-1.2z"/></g><g><path fill="#834F2F" d="M104.97 120.15c0 3.33-4.28 6.9-10.67 6.9-6.4 0-10.5-3.57-10.5-6.9a257.81 257.81 0 0 0 21.17 0z"/><path fill="none" stroke="#553727" stroke-miterlimit="10" d="M84.1 120.5s4.36 1.22 10.05 1.22c5.68 0 10.52-1.27 10.52-1.27" stroke-linecap="round" stroke-linejoin="round"/></g><g><path fill="#ECF7FB" d="M85.94 94.32c-.3-.66-3.21-5.87-9.72-4.95-5.35.76-7.28 4.35-7.38 4.5a.5.5 0 0 0 0 .57c.14.2 3.38 2.34 8.74 2.54.5.02.99.01 1.48-.03 4.48-.34 6.64-1.9 6.77-2.01.19-.16.2-.4.1-.62z"/><defs><path id="t" d="M85.94 94.32c-.3-.66-3.21-5.87-9.72-4.95-5.35.76-7.28 4.35-7.38 4.5a.5.5 0 0 0 0 .57c.14.2 3.38 2.34 8.74 2.54.5.02.99.01 1.48-.03 4.48-.34 6.64-1.9 6.77-2.01.19-.16.2-.4.1-.62z"/></defs><clipPath id="u"><use xlink:href="#t" overflow="visible"/></clipPath><g clip-path="url(#u)"><radialGradient id="v" cx="74.3" cy="92.85" r="3.98" gradientTransform="matrix(1.028 0 0 1 1.32 0)" gradientUnits="userSpaceOnUse"><stop offset="0" stop-color="#7b573e"/><stop offset="1" stop-color="#503627"/></radialGradient><ellipse cx="77.7" cy="92.85" fill="url(#v)" rx="4.09" ry="3.98"/><radialGradient id="w" cx="74.3" cy="92.85" r="1.82" gradientTransform="matrix(1.028 0 0 1 1.32 0)" gradientUnits="userSpaceOnUse"><stop offset=".72" stop-color="#010101"/><stop offset="1" stop-color="#4d402c"/></radialGradient><ellipse cx="77.7" cy="92.85" fill="url(#w)" rx="1.87" ry="1.82"/></g><path fill="#ECF7FB" d="M102.83 94.32c.3-.66 3.2-5.87 9.71-4.95 5.35.76 7.29 4.35 7.39 4.5.11.17.11.4 0 .57-.14.2-3.38 2.34-8.74 2.54-.5.02-.99.01-1.48-.03-4.49-.34-6.65-1.9-6.77-2.01-.19-.16-.21-.4-.11-.62z"/><g><defs><path id="x" d="M102.83 94.32c.3-.66 3.2-5.87 9.71-4.95 5.35.76 7.29 4.35 7.39 4.5.11.17.11.4 0 .57-.14.2-3.38 2.34-8.74 2.54-.5.02-.99.01-1.48-.03-4.49-.34-6.65-1.9-6.77-2.01-.19-.16-.21-.4-.11-.62z"/></defs><clipPath id="y"><use xlink:href="#x" overflow="visible"/></clipPath><g clip-path="url(#y)"><radialGradient id="z" cx="-84.97" cy="92.85" r="3.98" gradientTransform="matrix(-1.028 0 0 1 23.72 0)" gradientUnits="userSpaceOnUse"><stop offset="0" stop-color="#7b573e"/><stop offset="1" stop-color="#503627"/></radialGradient><ellipse cx="111.06" cy="92.85" fill="url(#z)" rx="4.09" ry="3.98"/><radialGradient id="A" cx="-84.97" cy="92.85" r="1.82" gradientTransform="matrix(-1.028 0 0 1 23.72 0)" gradientUnits="userSpaceOnUse"><stop offset=".72" stop-color="#010101"/><stop offset="1" stop-color="#4d402c"/></radialGradient><ellipse cx="111.06" cy="92.85" fill="url(#A)" rx="1.87" ry="1.82"/></g></g></g><g><path fill="#D4D0C2" d="M76.6 83.69c4.7.36 8.52.48 11.92 2.62-2.55-3.96-5.45-4.67-10.4-5.47-3.81-.62-9.97.19-12.47 5.06 1.63-1.72 6.08-2.59 10.95-2.21zM112.17 83.69c-4.7.36-8.53.48-11.92 2.62 2.55-3.96 5.45-4.67 10.39-5.47 3.82-.62 9.98.19 12.48 5.06-1.64-1.72-6.08-2.59-10.95-2.21z"/></g><path fill="#D4D0C2" d="M138.8 77.21A5.73 5.73 0 0 0 139.4 67a5.7 5.7 0 0 0-3.9-9.67 5.7 5.7 0 0 0-3.03-9.41 5.7 5.7 0 0 0-6.75-7.47l.02-.34a5.73 5.73 0 0 0-7.68-5.39v-.04a5.73 5.73 0 0 0-9.76-4.07 5.73 5.73 0 0 0-9.74-2.1 5.73 5.73 0 0 0-9.68-.49 5.7 5.7 0 0 0-9.26 2.59 5.72 5.72 0 0 0-9.76 4.07v.04a5.7 5.7 0 0 0-7.68 5.39l.02.34a5.7 5.7 0 0 0-6.75 7.47 5.73 5.73 0 0 0-3.02 9.4 5.73 5.73 0 0 0-3.9 9.68 5.73 5.73 0 0 0 .58 10.22 5.73 5.73 0 0 0 1.3 10.9 5.1 5.1 0 0 1 4.75-2l.55.11c1.4.3 2.81 1.12 4.13 2.33l-.02-.37c-.89-19.14 3.94-32.66 11.55-41 3.25 4.14 12.33 7.12 23.02 7.12h.18c10.66 0 19.7-2.96 23-7.07 7.77 8.38 12.67 21.93 11.26 40.95l-.01.2a9.03 9.03 0 0 1 3.36-2.19 5.64 5.64 0 0 1 3.16-.13c1.08.3 2.02.97 2.8 1.91a5.73 5.73 0 0 0 .68-10.76z"/></g><path fill="none" d="M179.83-.53H10.17a10.7 10.7 0 0 0-10.7 10.7v169.66c0 5.9 4.8 10.7 10.7 10.7h169.66c5.9 0 10.7-4.8 10.7-10.7V10.17c0-5.9-4.8-10.7-10.7-10.7z"/></svg>