<svg xmlns="http://www.w3.org/2000/svg" xmlns:xlink="http://www.w3.org/1999/xlink" viewBox="0 0 190 190"><path fill="#D4D0C2" d="M135.29 86.08a5.38 5.38 0 0 0-3.55.28 36.32 36.32 0 0 0 3.51-9.23c4.85-20.96-9.7-42-32.5-46.98-22.8-4.99-45.2 7.95-50.05 28.91a36.73 36.73 0 0 0 4.84 27.89c-1.65-.88-3.34-1.12-4.88-.54-4.29 1.62-5.78 8.92-3.34 16.3 2.44 7.37 7.9 12.04 12.18 10.42.58-.22 1.1-.55 1.59-.96 3.2 11.28 8.37 15.93 14.57 19.17v14.57h33.36v-15.04c6.1-3.65 11.02-8.37 14.25-19.88a5.89 5.89 0 0 0 3.2 2.48c4.4 1.24 9.48-3.87 11.37-11.44 1.88-7.56-.16-14.7-4.55-15.95z"/><g><path fill="#FBC8A6" d="M123.96 97.51c1.89-7.56 6.98-12.68 11.37-11.43 4.4 1.25 6.43 8.39 4.55 15.95-1.89 7.57-6.98 12.68-11.37 11.44-4.4-1.25-6.43-8.4-4.55-15.96z"/><path fill="#DCA68A" d="M125.86 99.08c1.2-4.84 4.46-8.12 7.27-7.32 2.82.8 4.12 5.37 2.91 10.21-1.2 4.84-4.46 8.12-7.27 7.32-2.81-.8-4.12-5.37-2.91-10.21z"/><path fill="#FBC8A6" d="M64.89 96.84c-2.44-7.38-7.9-12.05-12.19-10.43-4.28 1.62-5.78 8.92-3.34 16.3 2.44 7.37 7.9 12.04 12.18 10.42 4.29-1.62 5.79-8.91 3.35-16.29z"/><path fill="#DCA68A" d="M63.12 98.57c-1.57-4.73-5.06-7.71-7.8-6.68-2.75 1.04-3.7 5.7-2.15 10.43 1.57 4.72 5.06 7.7 7.8 6.67 2.75-1.03 3.7-5.7 2.15-10.42z"/><linearGradient id="B" x1="94.38" x2="94.38" y1="148.49" y2="133.83" gradientUnits="userSpaceOnUse"><stop offset=".3" stop-color="#fbc8a6"/><stop offset="1" stop-color="#d6a387"/></linearGradient><path fill="url(#B)" d="M77.7 129.58h33.36v16.33H77.7z"/><path fill="#FBC8A6" d="M59.81 88.2c-1.63-35.02 15.86-51.26 34.5-51.26 18.66 0 37.08 16.55 34.51 51.26-2.28 30.8-9.26 37.92-19.1 43.45-5.2 2.93-7.53 5.59-15.4 5.59-7.6 0-9.84-2.61-15.27-5.22-10.14-4.89-17.78-12.42-19.24-43.82z"/><path fill="none" stroke="#DCA68A" stroke-miterlimit="10" d="M111.12 67.24s-6.68-2.57-15.37-2.57-16.08 2.6-16.08 2.6M105.49 72.6s-4.29-.82-9.86-.82c-5.58 0-10.33.83-10.33.83" stroke-linecap="round" stroke-linejoin="round"/><g><path fill="#CF9E80" d="M88.04 110.75c0 1.7 3.88 3.68 6.34 3.68s6.34-2.14 6.34-3.68c-1.95 0-1.83 1.19-6.34 1.19-4.5 0-4.36-1.2-6.34-1.2z"/></g><g><path fill="#C37E69" d="M104.97 120.15c0 3.33-4.28 5.9-10.67 5.9-6.4 0-10.5-2.57-10.5-5.9a257.81 257.81 0 0 0 21.17 0z"/><path fill="none" stroke="#984834" stroke-miterlimit="10" d="M84.1 120.5s4.36 1.22 10.05 1.22c5.68 0 10.52-1.27 10.52-1.27" stroke-linecap="round" stroke-linejoin="round"/></g><g><path fill="#918E86" d="M76.6 83.69c4.7.36 8.52.48 11.92 2.62-2.55-3.96-5.45-4.67-10.4-5.47-3.81-.62-9.97.19-12.47 5.06 1.63-1.72 6.08-2.59 10.95-2.21zM112.17 83.69c-4.7.36-8.53.48-11.92 2.62 2.55-3.96 5.45-4.67 10.39-5.47 3.82-.62 9.98.19 12.48 5.06-1.64-1.72-6.08-2.59-10.95-2.21z"/></g><g><path fill="#ECF7FB" d="M85.94 94.32c-.3-.66-3.21-5.87-9.72-4.95-5.35.76-7.28 4.35-7.38 4.5a.5.5 0 0 0 0 .57c.14.2 3.38 2.34 8.74 2.54.5.02.99.01 1.48-.03 4.48-.34 6.64-1.9 6.77-2.01.19-.16.2-.4.1-.62z"/><defs><path id="C" d="M85.94 94.32c-.3-.66-3.21-5.87-9.72-4.95-5.35.76-7.28 4.35-7.38 4.5a.5.5 0 0 0 0 .57c.14.2 3.38 2.34 8.74 2.54.5.02.99.01 1.48-.03 4.48-.34 6.64-1.9 6.77-2.01.19-.16.2-.4.1-.62z"/></defs><clipPath id="D"><use xlink:href="#C" overflow="visible"/></clipPath><g clip-path="url(#D)"><radialGradient id="E" cx="74.3" cy="92.85" r="3.98" gradientTransform="matrix(1.028 0 0 1 1.32 0)" gradientUnits="userSpaceOnUse"><stop offset=".01" stop-color="#b37852"/><stop offset=".73" stop-color="#7b573e"/><stop offset="1" stop-color="#57321d"/></radialGradient><ellipse cx="77.7" cy="92.85" fill="url(#E)" rx="4.09" ry="3.98"/><radialGradient id="F" cx="74.3" cy="92.85" r="1.82" gradientTransform="matrix(1.028 0 0 1 1.32 0)" gradientUnits="userSpaceOnUse"><stop offset=".72" stop-color="#010101"/><stop offset="1" stop-color="#5a4524"/></radialGradient><ellipse cx="77.7" cy="92.85" fill="url(#F)" rx="1.87" ry="1.82"/></g><path fill="#ECF7FB" d="M102.83 94.32c.3-.66 3.2-5.87 9.71-4.95 5.35.76 7.29 4.35 7.39 4.5.11.17.11.4 0 .57-.14.2-3.38 2.34-8.74 2.54-.5.02-.99.01-1.48-.03-4.49-.34-6.65-1.9-6.77-2.01-.19-.16-.21-.4-.11-.62z"/><g><defs><path id="G" d="M102.83 94.32c.3-.66 3.2-5.87 9.71-4.95 5.35.76 7.29 4.35 7.39 4.5.11.17.11.4 0 .57-.14.2-3.38 2.34-8.74 2.54-.5.02-.99.01-1.48-.03-4.49-.34-6.65-1.9-6.77-2.01-.19-.16-.21-.4-.11-.62z"/></defs><clipPath id="H"><use xlink:href="#G" overflow="visible"/></clipPath><g clip-path="url(#H)"><radialGradient id="I" cx="-84.97" cy="92.85" r="3.98" gradientTransform="matrix(-1.028 0 0 1 23.72 0)" gradientUnits="userSpaceOnUse"><stop offset=".01" stop-color="#b37852"/><stop offset=".73" stop-color="#7b573e"/><stop offset="1" stop-color="#57321d"/></radialGradient><ellipse cx="111.06" cy="92.85" fill="url(#I)" rx="4.09" ry="3.98"/><radialGradient id="J" cx="-84.97" cy="92.85" r="1.82" gradientTransform="matrix(-1.028 0 0 1 23.72 0)" gradientUnits="userSpaceOnUse"><stop offset=".72" stop-color="#010101"/><stop offset="1" stop-color="#5a4524"/></radialGradient><ellipse cx="111.06" cy="92.85" fill="url(#J)" rx="1.87" ry="1.82"/></g></g></g><g><path fill="#918E86" d="M133.96 51.25c-.72 0-1.44.04-2.15.11-.31-.58-.67-1.16-1.07-1.75-5.61-9.56-16.4-16.96-28.57-19.62-19.52-4.27-38.8 5-46.68 21.28l-.68-.02c-11.94 0-21.61 9.97-21.61 22.27 0 9.93 6.3 18.33 15.01 21.2.22-4.08 1.81-7.31 4.5-8.33a5.76 5.76 0 0 1 4.68.44c.83.42 1.65 1 2.44 1.72l-.02-.37a78.76 78.76 0 0 1 1.39-19.8c3.5-.34 7.86-2.75 12-6.58 2.08-1.93 4.1-4.2 5.92-6.76a35.26 35.26 0 0 0 5.56-11.47c2.66 4.66 8.13 9.74 15.44 13.82a54.6 54.6 0 0 0 13.84 5.48c4.86 1.15 9.27 1.33 12.56.46 2.1 6.9 3.02 15.16 2.3 24.85l-.01.2-.06.65c.31-.46.62-.93.9-1.4 1.82-1.47 3.81-2.1 5.68-1.57 2.84.8 4.7 4.09 5.14 8.34a22.26 22.26 0 0 0 14.1-20.88c0-12.3-8.67-22.27-20.6-22.27z"/></g></g><g><path fill="#8AC976" d="M133.13 50.9v.03c0 2.46-17.52 4.46-39.12 4.46-21.6 0-39.13-2-39.13-4.46l.01-.03h-.07c-19.97 1.14-33.2 5.56-33.2 7.8 0 3.54 32.4 10.05 72.39 10.05 39.98 0 72.38-6.5 72.38-10.04 0-2.26-13.26-6.67-33.26-7.8z"/><path fill="#CAE6D0" d="M50.54 50.93c0 2.46 19.46 4.46 43.47 4.46s43.46-2 43.46-4.46V29.95c-1.02.97-13.47 1.78-30.36 2.06h-.23l-1.8.03h-.26l-1.73.03h-.39l-1.67.02h-.46l-1.54.01h-.64l-1.35.01h-.85a1578.42 1578.42 0 0 1-6.68 0c-21.9-.12-38.97-1.1-39.04-2.28v21.08h.08v.02z"/><path fill="#8AC976" d="M89.51 32.1a950.02 950.02 0 0 0 6.68.01H99.03l1.54-.02h.46l1.67-.02h.39l1.73-.03h.27c.6 0 1.2-.02 1.79-.03h.23c16.9-.28 29.34-1.09 30.36-2.06.05-.04.08-.08.08-.12 0-.05-.03-.1-.08-.13V18c0-4.65-19.46-8.42-43.46-8.42S50.54 13.35 50.54 18h-.07v11.83c.07 1.18 17.15 2.15 39.04 2.27z"/></g><path fill="none" d="M179.83-.53H10.17a10.7 10.7 0 0 0-10.7 10.7v169.66c0 5.9 4.8 10.7 10.7 10.7h169.66c5.9 0 10.7-4.8 10.7-10.7V10.17c0-5.9-4.8-10.7-10.7-10.7z"/></svg>