<svg xmlns="http://www.w3.org/2000/svg" xmlns:xlink="http://www.w3.org/1999/xlink" viewBox="0 0 190 190"><path fill="#D4D0C2" d="M135.29 86.08a5.38 5.38 0 0 0-3.55.28 36.32 36.32 0 0 0 3.51-9.23c4.85-20.96-9.7-42-32.5-46.98-22.8-4.99-45.2 7.95-50.05 28.91a36.73 36.73 0 0 0 4.84 27.89c-1.65-.88-3.34-1.12-4.88-.54-4.29 1.62-5.78 8.92-3.34 16.3 2.44 7.37 7.9 12.04 12.18 10.42.58-.22 1.1-.55 1.59-.96 3.2 11.28 8.37 15.93 14.57 19.17v14.57h33.36v-15.04c6.1-3.65 11.02-8.37 14.25-19.88a5.89 5.89 0 0 0 3.2 2.48c4.4 1.24 9.48-3.87 11.37-11.44 1.88-7.56-.16-14.7-4.55-15.95z"/><g><path fill="#D09C70" d="M123.96 97.51c1.89-7.56 6.98-12.68 11.37-11.43 4.4 1.25 6.43 8.39 4.55 15.95-1.89 7.57-6.98 12.68-11.37 11.44-4.4-1.25-6.43-8.4-4.55-15.96z"/><path fill="#A67E5B" d="M125.86 99.08c1.2-4.84 4.46-8.12 7.27-7.32 2.82.8 4.12 5.37 2.91 10.21-1.2 4.84-4.46 8.12-7.27 7.32-2.81-.8-4.12-5.37-2.91-10.21z"/><path fill="#D09C70" d="M64.89 96.84c-2.44-7.38-7.9-12.05-12.19-10.43-4.28 1.62-5.78 8.92-3.34 16.3 2.44 7.37 7.9 12.04 12.18 10.42 4.29-1.62 5.79-8.91 3.35-16.29z"/><path fill="#A67E5B" d="M63.12 98.57c-1.57-4.73-5.06-7.71-7.8-6.68-2.75 1.04-3.7 5.7-2.15 10.43 1.57 4.72 5.06 7.7 7.8 6.67 2.75-1.03 3.7-5.7 2.15-10.42z"/><linearGradient id="j" x1="94.38" x2="94.38" y1="148.49" y2="133.83" gradientUnits="userSpaceOnUse"><stop offset=".28" stop-color="#dea878"/><stop offset="1" stop-color="#9c7555"/></linearGradient><path fill="url(#j)" d="M77.7 129.58h33.36v16.33H77.7z"/><path fill="#D09C70" d="M59.81 88.2c-1.63-35.02 15.86-51.26 34.5-51.26 18.66 0 37.08 16.55 34.51 51.26-2.28 30.8-9.26 37.92-19.1 43.45-5.2 2.93-7.53 5.59-15.4 5.59-7.6 0-9.84-2.61-15.27-5.22-10.14-4.89-17.78-12.42-19.24-43.82z"/><path fill="none" stroke="#AF8560" stroke-miterlimit="10" d="M111.12 67.24s-6.68-2.57-15.37-2.57-16.08 2.6-16.08 2.6M105.49 72.6s-4.29-.82-9.86-.82c-5.58 0-10.33.83-10.33.83" stroke-linecap="round" stroke-linejoin="round"/><g><path fill="#A17850" d="M88.04 110.75c0 1.7 3.88 3.68 6.34 3.68s6.34-2.14 6.34-3.68c-1.95 0-1.83 1.19-6.34 1.19-4.5 0-4.36-1.2-6.34-1.2z"/></g><g><path fill="#BA7747" d="M104.97 120.15c0 3.33-4.28 5.9-10.67 5.9-6.4 0-10.5-2.57-10.5-5.9a257.81 257.81 0 0 0 21.17 0z"/><path fill="none" stroke="#885E45" stroke-miterlimit="10" d="M84.1 120.5s4.36 1.22 10.05 1.22c5.68 0 10.52-1.27 10.52-1.27" stroke-linecap="round" stroke-linejoin="round"/></g><g><path fill="#ECF7FB" d="M85.94 94.32c-.3-.66-3.21-5.87-9.72-4.95-5.35.76-7.28 4.35-7.38 4.5a.5.5 0 0 0 0 .57c.14.2 3.38 2.34 8.74 2.54.5.02.99.01 1.48-.03 4.48-.34 6.64-1.9 6.77-2.01.19-.16.2-.4.1-.62z"/><defs><path id="k" d="M85.94 94.32c-.3-.66-3.21-5.87-9.72-4.95-5.35.76-7.28 4.35-7.38 4.5a.5.5 0 0 0 0 .57c.14.2 3.38 2.34 8.74 2.54.5.02.99.01 1.48-.03 4.48-.34 6.64-1.9 6.77-2.01.19-.16.2-.4.1-.62z"/></defs><clipPath id="l"><use xlink:href="#k" overflow="visible"/></clipPath><g clip-path="url(#l)"><radialGradient id="m" cx="74.3" cy="92.85" r="3.98" gradientTransform="matrix(1.028 0 0 1 1.32 0)" gradientUnits="userSpaceOnUse"><stop offset=".01" stop-color="#904f24"/><stop offset=".73" stop-color="#6a4e3c"/><stop offset="1" stop-color="#57321d"/></radialGradient><ellipse cx="77.7" cy="92.85" fill="url(#m)" rx="4.09" ry="3.98"/><radialGradient id="n" cx="74.3" cy="92.85" r="1.82" gradientTransform="matrix(1.028 0 0 1 1.32 0)" gradientUnits="userSpaceOnUse"><stop offset=".72" stop-color="#010101"/><stop offset="1" stop-color="#5a4524"/></radialGradient><ellipse cx="77.7" cy="92.85" fill="url(#n)" rx="1.87" ry="1.82"/></g><path fill="#ECF7FB" d="M102.83 94.32c.3-.66 3.2-5.87 9.71-4.95 5.35.76 7.29 4.35 7.39 4.5.11.17.11.4 0 .57-.14.2-3.38 2.34-8.74 2.54-.5.02-.99.01-1.48-.03-4.49-.34-6.65-1.9-6.77-2.01-.19-.16-.21-.4-.11-.62z"/><g><defs><path id="o" d="M102.83 94.32c.3-.66 3.2-5.87 9.71-4.95 5.35.76 7.29 4.35 7.39 4.5.11.17.11.4 0 .57-.14.2-3.38 2.34-8.74 2.54-.5.02-.99.01-1.48-.03-4.49-.34-6.65-1.9-6.77-2.01-.19-.16-.21-.4-.11-.62z"/></defs><clipPath id="p"><use xlink:href="#o" overflow="visible"/></clipPath><g clip-path="url(#p)"><radialGradient id="q" cx="-84.97" cy="92.85" r="3.98" gradientTransform="matrix(-1.028 0 0 1 23.72 0)" gradientUnits="userSpaceOnUse"><stop offset=".01" stop-color="#904f24"/><stop offset=".73" stop-color="#6a4e3c"/><stop offset="1" stop-color="#57321d"/></radialGradient><ellipse cx="111.06" cy="92.85" fill="url(#q)" rx="4.09" ry="3.98"/><radialGradient id="r" cx="-84.97" cy="92.85" r="1.82" gradientTransform="matrix(-1.028 0 0 1 23.72 0)" gradientUnits="userSpaceOnUse"><stop offset=".72" stop-color="#010101"/><stop offset="1" stop-color="#5a4524"/></radialGradient><ellipse cx="111.06" cy="92.85" fill="url(#r)" rx="1.87" ry="1.82"/></g></g></g><g><path fill="#78756F" d="M76.6 83.69c4.7.36 8.52.48 11.92 2.62-2.55-3.96-5.45-4.67-10.4-5.47-3.81-.62-9.97.19-12.47 5.06 1.63-1.72 6.08-2.59 10.95-2.21zM112.17 83.69c-4.7.36-8.53.48-11.92 2.62 2.55-3.96 5.45-4.67 10.39-5.47 3.82-.62 9.98.19 12.48 5.06-1.64-1.72-6.08-2.59-10.95-2.21z"/></g><g><path fill="#78756F" d="M153.47 90.31a12.9 12.9 0 0 0-9.14-12.33c3.73-4.21 4.35-11.5 1.1-18.17-2.3-4.68-6-8.04-9.94-9.51.45-1.27.64-2.6.6-4-.03-7.18-6.45-15.7-17.01-21.38-13.72-7.4-29.27-7.25-35.05.25a8.06 8.06 0 0 0-3.11-2.82c-6.6-3.37-17.64 1.51-24.68 10.9-3.6 4.81-5.44 9.86-5.5 14.1-.06 1.42.1 2.74.43 3.95a19.54 19.54 0 0 0-7.8 8.5c-3.26 6.68-2.64 13.97 1.08 18.18a12.9 12.9 0 0 0-.05 24.66 12.52 12.52 0 0 0-2.5 7.25c0 10.5 15 19.4 35.8 22.58v-1.12a30.3 30.3 0 0 1-4.73-3c-4.07-3.2-7.45-7.9-9.8-16.15-.47.42-1 .75-1.58.97-2.47.93-5.33-.23-7.78-2.79a20.19 20.19 0 0 1-4.26-7.24l-.15-.4a23.85 23.85 0 0 1-.99-4.33c-.74-5.71.9-10.66 4.34-11.96 2.25-.85 4.83.05 7.13 2.16l-.02-.37a95.41 95.41 0 0 1 .03-9.33c.5-8.7 2.32-15.99 5.1-21.92.8-.24 1.62-.53 2.44-.88A32.48 32.48 0 0 0 80.1 45.8c1.6-2.13 2.82-4.3 3.73-6.43 2.67 5.14 7.9 10.26 15.03 14.1 7.26 3.92 15.04 5.71 21.61 5.43 1.49-.07 2.91-.24 4.25-.52 2.47 5.71 4.04 12.58 4.33 20.64a79.44 79.44 0 0 1-.19 9.22l-.01.2c2.03-2 4.36-2.94 6.53-2.32 3.65 1.03 5.67 6.16 5.16 12.2a23.14 23.14 0 0 1-.92 4.84c-1.16 3.86-3.15 6.98-5.4 8.8-1.82 1.45-3.8 2.07-5.66 1.54a5.87 5.87 0 0 1-3.2-2.47c-2.99 10.62-7.4 15.46-12.86 19.01-.47.3-.96.58-1.44.87v1.61c20.97-3.14 36.1-12.08 36.1-22.63 0-2.56-.9-5.02-2.55-7.34a12.89 12.89 0 0 0 8.86-12.24z"/></g></g><g><circle cx="57.89" cy="113" r="2.41" fill="#F6881F"/><path fill="#FFCF4E" d="M61.4 121.52c.43 3.57-2.28 4.8-3.51 4.73-1.23.07-3.94-1.16-3.5-4.73.77-3.48 2.13-6.14 3.5-6.11 1.37-.03 2.73 2.63 3.5 6.1z"/><g><circle cx="129.87" cy="113" r="2.41" fill="#F6881F"/><path fill="#FFCF4E" d="M133.38 121.52c.43 3.57-2.27 4.8-3.5 4.73-1.24.07-3.95-1.16-3.51-4.73.78-3.48 2.13-6.14 3.5-6.11 1.38-.03 2.73 2.63 3.5 6.1z"/></g></g><path fill="none" d="M179.83-.53H10.17a10.7 10.7 0 0 0-10.7 10.7v169.66c0 5.9 4.8 10.7 10.7 10.7h169.66c5.9 0 10.7-4.8 10.7-10.7V10.17c0-5.9-4.8-10.7-10.7-10.7z"/></svg>