<?xml version="1.0" encoding="UTF-8" standalone="no"?>
<svg width="20px" height="16px" viewBox="0 0 20 16" version="1.1" xmlns="http://www.w3.org/2000/svg" xmlns:xlink="http://www.w3.org/1999/xlink">
    <!-- Generator: Sketch 3.8.3 (29802) - http://www.bohemiancoding.com/sketch -->
    <title>add-camera</title>
    <desc>Created with Sketch.</desc>
    <defs></defs>
    <g id="Iconography" stroke="none" stroke-width="1" fill="none" fill-rule="evenodd">
        <g id="New-Icons---Gold-Release" transform="translate(-1370.000000, -220.000000)">
            <g id="add-camera" transform="translate(1368.000000, 216.000000)">
                <g id="Frame_-_24px">
                    <rect id="Rectangle-path" x="0" y="0" width="24" height="24"></rect>
                </g>
                <g id="Filled_Icons" transform="translate(2.000000, 4.000000)" fill="#fafafa">
                    <g id="Group">
                        <path d="M18.5979725,3.55797799 L14.8693034,4.95668538 L14.8693034,3.13069661 C14.8693034,1.79163818 13.7737101,0.696044922 12.4346517,0.696044922 L2.69604492,0.696044922 C1.35698649,0.696044922 0.261393229,1.79163818 0.261393229,3.13069661 L0.261393229,12.8693034 C0.261393229,14.2083618 1.35698649,15.3039551 2.69604492,15.3039551 L12.4346517,15.3039551 C13.7737101,15.3039551 14.8693034,14.2083618 14.8693034,12.8693034 L14.8693034,11.0433146 L18.5979725,12.442022 C19.2261126,12.6769659 19.7386068,12.3215068 19.7386068,11.6519775 L19.7386068,4.34802246 C19.7386068,3.67849325 19.2261126,3.3230341 18.5979725,3.55797799 Z M11.1953331,8.55124414 L8.27232456,8.55124414 L8.27232456,11.4742527 L6.81082027,11.4742527 L6.81082027,8.55124414 L3.88781168,8.55124414 L3.88781168,7.08973984 L6.81082027,7.08973984 L6.81082027,4.16673126 L8.27232456,4.16673126 L8.27232456,7.08973984 L11.1953331,7.08973984 L11.1953331,8.55124414 Z" id="Combined-Shape"></path>
                    </g>
                </g>
            </g>
        </g>
    </g>
</svg>