<?xml version="1.0" encoding="UTF-8" standalone="no"?>
<svg width="14px" height="21px" viewBox="0 0 14 21" version="1.1" xmlns="http://www.w3.org/2000/svg" xmlns:xlink="http://www.w3.org/1999/xlink">
    <!-- Generator: Sketch 39.1 (31720) - http://www.bohemiancoding.com/sketch -->
    <title>admin</title>
    <desc>Created with Sketch.</desc>
    <defs></defs>
    <g id="Iconography" stroke="none" stroke-width="1">
        <g id="New-Icons---Gold-Release" transform="translate(-1325.000000, -338.000000)">
            <path d="M1332,350.065 C1329.243,350.065 1327,347.822 1327,345.065 C1327,343.47 1327.766,342 1329,341.072 L1329,344.065 C1329,345.719 1330.346,347.065 1332,347.065 C1333.654,347.065 1335,345.719 1335,344.065 L1335,341.072 C1336.234,342 1337,343.47 1337,345.065 C1337,347.822 1334.757,350.065 1332,350.065 M1339,345.065 C1339,342.109 1337.125,339.459 1334.333,338.472 L1333,338 L1333,344.065 C1333,344.617 1332.551,345.065 1332,345.065 C1331.449,345.065 1331,344.617 1331,344.065 L1331,338 L1329.667,338.472 C1326.875,339.459 1325,342.109 1325,345.065 C1325,347.85 1326.639,350.253 1329,351.38 L1329,358.065 L1331,358.065 L1331,352.065 L1333,352.065 L1333,358.065 L1335,358.065 L1335,351.38 C1337.361,350.253 1339,347.85 1339,345.065" id="admin"></path>
        </g>
    </g>
</svg>
