<svg width="16px" height="20px" viewBox="0 0 16 20" version="1.1" xmlns="http://www.w3.org/2000/svg" xmlns:xlink="http://www.w3.org/1999/xlink">
    <g id="New-Icons---Gold-Release" transform="translate(-988.000000, -170.000000)">
        <g id="animation" transform="translate(984.000000, 168.000000)">
            <path d="M8.62784416,8.90731481 C9.06569033,8.90731481 9.42104374,8.5524902 9.42104374,8.11411522 L9.42104374,2.81025399 C9.42104374,2.37187901 9.06569033,2.0170544 8.62784416,2.0170544 C8.18946918,2.0170544 7.83464457,2.37187901 7.83464457,2.81025399 L7.83464457,8.11411522 C7.83464457,8.5524902 8.18946918,8.90731481 8.62784416,8.90731481 M5.25463071,11.2610024 C5.69247688,11.2610024 6.0478303,10.905649 6.0478303,10.4678028 L6.0478303,2.81078279 C6.0478303,2.37240781 5.69247688,2.0175832 5.25463071,2.0175832 C4.81678454,2.0175832 4.46143113,2.37240781 4.46143113,2.81078279 L4.46143113,10.4678028 C4.46143113,10.905649 4.81678454,11.2610024 5.25463071,11.2610024 M18.7453693,2.0175832 C18.3075231,2.0175832 17.9521697,2.37240781 17.9521697,2.81078279 L17.9521697,10.4678028 C17.9521697,10.905649 18.3075231,11.2610024 18.7453693,11.2610024 C19.1832155,11.2610024 19.5385689,10.905649 19.5385689,10.4678028 L19.5385689,2.81078279 C19.5385689,2.37187901 19.1832155,2.0175832 18.7453693,2.0175832 M15.3726846,8.90731481 C15.8105308,8.90731481 16.1658842,8.5524902 16.1658842,8.11411522 L16.1658842,2.81025399 C16.1658842,2.37187901 15.8105308,2.0170544 15.3726846,2.0170544 C14.9348385,2.0170544 14.5794851,2.37187901 14.5794851,2.81025399 L14.5794851,8.11411522 C14.5794851,8.5524902 14.9348385,8.90731481 15.3726846,8.90731481 M12,6.11630986 C12.4378462,6.11630986 12.7931996,5.76148525 12.7931996,5.32311028 L12.7931996,2.81025399 C12.7931996,2.37187901 12.4378462,2.0170544 12,2.0170544 C11.5621538,2.0170544 11.2068004,2.37187901 11.2068004,2.81025399 L11.2068004,5.32311028 C11.2068004,5.76148525 11.5621538,6.11630986 12,6.11630986 M18.85959,12.4745978 L14.6117418,11.8574885 L12.7117644,8.00782648 C12.5779781,7.73708102 12.3024734,7.56574991 12,7.56574991 C11.6985842,7.56574991 11.4225507,7.73708102 11.2887644,8.00782648 L9.38878696,11.8574885 L5.14040997,12.4745978 C4.84163813,12.5179593 4.59363106,12.7268352 4.50003351,13.0139735 C4.40643595,13.3011117 4.48469831,13.617334 4.7009774,13.8277962 L7.7748902,16.8239755 L7.04937698,21.0554309 C6.9980834,21.3531451 7.12076494,21.6535034 7.36454161,21.8311801 C7.60937589,22.0088568 7.93353012,22.0315952 8.20004518,21.891992 L12,19.8936579 L15.7999548,21.891992 C15.9162908,21.952804 16.0426739,21.9829456 16.169057,21.9829456 C16.3335137,21.9829456 16.4969129,21.9311232 16.6354584,21.8311801 C16.8797639,21.6535034 17.0019166,21.3531451 16.9511518,21.0554309 L16.2251098,16.8239755 L19.2990226,13.8277962 C19.5153017,13.617334 19.593564,13.3011117 19.4999665,13.0139735 C19.4063689,12.7268352 19.1578331,12.5179593 18.85959,12.4745978" id="award"></path>
        </g>
    </g>
</svg>