<svg id="Layer_1" xmlns="http://www.w3.org/2000/svg" viewBox="-13 14 48 48">
    <style>
        .st0{opacity:0.83;} .st1{fill:#E9B4D3;} .st2{fill:none;stroke:#E9B4D3;stroke-width:9.683827e-02;stroke-miterlimit:10;} .st3{fill:none;stroke:#E9B4D3;stroke-width:0.484;stroke-miterlimit:10;} .st4{opacity:0.6;} .st5{fill:#0E0E0E;} .st6{opacity:0.45;} .st7{fill:#FFFFFF;} .st8{opacity:0.8;} .st9{fill:#74C380;} .st10{opacity:0.77;} .st11{fill:#99D2A8;} .st12{fill:#030303;} .st13{fill:#010101;} .st14{fill:#F8A668;} .st15{fill:#020202;}
    </style>
    <g id="Layer_3">
        <g class="st0">
            <path class="st1" d="M16.5 36.3c.4.3 1.5.3 2.3.2.9-.2 3.5-.7 4.2-.8.7-.2 3.2-1 4.2-1.7s2.3-2 2.8-2.8 1.1-2.2 1.3-3.2c.2-.9 0-2.7-.4-4.1s-1.5-3.4-2.4-4.3c-.9-.9-2.3-2.1-3.2-2.7-.9-.5-2.3-1.2-3.3-1.4-.9-.2-2.7-.3-4-.2-1.2.2-2.9.6-3.9.9-.9.4-2.2 1.2-2.9 1.7S9.6 19.4 9.1 20s-.9 1.8-1.1 2.5-.2 1.7-.1 2.4.6 2.9.9 3.6c.3.6 1.5 2.7 2 3.1.4.4 1.9 2.1 2.3 2.4.5.4 2.9 2.1 3.4 2.3zm.7.3l.3.3.2.4-.6.4-.6-.3z">
</path>
            <path d="M12.7 25.1c.3.2.7.3.9.3s.6-.2.9-.3c.3-.2.6-.6.7-.8.1-.2.3-.7.2-1s-.2-.8-.3-.9c-.2-.2-.5-.4-.7-.6-.3-.1-.6-.2-.9-.2s-.7.2-.9.3c-.3.2-.6.5-.7.7-.1.2-.3.7-.3.9-.1.3.1.7.3.9.1.3.5.6.8.7z">
</path>
            <path class="st2" d="M12.7 25.1c.3.2.7.3.9.3s.6-.2.9-.3c.3-.2.6-.6.7-.8.1-.2.3-.7.2-1s-.2-.8-.3-.9c-.2-.2-.5-.4-.7-.6-.3-.1-.6-.2-.9-.2s-.7.2-.9.3c-.3.2-.6.5-.7.7-.1.2-.3.7-.3.9-.1.3.1.7.3.9.1.3.5.6.8.7z">
</path>
            <path d="M15.9 28.7c.1.1.3.2.3.2s.6.1.9 0c.2-.1.6-.3.9-.4.3-.2.6-.3.7-.4s.2-.3.1-.4c0-.2-.3-.3-.5-.3s-.6.1-.9.2-.6.2-.8.2h-.5c-.2 0-.3-.2-.4-.3l-.3-.3c-.1-.2-.3-.3-.3-.3-.1-.1-.2 0-.3.1s0 .3 0 .4c.1.2.2.3.3.5s.3.5.3.6c0 0 .4.2.5.2z">
</path>
            <path class="st3" d="M15.9 28.7c.1.1.3.2.3.2s.6.1.9 0c.2-.1.6-.3.9-.4.3-.2.6-.3.7-.4s.2-.3.1-.4c0-.2-.3-.3-.5-.3s-.6.1-.9.2-.6.2-.8.2h-.5c-.2 0-.3-.2-.4-.3l-.3-.3c-.1-.2-.3-.3-.3-.3-.1-.1-.2 0-.3.1s0 .3 0 .4c.1.2.2.3.3.5s.3.5.3.6c0 0 .4.2.5.2z">
</path>
            <path class="st4 st5" d="M7.4 57.7c-.6-.4-1.6-1.1-1.6-2.1 0-.6.5-1.1.9-1.5V54c1.8-1.8 3.5-3.5 5.2-5.3.2-.2.9-.9 1.4-1.5.2-.3.4-.5.7-.7 1-1.2 2.7-4.1 3-9h.5c-.3 5-2.1 7.9-3.2 9.2-.2.2-.4.5-.7.8-.8.9-1.3 1.4-1.5 1.6-1.7 1.8-3.4 3.5-5.2 5.3l.1.1c-.3.3-.7.7-.7 1.1 0 .8.9 1.4 1.4 1.7l-.3.4z">
</path>
            <path d="M20.2 27.7c.1 0 .4.1.9.2.4.1.9-.1 1.2-.2.3-.2.6-.6.8-1s.2-1 0-1.3-.4-.8-.6-.9-.6-.4-.9-.5-.9 0-1.1.1c-.3.1-.8.4-1 .8s-.4.8-.4 1.1c0 .3.2.8.3 1 .2.3.4.6.6.7s.1 0 .2 0z">
</path>
            <path class="st2" d="M20.2 27.7c.1 0 .4.1.9.2.4.1.9-.1 1.2-.2.3-.2.6-.6.8-1s.2-1 0-1.3-.4-.8-.6-.9-.6-.4-.9-.5-.9 0-1.1.1c-.3.1-.8.4-1 .8s-.4.8-.4 1.1c0 .3.2.8.3 1 .2.3.4.6.6.7s.1 0 .2 0z">
</path>
        </g>
        <path class="st6 st7" d="M22.2 19.5c1.2.1 3.4 1.3 4.2 2.2.9 1.1 1.1 2.6 1.5 3.9.2.6 1.7 1.9 1.5.8-.5-2.1-1.1-4.2-2.6-5.8-.8-.8-1.6-1.3-2.7-1.8-.9-.5-1.9-1-2.9-1-.6-.2.3 1.7 1 1.7z">
</path>
    </g>
    <g class="st8" id="Layer_1_1_">
        <path class="st9" d="M16.4 51.5l-.4-.3-.3.2-.3.3v.3l.3.2z">
</path>
        <path class="st10 st11" d="M15.2 51.2c.2 0 .5.1.8.2.3.1.8.1 1.1.2.3 0 1.1.1 1.5.1h.1c.5 0 1.2 0 1.6-.1s1.2-.3 1.6-.3l.3-.1c.4-.2 1.2-.4 1.6-.6l1.3-.5c.4-.2 1.1-.5 1.5-.8s.9-.7 1.3-1 .9-.9 1.1-1.3l.4-.6c.3-.4.7-1.1.9-1.5l.2-.3c.2-.4.4-1.2.5-1.6.1-.4.2-1.2.3-1.7V41c.1-.5 0-1.3-.1-1.7l-.2-.7c-.1-.5-.3-1.2-.5-1.7l-.1-.9c-.2-.4-.5-1.1-.9-1.5l-.2-.3c-.3-.3-.8-.9-1-1.3-.3-.3-.9-.9-1.2-1.1-.3-.3-1-.7-1.4-.9-.4-.2-1-.4-1.5-.6s-1-.3-1.5-.3-1.1-.1-1.5-.1-1.2.1-1.6.2h-.2c-.4.1-1.2.3-1.7.5h-.1c-.4.2-1.2.4-1.6.6s-1.1.5-1.5.7c-.4.3-1 .7-1.4.9l-.3.3c-.3.3-.9.9-1.1 1.3l-.2.3c-.3.4-.6 1.1-.9 1.5l-.2.3c-.3.4-.5 1.2-.6 1.6-.1.4-.2 1.2-.2 1.7v.3c0 .5 0 1.3.1 1.7l.1.4c.1.5.3 1.2.4 1.7v.1c.2.4.5 1.2.7 1.6l.2.3c.2.4.6 1.1.9 1.5l.1.2c.3.4.7 1 1 1.4l.2.2c.3.3.9.9 1.1 1.2.3.5.7.8.8.8z">
</path>
        <path class="st12" d="M22.1 43.3c-.2-.1-.4-.2-.6-.2s-.4-.1-.5-.1h-1.1c-.2-.1-.4-.3-.4-.3-.1-.1-.1-.3-.1-.4s.2-.3.3-.5.3-.3.4-.4c.2-.1.4-.2.6-.2s.5 0 .9.1.8.2.9.3c.2.1.4.3.5.4s.3.4.3.5v.6s-.2.3-.3.4c-.1.1-.3.2-.4.1-.2-.1-.4-.2-.5-.3zm-3.2.6c0-.1 0-.2-.1-.3s-.2-.1-.2-.1h-.3s-.4 0-.6.1h-.9s-.6-.2-.8-.3c-.1-.2-.3-.3-.3-.4-.1-.1-.3-.2-.4-.3-.2-.1-.3 0-.3.1s0 .3.1.3c.1.1.2.3.3.4.1.2.3.3.5.5s.4.3.6.3c.1.1.3.1.5.1s.4-.1.6-.1.6-.1.8-.2c.2-.1.4-.2.5-.2-.1.3 0 .1 0 .1zm-5.3-3.1c-.1 0-.2-.1-.3-.1l-.2-.1c-.2-.1-.4-.2-.5-.2s-.4-.2-.4-.3c-.1-.1-.1-.3-.1-.5s.2-.3.3-.4c.1-.1.4-.3.7-.3s.6-.2.8-.1c.2 0 .4.2.6.3s.3.3.5.6c.1.2.3.5.3.7s-.1.4-.2.6-.3.3-.4.3-.3 0-.5-.1l-.2-.1">
</path>
        <path d="M15.6 52l-.3-.3c-2.4 1.9-3.9 5.2-4.1 8.5h.4c.3-3.2 1.7-6.4 4-8.2z">
</path>
    </g>
    <path class="st13" d="M3.7 58.5c-.3-.1-1-.6-1.3-1.4-.3-1 .1-2.1.3-2.5.6-1.1 1.5-1.4 2.4-1.7.9-.3 1.9-.6 2.6-1.7 1-1.5 1.5-3.9.6-5.5-1.3-2-1.4-2.1-1.9-2.8-.1-.1-.3-.3-.4-.5l-.3.1c.2.2.3.4.5.6.6.7.6.8 1.9 2.8.9 1.4.4 3.8-.6 5.1-.7 1-1.6 1.3-2.5 1.6-1 .3-2 .7-2.6 1.8-.2.4-.7 1.6-.3 2.7.3.9 1.1 1.5 1.5 1.6.5.3 1 .7 1.7 1.4h.4c-.8-.8-1.4-1.3-2-1.6z">
</path>
    <path class="st14" d="M-2.2 40.3c2.1 1 4.9 2.4 8.2 1.5 4-1 5.9-4.6 7-6.6.7-1.3 1.8-3.6 1.7-6.4 0-1.6-.4-2.9-.5-3.2 0-.1-.4-1.5-1.2-2.9-2-3.6-6-5.2-6.4-5.4C5.4 16.8 2.4 16-1 17c-.3 0-4.9 1.6-7.1 6.5-.5.8-1.5 3-1.4 6 .1 1 .1 4.2 2.2 7 1.6 2.2 3.4 3 5.1 3.8zM8 32.7l-.3.3c-.1.1-.2.3-.3.3l-.3.3s-.3.3-.3.4-.3.3-.4.3c-.1.1-.3.2-.5.2s-.3.1-.5.2-.3.1-.4.1-.5 0-.7-.1c-.1 0-.6-.1-.8-.1s-.5 0-.6-.1c-.2-.1-.4-.2-.4-.3 0-.1.1-.2.2-.2.1-.1.3-.2.4-.2.2 0 .4-.1.6-.1s.5-.1.8-.1.5-.1.7-.2c.2-.1.4-.2.5-.2l.6-.3c.2-.1.4-.3.7-.3.2-.1.4-.3.5-.3.1-.1.3-.1.4-.2.1-.1.3 0 .3.1s-.1.4-.2.5zm4-5c.3 1.2-.4 2.4-1.6 2.8s-2.5-.3-2.8-1.5.4-2.4 1.6-2.8 2.4.3 2.8 1.5zm-4.4-6.9c1.5 1 2.8 2.3 3.8 3.8.3.4-.3-.1-.4-.2-.5-.4-.9-.9-1.2-1.3-1-1.6-5-2.7-6.6-2.1-.5.2-1.7-1.8-1.8-1.7 1.9-.7 4.5.5 6.2 1.5zm-9.4 9.4c1.6-.5 3.2.2 3.5 1.5.4 1.3-.6 2.7-2.2 3.1-1.6.5-3.2-.2-3.5-1.5-.4-1.3.6-2.7 2.2-3.1z">
</path>
    <path class="st14" d="M5.9 42.2l.2.2.2-.1.2-.2-.3-.2h-.7l-.4.4v.2h.7l-.1-.1.2-.2z">
</path>
    <path class="st14" d="M6.1 42.4c0-.1-.1-.1-.1-.2l-.2.2.1.1.2-.1z">
</path>
    <ellipse transform="rotate(73.92 -1.154 32.472)" class="st15" cx="-1.2" cy="32.5" rx="2.4" ry="3">
</ellipse>
    <path class="st13" d="M7.9 32.1c-.1.1-.3.1-.4.2-.1 0-.3.2-.5.3-.3 0-.5.2-.7.3l-.6.3c-.1 0-.3.1-.5.2s-.4.2-.7.2-.6.1-.8.1-.4.1-.6.1c-.1 0-.3.1-.4.2-.1 0-.2.1-.2.2s.2.2.4.3c.1.1.4.1.6.1s.7.1.8.1c.2.1.6.1.7.1s.2 0 .4-.1.3-.2.5-.2.4-.1.5-.2c.1 0 .4-.2.4-.3s.3-.4.3-.4l.3-.3c.1 0 .2-.2.3-.3l.3-.3c.1-.1.2-.4.2-.5 0-.1-.2-.2-.3-.1z">
</path>
    <ellipse transform="rotate(-106.08 9.754 28.292)" class="st13" cx="9.8" cy="28.3" rx="2.2" ry="2.3">
</ellipse>
    <path class="st7" d="M3.2 21c1.6-.6 5.6.5 6.6 2.1.3.4.7.9 1.2 1.3.1.1.7.6.4.2-1-1.5-2.3-2.8-3.8-3.8-1.7-1-4.3-2.2-6.2-1.5.1-.1 1.3 1.9 1.8 1.7zm23 20c-.2.3 1-.2 1.1-.3.4-.2 1.5-.6 1.6-1 1.1-2.6-1.3-5.3-3.1-7-.4-.5-2.8 1.4-2.7 1.4 1.7 1.6 4.1 4.4 3.1 6.9z">
</path>
</svg>
