<svg class="app-switcher" xmlns="http://www.w3.org/2000/svg" viewBox="0 0 500 500">
    <path d="M94 119H25c-13.8 0-25-11.2-25-25V25C0 11.2 11.2 0 25 0h69c13.8 0 25 11.2 25 25v69c0 13.9-11.1 25-25 25zm190.5 0h-69c-13.8 0-25-11.2-25-25V25c0-13.8 11.2-25 25-25h69c13.8 0 25 11.2 25 25v69c0 13.9-11.2 25-25 25zm190.5 0h-69c-13.8 0-25-11.2-25-25V25c0-13.8 11.2-25 25-25h69c13.8 0 25 11.2 25 25v69c0 13.9-11.2 25-25 25zM94 309.5H25c-13.8 0-25-11.2-25-25v-69c0-13.8 11.2-25 25-25h69c13.8 0 25 11.2 25 25v69c0 13.8-11.1 25-25 25zm190.5 0h-69c-13.8 0-25-11.2-25-25v-69c0-13.8 11.2-25 25-25h69c13.8 0 25 11.2 25 25v69c0 13.8-11.2 25-25 25zm190.5 0h-69c-13.8 0-25-11.2-25-25v-69c0-13.8 11.2-25 25-25h69c13.8 0 25 11.2 25 25v69c0 13.8-11.2 25-25 25zM94 500H25c-13.8 0-25-11.2-25-25v-69c0-13.8 11.2-25 25-25h69c13.8 0 25 11.2 25 25v69c0 13.8-11.1 25-25 25zm190.5 0h-69c-13.8 0-25-11.2-25-25v-69c0-13.8 11.2-25 25-25h69c13.8 0 25 11.2 25 25v69c0 13.8-11.2 25-25 25zm190.5 0h-69c-13.8 0-25-11.2-25-25v-69c0-13.8 11.2-25 25-25h69c13.8 0 25 11.2 25 25v69c0 13.8-11.2 25-25 25z">
</path>
</svg>
