<svg class="assessments" viewBox="-7 0 53 53" xmlns="http://www.w3.org/2000/svg">
    <g id="Filled_Icons" transform="translate(1.000000, 1.000000)">
        <path d="M34.96 4.735h-3.4v4.63c0 .622-.506.878-1.12.878H6.56c-.614 0-1.12-.256-1.12-.877v-4.63h-3.4C.843 4.736 0 6 0 7.212v41.722C0 50.144.843 51 2.04 51h32.92c1.197 0 2.04-.854 2.04-2.065V7.213c0-1.21-.843-2.478-2.04-2.478zm-1.525 17.812l-16.65 17.048c-.095.187-.21.365-.362.523l-1.655 1.693c-.153.16-.328.28-.512.38l-.056.06c-.536.55-1.42.56-1.962.01l-2.67-2.67h-.002L3.784 33.8c-.817-.82-.825-2.165-.017-2.99l1.655-1.695c.807-.826 2.136-.834 2.952-.017l4.798 4.802 15.62-16c.536-.55 1.418-.554 1.962-.01l2.67 2.67c.542.544.547 1.437.01 1.987zm-3.85-18.914H22.65C22.322 1.43 20.596.053 18.5.053c-2.096 0-3.822 1.377-4.148 3.58h-6.94c-.596 0-.883.083-.883.69v3.854c0 .606.28.964.88.964h22.17c.6 0 .88-.35.88-.96V4.32c0-.606-.29-.69-.89-.69z">
        </path>
    </g>
</svg>
