<?xml version="1.0" encoding="UTF-8" standalone="no"?>
<svg width="44px" height="44px" viewBox="0 0 44 44" version="1.1" xmlns="http://www.w3.org/2000/svg" xmlns:xlink="http://www.w3.org/1999/xlink">
    <!-- Generator: Sketch 3.6.1 (26313) - http://www.bohemiancoding.com/sketch -->
    <title>avatar-penguin</title>
    <desc>Created with Sketch.</desc>
    <defs></defs>
    <g id="Iconography" stroke="none" stroke-width="1" fill="none" fill-rule="evenodd">
        <g id="New-Icons---Gold-Release" transform="translate(-240.000000, -288.000000)">
            <g id="avatar-penguin" transform="translate(240.000000, 288.000000)">
                <g id="Group">
                    <rect id="Rectangle-path" x="0" y="0" width="44" height="44"></rect>
                    <g id="Shape" fill="#000000">
                        <path d="M22,7.1 C13.8,7.1 7.1,13.8 7.1,22 C7.1,30.2 13.8,36.9 22,36.9 C30.2,36.9 36.9,30.2 36.9,22 C36.9,13.8 30.2,7.1 22,7.1 L22,7.1 Z M15.1,22.8 C14.3,22.8 13.7,22.2 13.7,21.4 C13.7,20.6 14.3,20 15.1,20 C15.9,20 16.5,20.6 16.5,21.4 C16.5,22.1 15.9,22.8 15.1,22.8 L15.1,22.8 Z M26.7,27.9 L26.7,28 L26.7,28 L26.7,28 C26.6,28.2 25.3,32.1 22.8,32.1 C20.3,32.1 18.7,28.2 18.6,28 L18.6,28 L18.6,28 L18.6,27.9 L18.6,27.9 L18.6,27.8 L18.6,27.8 L18.6,27.8 L18.6,27.7 L18.6,27.7 C18.6,27.7 18.6,27.6 18.7,27.6 L18.7,27.6 C18.7,27.6 18.7,27.6 18.8,27.5 L18.8,27.5 L18.9,27.5 L18.9,27.5 L22.4,25.8 C22.6,25.7 22.7,25.7 22.9,25.8 L26.4,27.5 L26.4,27.5 C26.4,27.5 26.5,27.5 26.5,27.6 L26.5,27.6 L26.6,27.7 L26.6,27.7 L26.6,27.8 L26.6,27.8 L26.6,27.9 L26.6,27.9 L26.6,27.9 C26.7,27.8 26.7,27.9 26.7,27.9 L26.7,27.9 L26.7,27.9 Z M29.2,22.8 C28.4,22.8 27.8,22.2 27.8,21.4 C27.8,20.6 28.4,20 29.2,20 C30,20 30.6,20.6 30.6,21.4 C30.6,22.1 30,22.8 29.2,22.8 L29.2,22.8 Z M34.3,21 L34.1,21 C33.9,21 33.6,20.9 33.5,20.6 C32,16.9 30.2,14.8 28.1,14.5 C25.1,14 22.4,17.2 22.4,17.2 C22.3,17.3 22.1,17.4 21.9,17.4 C21.7,17.4 21.6,17.3 21.4,17.2 C19.7,15.2 17.9,14.4 16.2,14.6 C12.6,15.2 10.2,20.5 10.1,20.6 C10.1,21 9.8,21.1 9.5,21 C9.2,20.9 9.1,20.5 9.2,20.2 C9.3,20 11.9,14.2 16.2,13.5 C18.2,13.2 20.1,14 22,16 C23,15 25.5,12.9 28.3,13.4 C30.9,13.8 33,16.1 34.6,20.3 C34.8,20.5 34.6,20.9 34.3,21 L34.3,21 Z"></path>
                        <path d="M20.1,28 C21.1,28.6 23,29.5 25.1,28 L22.6,26.8 L20.1,28 L20.1,28 Z"></path>
                        <path d="M20.6,29.5 C21.2,30.3 21.9,31.1 22.8,31.1 C23.6,31.1 24.3,30.4 24.8,29.5 C24.1,29.8 23.4,29.9 22.8,29.9 C21.9,29.9 21.2,29.7 20.6,29.5 L20.6,29.5 Z"></path>
                        <path d="M22,0 C9.8,0 0,9.8 0,22 C0,34.2 9.8,44 22,44 C34.2,44 44,34.2 44,22 C44,9.8 34.2,0 22,0 L22,0 Z M22,38.6 C12.9,38.6 5.4,31.2 5.4,22 C5.4,12.9 12.8,5.4 22,5.4 C31.2,5.4 38.6,12.9 38.6,22 C38.6,31.1 31.1,38.6 22,38.6 L22,38.6 Z"></path>
                    </g>
                </g>
            </g>
        </g>
    </g>
</svg>