<?xml version="1.0" encoding="UTF-8" standalone="no"?>
<svg width="44px" height="44px" viewBox="0 0 44 44" version="1.1" xmlns="http://www.w3.org/2000/svg" xmlns:xlink="http://www.w3.org/1999/xlink">
    <!-- Generator: Sketch 3.6.1 (26313) - http://www.bohemiancoding.com/sketch -->
    <title>avatar-rabbit</title>
    <desc>Created with Sketch.</desc>
    <defs></defs>
    <g id="Iconography" stroke="none" stroke-width="1" fill="none" fill-rule="evenodd">
        <g id="New-Icons---Gold-Release" transform="translate(-312.000000, -288.000000)">
            <g id="avatar-rabbit" transform="translate(312.000000, 288.000000)">
                <g id="Layer_1">
                    <rect id="Rectangle-path" x="0" y="0" width="44" height="44"></rect>
                    <g id="Group" fill="#231F20">
                        <path d="M14.8,14.6 C14.9,14.9 14.9,15.3 14.6,15.5 C13.8,16.3 13.5,17.5 13.5,19 L13.5,29.9 C13.5,34.6 17.4,38.5 22.1,38.5 L22.2,38.5 C26.9,38.5 30.8,34.6 30.8,29.9 L30.8,19 C30.7,17.6 30.3,16.6 29.5,15.7 C29.3,15.5 29.2,15.2 29.3,15 L29.9,10.7 C29.9,10.3 30.2,10 30.6,10 C31,9.9 31.3,10.1 31.5,10.4 L35.8,17.5 C35.9,17.7 36.1,17.8 36.1,17.8 C36.5,17.6 37.1,16.3 37.1,15.7 L37.1,15.5 C37.6,13.5 34.1,9.6 31.8,7.6 C31,6.9 29.9,6.3 29.5,6.4 C29.4,6.4 29.3,6.5 29.2,6.5 C28.8,6.5 28.1,7.6 27.8,8.5 L26.8,13 C26.7,13.5 26.2,13.8 25.8,13.7 C23.9,13.3 22.3,13.4 22.3,13.4 C22.3,13.4 22.3,13.4 22.2,13.4 C20.7,13.4 19.5,13.5 18.5,13.7 C18.1,13.8 17.6,13.5 17.5,13.1 L14.5,1.9 C14.4,1.7 14.4,1.6 14.3,1.5 C12.9,2 11.6,2.7 10.4,3.5 L14.8,14.6 L14.8,14.6 Z M28.7,20 C29.5,20 30.2,20.7 30.2,21.5 C30.2,22.3 29.5,23 28.7,23 C27.9,23 27.2,22.3 27.2,21.5 C27.2,20.7 27.9,20 28.7,20 L28.7,20 Z M18.2,30.7 C18.4,32.1 19.4,32.3 20.7,32.2 C21.5,32.2 21.9,31.3 21.9,31.2 L22.1,29.2 L20.3,26.6 C20.1,26.3 20.1,26 20.3,25.7 C20.5,25.4 20.7,25.2 21.1,25.2 L24,25.2 C24.3,25.2 24.6,25.4 24.8,25.7 C25,26 24.9,26.3 24.8,26.6 L23,29.2 L23.2,31.2 C23.2,31.2 23.6,32.1 24.3,32.2 C25.6,32.3 26.6,32.1 26.8,30.7 C26.9,30.2 26.9,29.9 27.3,30 C27.8,30.1 28.1,30.5 28,31 C27.7,33 26.5,34 24.5,34 L24.1,34 C23.3,34 22.7,33.7 22.4,33.4 C22.1,33.7 21.5,34 20.7,34 L20.3,34 C18.2,34 17.1,33 16.8,31 C16.7,30.5 17.1,30.1 17.5,30 C18.1,29.9 18.1,30.2 18.2,30.7 L18.2,30.7 Z M16.2,20 C17,20 17.7,20.7 17.7,21.5 C17.7,22.3 17,23 16.2,23 C15.4,23 14.7,22.3 14.7,21.5 C14.7,20.7 15.3,20 16.2,20 L16.2,20 Z" id="Shape"></path>
                        <path d="M22,0 C19.9,0 17.8,0.3 15.8,0.9 C15.9,1 16,1.2 16,1.3 L16,1.3 L18.8,11.8 C19.8,11.7 20.8,11.6 22,11.6 C22.2,11.6 23.5,11.5 25.2,11.8 L26.1,7.9 L26.1,7.8 C26.3,7.3 27.2,4.7 29,4.6 C30.4,4.3 32.3,5.7 32.8,6.2 L32.8,6.2 C33.5,6.8 39.4,12.1 38.6,15.8 C38.5,16.8 37.8,19 36.4,19.5 C35.9,19.7 35,19.7 34.1,18.5 C34.1,18.5 34.1,18.5 34.1,18.4 L31,13.4 L30.8,14.8 C31.7,15.9 32.2,17.3 32.3,18.9 L32.3,18.9 L32.3,29.8 C32.3,35.5 27.7,40.1 22,40.1 L21.9,40.1 C16.2,40.1 11.6,35.5 11.6,29.8 L11.6,18.9 C11.6,17.2 12,15.8 12.8,14.7 L8.8,4.4 C3.4,8.4 0,14.8 0,22 C0,34.2 9.8,44 22,44 C34.2,44 44,34.2 44,22 C44,9.8 34.2,0 22,0 L22,0 Z" id="Shape"></path>
                    </g>
                </g>
            </g>
        </g>
    </g>
</svg>