<?xml version="1.0" encoding="UTF-8" standalone="no"?>
<svg width="44px" height="44px" viewBox="0 0 44 44" version="1.1" xmlns="http://www.w3.org/2000/svg" xmlns:xlink="http://www.w3.org/1999/xlink">
    <!-- Generator: Sketch 3.6.1 (26313) - http://www.bohemiancoding.com/sketch -->
    <title>avatar-giraffe</title>
    <desc>Created with Sketch.</desc>
    <defs></defs>
    <g id="Iconography" stroke="none" stroke-width="1" fill="none" fill-rule="evenodd">
        <g id="New-Icons---Gold-Release" transform="translate(-384.000000, -288.000000)">
            <g id="avatar-giraffe" transform="translate(384.000000, 288.000000)">
                <g id="Group">
                    <rect id="Rectangle-path" x="0" y="0" width="44" height="44"></rect>
                    <g id="Shape" fill="#000000">
                        <path d="M17.4,9.2 L17.4,9.2 C17.5,9.3 17.5,9.4 17.6,9.5 L17.7,9.6 L17.7,9.7 C18,10.2 18.3,10.7 18.4,11.3 C18.5,10.7 18.8,10.2 19.1,9.7 L19.1,9.6 L19.2,9.5 C19.3,9.4 19.4,9.3 19.4,9.2 L19.4,9.2 C19.5,9 19.5,8.9 19.5,8.7 C19.5,8.1 19,7.5 18.3,7.5 C17.6,7.5 17.1,8 17.1,8.7 C17.2,8.9 17.3,9.1 17.4,9.2 L17.4,9.2 L17.4,9.2 Z"></path>
                        <path d="M27.3,15.7 L27.2,15.6 C27,15.5 26.9,15.4 26.7,15.4 L26.5,15.3 L26.4,15.2 C25.8,14.6 25.5,13.9 25.3,13.1 C25.2,13.7 24.9,14.3 24.5,14.9 L24.3,15.2 L19.4,15.2 L19.2,14.9 C18.8,14.4 18.5,13.8 18.4,13.1 C18.3,13.8 17.9,14.4 17.5,15 L17.5,15.1 L17.3,15.2 L17.3,15.2 L17.2,15.3 L17,15.4 C15.6,15.9 14.6,17.3 14.6,18.8 L14.6,33.7 C14.6,35.8 17.7,39.8 21.9,39.8 C26.1,39.8 29,35.8 29,33.7 L29,18.9 C29,18.1 28.7,17.3 28.2,16.7 C28.2,16.5 27.8,16 27.3,15.7 L27.3,15.7 Z M25.8,20 C26.5,20 27,20.5 27,21.2 C27,21.9 26.5,22.4 25.8,22.4 C25.1,22.4 24.6,21.9 24.6,21.2 C24.6,20.5 25.1,20 25.8,20 L25.8,20 Z M23.6,30.2 C23.9,30.2 24.2,30.5 24.2,30.8 C24.2,31.1 23.9,31.4 23.6,31.4 C23.3,31.4 23,31.1 23,30.8 C23,30.5 23.3,30.2 23.6,30.2 L23.6,30.2 Z M20.1,30.2 C20.4,30.2 20.7,30.5 20.7,30.8 C20.7,31.1 20.4,31.4 20.1,31.4 C19.8,31.4 19.5,31.1 19.5,30.8 C19.5,30.5 19.8,30.2 20.1,30.2 L20.1,30.2 Z M16.7,21.2 C16.7,20.5 17.2,20 17.9,20 C18.6,20 19.1,20.5 19.1,21.2 C19.1,21.9 18.6,22.4 17.9,22.4 C17.2,22.4 16.7,21.9 16.7,21.2 L16.7,21.2 Z M27.3,33.6 C26,36.9 22.4,37.2 22.3,37.2 L22.3,37.2 L22.3,37.2 C18.8,37.2 16.9,34 16.8,33.9 C16.6,33.6 16.7,33.2 17,33.1 C17.3,32.9 17.7,33 17.8,33.3 C17.8,33.3 19.4,36 22.2,36 C22.4,36 25.1,35.7 26.1,33.2 C26.2,32.9 26.6,32.7 26.9,32.9 C27.3,32.9 27.5,33.3 27.3,33.6 L27.3,33.6 Z"></path>
                        <path d="M28.5,14.7 C28.7,14.8 28.9,15 29.1,15.2 C34.2,12.3 35.1,9.6 35.2,8.5 L33,8.5 C29.4,9.1 28.6,13.4 28.5,14.7 L28.5,14.7 Z"></path>
                        <path d="M24.3,9.2 L24.3,9.2 C24.4,9.3 24.4,9.4 24.5,9.5 L24.6,9.6 L24.6,9.7 C24.9,10.2 25.2,10.7 25.3,11.3 C25.4,10.7 25.7,10.2 26,9.7 L26,9.6 L26.1,9.5 C26.2,9.4 26.3,9.3 26.3,9.2 L26.3,9.2 C26.4,9 26.4,8.9 26.4,8.7 C26.4,8.1 25.9,7.5 25.2,7.5 C24.5,7.5 24,8 24,8.7 C24.2,8.9 24.2,9.1 24.3,9.2 L24.3,9.2 L24.3,9.2 Z"></path>
                        <path d="M22,0 C9.8,0 0,9.8 0,22 C0,34.2 9.8,44 22,44 C34.2,44 44,34.2 44,22 C44,9.8 34.2,0 22,0 L22,0 Z M29.9,16.4 C30.3,17.1 30.5,18 30.5,18.8 L30.5,33.7 C30.5,36.4 27.3,41.3 21.9,41.3 C16.9,41.3 13.1,36.7 13.1,33.7 L13.1,18.9 C13.1,18 13.3,17.2 13.8,16.4 C11.4,16 8,14.6 7.4,10.9 L7.4,10.8 L7.4,7.3 L8,7.1 C8.2,7.1 12.4,6.1 16.7,13.5 C16.9,13.1 17,12.6 17,12.1 C17,11.5 16.8,10.9 16.5,10.4 C16.4,10.3 16.2,10.1 16.1,9.9 L15.8,9.6 L15.8,9.4 C15.7,9.1 15.6,8.8 15.6,8.5 C15.6,7.1 16.8,5.9 18.2,5.9 C19.6,5.9 20.8,7.1 20.8,8.5 C21,9 21,9.3 20.8,9.6 L20.8,9.8 L20.6,10 C20.5,10.2 20.4,10.3 20.2,10.5 C19.9,11 19.7,11.6 19.7,12.2 C19.7,12.7 19.8,13.3 20.1,13.7 L23.4,13.7 C23.7,13.2 23.8,12.7 23.8,12.2 C23.8,11.6 23.6,11 23.3,10.5 C23.2,10.4 23,10.2 22.9,10 L22.7,9.7 L22.7,9.5 C22.6,9.2 22.5,8.9 22.5,8.6 C22.5,7.2 23.7,6 25.1,6 C26.5,6 27.7,7.2 27.7,8.6 C27.7,8.9 27.6,9.2 27.5,9.5 L27.5,9.7 L27.3,10 C27.2,10.2 27.1,10.3 26.9,10.5 C26.6,11 26.4,11.6 26.4,12.2 C26.4,12.8 26.6,13.3 26.8,13.8 C26.9,13.2 27.1,12.4 27.4,11.5 C28.4,9 30.1,7.4 32.4,7.1 L32.5,7.1 L36,7.1 L36.1,7.6 C36.6,7.8 37.6,12.1 29.9,16.4 L29.9,16.4 Z"></path>
                        <path d="M15.5,14.5 C12.6,9.4 10,8.6 8.9,8.5 L8.9,10.7 C9.2,12.4 10.3,13.6 12.1,14.4 C13.2,14.8 14.3,15 14.8,15 C15.1,14.8 15.3,14.6 15.5,14.5 L15.5,14.5 Z"></path>
                    </g>
                </g>
            </g>
        </g>
    </g>
</svg>