<?xml version="1.0" encoding="UTF-8" standalone="no"?>
<svg width="44px" height="44px" viewBox="0 0 44 44" version="1.1" xmlns="http://www.w3.org/2000/svg" xmlns:xlink="http://www.w3.org/1999/xlink">
    <!-- Generator: Sketch 3.6.1 (26313) - http://www.bohemiancoding.com/sketch -->
    <title>avatar-frog</title>
    <desc>Created with Sketch.</desc>
    <defs></defs>
    <g id="Iconography" stroke="none" stroke-width="1" fill="none" fill-rule="evenodd">
        <g id="New-Icons---Gold-Release" transform="translate(-168.000000, -288.000000)">
            <g id="avatar-frog" transform="translate(168.000000, 288.000000)">
                <g id="Group">
                    <g id="Shape" fill="#000000">
                        <path d="M22,0 C9.8,0 0,9.8 0,22 C0,34.2 9.8,44 22,44 C34.2,44 44,34.2 44,22 C44,9.8 34.2,0 22,0 L22,0 Z M22,37.2 C13.9,37.2 7.3,30.6 7.3,22.5 C7.3,20.2 7.8,18.2 8.9,16.6 C8.5,15.7 8.2,14.7 8.2,13.6 C8.2,9.8 11.3,6.7 15.1,6.7 C18,6.7 20.5,8.5 21.5,11.2 L21.7,11.2 C22.7,8.5 25.3,6.7 28.1,6.7 C31.9,6.7 35,9.8 35,13.6 C35,14.3 34.9,15.1 34.7,15.7 C36.1,17.5 36.8,19.7 36.8,22.4 C36.8,30.6 30.2,37.2 22,37.2 L22,37.2 Z"></path>
                        <path d="M32.9,16.1 L33.1,15.7 C33.4,15.1 33.5,14.4 33.5,13.7 C33.5,10.8 31.1,8.4 28.2,8.4 C25.8,8.4 23.7,10 23.1,12.3 L22.9,12.9 L22.1,12.9 L21,12.9 L20.4,12.9 L20.2,12.3 C19.6,10 17.5,8.4 15.1,8.4 C12.2,8.4 9.8,10.8 9.8,13.7 C9.8,14.6 10,15.5 10.5,16.3 L10.7,16.7 L10.4,17.1 C9.4,18.5 8.9,20.3 8.9,22.5 C8.9,29.8 14.8,35.7 22.1,35.7 C29.4,35.7 35.3,29.8 35.3,22.5 C35.3,20 34.6,18 33.2,16.5 L32.9,16.1 L32.9,16.1 Z M29.1,11.7 C29.8,11.7 30.4,12.3 30.4,13 C30.4,13.7 29.8,14.3 29.1,14.3 C28.4,14.3 27.8,13.7 27.8,13 C27.8,12.3 28.4,11.7 29.1,11.7 L29.1,11.7 Z M24.3,22 C24.7,22 24.9,22.3 24.9,22.6 C24.9,23 24.6,23.2 24.3,23.2 C23.9,23.2 23.7,22.9 23.7,22.6 C23.6,22.3 23.9,22 24.3,22 L24.3,22 Z M19.8,22 C20.2,22 20.4,22.3 20.4,22.6 C20.4,23 20.1,23.2 19.8,23.2 C19.4,23.2 19.2,22.9 19.2,22.6 C19.1,22.3 19.4,22 19.8,22 L19.8,22 Z M15,11.7 C15.7,11.7 16.3,12.3 16.3,13 C16.3,13.7 15.7,14.3 15,14.3 C14.3,14.3 13.7,13.7 13.7,13 C13.7,12.3 14.3,11.7 15,11.7 L15,11.7 Z M32,27.4 C29.5,33.7 22.8,34.1 22.5,34.2 L22.5,34.2 L22.5,34.2 C15.8,34.2 12.2,28.1 12.1,27.9 C11.9,27.5 12,27.1 12.4,26.8 C12.8,26.6 13.2,26.7 13.5,27.1 C13.5,27.2 16.8,32.6 22.6,32.7 C23,32.7 28.5,32.2 30.7,26.9 C30.9,26.5 31.3,26.3 31.7,26.5 C32,26.6 32.2,27 32,27.4 L32,27.4 Z"></path>
                    </g>
                    <rect id="Rectangle-path" x="0" y="0" width="44" height="44"></rect>
                </g>
            </g>
        </g>
    </g>
</svg>