<?xml version="1.0" encoding="UTF-8" standalone="no"?>
<svg width="18px" height="19px" viewBox="0 0 18 19" version="1.1" xmlns="http://www.w3.org/2000/svg" xmlns:xlink="http://www.w3.org/1999/xlink">
    <!-- Generator: Sketch 3.7.2 (28276) - http://www.bohemiancoding.com/sketch -->
    <title>trash</title>
    <desc>Created with Sketch.</desc>
    <defs></defs>
    <g id="Iconography" stroke="none" stroke-width="1" fill="none" fill-rule="evenodd">
        <g id="New-Icons---Gold-Release" transform="translate(-1131.000000, -219.000000)">
            <g id="trash" transform="translate(1128.000000, 216.000000)">
                <g id="Group">
                    <g id="Frame_-_24px">
                        <rect id="Rectangle-path" x="0" y="0" width="24" height="24"></rect>
                    </g>
                    <g id="Filled_Icons" transform="translate(3.000000, 3.000000)" fill="#000000">
                        <g id="Group">
                            <polygon id="Shape" points="12 1.999 12 -4.4408921e-16 6 -4.4408921e-16 6 1.999 0 1.999 0 3.999 18 3.999 18 1.999"></polygon>
                            <path d="M2,4.999 L2,16.999 C2,18.101 2.897,18.999 4,18.999 L14,18.999 C15.103,18.999 16,18.101 16,16.999 L16,4.999 L2,4.999 L2,4.999 Z M8,15 L6,15 L6,9 L8,9 L8,15 L8,15 Z M12,15 L10,15 L10,9 L12,9 L12,15 L12,15 Z" id="Shape"></path>
                        </g>
                    </g>
                </g>
            </g>
        </g>
    </g>
</svg>