<svg class="browser" xmlns="http://www.w3.org/2000/svg" viewBox="0 0 20.603 20.603">
    <path d="M14.273 18.875l.064-.03-.023-.035-.04.065zm-4.098-.315c-1.66 0-3.205-.476-4.524-1.287 1.19.012-.88-1.806.55-2.085 1.5-.294 2.13-2.005 1.65-1.98-.47.026-1.38-.246-2.02-1.05-.64-.81-1.2-.625-1.86-.498-.58.114-1.29 1.786-1.46 2.225-.45-.862-.75-1.81-.89-2.81.74-.384 1.94-1.03 2.37-1.387.64-.53-.21-.743-.32-1.062-.1-.32 0-1.062 0-1.8 0-.745 1.49-.745 2.02-1.486.38-.53-.32-1.696-.75-2.328C6.37 1.886 8.2 1.21 10.18 1.21c.525 0 1.04.05 1.54.14.146.913.452 2.17 1.043 2.5.958.53 2.116 1.695 2.544 1.905.426.21.953 2.017.85 2.76-.076.523-.726 1.1-.992 1.655l4.42 2.755c.313-.96.485-1.98.485-3.045 0-5.45-4.44-9.884-9.89-9.884C4.722 0 .29 4.434.29 9.886c0 5.453 4.435 9.89 9.888 9.89.207 0 .41-.02.613-.032l-.23-1.204c-.13.006-.25.02-.38.02zm8.57-7.394c-.188-.742-.55-1.458-1.32-2.01-.527-.373-.957-2.015-.637-2.547.19-.32.688-.6 1.054-.77.64 1.2 1.007 2.58 1.007 4.04 0 .43-.05.86-.11 1.28z">
</path>
    <path d="M16.185 15.505l4.13-.823L9.97 8.237l-.244.17 2.303 11.965 2.24-3.557 2.18 3.176c.41.6 1.17.8 1.7.43.52-.36.62-1.14.21-1.74l-2.18-3.17z">
</path>
</svg>
