<?xml version="1.0" encoding="UTF-8" standalone="no"?>
<svg width="20px" height="19px" viewBox="0 0 20 19" version="1.1" xmlns="http://www.w3.org/2000/svg" xmlns:xlink="http://www.w3.org/1999/xlink">
    <!-- Generator: sketchtool 3.8.3 (29802) - http://www.bohemiancoding.com/sketch -->
    <title>EB24E015-A761-4950-9E60-82E932FDA315</title>
    <desc>Created with sketchtool.</desc>
    <defs></defs>
    <g id="Room-Final" stroke="none" stroke-width="1" fill="none" fill-rule="evenodd">
        <g id="Profile-Menu" transform="translate(-64.000000, -666.000000)" fill="#4C4F52">
            <path d="M79,669 C79.8284271,669 80.5,668.328427 80.5,667.5 C80.5,666.671573 79.8284271,666 79,666 C78.1715729,666 77.5,666.671573 77.5,667.5 C77.5,668.328427 78.1715729,669 79,669 Z M69,669 C69.8284271,669 70.5,668.328427 70.5,667.5 C70.5,666.671573 69.8284271,666 69,666 C68.1715729,666 67.5,666.671573 67.5,667.5 C67.5,668.328427 68.1715729,669 69,669 Z M84,676.5 L84,674.5 L81.737,674.5 C80.846,671.055 77.72,668.5 74,668.5 C70.28,668.5 67.155,671.055 66.264,674.5 L64,674.5 L64,676.5 L66,676.5 C66,676.839 66.028,677.171 66.069,677.5 L64,677.5 L64,679.5 L66.589,679.5 C66.731,679.847 66.897,680.179 67.083,680.5 L64,680.5 L64,682.5 L68.727,682.5 C70.136,683.741 71.98,684.5 74,684.5 C76.021,684.5 77.864,683.741 79.274,682.5 L84,682.5 L84,680.5 L80.918,680.5 C81.104,680.179 81.271,679.847 81.411,679.5 L84,679.5 L84,677.5 L81.931,677.5 C81.972,677.171 82,676.839 82,676.5 L84,676.5 Z M74,670.5 C75.771,670.5 77.36,671.276 78.46,672.5 L69.541,672.5 C70.64,671.276 72.229,670.5 74,670.5 Z M68,676.5 C68,675.798 68.128,675.126 68.351,674.5 L73,674.5 L73,682.41 C70.167,681.931 68,679.467 68,676.5 Z M75,682.41 L75,674.5 L79.65,674.5 C79.873,675.126 80,675.798 80,676.5 C80,679.467 77.833,681.931 75,682.41 Z" id="bug"></path>
        </g>
    </g>
</svg>