<?xml version="1.0" encoding="UTF-8" standalone="no"?>
<svg viewBox="0 0 19 17" version="1.1" xmlns="http://www.w3.org/2000/svg" xmlns:xlink="http://www.w3.org/1999/xlink">
    <!-- Generator: sketchtool 3.8.3 (29802) - http://www.bohemiancoding.com/sketch -->
    <title>E3CFEA19-E6F4-4EE2-AD2E-CD8CDF20CF04</title>
    <desc>Created with sketchtool.</desc>
    <defs></defs>
    <g id="Room-Final" stroke="none" stroke-width="1" fill="none" fill-rule="evenodd">
        <g id="Assets" transform="translate(-46.000000, -131.000000)" fill="#000000">
            <path d="M61,132 L61,131 L59,131 L59,136 L61,136 L61,134 L63,134 L63,146 L48,146 L48,134 L49,134 L49,132 L48,132 C46.6620845,132 46,133.344381 46,134 L46,146 C46,147.274667 46.7330909,148 48,148 L63,148 C64.2669091,148 65,147.274667 65,146 L65,134 C65,133.344381 64.3914928,132 63,132 L61,132 Z M52,134 L58,134 L58,132 L52,132 L52,131 L50,131 L50,136 L52,136 L52,134 Z M58,140 L61,140 L61,137 L58,137 L58,140 Z M58,144 L61,144 L61,141 L58,141 L58,144 Z M54,140 L57,140 L57,137 L54,137 L54,140 Z M54,144 L57,144 L57,141 L54,141 L54,144 Z M50,140 L53,140 L53,137 L50,137 L50,140 Z M50,144 L53,144 L53,141 L50,141 L50,144 Z" id="calendar"></path>
        </g>
    </g>
</svg>