<svg viewBox="0 0 20 20" xmlns="http://www.w3.org/2000/svg">
<path d="M7.4 8.5L12.17 0.24C11.47 0.09 10.75 0 10 0C7.6 0 5.4 0.85 3.68 2.25L7.34 8.6L7.4 8.5ZM19.54 7C18.62 4.08 16.39 1.74 13.54 0.66L9.88 7H19.54ZM19.8 8H12.31L12.6 8.5L17.36 16.75C19 14.97 20 12.61 20 10C20 9.31 19.93 8.65 19.8 8ZM6.54 10L2.64 3.25C1.01 5.03 0 7.39 0 10C0 10.69 0.0700001 11.35 0.2 12H7.69L6.54 10ZM0.46 13C1.38 15.92 3.61 18.26 6.46 19.34L10.12 13H0.46ZM11.73 13L7.83 19.76C8.53 19.91 9.25 20 10 20C12.4 20 14.6 19.15 16.32 17.75L12.66 11.4L11.73 13Z"/>
</svg>
