<svg width="63" height="46" viewBox="0 0 63 46" fill="none" xmlns="http://www.w3.org/2000/svg">
<path fill-rule="evenodd" clip-rule="evenodd" d="M16.1146 6.73205L4.83156 15.2578C3.06902 16.5896 2.71985 19.0981 4.05167 20.8607L20.932 43.2002C22.2638 44.9627 24.7723 45.3119 26.5349 43.9801L33.1889 38.9521L25.4044 40.1721C23.2219 40.5142 21.1753 39.0222 20.8333 36.8397L16.1146 6.73205Z" fill="white"/>
<rect x="39.3638" y="2" width="24" height="36" rx="4" transform="rotate(15.0764 39.3638 2)" fill="white"/>
<path fill-rule="evenodd" clip-rule="evenodd" d="M20.9569 2.9297C18.7715 3.2533 17.2623 5.28717 17.5859 7.47248L21.6874 35.1705C22.011 37.3558 24.0449 38.865 26.2302 38.5414L30.3458 37.9319C29.2915 36.9559 28.7998 35.4428 29.1975 33.9585L37.243 3.9323C37.5838 2.66071 38.5003 1.69718 39.637 1.24712C38.833 0.693868 37.8258 0.431739 36.7843 0.585975L20.9569 2.9297Z" fill="white"/>
</svg>
