<?xml version="1.0" encoding="UTF-8" standalone="no"?>
<svg width="159px" height="141px" viewBox="0 0 159 141" version="1.1" xmlns="http://www.w3.org/2000/svg" xmlns:xlink="http://www.w3.org/1999/xlink" xmlns:sketch="http://www.bohemiancoding.com/sketch/ns">
    <!-- Generator: sketchtool 3.5.2 (25235) - http://www.bohemiancoding.com/sketch -->
    <title>caution</title>
    <desc>Created with sketchtool.</desc>
    <defs></defs>
    <g id="Page-1" stroke="none" stroke-width="1" fill="none" fill-rule="evenodd" sketch:type="MSPage">
        <g id="Alert-Wrong-File-Type" sketch:type="MSArtboardGroup" transform="translate(-630.000000, -397.000000)" fill="#4D8BBE">
            <path d="M695.428234,406.654605 L633.164454,514.875608 C626.522537,526.419959 632.756507,537.187519 646.061825,537.187519 L772.945355,537.187519 C786.234286,537.187519 792.474292,526.401967 785.842726,514.875608 L723.578947,406.654605 C716.269911,393.950732 702.73817,393.949167 695.428234,406.654605 L695.428234,406.654605 Z M777.314083,519.782471 C780.171238,524.748505 778.667262,527.348055 772.945355,527.348055 L646.061825,527.348055 C640.32187,527.348055 638.826421,524.765056 641.693097,519.782471 L703.956877,411.561468 C707.482606,405.43338 711.524844,405.433848 715.050303,411.561468 L777.314083,519.782471 Z M699.246097,443.341046 C699.012711,440.625924 701.025683,438.424883 703.743542,438.424883 L714.121494,438.424883 C716.83875,438.424883 718.856107,440.634219 718.628941,443.341046 L714.412434,493.583408 C714.184572,496.29853 711.777766,498.499572 709.081625,498.499572 L708.905633,498.499572 C706.189371,498.499572 703.797495,496.290235 703.564822,493.583408 L699.246097,443.341046 Z M709.190561,517.659547 C713.266201,517.659547 716.570159,514.355588 716.570159,510.279949 C716.570159,506.20431 713.266201,502.900351 709.190561,502.900351 C705.114922,502.900351 701.810963,506.20431 701.810963,510.279949 C701.810963,514.355588 705.114922,517.659547 709.190561,517.659547 Z" id="caution" sketch:type="MSShapeGroup"></path>
        </g>
    </g>
</svg>