<svg viewBox="0 0 24 24" version="1.1" xmlns="http://www.w3.org/2000/svg" xmlns:xlink="http://www.w3.org/1999/xlink">
    <g id="chat-off" transform="translate(0.000000, 1.000000)" >
        <path d="M2.52151869,20.1498416 C4.07975559,18.6629513 4.85887404,17.9195062 4.85887404,17.9195062 C4.85887404,17.9195062 5.47048145,17.3359557 6.69369628,16.1688547 C6.73721029,16.4499593 6.65481568,16.7459945 6.44787201,16.9681091 L5.16965932,18.3390354 L12.5877205,18.3390354 C16.8333501,18.3390354 20.2877969,15.3287497 20.2877969,11.6282074 C20.2877969,9.40725259 19.0428459,7.43436892 17.1291459,6.21212126 C17.5100533,5.84868764 17.8998291,5.47679243 18.2984733,5.09643563 L18.5487958,4.85757466 C20.7797747,6.43906638 22.2137785,8.88622075 22.2137785,11.6282074 C22.2137785,16.3861845 17.8949981,20.2564148 12.5877205,20.2564148 L2.96262491,20.2564148 C2.80585833,20.2564148 2.65521694,20.2185252 2.52151869,20.1498416 Z M3.96422899,15.4573572 C3.30585423,14.2761047 2.96358742,12.9767317 2.96358742,11.6282074 C2.96358742,6.87023037 7.28140528,3 12.588683,3 C13.9091197,3 15.1683087,3.23956776 16.3149913,3.67277128 L14.7328525,5.18238266 C14.0516727,5.0098828 13.3318489,4.91737942 12.5877205,4.91737942 C8.34209081,4.91737942 4.88764402,7.92862381 4.88764402,11.6282074 C4.88764402,12.4751331 5.06825335,13.2986222 5.41814077,14.0700948 L3.96422899,15.4573572 Z M7.74219235,11.852581 C7.7188849,11.768094 7.70641667,11.6789718 7.70641667,11.586877 C7.70641667,11.0466309 8.13547711,10.608675 8.66475,10.608675 C8.77766103,10.608675 8.88601131,10.6286066 8.98660811,10.665211 L7.74219235,11.852581 Z M11.5406432,11.5442568 C11.8562249,11.2431521 12.1829853,10.9313816 12.5209244,10.608945 C13.0396443,10.6213301 13.4564167,11.0544233 13.4564167,11.586877 C13.4564167,12.1271231 13.0273562,12.5650791 12.4980833,12.5650791 C11.9688104,12.5650791 11.53975,12.1271231 11.53975,11.586877 C11.53975,11.5725967 11.5400498,11.5583879 11.5406433,11.5442567 Z M16.3314167,12.5650791 C15.8021438,12.5650791 15.3730833,12.1271231 15.3730833,11.586877 C15.3730833,11.0466309 15.8021438,10.608675 16.3314167,10.608675 C16.8606896,10.608675 17.28975,11.0466309 17.28975,11.586877 C17.28975,12.1271231 16.8606896,12.5650791 16.3314167,12.5650791 Z"></path>
        <g id="Group-3" transform="translate(0.000000, 1.000000)" fill="#edeeef">
            <path d="M22.2044444,0 L0,21.2791682 L1.79555556,23 C4.19216931,20.7031236 5.39047619,19.5546854 5.39047619,19.5546854 C5.39047619,19.5546854 10.0245503,15.1138685 19.2926984,6.23223451 L24,1.72083179 L22.2044444,0 Z" id="Shape"></path>
        </g>
    </g>
</svg>
