<svg viewBox="0 0 24 24" version="1.1" xmlns="http://www.w3.org/2000/svg" xmlns:xlink="http://www.w3.org/1999/xlink">
    <g id="chat-on">
        <g id="Line_Icons" transform="translate(1.000000, 3.782080)">
            <g id="Group">
                <path d="M11.4980833,17.6086159 L1.91475,17.6086159 C1.53333333,17.6086159 1.18833333,17.3777602 1.03691667,17.0216946 C0.883583333,16.6646509 0.952583333,16.2498932 1.21325,15.9652364 L3.42220833,13.5353824 C2.43416667,12.1228585 1.91570833,10.5019777 1.91570833,8.80479704 C1.91570833,3.94998005 6.21479167,0.000978202094 11.4990417,0.000978202094 C16.7832917,0.000978202094 21.082375,3.94998005 21.082375,8.80479704 C21.082375,13.659614 16.7823333,17.6086159 11.4980833,17.6086159 Z M4.11220833,15.6522117 L11.4980833,15.6522117 C15.7252917,15.6522117 19.16475,12.5806571 19.16475,8.80479704 C19.16475,5.02991517 15.7252917,1.95738239 11.4980833,1.95738239 C7.270875,1.95738239 3.83141667,5.02991517 3.83141667,8.80479704 C3.83141667,10.3082937 4.37575,11.7394033 5.405,12.9445483 C5.727,13.3221343 5.718375,13.8865569 5.384875,14.2533827 L4.11220833,15.6522117 Z" id="Shape"></path>
                <ellipse id="Oval" cx="7.66475" cy="8.80479704" rx="1" ry="1"></ellipse>
                <ellipse id="Oval" cx="11.4980833" cy="8.80479704" rx="1" ry="1"></ellipse>
                <ellipse id="Oval" cx="15.3314167" cy="8.80479704" rx="1" ry="1"></ellipse>
            </g>
        </g>
    </g>
</svg>
