<?xml version="1.0" encoding="UTF-8" standalone="no"?>
<svg width="51px" class="checkmark" height="58px" viewBox="0 0 51 58" version="1.1" xmlns="http://www.w3.org/2000/svg" xmlns:xlink="http://www.w3.org/1999/xlink" xmlns:sketch="http://www.bohemiancoding.com/sketch/ns">
    <!-- Generator: Sketch 3.3.2 (12043) - http://www.bohemiancoding.com/sketch -->
    <title>Untitled 2</title>
    <desc>Created with Sketch.</desc>
    <defs></defs>
    <g id="Page-1" stroke="none" stroke-width="1" fill="none" fill-rule="evenodd" sketch:type="MSPage">
        <path d="M7,7.91409408 C-2.05296575,18.1935045 -2.27560389,39.394937 7,49.9276522 C16.2756039,60.4603674 34.701274,60.4871241 44,49.9286592 C53.298726,39.3701943 53.3673721,18.5520217 44,7.91510107 C34.6326279,-2.72181959 16.0529657,-2.36531635 7,7.91409408 Z M23.8483049,38.5387611 C23.7533049,38.7270679 23.6383049,38.9063118 23.4863049,39.0654159 L21.8313049,40.7702468 C21.6783049,40.9313649 21.5033049,41.0522035 21.3193049,41.1529023 L21.2633049,41.2133216 C20.7273049,41.767165 19.8433049,41.7772349 19.3013049,41.2233914 L16.6313049,38.5347332 L10.8473049,32.703265 C10.0303049,31.8775348 10.0223049,30.5231357 10.8303049,29.6923705 L12.4853049,27.9855257 C13.2923049,27.1537535 14.6213049,27.1456976 15.4373049,27.9684069 L20.2353049,32.8039638 L35.8553049,16.692154 C36.3913049,16.1383105 37.2733049,16.1342826 37.8173049,16.6820841 L40.4873049,19.3707424 C41.0293049,19.9185439 41.0343049,20.8177843 40.4973049,21.3716278 L23.8483049,38.5387611 Z" id="Shape" fill="#000000" sketch:type="MSShapeGroup"></path>
    </g>
</svg>