<svg viewBox="0 0 24 24" xmlns="http://www.w3.org/2000/svg">
    <path d="M1.1 21l-.7.7 1.4 1.4.7-.7 20-19 .7-.7-1.4-1.4-.7.7-20 19zM7.5 3.1l-.9-1.8c-.6.3-1.3.7-1.9 1.1L6 4c.4-.3 1-.7 1.5-.9zM2.7 15.6l-1.9.7c.3.7.6 1.4 1 2l1.7-1.1c-.3-.4-.6-1-.8-1.6zM2 12H0c0 .7.1 1.5.2 2.2l2-.4c-.1-.5-.2-1.2-.2-1.8zM2.7 8.4L.8 7.7C.5 8.4.3 9.1.2 9.8l2 .4c.1-.6.2-1.2.5-1.8zM4.6 5.3L3.1 4c-.5.5-.9 1.1-1.3 1.8l1.7 1.1a5 5 0 0 1 1.1-1.6zM21.8 10.1l2-.4c-.1-.7-.3-1.4-.6-2.1l-1.9.7c.2.6.4 1.2.5 1.8zM19.2 2.4c-.6-.4-1.2-.8-1.9-1.2L16.4 3c.6.3 1.1.6 1.6 1l1.2-1.6zM15.2.4C14.5.2 13.8.1 13 0l-.2 2 1.8.3.6-1.9zM11 2l-.2-2c-.7.1-1.5.2-2.2.4l.6 1.9L11 2zM18 20l1.2 1.6c.6-.4 1.1-.9 1.6-1.5l-1.5-1.3c-.3.4-.8.8-1.3 1.2zM20.5 17.3l1.7 1.1c.4-.6.7-1.3 1-2l-1.9-.7c-.2.5-.5 1-.8 1.6zM22 12c0 .6-.1 1.2-.2 1.8l2 .4c.1-.7.2-1.5.2-2.2h-2zM11.1 22l-.2 2h2.2l-.2-2h-1.8zM14.7 21.6l.5 1.9c.7-.2 1.4-.5 2.1-.8l-.8-1.7c-.6.2-1.2.5-1.8.6zM6.7 22.8c.7.3 1.4.6 2.1.8l.5-1.9c-.6-.2-1.2-.4-1.7-.7l-.9 1.8z"></path>
    <path d="M10.7 13.5l2.9-2.7c-.4-.5-1-.8-1.6-.8-1.1 0-2 .9-2 2 0 .6.3 1.1.7 1.5z"></path>
    <path d="M7.7 16.4L9.1 15c-1.4-.9-2.4-2.3-2.9-3C7 10.8 9.3 8 12 8c1.2 0 2.3.5 3.2 1.2l1.5-1.4C15.4 6.8 13.8 6 12 6c-4.5 0-7.7 5.3-7.9 5.5l-.3.5.3.5c.1.2 1.5 2.3 3.6 3.9zM18.1 9.2l-1.4 1.4c.5.5.9 1 1.1 1.4-.8 1.2-3.1 4-5.8 4-.3 0-.6 0-.9-.1l-1.6 1.6c.7.3 1.6.5 2.5.5 4.5 0 7.7-5.3 7.9-5.5l.3-.5-.3-.5c-.1-.1-.7-1.1-1.8-2.3z"></path>
</svg>