<?xml version="1.0" encoding="UTF-8" standalone="no"?>
<svg viewBox="0 0 18 20" version="1.1" xmlns="http://www.w3.org/2000/svg" xmlns:xlink="http://www.w3.org/1999/xlink">
    <!-- Generator: sketchtool 3.8.3 (29802) - http://www.bohemiancoding.com/sketch -->
    <title>BC058786-D93A-4E7B-84A5-2ADC2FBDD1E6</title>
    <desc>Created with sketchtool.</desc>
    <defs></defs>
    <g id="Room-Final" stroke="none" stroke-width="1">
        <g id="Assets" transform="translate(-47.000000, -88.000000)">
            <path d="M55.732097,93.2399998 C54.2876037,93.2399998 53.1120971,92.0644932 53.1120971,90.6199999 C53.1120971,89.1755066 54.2876037,88 55.732097,88 C57.1765903,88 58.3520969,89.1755066 58.3520969,90.6199999 C58.3520969,92.0644932 57.1765903,93.2399998 55.732097,93.2399998 Z M55.732097,89.7466666 C55.2508903,89.7466666 54.8587637,90.1387932 54.8587637,90.6199999 C54.8587637,91.1020799 55.2508903,91.4933332 55.732097,91.4933332 C56.2133036,91.4933332 56.6054303,91.1020799 56.6054303,90.6199999 C56.6054303,90.1387932 56.2133036,89.7466666 55.732097,89.7466666 Z M57.4778808,104.813068 L53.9852538,104.813068 C53.5032713,104.813068 53.1120971,104.436455 53.1120971,103.972415 L53.1120971,100.609801 L52.2389404,100.609801 C51.7569579,100.609801 51.3657836,100.233188 51.3657836,99.7691476 L51.3657836,98.0878408 C51.3657836,95.7701594 53.3242742,93.8845738 55.7315673,93.8845738 C58.1388604,93.8845738 60.0973509,95.7701594 60.0973509,98.0878408 L60.0973509,99.7691476 C60.0973509,100.233188 59.7061767,100.609801 59.2241942,100.609801 L58.3510375,100.609801 L58.3510375,103.972415 C58.3510375,104.436455 57.9598633,104.813068 57.4778808,104.813068 Z M54.8584106,103.131761 L56.604724,103.131761 L56.604724,99.7691476 C56.604724,99.3051069 56.9958982,98.9284942 57.4778808,98.9284942 L58.3510375,98.9284942 L58.3510375,98.0878408 C58.3510375,96.6974001 57.1757685,95.5658806 55.7315673,95.5658806 C54.2873661,95.5658806 53.1120971,96.6974001 53.1120971,98.0878408 L53.1120971,98.9284942 L53.9852538,98.9284942 C54.4672364,98.9284942 54.8584106,99.3051069 54.8584106,99.7691476 L54.8584106,103.131761 Z M55.7315673,108 C51.5264445,108 47,106.839488 47,104.28933 C47,103.39042 47.5823955,102.139924 50.353795,101.291108 L50.8375238,103.074085 C49.1104198,103.603783 48.7463135,104.194707 48.7463135,104.28933 C48.7463135,104.767078 51.1483676,106.144665 55.7315673,106.144665 C60.314767,106.144665 62.7168211,104.767078 62.7168211,104.28933 C62.7168211,104.200273 62.3771632,103.636252 60.7618232,103.116758 L61.2682541,101.34213 C63.9086801,102.190945 64.4631346,103.413611 64.4631346,104.28933 C64.4631346,106.839488 59.9366901,108 55.7315673,108 Z" id="clients"></path>
        </g>
    </g>
</svg>
