<svg class="techsupport-chat-disabled" viewBox="0 0 44 44" xmlns="http://www.w3.org/2000/svg">
    <path d="M22 44c12.15 0 22-9.85 22-22S34.15 0 22 0 0 9.85 0 22s9.85 22 22 22zm9.364-34.357l-9.006 9.006-9.008-9.01c-.583-.59-1.53-.59-2.117 0l-1.59 1.59c-.585.58-.585 1.53 0 2.11l9.007 9.01-9.007 9c-.586.58-.586 1.53 0 2.12l1.59 1.59c.585.58 1.533.58 2.118 0l9.01-9.01 9.01 9c.59.58 1.54.58 2.12 0l1.59-1.59c.59-.59.59-1.54 0-2.12l-9.01-9.01 9.01-9.01c.59-.59.59-1.53 0-2.12l-1.59-1.59c-.58-.59-1.53-.59-2.12 0z" fill-rule="evenodd">
</path>
</svg>
