<svg viewBox="0 0 24 21" version="1.1" xmlns="http://www.w3.org/2000/svg" xmlns:xlink="http://www.w3.org/1999/xlink">
    <g id="Iconography" stroke="none" stroke-width="1" fill-rule="evenodd">
        <g id="New-Icons---Gold-Release" transform="translate(-168.000000, -267.000000)">
            <g id="cobrowsing" transform="translate(168.000000, 267.000000)">
                <g id="Group">
                    <g id="Line_Icons">
                        <path d="M2,0 C0.897,0 0,0.896 0,2 L0,15 C0,16.103 0.897,17 2,17 L11,17 L11,19 L7,19 L7,21 L17,21 L17,19 L13,19 L13,17 L22,17 C23.103,17 24,16.103 24,15 L24,2 C24,0.896 23.103,0 22,0 L2,0 Z M22,2 L21.998,14.0028687 L2,14.0028687 L2,2 L22,2 L22,2 Z" id="Shape"></path>
                        <path d="M2.96986377,10.2756697 L5.60203927,7.64305542 L3.873728,5.91430538 L10.0164946,4.15966797 L8.26141845,10.3019958 L6.53310718,8.57368456 L3.90005415,11.2062988 L2.96986377,10.2756697 Z M20.934082,11.1529916 L17.501624,7.71996138 L19.7554083,5.46560487 L11.7450045,3.17749023 L14.0336913,11.1873219 L16.2874756,8.93353756 L19.721078,12.3665678 L20.934082,11.1529916 Z" id="Combined-Shape"></path>
                    </g>
                </g>
            </g>
        </g>
    </g>
</svg>