<svg viewBox="0 0 22 18" xmlns="http://www.w3.org/2000/svg">
    <g fill="#46B1E1" fill-rule="evenodd">
        <path d="M6.333 6.26c-.873 0-1.583.702-1.583 1.566 0 .864.71 1.566 1.583 1.566.874 0 1.584-.702 1.584-1.566 0-.864-.71-1.565-1.584-1.565m0 4.697c-1.746 0-3.166-1.404-3.166-3.13 0-1.727 1.42-3.13 3.166-3.13C8.08 4.696 9.5 6.1 9.5 7.826c0 1.726-1.42 3.13-3.167 3.13">
</path>
        <path d="M12.553 12.902c-.34-.156-.553-.48-.553-.83V9.9h-1V8.043h2c.552 0 1 .416 1 .93V9.9l3.097-1.857c.173-.12 2.903 0 2.903 0V1.857H10v2.786H8V1.857C8 .832 8.897 0 10 0h10c1.103 0 2 .832 2 1.857v6.5c0 1.024-.897 1.68-2 1.68h-2.667L13.6 12.815c-.177.123-.388.186-.6.186-.152 0-.306-.033-.447-.098zM1.71 16.286h9.248c-.473-1.55-2.244-2.572-4.625-2.572-2.38 0-4.15 1.022-4.624 2.572zM12.665 18H0v-.857C0 14.115 2.604 12 6.333 12c3.73 0 6.333 2.115 6.333 5.143V18z">
</path>
    </g>
</svg>
