<?xml version="1.0" encoding="UTF-8" standalone="no"?>
<svg version="1.1" xmlns="http://www.w3.org/2000/svg" xmlns:xlink="http://www.w3.org/1999/xlink">
    <g id="New-Icons---Gold-Release" transform="translate(-312.000000, -300.000000)">
        <path d="M313.163126,304.94772 C312.84277,304.94772 312.579366,304.684316 312.579366,304.36396 L312.579366,300.590879 C312.579366,300.270523 312.84277,300.007119 313.163126,300.007119 L318.594939,300.007119 C318.915295,300.007119 319.178699,300.270523 319.178699,300.590879 L319.178699,304.36396 C319.178699,304.684316 318.915295,304.94772 318.594939,304.94772 L313.163126,304.94772 Z M318.594939,311.468743 L313.163126,311.468743 C312.84277,311.468743 312.579366,311.205339 312.579366,310.884983 L312.579366,307.104783 C312.579366,306.784427 312.84277,306.521023 313.163126,306.521023 L318.594939,306.521023 C318.915295,306.521023 319.178699,306.784427 319.178699,307.104783 L319.178699,310.884983 C319.178699,311.205339 318.915295,311.468743 318.594939,311.468743 L318.594939,311.468743 Z M338.563793,317.854268 C338.243437,317.854268 337.980034,317.590865 337.980034,317.270509 L337.980034,300.590879 C337.980034,300.270523 338.243437,300.007119 338.563793,300.007119 L343.995607,300.007119 C344.315962,300.007119 344.579366,300.270523 344.579366,300.590879 L344.579366,317.270509 C344.579366,317.590865 344.315962,317.854268 343.995607,317.854268 L338.563793,317.854268 Z M318.594939,317.982647 L313.163126,317.982647 C312.84277,317.982647 312.579366,317.719244 312.579366,317.398888 L312.579366,313.618687 C312.579366,313.298331 312.84277,313.034928 313.163126,313.034928 L318.594939,313.034928 C318.915295,313.034928 319.178699,313.298331 319.178699,313.618687 L319.178699,317.391769 C319.178699,317.719244 318.915295,317.982647 318.594939,317.982647 L318.594939,317.982647 Z M322.123214,317.861624 C321.366757,317.861624 320.744883,316.907675 320.744883,315.747275 L320.744883,302.114349 C320.744883,300.953949 321.366757,300 322.123214,300 L334.9041,300 C335.660557,300 336.28243,300.953949 336.28243,302.114349 L336.28243,315.747275 C336.28243,316.914794 335.660557,317.861624 334.9041,317.861624 L322.123214,317.861624 Z" id="compact"></path>
    </g>
</svg>