<svg class="delete" xmlns="http://www.w3.org/2000/svg" viewBox="0 0 500 500">
    <path d="M370.5 186.1c-1-1-2.7-1-3.8 0l-38.5 38.5c-1 1-2.7 1-3.8 0l-38.5-38.5c-1-1-2.7-1-3.8 0l-19.8 19.8c-1 1-1 2.7 0 3.8l38.5 38.5c1 1 1 2.7 0 3.8l-38.5 38.5c-1 1-1 2.7 0 3.8l19.8 19.8c1 1 2.7 1 3.8 0l38.5-38.5c1-1 2.7-1 3.8 0l38.5 38.5c1 1 2.7 1 3.8 0l19.8-19.8c1-1 1-2.7 0-3.8L351.8 252c-1-1-1-2.7 0-3.8l38.5-38.5c1-1 1-2.7 0-3.8l-19.8-19.8z">
</path>
    <path d="M437.9 405.2h-199c-28.1 0-67.9-12.1-90.7-27.5C115 356.5 6.4 284.3 6.4 250c0-37.1 118.1-113.2 141.8-128 23-15.2 62.9-27.1 90.7-27.1h199c30.7 0 55.7 25 55.7 55.7v199c0 30.6-25 55.6-55.7 55.6zm-199-292.8c-24.4 0-60.8 10.9-81.2 24.4C93.3 177.2 24 231.9 24 250c0 16.9 69.5 71.8 133.8 113 19.8 13.4 56.9 24.6 81.1 24.6h199c21 0 38.1-17.1 38.1-38.1v-199c0-21-17.1-38.1-38.1-38.1h-199z">
</path>
</svg>
