<svg viewBox="0 0 53 53" xmlns="http://www.w3.org/2000/svg">
    <path d="M44.68 12.13c-.71-1.74-2.69-3.72-4.43-4.428L22.155.308c-1.74-.71-4.16-.153-5.406 1.254L2.76 17.257C.17 19.34-.62 21.96.47 25.137l3.975 14.94s.723 5.832 4.127 7.16l19.502 4.896c1.818.457 4.435-.188 5.842-1.443l16.9-15.058c1.396-1.246 1.962-3.666 1.244-5.405L44.68 12.13zM7.704 25.853c-1.022 1.022-2.536.88-3.38-.323-.84-1.21-.69-3.01.333-4.034 1.022-1.03 2.527-.878 3.37.323.843 1.2.7 3.01-.323 4.03zm13.024-.6c-1.032 1.02-2.546.878-3.39-.332-.84-1.2-.69-3 .333-4.03 1.03-1.02 2.54-.88 3.38.33.85 1.2.7 3.01-.32 4.04zm3.1-20.392c.717-.71 2.268-.33 3.46.86 1.183 1.19 1.568 2.74.85 3.46-.716.72-2.267.34-3.46-.85-1.19-1.19-1.566-2.73-.85-3.46zm7.662 14.09c1.198 1.19 1.57 2.74.85 3.45-.71.72-2.26.34-3.453-.85-1.182-1.19-1.57-2.73-.85-3.45.716-.72 2.266-.34 3.458.85zm-5.102 11.81c1.2-.84 3.012-.7 4.034.33 1.02 1.02.878 2.54-.332 3.38-1.202.85-3.004.7-4.034-.33-1.02-1.02-.87-2.53.33-3.38zm1.228 7.29c1.203-.84 3.013-.7 4.035.32 1.02 1.03.88 2.55-.33 3.39-1.2.85-3 .7-4.03-.33-1.02-1.02-.87-2.53.34-3.37zm4.76 11.17c-1.21.85-3.012.7-4.034-.32-1.022-1.02-.88-2.53.323-3.38 1.2-.84 3.013-.7 4.035.33 1.022 1.03.88 2.54-.323 3.38zM31.9 11.19c-1.19-1.193-1.573-2.744-.86-3.46.73-.718 2.27-.34 3.46.85s1.57 2.743.85 3.46c-.712.717-2.262.33-3.45-.852zm7.668 13.623c-.725.715-2.267.33-3.46-.86-1.19-1.186-1.57-2.736-.85-3.45.717-.73 2.268-.344 3.45.85 1.19 1.19 1.578 2.73.86 3.46zm-.456-10.93c-1.192-1.19-1.57-2.73-.852-3.45.718-.724 2.27-.34 3.46.85 1.184 1.195 1.57 2.737.85 3.46-.715.72-2.265.335-3.457-.86zm7.663 13.627c-.717.716-2.27.34-3.45-.85-1.193-1.194-1.58-2.735-.862-3.46.72-.72 2.27-.334 3.46.86 1.194 1.18 1.57 2.732.853 3.45z" fill-rule="evenodd">
</path>
</svg>
