<svg viewBox="0 0 44 44" xmlns="http://www.w3.org/2000/svg" xmlns:xlink="http://www.w3.org/1999/xlink">
    <defs>
        <radialGradient fx="50%" fy="50%" r="89.208%" id="b">
            <stop stop-color="#FFF" stop-opacity="0" offset="0%">
</stop>
            <stop stop-opacity=".35" offset="100%">
</stop>
        </radialGradient>
        <rect id="a" width="44" height="43.7" rx="4">
</rect>
    </defs>
    <g fill="none" fill-rule="evenodd">
        <use stroke="#B665A6" fill="#B665A6" xlink:href="#a">
</use>
        <use fill="url(#b)" xlink:href="#a">
</use>
        <circle fill="#FFF" cx="11.1" cy="11.945" r="4">
</circle>
        <path d="M33 37.823c2.21 0 4-1.79 4-4s-1.79-4-4-4-4 1.79-4 4 1.79 4 4 4zm0-21.878c2.21 0 4-1.79 4-4s-1.79-4-4-4-4 1.79-4 4 1.79 4 4 4zM11.1 37.823c2.21 0 4-1.79 4-4s-1.79-4-4-4-4 1.79-4 4 1.79 4 4 4z" fill="#FFF">
</path>
    </g>
</svg>
