<svg viewBox="0 0 60 50" xmlns="http://www.w3.org/2000/svg">
    <g fill="none" fill-rule="evenodd">
        <path stroke="#8F9194" fill="#747678" d="M0 0h60v50H0z">
</path>
        <path stroke="#979797" fill="#D2D3D5" d="M13.8 8h32.433v32.16H13.8z">
</path>
        <path d="M35.656 17.182c-.503-.476-1.186-.747-1.87-.747-.682 0-1.365.27-1.868.747l-9.9 13.715h17.737c.853 0 1.545-.658 1.545-1.46v-6.924l-5.644-5.33zm-15.848 3.28l-1.608 1.52v7.458c0 .802.69 1.452 1.542 1.452h.466l5.497-7.492-3.11-2.938c-.75-.71-2-.71-2.787 0zm4.465-4.052c1.25 0 2.252-.945 2.252-2.127s-1-2.127-2.252-2.127c-1.25 0-2.25.945-2.25 2.127s1 2.127 2.25 2.127z" fill="#747678">
</path>
        <path stroke="#979797" fill="#D6D6D6" d="M16 32.933h27.5v4.156H16z">
</path>
        <path stroke="#979797" fill="#D2D3D5" d="M2 21h9.828v9.745H2z">
</path>
        <path d="M8.623 24.69c-.152-.143-.36-.225-.566-.225-.207 0-.414.082-.567.226l-3 4.16h5.375c.26 0 .468-.2.468-.44v-2.1l-1.71-1.61zm-4.802.995l-.48.46v2.26c0 .244.21.44.47.44h.14l1.67-2.27-.94-.89c-.227-.214-.606-.214-.844 0zm1.36-1.227c.38 0 .68-.287.68-.645 0-.358-.3-.645-.68-.645-.38 0-.68.287-.68.645 0 .358.308.645.687.645z" fill="#747678">
</path>
        <path stroke="#979797" fill="#D6D6D6" d="M48 20h9.828v9.745H48z">
</path>
        <path d="M54.623 23.69c-.152-.143-.36-.225-.566-.225-.207 0-.414.082-.567.226l-3 4.16h5.375c.26 0 .468-.2.468-.44v-2.1l-1.71-1.61zm-4.802.995l-.48.46v2.26c0 .244.21.44.47.44h.14l1.67-2.27-.94-.89c-.227-.214-.606-.214-.844 0zm1.36-1.227c.38 0 .68-.287.68-.645 0-.358-.3-.645-.68-.645-.38 0-.68.287-.68.645 0 .358.308.645.687.645z" fill="#747678">
</path>
    </g>
</svg>
