<svg viewBox="0 0 60 50" xmlns="http://www.w3.org/2000/svg">
    <g fill="none" fill-rule="evenodd">
        <path stroke="#8F9194" fill="#747678" d="M0 0h60v50H0z">
</path>
        <path stroke="#979797" fill="#D2D3D5" d="M29.196 3.268l16.007 4.29-4.288 16-16.007-4.288z">
</path>
        <path d="M38.76 10.727c-.186-.303-.487-.53-.824-.62-.337-.09-.71-.044-1.022.126L30.2 15.748l8.753 2.346c.42.113.85-.123.957-.522l.923-3.446-2.074-3.4zm-8.26-.464l-.996.544-.824 3.075-.17.636c-.108.4.147.814.567.927l.23.06 3.712-3-1.15-1.873c-.28-.452-.9-.617-1.38-.37zm2.744-1.425c.617.165 1.237-.173 1.395-.76.15-.59-.21-1.192-.83-1.357-.62-.16-1.24.18-1.4.76-.16.59.21 1.2.83 1.36z" fill="#747678">
</path>
        <path stroke="#979797" fill="#D8D8D8" d="M26.958 15.965l13.572 3.637-.554 2.068-13.572-3.637z">
</path>
        <path stroke="#979797" fill="#D2D3D5" d="M4.895 22.585L18.57 13.36l9.265 13.735L14.16 36.32z">
</path>
        <path d="M16.756 20.29c-.35-.06-.715.02-1.003.213-.288.194-.498.504-.573.85l-.223 8.673 7.478-5.044c.36-.243.462-.72.23-1.063l-1.993-2.96-3.916-.67zm-5.737 5.908l-.25 1.107 1.78 2.64.37.545c.23.343.71.424 1.062.182l.197-.133.16-4.77-2.158-.37c-.52-.09-1.05.26-1.176.79zm.71-3c.52-.356.67-1.044.33-1.55-.34-.504-1.037-.623-1.565-.267-.527.36-.677 1.05-.336 1.55.34.51 1.035.63 1.562.27z" fill="#747678">
</path>
        <path stroke="#979797" fill="#D8D8D8" d="M13.005 32.607l11.596-7.82 1.2 1.773-11.59 7.822z">
</path>
        <path stroke="#979797" fill="#D2D3D5" d="M29.847 28.284l16.577 1.16L45.27 45.97l-16.58-1.16z">
</path>
        <path d="M40.69 33.783c-.242-.262-.58-.426-.93-.45-.35-.025-.708.09-.982.317l-5.553 6.694 9.066.634c.44.03.82-.283.85-.695l.25-3.558-2.69-2.942zm-8.22 1.12l-.877.723-.222 3.176-.04.657c-.03.41.3.77.74.8l.24.01 3.08-3.66L33.9 35c-.358-.39-.998-.436-1.425-.1zm2.428-1.923c.64.045 1.185-.405 1.227-1.013.043-.607-.435-1.13-1.074-1.173-.64-.045-1.18.405-1.22 1.012-.04.608.44 1.13 1.08 1.174z" fill="#747678">
</path>
        <path stroke="#979797" fill="#D8D8D8" d="M30.075 41.175l14.057.983-.15 2.136-14.056-.983z">
</path>
    </g>
</svg>
