<svg viewBox="0 0 60 50" xmlns="http://www.w3.org/2000/svg">
    <g fill="none" fill-rule="evenodd">
        <path stroke="#8F9194" fill="#747678" d="M0 0h60v50H0z">
</path>
        <path d="M2 39.23h3.304v3.485H2zm0 5.228h3.304v3.486H2zm5.232-5.228h3.304v3.485H7.232zm0 5.228h3.304v3.486H7.232zm5.232-5.228h3.304v3.485h-3.304zm0 5.228h3.304v3.486h-3.304zm5.232-5.228H21v3.485h-3.304zm0 5.228H21v3.486h-3.304zM23 39.23h3.304v3.485H23zm0 5.228h3.304v3.486H23zm5.232-5.228h3.304v3.485h-3.304zm0 5.228h3.304v3.486h-3.304zm5.232-5.228h3.304v3.485h-3.304zm0 5.228h3.304v3.486h-3.304zm5.232-5.228H42v3.485h-3.304zm0 5.228H42v3.486h-3.304zM44 39.23h3.304v3.485H44zm0 5.228h3.304v3.486H44zm5.232-5.228h3.304v3.485h-3.304zm0 5.228h3.304v3.486h-3.304zm5.232-5.228h3.304v3.485h-3.304zm0 5.228h3.304v3.486h-3.304z" fill="#D8D8D8">
</path>
    </g>
</svg>
