<svg width="22px" height="23px" viewBox="0 0 22 23" version="1.1" xmlns="http://www.w3.org/2000/svg" xmlns:xlink="http://www.w3.org/1999/xlink">
    <g id="Icons" >
        <g id="New-Icons---Gold-Release" transform="translate(-1177.000000, -168.000000)">
            <g id="file-question" transform="translate(1176.242676, 168.134766)">
                <g id="Group">
                    <g id="Frame_-_24px">
                        <rect id="Rectangle-path" x="0" y="0" width="24" height="24"></rect>
                    </g>
                    <g id="Filled_Icons" transform="translate(1.000000, 0.000000)" fill="#46b1e1">
                        <g id="Group">
                            <path d="M14.0522461,16.8012695 C14.0522461,14.1902695 15.7232461,11.9742695 18.0522461,11.1502695 L18.0522461,5.38726953 L13.4662461,0.801269531 L2.05224609,0.801269531 C0.949246094,0.801269531 0.0522460938,1.69926953 0.0522460938,2.80126953 L0.0522460938,20.8012695 C0.0522460938,21.9042695 0.949246094,22.8012695 2.05224609,22.8012695 L16.0522461,22.8012695 C16.4182461,22.8012695 16.7572461,22.6952695 17.0522461,22.5232695 L17.0522461,21.9912695 C15.2602461,20.9542695 14.0522461,19.0202695 14.0522461,16.8012695 L14.0522461,16.8012695 Z M9.05224609,15.8012695 L3.05224609,15.8012695 L3.05224609,13.8012695 L9.05224609,13.8012695 L9.05224609,15.8012695 L9.05224609,15.8012695 Z M12.0522461,11.8012695 L3.05224609,11.8012695 L3.05224609,9.80126953 L12.0522461,9.80126953 L12.0522461,11.8012695 L12.0522461,11.8012695 Z M12.0522461,1.80126953 L17.0522461,6.80126953 L12.0522461,6.80126953 L12.0522461,1.80126953 L12.0522461,1.80126953 Z" id="Shape"></path>
                            <path d="M18.2406883,18.4115319 L18.2406883,18.0163224 C18.2406883,17.6745179 18.3136767,17.3772236 18.4596557,17.1244307 C18.6056347,16.8716378 18.8726655,16.6028268 19.260756,16.3179897 C19.6346047,16.0509549 19.8811631,15.8337699 20.0004386,15.6664281 C20.1197142,15.4990863 20.179351,15.3121648 20.179351,15.1056579 C20.179351,14.8742278 20.0939012,14.6979875 19.9229989,14.5769317 C19.7520967,14.455876 19.5135492,14.395349 19.2073493,14.395349 C18.6732798,14.395349 18.0644497,14.5698091 17.3808406,14.9187345 L16.7987078,13.7491281 C17.5926911,13.3040701 18.4347282,13.0815445 19.3248441,13.0815445 C20.0582996,13.0815445 20.6413167,13.2577848 21.0739131,13.6102707 C21.5065094,13.9627566 21.7228043,14.4327307 21.7228043,15.0202072 C21.7228043,15.4118582 21.633794,15.7500972 21.4557709,16.0349343 C21.2777477,16.3197714 20.9395087,16.6402083 20.4410438,16.9962546 C20.0992393,17.2490476 19.8829444,17.4413097 19.7921526,17.5730469 C19.7013607,17.704784 19.6559655,17.8774639 19.6559655,18.0910917 L19.6559655,18.4115319 L18.2406883,18.4115319 Z M18.0697869,20.2380405 C18.0697869,19.9389616 18.1498961,19.7128756 18.310117,19.5597756 C18.4703379,19.4066757 18.7035447,19.3301269 19.0097446,19.3301269 C19.3052631,19.3301269 19.5340194,19.4084559 19.6960205,19.5651163 C19.8580216,19.7217767 19.939021,19.9460825 19.939021,20.2380405 C19.939021,20.5193172 19.8571315,20.7409527 19.6933502,20.9029538 C19.5295689,21.0649549 19.3017026,21.1459542 19.0097446,21.1459542 C18.7106657,21.1459542 18.479239,21.0667351 18.3154577,20.9082945 C18.1516763,20.7498538 18.0697869,20.5264381 18.0697869,20.2380405 L18.0697869,20.2380405 Z" id="?-copy"></path>
                        </g>
                    </g>
                </g>
            </g>
        </g>
    </g>
</svg>