<?xml version="1.0" encoding="UTF-8" standalone="no"?>
<svg width="23px" height="16px" viewBox="0 0 23 16" version="1.1" xmlns="http://www.w3.org/2000/svg" xmlns:xlink="http://www.w3.org/1999/xlink">
    <title>double-pages</title>
    <defs></defs>
    <g id="Book-View" stroke="none" stroke-width="1" fill-rule="evenodd">
        <g id="assets" transform="translate(-94.000000, -132.000000)" >
            <g id="Group-3" transform="translate(94.000000, 132.000000)">
                <g id="Group" transform="translate(10.231843, 0.778258)">
                    <g id="Line_Icons" transform="translate(0.297783, 0.148892)">
                        <g id="Group" transform="translate(0.000000, 0.000000)">
                            <path d="M8.35699874,1.42108547e-14 L1.46434182,1.42108547e-14 C0.656757304,1.42108547e-14 0,0.657489475 0,1.46434182 L0,13.1790763 C0,13.9866609 0.656757304,14.6434182 1.46434182,14.6434182 L10.2503927,14.6434182 C11.0579772,14.6434182 11.7147345,13.9866609 11.7147345,13.1790763 L11.7147345,3.35773578 L8.35699874,1.42108547e-14 L8.35699874,1.42108547e-14 Z M10.2511249,13.1790763 L1.46434182,13.1790763 L1.46434182,1.46434182 L7.32170908,1.46434182 L7.32170908,4.39302545 L10.2503927,4.39302545 L10.2511249,13.1790763 L10.2511249,13.1790763 Z" id="Shape"></path>
                            <rect id="Rectangle-path" x="2.92868363" y="6.58953817" width="4.39302545" height="1.46434182"></rect>
                            <rect id="Rectangle-path" x="2.92868363" y="9.5182218" width="5.85736726" height="1.46434182"></rect>
                        </g>
                    </g>
                </g>
                <path d="M1.71933127,0.934746864 C0.911746758,0.934746864 0.254989453,1.59223634 0.254989453,2.39908868 L0.254989453,14.1138232 C0.254989453,14.9214077 0.911746758,15.578165 1.71933127,15.578165 L10.5053822,15.578165 C11.3129667,15.578165 11.969724,14.9214077 11.969724,14.1138232 C11.969724,14.1138232 11.9697234,3.86343035 11.9697234,2.39908861 C11.9697234,0.934746864 10.7219879,0.934746864 10.7219879,0.934746864 L1.71933127,0.934746864 Z M1.71933127,14.1138232 L1.71933127,2.39908868 L10.506114,2.39908868 L10.5061143,14.1138232 L1.71933127,14.1138232 Z" id="Shape"></path>
                <rect id="Rectangle-path" x="3.18367308" y="7.52428503" width="4.39302545" height="1.46434182"></rect>
                <rect id="Rectangle-path" x="3.18367308" y="10.4529687" width="5.85736726" height="1.46434182"></rect>
            </g>
        </g>
    </g>
</svg>