<?xml version="1.0" encoding="UTF-8" standalone="no"?>
<svg width="22px" height="17px" viewBox="0 0 22 17" version="1.1" xmlns="http://www.w3.org/2000/svg" xmlns:xlink="http://www.w3.org/1999/xlink">
    <!-- Generator: Sketch 3.6.1 (26313) - http://www.bohemiancoding.com/sketch -->
    <title>pictures</title>
    <desc>Created with Sketch.</desc>
    <defs></defs>
    <g id="Iconography" stroke="none" stroke-width="1" fill="none" fill-rule="evenodd">
        <g id="New-Icons---Gold-Release" transform="translate(-1081.000000, -220.000000)">
            <g id="pictures" transform="translate(1080.000000, 216.000000)">
                <g id="Group">
                    <g id="Frame_-_24px">
                        <rect id="Rectangle-path" x="0" y="0" width="24" height="24"></rect>
                    </g>
                    <g id="Filled_Icons" transform="translate(1.000000, 4.000000)" fill="#000000">
                        <g id="Group">
                            <path d="M16,3.001 L16,2.001 C16,0.897 15.104,0.001 14,0.001 L2,0.001 C0.895,0.001 0,0.897 0,2.001 L0,10.001 C0,11.105 0.895,12.001 2,12.001 L4,12.001 L4,5 C4,3.896 4.896,3 6,3 L16,3 L16,3.001 Z" id="Shape"></path>
                            <path d="M20,5 L8,5 C6.896,5 6,5.896 6,7 L6,15 C6,16.104 6.896,17 8,17 L20,17 C21.104,17 22,16.104 22,15 L22,7 C22,5.896 21.104,5 20,5 L20,5 Z M8,15 L10.828,10.463 L12.85,13.707 L16.023,8.619 L20,15 L8,15 L8,15 Z" id="Shape"></path>
                        </g>
                    </g>
                </g>
            </g>
        </g>
    </g>
</svg>