<?xml version="1.0" encoding="UTF-8" standalone="no"?>
<svg width="27px" height="21px" viewBox="0 0 27 21" version="1.1" xmlns="http://www.w3.org/2000/svg" xmlns:xlink="http://www.w3.org/1999/xlink" class="draw">
    <g id="Room-Final" stroke="none" stroke-width="1" fill="none" fill-rule="evenodd">
        <g id="Assets" transform="translate(-164.000000, -46.000000)" fill="#FFFFFF">
            <path d="M165.362734,48.0505013 C168.896476,48.1964609 170.70974,49.2214911 170.950758,50.5957554 C171.178323,51.893313 170.050608,53.6598135 167.923257,55.0195741 C165.173305,56.7772889 163.599449,59.6094643 164.088486,62.1329558 C164.640551,64.9816785 167.544334,66.681387 172.152749,66.6813867 C172.719216,66.6813867 173.178428,66.2221744 173.178428,65.6557074 C173.178428,65.0892403 172.719216,64.6300281 172.152749,64.6300281 C168.423293,64.6300283 166.43656,63.4671088 166.102376,61.7426765 C165.791326,60.1376189 166.929581,58.089314 169.028044,56.748018 C171.779902,54.9890851 173.367718,52.5018626 172.971278,50.241397 C172.526553,47.7056132 169.831237,46.181963 165.447392,46.0008903 C164.881408,45.9775126 164.403635,46.4173822 164.380257,46.9833667 C164.35688,47.5493511 164.796749,48.0271236 165.362734,48.0505013 Z M185.056196,51.719306 L188.253402,54.9557903 L180.160392,63.1482259 L176.96497,59.9117416 L185.056196,51.719306 L185.056196,51.719306 Z M190.679462,50.9387474 L189.253661,49.49543 C188.702597,48.9375959 187.807832,48.9375959 187.254925,49.49543 L185.889152,50.8779825 L189.086357,54.1144668 L190.679462,52.5017897 C191.106846,52.0690953 191.106846,51.3713816 190.679462,50.9387474 L190.679462,50.9387474 Z M175.291838,64.4608386 C175.233653,64.725918 175.470078,64.9634427 175.73194,64.8989777 L179.294719,64.0245043 L176.099297,60.7880801 L175.291838,64.4608386 Z" id="draw"></path>
        </g>
    </g>
</svg>