<?xml version="1.0" encoding="UTF-8" standalone="no"?>
<svg width="54px" height="53px" viewBox="0 0 54 53" version="1.1" xmlns="http://www.w3.org/2000/svg" xmlns:xlink="http://www.w3.org/1999/xlink">
    <!-- Generator: Sketch 3.6.1 (26313) - http://www.bohemiancoding.com/sketch -->
    <title>Group 2</title>
    <desc>Created with Sketch.</desc>
    <defs></defs>
    <g id="Icons" stroke="none" stroke-width="1" fill="none" fill-rule="evenodd">
        <g transform="translate(-62.000000, -1224.000000)" id="Group-2">
            <g transform="translate(62.000000, 1224.000000)">
                <rect id="Rectangle-327" fill="#DBDBDB" x="0" y="0" width="37.1" height="37.1" rx="2"></rect>
                <path d="M2,1.99465714 L2,1.99465714 L2,35.1053429 C2,35.0995613 2.00043782,35.1 1.99465714,35.1 L35.1053429,35.1 C35.0995613,35.1 35.1,35.0995622 35.1,35.1053429 L35.1,1.99465714 C35.1,2.00043868 35.0995622,2 35.1053429,2 L1.99465714,2 C2.00043868,2 2,2.00043782 2,1.99465714 L2,1.99465714 Z M0,1.99465714 C0,0.893038418 0.898701004,0 1.99465714,0 L35.1053429,0 C36.2069616,0 37.1,0.898701004 37.1,1.99465714 L37.1,35.1053429 C37.1,36.2069616 36.201299,37.1 35.1053429,37.1 L1.99465714,37.1 C0.893038418,37.1 0,36.201299 0,35.1053429 L0,1.99465714 L0,1.99465714 Z" id="Rectangle-327-Copy-3" fill="#8E9093"></path>
                <rect id="Rectangle-327-Copy-2" fill="#FFFFFF" x="16" y="15.9" width="37.1" height="37.1" rx="2"></rect>
                <path d="M17.9,17.8946571 L17.9,17.8946571 L17.9,51.0053429 C17.9,50.9995613 17.9004378,51 17.8946571,51 L51.0053429,51 C50.9995613,51 51,50.9995622 51,51.0053429 L51,17.8946571 C51,17.9004387 50.9995622,17.9 51.0053429,17.9 L17.8946571,17.9 C17.9004387,17.9 17.9,17.9004378 17.9,17.8946571 L17.9,17.8946571 Z M15.9,17.8946571 C15.9,16.7930384 16.798701,15.9 17.8946571,15.9 L51.0053429,15.9 C52.1069616,15.9 53,16.798701 53,17.8946571 L53,51.0053429 C53,52.1069616 52.101299,53 51.0053429,53 L17.8946571,53 C16.7930384,53 15.9,52.101299 15.9,51.0053429 L15.9,17.8946571 L15.9,17.8946571 Z" id="Rectangle-327-Copy" fill="#8E9093"></path>
            </g>
        </g>
    </g>
</svg>