<svg viewBox="0 0 259 208" xmlns="http://www.w3.org/2000/svg">
    <title>
        Slice 1
    </title>
    <path d="M256.525 85.076c-8.896-42.984-60.756-69.622-109.06-79.92-4.137-.883-4.404-.01-.842 2.273 18.43 11.8 30.647 32.46 30.647 55.97 0 36.69-29.743 66.43-66.434 66.43-1.256 0-4.046-2.46.076-3.42 29.457-6.81 51.418-31.498 51.418-63.02 0-28.83-17.373-56.07-44.03-61.78-13.677-2.93-26.615-1.38-36.605.69C17.18 15.66-21.072 96.764 12.323 191.85c3.06 8.714 17.423 5.17 17.423-.19 0-26.04 16.36-63.605 50.304-60.29 4.134.403 12.944 64.795 15.72 73.7 9.385 3.16 30.265 2.777 40.148 0 .335-21.574 13.47-35.22 29.865-35.22 16.047 0 29.155 14.324 30.02 35.26 8.897 1.62 24.816 2.23 31.353-.04 5.328-12.056 39.77-69.73 29.37-119.99zM53.04 67.136c-2.75 0-4.98-2.23-4.98-4.98 0-2.75 2.23-4.98 4.98-4.98 2.75 0 4.98 2.23 4.98 4.98 0 2.75-2.23 4.98-4.98 4.98z" fill="#D4469A" fill-rule="evenodd">
</path>
</svg>
