<?xml version="1.0" encoding="UTF-8" standalone="no"?>
<svg width="20px" height="20px" viewBox="0 0 20 20" version="1.1" xmlns="http://www.w3.org/2000/svg" xmlns:xlink="http://www.w3.org/1999/xlink">
    <!-- Generator: Sketch 3.8.3 (29802) - http://www.bohemiancoding.com/sketch -->
    <title>expand</title>
    <desc>Created with Sketch.</desc>
    <defs></defs>
    <g id="Iconography" stroke="none" stroke-width="1" fill="none" fill-rule="evenodd">
        <g id="New-Icons---Gold-Release" transform="translate(-890.000000, -266.000000)" fill="#000000">
            <g id="expand" transform="translate(890.000000, 266.000000)">
                <path d="M1,1.99079514 L1,1.99079514 L1,18.0092049 C1,18.5524218 1.44650875,19 1.99079514,19 L18.0092049,19 C18.5524218,19 19,18.5534913 19,18.0092049 L19,1.99079514 C19,1.4475782 18.5534913,1 18.0092049,1 L1.99079514,1 C1.4475782,1 1,1.44650875 1,1.99079514 L1,1.99079514 Z M0,1.99079514 C0,0.891309342 0.898212381,0 1.99079514,0 L18.0092049,0 C19.1086907,0 20,0.898212381 20,1.99079514 L20,18.0092049 C20,19.1086907 19.1017876,20 18.0092049,20 L1.99079514,20 C0.891309342,20 0,19.1017876 0,18.0092049 L0,1.99079514 L0,1.99079514 Z"></path>
                <polygon points="11.0272603 9.00222158 16 9.00222158 16 11 11.0272603 11 11.0272603 16 9 16 9 11 4 11 4 9.00222158 9 9.00222158 9 4 11.0272603 4"></polygon>
            </g>
        </g>
    </g>
</svg>