<svg viewBox="0 0 126 29" xmlns="http://www.w3.org/2000/svg">
    <path d="M.95 28.13c.827.072 1.655.108 2.375.108 1.44 0 2.196-.108 2.196-.108V16.25h9.977c.072-.72.108-1.332.108-1.98 0-1.332-.107-2.268-.107-2.268H5.52V5.234h10.693c.072-.72.108-1.44.108-2.088 0-1.332-.103-2.124-.103-2.124H.95V28.13zm32.11-7.452s.145-.828.145-2.124c0-5.292-2.808-8.676-7.596-8.676-5.117 0-7.997 3.024-7.997 9.108 0 6.228 2.484 9.396 8.64 9.396 3.924 0 6.156-1.08 6.156-1.08s-.216-1.908-1.116-3.744c0 0-2.016.972-5.04.972-2.484 0-4.212-1.116-4.212-3.852H33.06zm-7.45-6.984c2.16 0 2.95 1.62 2.95 3.024v.54h-6.443c.036-2.088 1.044-3.564 3.492-3.564zm15.91 14.58c3.96 0 8.065-.144 8.065-.144V16.034c0-4.608-2.52-6.156-7.524-6.156-3.27 0-5.61.9-5.61.9.287 2.232 1.583 3.888 1.583 3.888s1.656-.9 4.03-.9c1.766 0 3.098.432 3.098 2.484v.936h-3.31c-4.61 0-6.3 1.98-6.3 5.508 0 3.564 1.655 5.58 5.975 5.58zm.36-3.42c-1.69 0-2.015-1.008-2.015-2.16 0-1.116.216-2.268 2.34-2.232l2.952.036v4.248s-1.836.108-3.276.108zm11.413 3.276c.756.072 1.476.108 2.124.108 1.296 0 2.268-.108 2.268-.108V13.91h4.608s.108-.9.108-2.052c0-.576-.03-1.224-.103-1.836H57.69V5.234l-4.393.936v21.96zM78.78 10.022s-1.007-.108-2.303-.108c-.648 0-1.368.036-2.124.108v12.276c0 1.62-.972 2.16-2.664 2.16-1.697 0-2.67-.54-2.67-2.16V10.022s-.97-.108-2.267-.108c-.648 0-1.404.036-2.16.108v12.96c0 4.572 2.484 5.364 7.092 5.364 4.607 0 7.09-.792 7.09-5.4V10.022zm8.64-.108c-2.807 0-4.607.252-4.607.252V28.13c.72.072 1.476.108 2.124.108 1.296 0 2.304-.108 2.304-.108V13.982s.87-.072 2.2-.072c1.225 0 2.63.144 2.63.144.07-.648.107-1.368.107-1.944 0-1.152-.108-2.016-.108-2.016s-1.585-.18-4.645-.18zm20.413 10.764s.144-.828.144-2.124c0-5.292-2.808-8.676-7.596-8.676-5.11 0-7.99 3.024-7.99 9.108 0 6.228 2.487 9.396 8.64 9.396 3.927 0 6.16-1.08 6.16-1.08s-.217-1.908-1.117-3.744c0 0-2.016.972-5.04.972-2.484 0-4.212-1.116-4.212-3.852h11.017zm-7.452-6.984c2.16 0 2.957 1.62 2.957 3.024v.54H96.89c.035-2.088 1.043-3.564 3.49-3.564zm17.68 14.58c3.637 0 7.92-.144 7.92-.144V1.022s-.97-.108-2.27-.108c-.65 0-1.402.036-2.16.108v9s-2.302-.108-3.17-.108c-5.29 0-7.88 3.744-7.88 8.892 0 6.588 2.23 9.468 7.56 9.468zm.36-3.78c-2.52 0-3.383-1.98-3.383-5.688 0-2.736 1.152-4.932 3.708-4.932h2.81v10.62h-3.133z" fill-rule="evenodd">
</path>
</svg>
