<svg viewBox="0 0 50 44" xmlns="http://www.w3.org/2000/svg">
    <path d="M.643 19.606c0-1.108.89-2.006 1.996-2.006h29.94c1.1 0 1.99.894 1.99 2.006v22.388c0 1.108-.89 2.006-2 2.006H2.64c-1.103 0-1.997-.894-1.997-2.006V19.606zm7.663-3.656c3.627 0 6.568-2.955 6.568-6.6 0-3.645-2.94-6.6-6.568-6.6-3.628 0-6.568 2.955-6.568 6.6 0 3.645 2.94 6.6 6.568 6.6zm0-4.4c1.21 0 2.19-.985 2.19-2.2 0-1.215-.98-2.2-2.19-2.2s-2.19.985-2.19 2.2c0 1.215.98 2.2 2.19 2.2zM25 15.95c4.383 0 7.937-3.57 7.937-7.975C32.937 3.57 29.383 0 25 0c-4.383 0-7.937 3.57-7.937 7.975 0 4.404 3.554 7.975 7.937 7.975zM25 11c1.663 0 3.01-1.354 3.01-3.025 0-1.67-1.347-3.025-3.01-3.025-1.663 0-3.01 1.354-3.01 3.025C21.99 9.645 23.337 11 25 11zm11.22 15.344c0-1.1.883-2.19 1.953-2.425l9.232-2.04c1.078-.24 1.952.47 1.952 1.56V37.6c0 1.1-.862 1.786-1.938 1.526l-9.26-2.236c-1.07-.26-1.94-1.356-1.94-2.463v-8.09z" fill-rule="evenodd">
</path>
</svg>
