<?xml version="1.0" encoding="UTF-8" standalone="no"?>
<svg width="13px" height="13px" viewBox="0 0 13 13" version="1.1" xmlns="http://www.w3.org/2000/svg" xmlns:xlink="http://www.w3.org/1999/xlink">
    <!-- Generator: Sketch 39.1 (31720) - http://www.bohemiancoding.com/sketch -->
    <title>first</title>
    <desc>Created with Sketch.</desc>
    <defs></defs>
    <g id="Iconography" stroke="none" stroke-width="1">
        <g id="New-Icons---Gold-Release" transform="translate(-1181.000000, -341.000000)">
            <path d="M1193.42564,353.264664 L1192.85195,353.841287 C1192.6417,354.052904 1192.2972,354.052904 1192.08694,353.841287 L1186.75646,348.483809 C1186.74855,348.476424 1186.73923,348.471027 1186.73131,348.463073 L1186.15763,347.886451 C1186.02593,347.753799 1185.97676,347.568314 1186.01011,347.396464 C1186.02961,347.292501 1186.07878,347.193367 1186.15847,347.113549 L1186.73216,346.536927 C1186.73753,346.53153 1186.74403,346.527553 1186.74968,346.52244 L1192.08638,341.158713 C1192.29664,340.947096 1192.64085,340.947096 1192.85111,341.158713 L1193.42508,341.735336 C1193.63533,341.94667 1193.63533,342.292643 1193.42508,342.504261 L1188.45492,347.499574 L1193.42564,352.495739 C1193.6359,352.707357 1193.6359,353.05333 1193.42564,353.264664 Z M1183,341.998502 C1183,341.447045 1182.55614,341 1182,341 C1181.44772,341 1181,341.447489 1181,341.998502 L1181,353.001498 C1181,353.552955 1181.44386,354 1182,354 C1182.55228,354 1183,353.552511 1183,353.001498 L1183,341.998502 Z" id="first"></path>
        </g>
    </g>
</svg>
