<svg xmlns="http://www.w3.org/2000/svg" viewBox="-213 223 76 56">
    <path fill="#fff" d="M-209 224h21.6c1.7 0 3 1.3 3 3v21.4c0 1.7-1.3 3-3 3H-209c-1.7 0-3-1.3-3-3V227c0-1.7 1.3-3 3-3z">
</path>
    <path d="M-187.4 252.4H-209c-2.2 0-4-1.8-4-4V227c0-2.2 1.8-4 4-4h21.6c2.2 0 4 1.8 4 4v21.4c0 2.2-1.7 4-4 4zM-209 225c-1.1 0-2 .9-2 2v21.4c0 1.1.9 2 2 2h21.6c1.1 0 2-.9 2-2V227c0-1.1-.9-2-2-2H-209z">
</path>
    <path d="M-191.1 234.1c-.6-.6-1.4-.9-2.2-.9-.8 0-1.6.3-2.2.9l-11.8 17.2h21.2c1 0 1.8-.8 1.8-1.8v-8.7l-6.8-6.7zm-19 4.2l-1.9 1.9v9.4c0 1 .8 1.8 1.8 1.8h.6l6.6-9.4-3.7-3.7c-.9-.9-2.4-.9-3.4 0zm5.4-5.1c1.5 0 2.7-1.2 2.7-2.7s-1.2-2.7-2.7-2.7-2.7 1.2-2.7 2.7 1.2 2.7 2.7 2.7z">
</path>
    <path fill="#fff" d="M-162.648 224h21.6c1.7 0 3 1.3 3 3v21.4c0 1.7-1.3 3-3 3h-21.6c-1.7 0-3-1.3-3-3V227c0-1.7 1.3-3 3-3z">
</path>
    <path d="M-141.048 252.4h-21.6c-2.2 0-4-1.8-4-4V227c0-2.2 1.8-4 4-4h21.6c2.2 0 4 1.8 4 4v21.4c0 2.2-1.7 4-4 4zm-21.6-27.4c-1.1 0-2 .9-2 2v21.4c0 1.1.9 2 2 2h21.6c1.1 0 2-.9 2-2V227c0-1.1-.9-2-2-2h-21.6z">
</path>
    <path d="M-144.748 234.1c-.6-.6-1.4-.9-2.2-.9-.8 0-1.6.3-2.2.9l-11.8 17.2h21.2c1 0 1.8-.8 1.8-1.8v-8.7l-6.8-6.7zm-19 4.2l-1.9 1.9v9.4c0 1 .8 1.8 1.8 1.8h.6l6.6-9.4-3.7-3.7c-.9-.9-2.4-.9-3.4 0zm5.4-5.1c1.5 0 2.7-1.2 2.7-2.7s-1.2-2.7-2.7-2.7-2.7 1.2-2.7 2.7 1.2 2.7 2.7 2.7z">
</path>
    <path fill="#fff" d="M-192.736 237.7h34.7c1.7 0 3 1.3 3 3V275c0 1.7-1.3 3-3 3h-34.7c-1.7 0-3-1.3-3-3v-34.3c0-1.7 1.3-3 3-3z">
</path>
    <path d="M-158.036 279h-34.7c-2.2 0-4-1.8-4-4v-34.3c0-2.2 1.8-4 4-4h34.7c2.2 0 4 1.8 4 4V275c0 2.2-1.8 4-4 4zm-34.7-40.3c-1.1 0-2 .9-2 2V275c0 1.1.9 2 2 2h34.7c1.1 0 2-.9 2-2v-34.3c0-1.1-.9-2-2-2h-34.7z">
</path>
    <path d="M-165.036 252.6c-.9-.9-2.1-1.4-3.3-1.4-1.2 0-2.4.5-3.3 1.4l-17.4 25.3h31.2c1.5 0 2.7-1.2 2.7-2.7v-12.8l-9.9-9.8zm-27.9 6.1l-2.8 2.8v13.8c0 1.5 1.2 2.7 2.7 2.7h.8l9.7-13.8-5.5-5.4c-1.3-1.4-3.5-1.4-4.9-.1zm7.9-7.5c2.2 0 4-1.7 4-3.9s-1.8-3.9-4-3.9-4 1.7-4 3.9 1.8 3.9 4 3.9z">
</path>
</svg>
