<?xml version="1.0" encoding="UTF-8" standalone="no"?>
<svg width="48px" height="48px" viewBox="0 0 48 48" version="1.1" xmlns="http://www.w3.org/2000/svg" xmlns:xlink="http://www.w3.org/1999/xlink">
    <defs/>
    <g id="Icons-(Lightyear)" stroke="none" stroke-width="1" fill="none" fill-rule="evenodd">
        <g id="Icons" transform="translate(-1222.000000, -1123.000000)" fill="#000000">
            <g id="image" transform="translate(1222.000000, 1123.000000)">
                <path d="M2,3.00499916 L2,3.00499916 L2,44.1737413 C2,44.7353666 2.44296013,45.1787404 2.99569936,45.1787404 L44.6054799,45.1787404 C45.150299,45.1787404 45.6011793,44.7271595 45.6011793,44.1737413 L45.6011793,3.00499916 C45.6011793,2.44337386 45.1582192,2 44.6054799,2 L2.99569936,2 C2.4508803,2 2,2.45158098 2,3.00499916 L2,3.00499916 L2,3.00499916 Z M0,3.00499916 C0,1.34538395 1.34793353,0 2.99569936,0 L44.6054799,0 C46.259959,0 47.6011793,1.33597124 47.6011793,3.00499916 L47.6011793,44.1737413 C47.6011793,45.8333565 46.2532458,47.1787404 44.6054799,47.1787404 L2.99569936,47.1787404 C1.34122029,47.1787404 0,45.8427692 0,44.1737413 L0,3.00499916 L0,3.00499916 L0,3.00499916 Z" id="Shape"/>
                <path d="M35.9716123,17.4744655 C34.9345809,16.4463982 33.5271812,15.8589312 32.1197815,15.8589312 C30.7123818,15.8589312 29.3049821,16.4463982 28.2679508,17.4744655 L7.8700702,47.1342298 L44.4169777,47.1342298 C46.1755638,47.1342298 47.6011794,45.7115423 47.6011793,43.9760988 L47.6011782,29.0035063 L35.9716123,17.4744655 L35.9716123,17.4744655 L35.9716123,17.4744655 L35.9716123,17.4744655 Z M3.31403436,24.5675754 L0,27.8534081 L0,41.2185554 L0,43.9821518 C0,45.7166336 1.42381633,47.1227092 3.17770413,47.1227095 L4.13727785,47.1227096 L15.4654937,30.9201852 L9.05836058,24.5675754 C7.51181121,23.0341868 4.93422893,23.0341868 3.31403436,24.5675754 L3.31403436,24.5675754 L3.31403436,24.5675754 L3.31403436,24.5675754 Z M12.5150814,15.805355 C15.0926637,15.805355 17.1547295,13.760837 17.1547295,11.2051894 C17.1547295,8.64954175 15.0926637,6.60502366 12.5150814,6.60502366 C9.93749911,6.60502366 7.87543329,8.64954175 7.87543329,11.2051894 C7.87543329,13.760837 9.93749911,15.805355 12.5150814,15.805355 L12.5150814,15.805355 L12.5150814,15.805355 L12.5150814,15.805355 L12.5150814,15.805355 Z" id="mountains"/>
            </g>
        </g>
    </g>
</svg>