<?xml version="1.0" encoding="UTF-8" standalone="no"?>
<svg width="20px" height="21px" viewBox="0 0 20 21" version="1.1" xmlns="http://www.w3.org/2000/svg" xmlns:xlink="http://www.w3.org/1999/xlink">
    <!-- Generator: Sketch 39.1 (31720) - http://www.bohemiancoding.com/sketch -->
    <title>images</title>
    <desc>Created with Sketch.</desc>
    <defs></defs>
    <path d="M19.25,20.0496875 L1.75,20.0496875 C1.05875,20.0496875 0.5,19.4896875 0.5,18.7996875 L0.5,1.2996875 C0.5,0.6096875 1.05875,0.0496875 1.75,0.0496875 L19.25,0.0496875 C19.94125,0.0496875 20.5,0.6096875 20.5,1.2996875 L20.5,18.7996875 C20.5,19.4896875 19.94125,20.0496875 19.25,20.0496875 Z M13.2985474,7.68808105 L9.68978481,13.1012249 L7.72086182,10.4769238 L3.53759766,16.0546094 L17.4818115,16.0546094 L13.2985474,7.68808105 Z M6.52984619,8.12106445 C7.63441569,8.12106445 8.52984619,7.22563395 8.52984619,6.12106445 C8.52984619,5.01649495 7.63441569,4.12106445 6.52984619,4.12106445 C5.42527669,4.12106445 4.52984619,5.01649495 4.52984619,6.12106445 C4.52984619,7.22563395 5.42527669,8.12106445 6.52984619,8.12106445 Z" id="Combined-Shape"></path>
</svg>