<svg version="1.1" xmlns="http://www.w3.org/2000/svg" xmlns:xlink="http://www.w3.org/1999/xlink" x="0px" y="0px"
	  viewBox="0 0 24 24" enable-background="new 0 0 24 24" xml:space="preserve">
		<path d="M18,7.227V8h-2l3,3l3-3h-2V7.227C20,3.954,18.131,2,15,2h-1v2h1C15.742,4,18,4,18,7.227z"></path>
		<path  d="M9,16c1.104,0,2-0.896,2-2V4c0-1.105-0.896-2-2-2H3C1.895,2,1,2.895,1,4v10c0,1.104,0.895,2,2,2H9z"></path>
		<path  d="M19,13h-6v2h6v5H5v-2H3v2c0,1.103,0.897,2,2,2h14c1.103,0,2-0.897,2-2v-5C21,13.898,20.103,13,19,13z"></path>
</svg>
