<svg class="folder-open" xmlns="http://www.w3.org/2000/svg" viewBox="0 0 536.461 536.46">
    <path d="M144.752 263.52c19.603-9.038 38.354-13.56 56.243-13.56h237.548v-45.68c0-17.51-6.283-32.555-18.85-45.118-12.565-12.562-27.596-18.842-45.11-18.842H219.266v-9.136c0-17.51-6.28-32.548-18.842-45.107-12.563-12.562-27.6-18.846-45.11-18.846h-91.36c-17.512 0-32.55 6.29-45.112 18.85C6.28 98.64 0 113.67 0 131.19v274.08c0 .763.05 1.954.144 3.575.094 1.615.144 2.807.144 3.566l1.426-1.71L97.93 297.64c11.61-13.707 27.218-25.08 46.822-34.118z">
</path>
    <path d="M528.898 290.214c-5.04-2.478-10.797-3.72-17.272-3.72h-310.63c-12.563 0-26.22 3.38-40.97 10.14-14.75 6.766-26.218 14.986-34.4 24.7l-95.93 113.06c-5.902 6.662-8.853 12.945-8.853 18.85 0 5.707 2.523 9.8 7.566 12.27 5.04 2.48 10.8 3.717 17.27 3.717h310.64c12.56 0 26.21-3.38 40.96-10.13 14.75-6.75 26.21-14.99 34.4-24.7l95.93-113.06c5.9-6.66 8.84-12.94 8.84-18.85 0-5.7-2.52-9.79-7.57-12.27z">
</path>
</svg>
