<?xml version="1.0" encoding="UTF-8" standalone="no"?>
<svg viewBox="1 2 20 20 " version="1.1" xmlns="http://www.w3.org/2000/svg" xmlns:xlink="http://www.w3.org/1999/xlink">
    <g id="Filled_Icons" transform="translate(1.000000, 1.000000)">
        <path d="M12.412,10.998 L18.054,5.357 C18.445,4.967 18.445,4.335 18.055,3.944 C16.158,2.045 13.653,0.998 10.998,0.998 C5.484,0.998 0.998,5.485 0.998,10.998 C0.998,16.512 5.484,20.998 10.998,20.998 C13.652,20.998 16.158,19.953 18.055,18.053 C18.445,17.662 18.445,17.03 18.054,16.64 L12.412,10.998 L12.412,10.998 Z M9.498,7.996 C8.67,7.996 7.998,7.324 7.998,6.496 C7.998,5.668 8.67,4.996 9.498,4.996 C10.326,4.996 10.998,5.668 10.998,6.496 C10.998,7.324 10.326,7.996 9.498,7.996 L9.498,7.996 Z" id="Shape"></path>
    </g>
</svg>