<svg viewBox="0 0 32 19" xmlns="http://www.w3.org/2000/svg">
    <path d="M13.933 8.99H.86A.862.862 0 0 1 0 8.132V1.53C0 1.057.387.67.86.67h13.073c.473 0 .86.387.86.86V8.13c0 .473-.387.86-.86.86zm16.497 0H17.356a.862.862 0 0 1-.86-.859V1.53c0-.473.387-.86.86-.86H30.43c.472 0 .859.387.859.86V8.13c0 .473-.387.86-.86.86zm0 9.938H17.356a.862.862 0 0 1-.86-.859v-6.601c0-.473.387-.86.86-.86H30.43c.472 0 .859.387.859.86v6.601c0 .473-.387.86-.86.86zm-16.497 0H.86A.862.862 0 0 1 0 18.07v-6.601c0-.473.387-.86.86-.86h13.073c.473 0 .86.387.86.86v6.601c0 .473-.387.86-.86.86z"></path>
</svg>