<svg viewBox="0 0 16 15" xmlns="http://www.w3.org/2000/svg">
    <path d="M3.803 8.276l.666-2.483H2.75c-.61 0-1.102-.49-1.102-1.103 0-.61.495-1.104 1.103-1.104h2.31l.69-2.563c.16-.588.76-.937 1.35-.78.59.16.94.764.78 1.35l-.53 1.993h3.236l.686-2.563c.157-.588.758-.937 1.35-.78.59.16.94.764.78 1.35l-.532 1.993h2.03c.61 0 1.1.49 1.1 1.104 0 .61-.493 1.103-1.1 1.103h-2.63l-.665 2.483h1.863c.61 0 1.102.49 1.102 1.103 0 .61-.494 1.1-1.102 1.1h-2.454l-.76 2.84c-.158.58-.76.93-1.352.77-.588-.16-.938-.768-.78-1.35l.607-2.27H5.49l-.76 2.84c-.158.583-.76.932-1.352.773-.59-.158-.937-.763-.78-1.35l.608-2.268h-1.88c-.606.005-1.1-.485-1.1-1.1 0-.61.493-1.105 1.1-1.105h2.477zm2.285 0l.665-2.483h3.233L9.32 8.276H6.09z" fill-rule="evenodd">
</path>
</svg>
