<?xml version="1.0" encoding="UTF-8" standalone="no"?>
<svg viewBox="-1 0 20 20" version="1.1" xmlns="http://www.w3.org/2000/svg" xmlns:xlink="http://www.w3.org/1999/xlink">
    <path d="M16.562,9.019 C15.547,4.586 14.499,3.55271368e-14 8.001,3.55271368e-14 C3.59,3.55271368e-14 0.001,3.589 0.001,8 L0.001,20 L12.001,20 L12.001,17 L13.001,17 C14.104,17 15.001,16.103 15.001,15 L15.001,12 L17.282,12 C17.282,12 16.692,9.592 16.562,9.019 Z M7.65964403,8.91264595 C7.59391921,9.16347331 7.49600265,9.39887546 7.37058897,9.6188524 L8.12843635,10.3766998 L7.0312343,11.4732312 L6.27271626,10.7153838 C6.05340998,10.8414681 5.81800783,10.9393847 5.56650981,11.0037682 L5.56650981,12.2055934 L4.1037973,12.2055934 L4.1037973,11.0044388 C3.85296994,10.9400553 3.61756779,10.8421388 3.39826151,10.7160544 L2.63974348,11.4739018 L1.54321209,10.3773704 L2.30173013,9.61952306 C2.17631645,9.39887546 2.07839989,9.16414397 2.01267507,8.91331661 L0.812191169,8.91331661 L0.812191169,7.44993344 L2.01267507,7.44993344 C2.07839989,7.19977674 2.17631645,6.96504525 2.30173013,6.74372699 L1.54321209,5.98587961 L2.6410848,4.88867757 L3.39960284,5.64652495 C3.61890911,5.5204406 3.85431126,5.4231947 4.10513863,5.35814054 L4.10513863,4.15698598 L5.56785113,4.15698598 L5.56785113,5.35814054 C5.81934916,5.4231947 6.05475131,5.5204406 6.27405758,5.64652495 L7.03257562,4.88867757 L8.12977767,5.98587961 L7.37193029,6.74372699 C7.49734397,6.96504525 7.59526054,7.19910608 7.66098535,7.44993344 L8.86012793,7.44993344 L8.86012793,8.91264595 L7.65964403,8.91264595 Z M4.83615955,9.79121133 C5.7251101,9.79121133 6.4457469,9.07057453 6.4457469,8.18162398 C6.4457469,7.29267343 5.7251101,6.57203663 4.83615955,6.57203663 C3.947209,6.57203663 3.2265722,7.29267343 3.2265722,8.18162398 C3.2265722,9.07057453 3.947209,9.79121133 4.83615955,9.79121133 Z M13.0217372,5.18341967 C12.9731828,5.36871934 12.9008466,5.54262358 12.8081967,5.70513238 L13.3680594,6.26499503 L12.5574972,7.07506178 L11.9971391,6.51519913 C11.8351257,6.60834442 11.6612215,6.68068066 11.4754263,6.72824421 L11.4754263,7.61609719 L10.3948419,7.61609719 L10.3948419,6.72873967 C10.2095422,6.68117611 10.035638,6.60883988 9.87362463,6.51569459 L9.31326653,7.07555724 L8.50319977,6.26549048 L9.06355788,5.70562784 C8.97090804,5.54262358 8.8985718,5.3692148 8.85001734,5.18391512 L7.96315527,5.18391512 L7.96315527,4.10283521 L8.85001734,4.10283521 C8.8985718,3.91803099 8.97090804,3.74462221 9.06355788,3.5811225 L8.50319977,3.02125985 L9.31425743,2.21069765 L9.87461553,2.77056029 C10.0366289,2.677415 10.2105331,2.60557422 10.3958328,2.55751522 L10.3958328,1.67015769 L11.4764172,1.67015769 L11.4764172,2.55751522 C11.6622124,2.60557422 11.8361166,2.677415 11.99813,2.77056029 L12.5584881,2.21069765 L13.3690503,3.02125985 L12.8091876,3.5811225 C12.9018375,3.74462221 12.9741737,3.91753554 13.0227282,4.10283521 L13.9085993,4.10283521 L13.9085993,5.18341967 L13.0217372,5.18341967 Z M10.9358773,5.8324632 C11.5925929,5.8324632 12.1249661,5.30009001 12.1249661,4.6433744 C12.1249661,3.98665878 11.5925929,3.45428559 10.9358773,3.45428559 C10.2791617,3.45428559 9.74678849,3.98665878 9.74678849,4.6433744 C9.74678849,5.30009001 10.2791617,5.8324632 10.9358773,5.8324632 Z" id="Shape"></path>
</svg>