<svg viewBox="0 0 18 18" fill="none" xmlns="http://www.w3.org/2000/svg">
<path fill-rule="evenodd" clip-rule="evenodd" d="M2 0C0.895431 0 0 0.89543 0 2V16C0 17.1046 0.89543 18 2 18H16C17.1046 18 18 17.1046 18 16V2C18 0.895431 17.1046 0 16 0H2ZM6.57422 12.0234H7.86182V5.625H6.57422V8.21338H4.66699V5.625H3.375V12.0234H4.66699V9.28564H6.57422V12.0234ZM13.667 5.625L13.0605 9.646L12.3091 5.625H11.2236L10.4722 9.6416L9.87012 5.625H8.58252L9.7251 12.0234H11.0259L11.7642 8.25293L12.5112 12.0234H13.8076L14.9458 5.625H13.667Z"/>
</svg>
