<?xml version="1.0" encoding="UTF-8" standalone="no"?>
<svg viewBox="0 0 17 20" version="1.1" xmlns="http://www.w3.org/2000/svg" xmlns:xlink="http://www.w3.org/1999/xlink">
    <!-- Generator: sketchtool 3.8.3 (29802) - http://www.bohemiancoding.com/sketch -->
    <title>59B277B8-4245-4E8C-8DF2-5A0F1B6018AD</title>
    <desc>Created with sketchtool.</desc>
    <defs></defs>
    <g id="Room-Final" stroke="none" stroke-width="1" fill="none" fill-rule="evenodd">
        <g id="Profile-Menu" transform="translate(-66.000000, -619.000000)" fill="#4C4F52">
            <path d="M82.97,629.758 C82.824,629.173 82.691,628.591 82.56,628.02 C81.546,623.586 80.498,619 74,619 C69.589,619 66,622.589 66,627 L66,638 C66,638.552 66.448,639 67,639 L77,639 C77.552,639 78,638.552 78,638 L78,636 L79,636 C80.103,636 81,635.103 81,634 L81,631 L82,631 C82.308,631 82.599,630.858 82.788,630.615 C82.978,630.373 83.045,630.057 82.97,629.758 Z M73,623 L75,623 L75,625 L73,625 L73,623 Z M77.6476575,627.078233 L76.3149242,625.588378 L77.8047789,624.255645 L79.1375122,625.745499 L77.6476575,627.078233 Z M68.8619576,625.745331 L70.1946909,624.255477 L71.6845456,625.58821 L70.3518123,627.078065 L68.8619576,625.745331 Z M74,626 C72.343,626 71,627.344 71,629 C71,630.926 73,631.988 73,631.988 L73,632 L73,633 C73,633.553 73.447,634 74,634 C74.553,634 75,633.553 75,633 L75,632 L75,631.988 C75,631.988 77,630.925 77,629 C77,627.344 75.656,626 74,626 Z M80,629 C79.448,629 79,629.448 79,630 L79,634 L77,634 C76.448,634 76,634.448 76,635 L76,637 L68,637 L68,627 C68,623.691 70.691,621 74,621 C78.685,621 79.489,623.561 80.611,628.465 C80.652,628.643 80.692,628.82 80.734,629 L80,629 Z" id="idea"></path>
        </g>
    </g>
</svg>