<?xml version="1.0" encoding="UTF-8" standalone="no"?>
<svg viewBox="0 0 49 49" version="1.1" xmlns="http://www.w3.org/2000/svg" xmlns:xlink="http://www.w3.org/1999/xlink">
    <g id="Room-Layout-Drag" stroke="none" stroke-width="1" fill="none" fill-rule="evenodd">
        <g id="Memory---Default-View-(Enter-Names)" transform="translate(-1320.000000, -465.000000)">
            <g id="Group-16" transform="translate(1319.121628, 464.222656)">
                <rect id="Rectangle-26-Copy" stroke="#979797" x="0.95454403" y="0.9296875" width="48" height="48"></rect>
                <rect id="Rectangle-26-Copy" stroke="#979797" fill="#D2D3D5" x="11.5508126" y="11.5721884" width="26.5356445" height="26.5825967"></rect>
                <path d="M30.5277861,20.6100006 C30.0413382,20.1445621 29.3811588,19.8785972 28.7209795,19.8785972 C28.0608001,19.8785972 27.4006208,20.1445621 26.9141729,20.6100006 L17.3459888,34.0379126 L34.4893158,34.0379126 C35.3142288,34.0379126 35.9829528,33.3938171 35.9829527,32.608127 L35.9829522,25.8295615 L30.5277861,20.6100006 L30.5277861,20.6100006 L30.5277861,20.6100006 Z M15.2088555,23.8212755 L13.654317,25.3088757 L13.654317,31.3597 L13.654317,32.6108673 C13.654317,33.396122 14.322197,34.0326969 15.1449061,34.032697 L15.5950204,34.0326971 L20.90883,26.6973025 L17.9033889,23.8212755 C17.1779376,23.127062 15.9688521,23.127062 15.2088555,23.8212755 L15.2088555,23.8212755 L15.2088555,23.8212755 Z M19.5248584,19.8543416 C20.7339439,19.8543416 21.7012123,18.9287237 21.7012123,17.7717013 C21.7012123,16.6146789 20.7339439,15.689061 19.5248584,15.689061 C18.3157729,15.689061 17.3485045,16.6146789 17.3485045,17.7717013 C17.3485045,18.9287237 18.3157729,19.8543416 19.5248584,19.8543416 L19.5248584,19.8543416 L19.5248584,19.8543416 L19.5248584,19.8543416 Z" id="mountains-copy-2" fill="#747678"></path>
            </g>
        </g>
    </g>
</svg>