<svg xmlns="http://www.w3.org/2000/svg" viewBox="0 0 49 49">
    <g fill="none" fill-rule="evenodd">
        <path stroke="#979797" d="M.11.152h48v48h-48z"/>
        <path fill="#D2D3D5" stroke="#979797" d="M10.38 8.795h26.537v30.792H10.38z"/>
        <path fill="#747678" d="M28.442 17.227a2.22 2.22 0 0 0-1.517-.614 2.22 2.22 0 0 0-1.517.614l-8.033 11.274h14.393c.693 0 1.254-.54 1.254-1.2V21.61l-4.58-4.383zm-12.861 2.697l-1.305 1.248v6.131c0 .66.56 1.194 1.251 1.194h.378l4.461-6.159-2.523-2.414c-.61-.583-1.624-.583-2.262 0zm3.623-3.331c1.015 0 1.827-.777 1.827-1.749 0-.97-.812-1.748-1.827-1.748s-1.827.777-1.827 1.748c0 .972.812 1.749 1.827 1.749z"/>
        <path fill="#D8D8D8" stroke="#979797" d="M12.57 32.19h22.317v4.873H12.57z"/>
    </g>
</svg>
