<svg xmlns="http://www.w3.org/2000/svg" viewBox="-424 446 29.6 29.4">
    <path fill="#fff" d="M-420 447h21.6c1.7 0 3 1.3 3 3v21.4c0 1.7-1.3 3-3 3H-420c-1.7 0-3-1.3-3-3V450c0-1.7 1.3-3 3-3z">
</path>
    <path d="M-398.4 475.4H-420c-2.2 0-4-1.8-4-4V450c0-2.2 1.8-4 4-4h21.6c2.2 0 4 1.8 4 4v21.4c0 2.2-1.7 4-4 4zM-420 448c-1.1 0-2 .9-2 2v21.4c0 1.1.9 2 2 2h21.6c1.1 0 2-.9 2-2V450c0-1.1-.9-2-2-2H-420z">
</path>
    <path d="M-402.1 457.1c-.6-.6-1.4-.9-2.2-.9-.8 0-1.6.3-2.2.9l-11.8 17.2h21.2c1 0 1.8-.8 1.8-1.8v-8.7l-6.8-6.7zm-19 4.2l-1.9 1.9v9.4c0 1 .8 1.8 1.8 1.8h.6l6.6-9.4-3.7-3.7c-.9-.9-2.4-.9-3.4 0zm5.4-5.1c1.5 0 2.7-1.2 2.7-2.7s-1.2-2.7-2.7-2.7-2.7 1.2-2.7 2.7 1.2 2.7 2.7 2.7z">
</path>
</svg>
