<svg viewBox="0 0 30 35" xmlns="http://www.w3.org/2000/svg">
    <g fill-rule="evenodd">
        <path d="M21.702.274v4.342c0 .453.46.825.914.825h4.253L21.7.28">
</path>
        <path d="M14.995 32.584H1.702c-.786 0-1.428-.643-1.428-1.43V1.844c0-.784.642-1.4 1.428-1.4h19.286V4.94c0 .59.425 1.22 1.015 1.22h4.7v13.17c-1.41-.93-3.1-1.474-4.917-1.474-4.93 0-8.93 3.998-8.93 8.93 0 2.212.806 4.237 2.14 5.797zM8.12 9.286h3.19v1.253H5.714V9.28H8.12zM15 19.11H5.714v-1.253H15v1.252zm6.505-2.856H5.715V15h15.79v1.254zm0-2.858H5.715v-1.253h15.79v1.253z">
</path>
        <path d="M21.786 35C26.322 35 30 31.322 30 26.786c0-4.537-3.678-8.215-8.214-8.215-4.537 0-8.215 3.68-8.215 8.22S17.25 35 21.79 35zm.328-12.046c-.142-.156-.212-.344-.212-.564 0-.224.07-.415.212-.57.142-.157.312-.235.513-.235.2 0 .372.078.516.234.144.15.216.34.216.57 0 .22-.08.41-.22.56-.15.15-.32.23-.52.23s-.37-.08-.52-.24zm.725 1.897l-1.48 5.23c-.07.28-.11.45-.11.5 0 .08.01.14.04.19.02.06.08.09.18.09.162 0 .382-.14.66-.43.16-.17.36-.41.59-.73l.19.16-.075.11c-.365.517-.67.88-.91 1.11-.373.35-.74.528-1.095.528-.21 0-.385-.086-.524-.262-.14-.175-.21-.382-.21-.622 0-.14.01-.26.03-.37.02-.1.06-.26.11-.46l1.03-3.767.033-.16c.01-.05.014-.1.014-.148 0-.18-.066-.287-.196-.33-.13-.04-.384-.062-.765-.062v-.24c.405-.05.697-.087.875-.114l.54-.084c.238-.04.46-.08.67-.13.21-.05.33-.067.36-.05.028.015.04.036.034.06z">
</path>
    </g>
</svg>
