<svg viewBox="0 0 22 26" xmlns="http://www.w3.org/2000/svg">
    <g fill="none" fill-rule="evenodd">
        <path d="M1.723 0C.63 0 0 .558 0 1.65v20.22c0 1.085.542 1.53 1.63 1.53h9.47c1.126 1.044 2.636 1.682 4.294 1.682 3.493 0 6.326-2.832 6.326-6.325 0-2.042-.767-3.796-2.267-4.952L19.44 3.682 15.88 0H1.723z" fill="#fff">
</path>
        <path d="M10.775 22.83H1.587c-.543 0-.987-.444-.987-.987V1.586c0-.543.444-.97.987-.97h13.33v3.107c0 .407.293.842.7.842h3.248v9.106c-.974-.64-2.142-1.01-3.398-1.01-3.407 0-6.17 2.77-6.17 6.17 0 1.53.556 2.93 1.478 4.01zM15.41.5v3c0 .314.318.57.632.57h2.94L15.41.5zM6.022 6.728h2.205v.867H4.36v-.867h1.662zm4.756 6.79H4.36v-.866h6.418v.866zm4.496-1.974H4.36v-.866h10.914v.866zm0-1.975H4.36V8.7h10.914v.866zm.193 14.93c3.136 0 5.678-2.55 5.678-5.68s-2.542-5.68-5.678-5.68c-3.135 0-5.677 2.54-5.677 5.67s2.542 5.675 5.677 5.675zm.227-8.33c-.098-.11-.146-.24-.146-.39 0-.16.048-.29.146-.4.098-.11.216-.16.355-.16.13 0 .25.05.35.16.1.11.15.24.15.39 0 .156-.05.286-.15.393-.1.106-.22.16-.36.16-.14 0-.26-.055-.36-.163zm.5 1.31l-1.02 3.61c-.048.19-.072.3-.072.34 0 .05.01.093.03.13.017.04.06.06.127.06.11 0 .26-.1.45-.3.11-.117.25-.286.41-.505l.13.11-.05.072c-.26.353-.46.61-.63.763-.26.244-.52.365-.76.365-.15 0-.27-.06-.36-.18-.1-.12-.15-.263-.15-.43 0-.096.004-.18.02-.254.01-.07.04-.18.074-.32l.707-2.6.027-.11c.01-.034.01-.07.01-.1 0-.123-.043-.2-.13-.227-.09-.03-.268-.043-.53-.043v-.16c.28-.034.48-.06.603-.08.124-.017.25-.037.373-.057.162-.027.315-.057.46-.09.145-.035.227-.046.246-.034.016.01.024.024.02.04z" fill="#000">
</path>
    </g>
</svg>
