<svg viewBox="0 0 15 20" xmlns="http://www.w3.org/2000/svg">
    <g fill-rule="evenodd">
        <path d="M3.333 12h8.334v-1.6H3.333V12zM10 7.2H3.333v1.6H10V7.2zm-6.667 8h8.334v-1.6H3.333v1.6z">
</path>
        <path d="M1.667 17.6V3.2h1.666V4c0 .443.374.8.834.8.46 0 .833-.357.833-.8v-.8h1.667V4c0 .443.373.8.833.8.46 0 .833-.357.833-.8v-.8H10V4c0 .443.373.8.833.8.46 0 .834-.357.834-.8v-.8h1.666v14.4H1.668zm11.666-16h-1.666V.8c0-.44-.374-.8-.834-.8-.46 0-.833.36-.833.8v.8H8.333V.8c0-.44-.373-.8-.833-.8-.46 0-.833.36-.833.8v.8H5V.8c0-.44-.373-.8-.833-.8-.46 0-.834.36-.834.8v.8H1.667C.747 1.6 0 2.317 0 3.2v14.4c0 .882.748 1.6 1.667 1.6h11.666c.92 0 1.667-.718 1.667-1.6V3.2c0-.883-.748-1.6-1.667-1.6z">
</path>
    </g>
</svg>
