<svg viewBox="0 0 32 18" xmlns="http://www.w3.org/2000/svg">
    <path d="M.584 4.956A.586.586 0 0 1 0 4.373V.6C0 .28.263.016.584.016h5.432c.32 0 .583.263.583.584v3.773c0 .32-.263.583-.583.583H.584zm5.432 6.521H.584A.586.586 0 0 1 0 10.894v-3.78c0-.32.263-.584.584-.584h5.432c.32 0 .583.263.583.583v3.78c0 .321-.263.584-.583.584zm0 6.514H.584A.586.586 0 0 1 0 17.408v-3.78c0-.321.263-.584.584-.584h5.432c.32 0 .583.263.583.583V17.4c0 .328-.263.591-.583.591zm23.87-.12H10.28a2.124 2.124 0 0 1-2.114-2.115V2.123c0-1.16.953-2.114 2.114-2.114h19.606C31.046.009 32 .963 32 2.123v13.633a2.12 2.12 0 0 1-2.114 2.114zm-15.78-.854c0-3.69 2.324-6.013 6.014-6.013 3.69 0 6.013 2.324 6.013 6.013H14.107zM20.12 9a4.009 4.009 0 1 0 0-8.017 4.009 4.009 0 0 0 0 8.017z" fill-rule="evenodd"></path>
</svg>