<svg viewBox="0 0 44 26" xmlns="http://www.w3.org/2000/svg">
    <path d="M.803 7.11C.363 7.11 0 6.746 0 6.305V1.118C0 .678.362.316.803.316H8.27c.442 0 .804.362.804.802v5.188c0 .44-.362.803-.803.803H.81zm7.468 8.965H.81c-.44 0-.803-.362-.803-.802v-5.198c0-.44.363-.803.804-.803h7.46c.45 0 .81.362.81.803v5.198c0 .44-.36.802-.8.802zm0 8.957H.81c-.44 0-.803-.362-.803-.803v-5.2c0-.44.363-.81.804-.81h7.46c.45 0 .81.36.81.8v5.18c0 .45-.36.81-.8.81zm32.83-.166H14.14c-1.596 0-2.907-1.312-2.907-2.908V3.213c0-1.596 1.31-2.907 2.907-2.907h26.957C42.687.306 44 1.616 44 3.213v18.745c0 1.606-1.312 2.908-2.907 2.908z">
</path>
</svg>
