<?xml version="1.0" encoding="UTF-8" standalone="no"?>
<svg  xmlns="http://www.w3.org/2000/svg">
<g>
<path xmlns="http://www.w3.org/2000/svg" stroke="black" d="M36.216,39.574 C36.216,40.6167 36.0687,41.5687 35.774,42.43 C35.4793,43.2687 34.958,43.994 34.21,44.606 C33.4847,45.1953 32.476,45.66 31.184,46 C29.892,46.34 28.2487,46.51 26.254,46.51 C24.282,46.51 22.65,46.34 21.358,46 C20.0887,45.66 19.08,45.1953 18.332,44.606 C17.6067,43.994 17.0967,43.2687 16.802,42.43 C16.53,41.5687 16.394,40.6167 16.394,39.574 V34.066 C16.394,33.6353 16.4847,33.3293 16.666,33.148 C16.87,32.944 17.1873,32.842 17.618,32.842 H22.548 C22.9787,32.842 23.2847,32.944 23.466,33.148 C23.67,33.3293 23.772,33.6353 23.772,34.066 V38.214 C23.772,38.6673 23.908,39.0527 24.18,39.37 C24.4747,39.6647 25.1433,39.812 26.186,39.812 C27.1607,39.812 27.7727,39.6647 28.022,39.37 C28.294,39.0527 28.43,38.6673 28.43,38.214 V22.744 C28.43,22.3133 28.5207,22.0073 28.702,21.826 C28.906,21.622 29.2233,21.52 29.654,21.52 H34.992 C35.4227,21.52 35.7287,21.622 35.91,21.826 C36.114,22.0073 36.216,22.3133 36.216,22.744 V39.574 M32.136,24.58 V38.758 C32.136,40.0273 31.728,41.0587 30.912,41.852 C30.096,42.6227 28.566,43.008 26.322,43.008 C23.9873,43.008 22.3893,42.6227 21.528,41.852 C20.6893,41.0813 20.27,40.05 20.27,38.758 V36.072 H19.93 V38.758 C19.93,39.438 20.0207,40.0613 20.202,40.628 C20.406,41.1947 20.746,41.682 21.222,42.09 C21.698,42.4753 22.344,42.7813 23.16,43.008 C23.9987,43.2347 25.0527,43.348 26.322,43.348 C28.7247,43.348 30.3453,42.9173 31.184,42.056 C32.0453,41.1947 32.476,40.0953 32.476,38.758 V24.58 H32.136 M63.5962,39.574 C63.5962,40.6167 63.4375,41.5687 63.1202,42.43 C62.8255,43.2687 62.2815,43.994 61.4882,44.606 C60.7175,45.1953 59.6522,45.66 58.2922,46 C56.9322,46.34 55.1982,46.51 53.0902,46.51 C50.9822,46.51 49.2482,46.34 47.8882,46 C46.5282,45.66 45.4515,45.1953 44.6582,44.606 C43.8875,43.994 43.3435,43.2687 43.0262,42.43 C42.7315,41.5687 42.5842,40.6167 42.5842,39.574 V22.744 C42.5842,22.3133 42.6749,22.0073 42.8562,21.826 C43.0602,21.622 43.3775,21.52 43.8082,21.52 H49.1462 C49.5769,21.52 49.8829,21.622 50.0642,21.826 C50.2682,22.0073 50.3702,22.3133 50.3702,22.744 V38.248 C50.3702,38.7013 50.5402,39.0867 50.8802,39.404 C51.2202,39.6987 51.9795,39.846 53.1582,39.846 C54.3595,39.846 55.1302,39.6987 55.4702,39.404 C55.8102,39.0867 55.9802,38.7013 55.9802,38.248 V22.744 C55.9802,22.3133 56.0709,22.0073 56.2522,21.826 C56.4562,21.622 56.7735,21.52 57.2042,21.52 H62.3722 C62.8029,21.52 63.1089,21.622 63.2902,21.826 C63.4942,22.0073 63.5962,22.3133 63.5962,22.744 V39.574 M46.3242,24.58 V38.758 C46.3242,40.118 46.7889,41.2287 47.7182,42.09 C48.6702,42.9287 50.4722,43.348 53.1242,43.348 C55.7762,43.348 57.5782,42.9287 58.5302,42.09 C59.4822,41.2287 59.9582,40.118 59.9582,38.758 V24.58 H59.6182 V38.758 C59.6182,40.0273 59.1649,41.0587 58.2582,41.852 C57.3515,42.6227 55.6402,43.008 53.1242,43.008 C50.6082,43.008 48.8969,42.6227 47.9902,41.852 C47.1062,41.0587 46.6642,40.0273 46.6642,38.758 V24.58 H46.3242 M74.6094,24.852 C74.4961,24.7387 74.4054,24.6593 74.3374,24.614 C74.2694,24.5687 74.1901,24.546 74.0994,24.546 C74.0087,24.546 73.9181,24.58 73.8274,24.648 C73.7367,24.716 73.6914,24.818 73.6914,24.954 V42.94 H74.0314 V25.022 C74.0314,24.9993 74.0314,24.9767 74.0314,24.954 C74.0541,24.9313 74.0767,24.92 74.0994,24.92 C74.1221,24.92 74.1447,24.9313 74.1674,24.954 C74.2127,24.9767 74.2467,24.9993 74.2694,25.022 L87.1214,39.438 V42.94 H87.4614 V24.58 H87.1214 V38.928 L74.6094,24.852 M76.4454,46 H71.3454 C70.9147,46 70.5974,45.9093 70.3934,45.728 C70.2121,45.524 70.1214,45.2067 70.1214,44.776 V22.744 C70.1214,22.3133 70.2121,22.0073 70.3934,21.826 C70.5974,21.622 70.9147,21.52 71.3454,21.52 H74.8814 C75.3121,21.52 75.6747,21.588 75.9694,21.724 C76.2867,21.86 76.5927,22.098 76.8874,22.438 L83.4834,29.986 V22.744 C83.4834,22.3133 83.5741,22.0073 83.7554,21.826 C83.9594,21.622 84.2767,21.52 84.7074,21.52 H89.8074 C90.2381,21.52 90.5441,21.622 90.7254,21.826 C90.9294,22.0073 91.0314,22.3133 91.0314,22.744 V44.776 C91.0314,45.2067 90.9294,45.524 90.7254,45.728 C90.5441,45.9093 90.2381,46 89.8074,46 H84.7074 C84.2767,46 83.9594,45.9093 83.7554,45.728 C83.5741,45.524 83.4834,45.2067 83.4834,44.776 V40.594 L77.6694,33.556 V44.776 C77.6694,45.2067 77.5674,45.524 77.3634,45.728 C77.1821,45.9093 76.8761,46 76.4454,46 M116.421,46 H105.711 C102.878,46 100.77,45.4333 99.387,44.3 C98.027,43.1667 97.347,41.4213 97.347,39.064 V28.456 C97.347,26.0987 98.027,24.3533 99.387,23.22 C100.77,22.0867 102.878,21.52 105.711,21.52 H114.211 C114.642,21.52 114.948,21.622 115.129,21.826 C115.333,22.0073 115.435,22.3133 115.435,22.744 V26.858 C115.435,27.2887 115.333,27.606 115.129,27.81 C114.948,27.9913 114.642,28.082 114.211,28.082 H107.139 C106.436,28.082 105.915,28.2293 105.575,28.524 C105.235,28.796 105.065,29.2153 105.065,29.782 V37.908 C105.065,38.4747 105.19,38.894 105.439,39.166 C105.711,39.438 106.108,39.574 106.629,39.574 H109.927 V34.27 C109.927,33.8393 110.018,33.5333 110.199,33.352 C110.403,33.148 110.72,33.046 111.151,33.046 H116.421 C116.852,33.046 117.158,33.148 117.339,33.352 C117.543,33.5333 117.645,33.8393 117.645,34.27 V44.776 C117.645,45.2067 117.543,45.524 117.339,45.728 C117.158,45.9093 116.852,46 116.421,46 M107.173,42.94 H113.939 V36.106 H113.599 V42.6 H107.173 C104.884,42.6 103.342,42.294 102.549,41.682 C101.778,41.07 101.393,40.0273 101.393,38.554 V29.034 C101.393,27.538 101.744,26.484 102.447,25.872 C103.15,25.2373 104.498,24.92 106.493,24.92 H112.375 V24.58 H106.493 C104.317,24.58 102.866,24.92 102.141,25.6 C101.416,26.28 101.053,27.4247 101.053,29.034 V38.554 C101.053,39.3473 101.132,40.0273 101.291,40.594 C101.472,41.138 101.79,41.5913 102.243,41.954 C102.696,42.294 103.32,42.5433 104.113,42.702 C104.906,42.8607 105.926,42.94 107.173,42.94 M142.323,46 H125.017 C124.587,46 124.269,45.9093 124.065,45.728 C123.884,45.524 123.793,45.2067 123.793,44.776 V22.744 C123.793,22.3133 123.884,22.0073 124.065,21.826 C124.269,21.622 124.587,21.52 125.017,21.52 H130.287 C130.718,21.52 131.024,21.622 131.205,21.826 C131.409,22.0073 131.511,22.3133 131.511,22.744 V39.574 H136.169 V34.066 C136.169,33.6353 136.26,33.3293 136.441,33.148 C136.645,32.944 136.963,32.842 137.393,32.842 H142.323 C142.754,32.842 143.06,32.944 143.241,33.148 C143.445,33.3293 143.547,33.6353 143.547,34.066 V44.776 C143.547,45.2067 143.445,45.524 143.241,45.728 C143.06,45.9093 142.754,46 142.323,46 M127.499,42.94 H140.011 V35.902 H139.671 V42.6 H127.839 V24.58 H127.499 V42.94 M166.434,46 H150.658 C150.227,46 149.91,45.9093 149.706,45.728 C149.525,45.524 149.434,45.2067 149.434,44.776 V22.744 C149.434,22.3133 149.525,22.0073 149.706,21.826 C149.91,21.622 150.227,21.52 150.658,21.52 H166.434 C166.865,21.52 167.171,21.622 167.352,21.826 C167.556,22.0073 167.658,22.3133 167.658,22.744 V26.722 C167.658,27.1527 167.556,27.47 167.352,27.674 C167.171,27.8553 166.865,27.946 166.434,27.946 H157.05 V30.564 H163.68 C164.111,30.564 164.417,30.666 164.598,30.87 C164.802,31.0513 164.904,31.3573 164.904,31.788 V35.426 C164.904,35.8567 164.802,36.174 164.598,36.378 C164.417,36.5593 164.111,36.65 163.68,36.65 H157.05 V39.574 H166.434 C166.865,39.574 167.171,39.676 167.352,39.88 C167.556,40.0613 167.658,40.3673 167.658,40.798 V44.776 C167.658,45.2067 167.556,45.524 167.352,45.728 C167.171,45.9093 166.865,46 166.434,46 M164.598,42.6 H153.48 V33.794 H161.844 V33.454 H153.48 V24.92 H164.598 V24.58 H153.14 V42.94 H164.598 V42.6 M20.78,75.698 C20.78,75.086 20.8253,74.5193 20.916,73.998 C21.0293,73.4767 21.1653,72.9893 21.324,72.536 L23.5,66.96 C23.7267,66.3933 23.976,65.9173 24.248,65.532 C24.52,65.124 24.996,64.92 25.676,64.92 H29.008 C29.6427,64.92 30.096,65.124 30.368,65.532 C30.64,65.9173 30.9007,66.4047 31.15,66.994 L33.496,72.536 C33.6547,72.9893 33.7793,73.4767 33.87,73.998 C33.9833,74.5193 34.04,75.086 34.04,75.698 V76.752 H20.78 V75.698 M26.22,68.66 L24.622,73.828 H29.96 L28.362,68.66 C28.2713,68.456 28.1693,68.3087 28.056,68.218 C27.9653,68.1273 27.852,68.082 27.716,68.082 H26.866 C26.73,68.082 26.6053,68.1273 26.492,68.218 C26.4013,68.3087 26.3107,68.456 26.22,68.66 M34.04,82.94 H34.38 V75.698 C34.38,75.0633 34.3233,74.4853 34.21,73.964 C34.1193,73.42 33.9833,72.8987 33.802,72.4 L31.456,66.858 C31.184,66.2007 30.8893,65.6567 30.572,65.226 C30.2773,64.7953 29.756,64.58 29.008,64.58 H25.676 C24.9053,64.58 24.3613,64.7953 24.044,65.226 C23.7267,65.6567 23.4433,66.1893 23.194,66.824 L21.018,72.4 C20.8367,72.8987 20.6893,73.42 20.576,73.964 C20.4853,74.4853 20.44,75.0633 20.44,75.698 V82.94 H20.78 V77.092 H34.04 V82.94 M24.282,84.776 C24.282,85.2067 24.18,85.524 23.976,85.728 C23.7947,85.9093 23.4887,86 23.058,86 H18.06 C17.6293,86 17.312,85.9093 17.108,85.728 C16.9267,85.524 16.836,85.2067 16.836,84.776 V75.8 C16.836,75.12 16.938,74.338 17.142,73.454 C17.3687,72.57 17.7087,71.5387 18.162,70.36 L21.12,62.642 C21.256,62.2567 21.46,61.9733 21.732,61.792 C22.0267,61.6107 22.4007,61.52 22.854,61.52 H32 C32.4307,61.52 32.782,61.6107 33.054,61.792 C33.3487,61.9733 33.564,62.2567 33.7,62.642 L36.658,70.36 C37.1113,71.5387 37.44,72.57 37.644,73.454 C37.8707,74.338 37.984,75.12 37.984,75.8 V84.776 C37.984,85.2067 37.882,85.524 37.678,85.728 C37.4967,85.9093 37.1907,86 36.76,86 H31.626 C31.1727,86 30.8327,85.9093 30.606,85.728 C30.402,85.524 30.3,85.2067 30.3,84.776 V80.016 H24.282 V84.776 M56.8639,86 H45.4059 C44.9753,86 44.6579,85.9093 44.4539,85.728 C44.2726,85.524 44.1819,85.2067 44.1819,84.776 V62.744 C44.1819,62.3133 44.2726,62.0073 44.4539,61.826 C44.6579,61.622 44.9753,61.52 45.4059,61.52 H56.8639 C59.6973,61.52 61.7939,62.0867 63.1539,63.22 C64.5366,64.3533 65.2279,66.0987 65.2279,68.456 V79.064 C65.2279,81.4213 64.5366,83.1667 63.1539,84.3 C61.7939,85.4333 59.6973,86 56.8639,86 M47.8879,82.94 H56.1159 C57.2719,82.94 58.2126,82.8267 58.9379,82.6 C59.6633,82.3507 60.2186,82.022 60.6039,81.614 C60.9893,81.206 61.2386,80.7187 61.3519,80.152 C61.4879,79.5853 61.5559,78.9733 61.5559,78.316 V69.306 C61.5559,68.6487 61.4879,68.0367 61.3519,67.47 C61.2159,66.8807 60.9553,66.382 60.5699,65.974 C60.1846,65.5433 59.6293,65.2033 58.9039,64.954 C58.2013,64.7047 57.2719,64.58 56.1159,64.58 H47.8879 V82.94 M56.1159,64.92 C57.1813,64.92 58.0426,65.0333 58.6999,65.26 C59.3799,65.4867 59.9013,65.7927 60.2639,66.178 C60.6266,66.5633 60.8759,67.028 61.0119,67.572 C61.1479,68.116 61.2159,68.694 61.2159,69.306 V78.316 C61.2159,78.928 61.1479,79.506 61.0119,80.05 C60.8986,80.5713 60.6606,81.0247 60.2979,81.41 C59.9353,81.7727 59.4139,82.0673 58.7339,82.294 C58.0766,82.498 57.2039,82.6 56.1159,82.6 H48.2279 V64.92 H56.1159 M51.8999,68.014 V79.574 H55.9459 C56.4899,79.574 56.8866,79.438 57.1359,79.166 C57.4079,78.894 57.5439,78.4747 57.5439,77.908 V69.646 C57.5439,69.0793 57.4079,68.6713 57.1359,68.422 C56.8866,68.15 56.4899,68.014 55.9459,68.014 H51.8999 M86.0331,86 H77.1931 C76.7625,86 76.3998,85.9207 76.1051,85.762 C75.8331,85.6033 75.6178,85.3087 75.4591,84.878 L72.1271,76.548 C71.9231,76.0493 71.7531,75.6187 71.6171,75.256 C71.4811,74.8707 71.3678,74.508 71.2771,74.168 C71.1865,73.828 71.1185,73.4767 71.0731,73.114 C71.0505,72.7287 71.0391,72.264 71.0391,71.72 V62.744 C71.0391,62.3133 71.1298,62.0073 71.3111,61.826 C71.5151,61.622 71.8325,61.52 72.2631,61.52 H77.6691 C78.0998,61.52 78.4285,61.622 78.6551,61.826 C78.8818,62.0073 78.9951,62.3133 78.9951,62.744 V72.128 C78.9951,72.3547 79.0178,72.5813 79.0631,72.808 C79.1085,73.0347 79.1765,73.2727 79.2671,73.522 L80.8651,78.282 C80.9331,78.5087 81.0125,78.6673 81.1031,78.758 C81.1938,78.826 81.3298,78.86 81.5111,78.86 H81.8851 C82.0665,78.86 82.2025,78.826 82.2931,78.758 C82.3838,78.6673 82.4631,78.5087 82.5311,78.282 L84.1291,73.488 C84.2198,73.2387 84.2878,73.0007 84.3331,72.774 C84.3785,72.5473 84.4011,72.3207 84.4011,72.094 V62.744 C84.4011,62.3133 84.4918,62.0073 84.6731,61.826 C84.8771,61.622 85.1945,61.52 85.6251,61.52 H90.9631 C91.3938,61.52 91.6998,61.622 91.8811,61.826 C92.0851,62.0073 92.1871,62.3133 92.1871,62.744 V71.72 C92.1871,72.264 92.1645,72.7287 92.1191,73.114 C92.0965,73.4767 92.0398,73.828 91.9491,74.168 C91.8585,74.508 91.7451,74.8707 91.6091,75.256 C91.4731,75.6187 91.3031,76.0493 91.0991,76.548 L87.7671,84.878 C87.6085,85.3087 87.3818,85.6033 87.0871,85.762 C86.8151,85.9207 86.4638,86 86.0331,86 M74.8811,64.58 V71.924 C74.8811,72.5587 74.9151,73.148 74.9831,73.692 C75.0738,74.2133 75.2211,74.7233 75.4251,75.222 L77.6691,80.662 C77.9411,81.3193 78.2471,81.8633 78.5871,82.294 C78.9271,82.7247 79.4485,82.94 80.1511,82.94 H83.1431 C83.8458,82.94 84.3671,82.7247 84.7071,82.294 C85.0471,81.8633 85.3531,81.3193 85.6251,80.662 L87.8691,75.222 C88.0731,74.7233 88.2091,74.2133 88.2771,73.692 C88.3678,73.148 88.4131,72.5587 88.4131,71.924 V64.58 H88.0731 V71.924 C88.0731,72.5133 88.0278,73.08 87.9371,73.624 C87.8465,74.1453 87.7105,74.6327 87.5291,75.086 L85.2851,80.526 C85.0585,81.1153 84.7978,81.614 84.5031,82.022 C84.2311,82.4073 83.7778,82.6 83.1431,82.6 H80.1511 C79.5165,82.6 79.0518,82.4073 78.7571,82.022 C78.4851,81.614 78.2358,81.1153 78.0091,80.526 L75.7651,75.086 C75.5838,74.6327 75.4478,74.1453 75.3571,73.624 C75.2665,73.08 75.2211,72.5133 75.2211,71.924 V64.58 H74.8811 M115.385,86 H99.6091 C99.1784,86 98.8611,85.9093 98.6571,85.728 C98.4757,85.524 98.3851,85.2067 98.3851,84.776 V62.744 C98.3851,62.3133 98.4757,62.0073 98.6571,61.826 C98.8611,61.622 99.1784,61.52 99.6091,61.52 H115.385 C115.816,61.52 116.122,61.622 116.303,61.826 C116.507,62.0073 116.609,62.3133 116.609,62.744 V66.722 C116.609,67.1527 116.507,67.47 116.303,67.674 C116.122,67.8553 115.816,67.946 115.385,67.946 H106.001 V70.564 H112.631 C113.062,70.564 113.368,70.666 113.549,70.87 C113.753,71.0513 113.855,71.3573 113.855,71.788 V75.426 C113.855,75.8567 113.753,76.174 113.549,76.378 C113.368,76.5593 113.062,76.65 112.631,76.65 H106.001 V79.574 H115.385 C115.816,79.574 116.122,79.676 116.303,79.88 C116.507,80.0613 116.609,80.3673 116.609,80.798 V84.776 C116.609,85.2067 116.507,85.524 116.303,85.728 C116.122,85.9093 115.816,86 115.385,86 M113.549,82.6 H102.431 V73.794 H110.795 V73.454 H102.431 V64.92 H113.549 V64.58 H102.091 V82.94 H113.549 V82.6 M127.119,64.852 C127.006,64.7387 126.915,64.6593 126.847,64.614 C126.779,64.5687 126.7,64.546 126.609,64.546 C126.518,64.546 126.428,64.58 126.337,64.648 C126.246,64.716 126.201,64.818 126.201,64.954 V82.94 H126.541 V65.022 C126.541,64.9993 126.541,64.9767 126.541,64.954 C126.564,64.9313 126.586,64.92 126.609,64.92 C126.632,64.92 126.654,64.9313 126.677,64.954 C126.722,64.9767 126.756,64.9993 126.779,65.022 L139.631,79.438 V82.94 H139.971 V64.58 H139.631 V78.928 L127.119,64.852 M128.955,86 H123.855 C123.424,86 123.107,85.9093 122.903,85.728 C122.722,85.524 122.631,85.2067 122.631,84.776 V62.744 C122.631,62.3133 122.722,62.0073 122.903,61.826 C123.107,61.622 123.424,61.52 123.855,61.52 H127.391 C127.822,61.52 128.184,61.588 128.479,61.724 C128.796,61.86 129.102,62.098 129.397,62.438 L135.993,69.986 V62.744 C135.993,62.3133 136.084,62.0073 136.265,61.826 C136.469,61.622 136.786,61.52 137.217,61.52 H142.317 C142.748,61.52 143.054,61.622 143.235,61.826 C143.439,62.0073 143.541,62.3133 143.541,62.744 V84.776 C143.541,85.2067 143.439,85.524 143.235,85.728 C143.054,85.9093 142.748,86 142.317,86 H137.217 C136.786,86 136.469,85.9093 136.265,85.728 C136.084,85.524 135.993,85.2067 135.993,84.776 V80.594 L130.179,73.556 V84.776 C130.179,85.2067 130.077,85.524 129.873,85.728 C129.692,85.9093 129.386,86 128.955,86 M161.791,86 H156.283 C155.852,86 155.535,85.9093 155.331,85.728 C155.149,85.524 155.059,85.2067 155.059,84.776 V68.082 H150.061 C149.63,68.082 149.313,67.9913 149.109,67.81 C148.927,67.606 148.837,67.2887 148.837,66.858 V62.744 C148.837,62.3133 148.927,62.0073 149.109,61.826 C149.313,61.622 149.63,61.52 150.061,61.52 H168.013 C168.443,61.52 168.749,61.622 168.931,61.826 C169.135,62.0073 169.237,62.3133 169.237,62.744 V66.858 C169.237,67.2887 169.135,67.606 168.931,67.81 C168.749,67.9913 168.443,68.082 168.013,68.082 H163.015 V84.776 C163.015,85.2067 162.913,85.524 162.709,85.728 C162.527,85.9093 162.221,86 161.791,86 M158.867,82.94 H159.207 V64.92 H166.177 V64.58 H151.897 V64.92 H158.867 V82.94 M195.385,79.574 C195.385,80.6167 195.227,81.5687 194.909,82.43 C194.615,83.2687 194.071,83.994 193.277,84.606 C192.507,85.1953 191.441,85.66 190.081,86 C188.721,86.34 186.987,86.51 184.879,86.51 C182.771,86.51 181.037,86.34 179.677,86 C178.317,85.66 177.241,85.1953 176.447,84.606 C175.677,83.994 175.133,83.2687 174.815,82.43 C174.521,81.5687 174.373,80.6167 174.373,79.574 V62.744 C174.373,62.3133 174.464,62.0073 174.645,61.826 C174.849,61.622 175.167,61.52 175.597,61.52 H180.935 C181.366,61.52 181.672,61.622 181.853,61.826 C182.057,62.0073 182.159,62.3133 182.159,62.744 V78.248 C182.159,78.7013 182.329,79.0867 182.669,79.404 C183.009,79.6987 183.769,79.846 184.947,79.846 C186.149,79.846 186.919,79.6987 187.259,79.404 C187.599,79.0867 187.769,78.7013 187.769,78.248 V62.744 C187.769,62.3133 187.86,62.0073 188.041,61.826 C188.245,61.622 188.563,61.52 188.993,61.52 H194.161 C194.592,61.52 194.898,61.622 195.079,61.826 C195.283,62.0073 195.385,62.3133 195.385,62.744 V79.574 M178.113,64.58 V78.758 C178.113,80.118 178.578,81.2287 179.507,82.09 C180.459,82.9287 182.261,83.348 184.913,83.348 C187.565,83.348 189.367,82.9287 190.319,82.09 C191.271,81.2287 191.747,80.118 191.747,78.758 V64.58 H191.407 V78.758 C191.407,80.0273 190.954,81.0587 190.047,81.852 C189.141,82.6227 187.429,83.008 184.913,83.008 C182.397,83.008 180.686,82.6227 179.779,81.852 C178.895,81.0587 178.453,80.0273 178.453,78.758 V64.58 H178.113 M213.334,64.92 C214.536,64.92 215.42,65.2487 215.986,65.906 C216.576,66.5633 216.87,67.4133 216.87,68.456 V70.836 C216.87,72.0827 216.632,73.046 216.156,73.726 C215.68,74.406 214.74,74.746 213.334,74.746 H205.922 V64.92 H213.334 M209.594,67.64 V71.992 H212.144 C212.734,71.992 213.13,71.8447 213.334,71.55 C213.538,71.2327 213.64,70.8473 213.64,70.394 V69.238 C213.64,68.7847 213.538,68.4107 213.334,68.116 C213.13,67.7987 212.734,67.64 212.144,67.64 H209.594 M205.922,82.94 V75.052 H215.544 C216.836,75.052 217.788,75.3353 218.4,75.902 C219.012,76.446 219.318,77.2733 219.318,78.384 V82.94 H219.658 V78.384 C219.658,77.2053 219.318,76.31 218.638,75.698 C217.958,75.0633 216.927,74.746 215.544,74.746 H215.17 C215.986,74.4967 216.53,74.0433 216.802,73.386 C217.074,72.706 217.21,71.8447 217.21,70.802 V68.456 C217.21,67.3453 216.893,66.4273 216.258,65.702 C215.624,64.954 214.649,64.58 213.334,64.58 H205.582 V82.94 H205.922 M208.37,86 H203.134 C202.704,86 202.386,85.9093 202.182,85.728 C202.001,85.524 201.91,85.2067 201.91,84.776 V62.744 C201.91,62.3133 202.001,62.0073 202.182,61.826 C202.386,61.622 202.704,61.52 203.134,61.52 H214.456 C216.995,61.52 218.74,62.0527 219.692,63.118 C220.667,64.1607 221.154,65.5207 221.154,67.198 V68.762 C221.154,69.714 221.007,70.53 220.712,71.21 C220.44,71.8673 219.953,72.3433 219.25,72.638 C220.474,72.774 221.46,73.2727 222.208,74.134 C222.979,74.9953 223.364,76.14 223.364,77.568 V84.776 C223.364,85.2067 223.262,85.524 223.058,85.728 C222.877,85.9093 222.571,86 222.14,86 H216.87 C216.44,86 216.122,85.9093 215.918,85.728 C215.737,85.524 215.646,85.2067 215.646,84.776 V79.574 C215.646,79.0753 215.544,78.7127 215.34,78.486 C215.159,78.2367 214.83,78.112 214.354,78.112 H209.594 V84.776 C209.594,85.2067 209.492,85.524 209.288,85.728 C209.107,85.9093 208.801,86 208.37,86 M246.178,86 H230.402 C229.971,86 229.654,85.9093 229.45,85.728 C229.269,85.524 229.178,85.2067 229.178,84.776 V62.744 C229.178,62.3133 229.269,62.0073 229.45,61.826 C229.654,61.622 229.971,61.52 230.402,61.52 H246.178 C246.609,61.52 246.915,61.622 247.096,61.826 C247.3,62.0073 247.402,62.3133 247.402,62.744 V66.722 C247.402,67.1527 247.3,67.47 247.096,67.674 C246.915,67.8553 246.609,67.946 246.178,67.946 H236.794 V70.564 H243.424 C243.855,70.564 244.161,70.666 244.342,70.87 C244.546,71.0513 244.648,71.3573 244.648,71.788 V75.426 C244.648,75.8567 244.546,76.174 244.342,76.378 C244.161,76.5593 243.855,76.65 243.424,76.65 H236.794 V79.574 H246.178 C246.609,79.574 246.915,79.676 247.096,79.88 C247.3,80.0613 247.402,80.3673 247.402,80.798 V84.776 C247.402,85.2067 247.3,85.524 247.096,85.728 C246.915,85.9093 246.609,86 246.178,86 M244.342,82.6 H233.224 V73.794 H241.588 V73.454 H233.224 V64.92 H244.342 V64.58 H232.884 V82.94 H244.342 V82.6  Z " fill="white"/>

</g>
</svg>