<svg width="24px" height="21px" viewBox="0 0 24 21" version="1.1" xmlns="http://www.w3.org/2000/svg" xmlns:xlink="http://www.w3.org/1999/xlink">
    <g id="Icons" >
        <g id="New-Icons---Gold-Release" transform="translate(-1127.000000, -170.000000)">
            <g id="laptop-home" transform="translate(1127.304688, 168.416016)">
                <g id="Group">
                    <g id="Frame_-_24px">
                        <rect id="Rectangle-path" x="0" y="0" width="24" height="24"></rect>
                    </g>
                    <g id="Line_Icons" transform="translate(0.000000, 2.000000)" fill="#ed8000">
                        <g id="Group">
                            <path d="M23.632,17.734 L22,12.837 L22,1 C22,0.448 21.552,0 21,0 L3,0 C2.448,0 2,0.447 2,1 L2,12.837 L0.368,17.734 C0.182,18.292 0.258,18.865 0.576,19.305 C0.893,19.747 1.412,20 2,20 L22,20 C22.588,20 23.107,19.747 23.425,19.306 C23.743,18.865 23.818,18.292 23.632,17.734 L23.632,17.734 Z M20,2 L20,12 L4,12 L4,2 L20,2 L20,2 Z M2.388,18 L3.721,14 L20.28,14 L21.613,18 L2.388,18 L2.388,18 Z" id="Shape"></path>
                            <path d="M9,8.414 L9,11 L11,11 L11,8 L13,8 L13,11 L15,11 L15,8.414 L15.293,8.707 L16.707,7.292 L12,2.586 L7.293,7.292 L8.707,8.707 L9,8.414 Z" id="Shape"></path>
                            <rect id="Rectangle-path" x="10" y="15" width="4" height="2"></rect>
                        </g>
                    </g>
                </g>
            </g>
        </g>
    </g>
</svg>