<?xml version="1.0" encoding="UTF-8" standalone="no"?>
<svg width="13px" height="13px" viewBox="0 0 13 13" version="1.1" xmlns="http://www.w3.org/2000/svg" xmlns:xlink="http://www.w3.org/1999/xlink">
    <!-- Generator: Sketch 39.1 (31720) - http://www.bohemiancoding.com/sketch -->
    <title>last</title>
    <desc>Created with Sketch.</desc>
    <defs></defs>
    <g id="Iconography" stroke="none" stroke-width="1">
        <g id="New-Icons---Gold-Release" transform="translate(-1253.000000, -341.000000)">
            <path d="M1265.42564,353.264664 L1264.85195,353.841287 C1264.6417,354.052904 1264.2972,354.052904 1264.08694,353.841287 L1258.75646,348.483809 C1258.74855,348.476424 1258.73923,348.471027 1258.73131,348.463073 L1258.15763,347.886451 C1258.02593,347.753799 1257.97676,347.568314 1258.01011,347.396464 C1258.02961,347.292501 1258.07878,347.193367 1258.15847,347.113549 L1258.73216,346.536927 C1258.73753,346.53153 1258.74403,346.527553 1258.74968,346.52244 L1264.08638,341.158713 C1264.29664,340.947096 1264.64085,340.947096 1264.85111,341.158713 L1265.42508,341.735336 C1265.63533,341.94667 1265.63533,342.292643 1265.42508,342.504261 L1260.45492,347.499574 L1265.42564,352.495739 C1265.6359,352.707357 1265.6359,353.05333 1265.42564,353.264664 Z M1255,341.998502 C1255,341.447045 1254.55614,341 1254,341 C1253.44772,341 1253,341.447489 1253,341.998502 L1253,353.001498 C1253,353.552955 1253.44386,354 1254,354 C1254.55228,354 1255,353.552511 1255,353.001498 L1255,341.998502 Z" id="last" transform="translate(1259.291667, 347.500000) scale(-1, 1) translate(-1259.291667, -347.500000) "></path>
        </g>
    </g>
</svg>
