<svg class="logo-mark-room" xmlns="http://www.w3.org/2000/svg" viewBox="0 0 500 500">
    <linearGradient id="a" gradientUnits="userSpaceOnUse" x1="-253.5" y1="174.221" x2="-100.918" y2="392.131" gradientTransform="rotate(180 82.944 252.062)">
        <stop offset="0" stop-color="#FCD3A5">
</stop>
        <stop offset="1" stop-color="#F7901E">
</stop>
    </linearGradient>
    <path fill="url(#a)" d="M346.2 130.8c3 2 6 4.1 9 6.4 28.8 22.6 48 56.3 52.8 92.6 8.5 63.7-36.6 144.8-104.3 157.1 85.9-12.6 151.6-86.7 151.2-176-.3-71.2-42.7-132.4-103.4-160.2 3 26.9 1.1 54.1-5.3 80.1z">
</path>
    <path fill="#F7901E" d="M292.8 387.7c-11.3 4.9-22.4 8.2-33.3 23.5-11.4 16-15.1 26.3-19.2 47-.4 10.6 6.5 8.8 40.3 8.6 118.2-.6 213.6-96.8 213.1-215-.4-92.1-59-170.3-140.7-200.2 8.6 4.5 17.2 10 25.7 16.7 36.6 28.8 60.9 71.5 67.1 117.7 6.4 47.7-7.1 96.9-36.8 134.7-25.4 32.3-72.9 66.1-116.2 67z">
</path>
    <path fill="#F7901E" d="M294.2 263.8c.1 24.7 20.2 44.6 44.9 44.5 24.7-.1 44.6-20.2 44.5-44.9-.1-24.7-20.2-44.6-44.9-44.5-24.7 0-44.6 20.2-44.5 44.9z">
</path>
    <linearGradient id="b" gradientUnits="userSpaceOnUse" x1="-67.432" y1="19.587" x2="85.146" y2="237.491" gradientTransform="rotate(3.97 -2035.6 2307.595)">
        <stop offset="0" stop-color="#B1B3B5">
</stop>
        <stop offset="1" stop-color="#77787B">
</stop>
    </linearGradient>
    <path fill="url(#b)" d="M144.9 363.8c-2.8-2.2-5.7-4.5-8.5-7.1-27-24.7-43.6-59.7-45.8-96.3-3.8-64.1 47.2-141.7 115.6-149-86.6 6.2-157.6 75.3-163.8 164.4-4.9 71 32.8 135.2 91.3 167.4-.9-27 3-53.9 11.2-79.4z">
</path>
    <path fill="#77787B" d="M217.2 111.5c11.6-4 23-6.5 34.9-21 12.5-15.1 17-25.2 22.6-45.4 1.1-10.5-5.9-9.3-39.6-11.6C117.2 25.3 15 114.2 6.8 232.2.4 324 53 406.4 132.4 442.2 124.1 437 116 431 108 423.7c-34.4-31.4-55.5-75.8-58.3-122.3-2.8-48 14.2-96.1 46.6-131.6 27.8-30.4 77.6-60.6 120.9-58.3z">
</path>
    <path fill="#77787B" d="M206.7 235c1.7-24.6-16.9-46-41.5-47.7-24.6-1.7-46 16.9-47.7 41.5-1.7 24.6 16.9 46 41.5 47.7 24.6 1.7 46-16.8 47.7-41.5z">
</path>
    <path fill="#79A140" d="M297.6 105.1s-3.1 20.9-10.2 51.5c-1.8 7.6-3.6 16-5.9 24.7-2.2 8.7-4.6 17.9-7.1 27.4-2.6 9.4-5.3 19.2-8.1 29.1-3 9.9-6 19.9-9 29.9-2.9 10-6.2 19.9-9.4 29.7-3.1 9.8-6.4 19.4-9.7 28.6-6.5 18.5-13.1 35.6-19 50.2-5.9 14.6-11.3 26.6-15.2 34.9-3.9 8.4-6.4 13.1-6.4 13.1l-6.9-2.2s.6-5.3 2.2-14.4c1.5-9.1 4-22 7.5-37.4 3.4-15.4 7.8-33.2 13-52 2.5-9.5 5.3-19.2 8.4-29 2.9-9.9 5.9-19.9 9.2-29.8 3.3-9.9 6.5-19.9 9.7-29.6 3.4-9.7 6.7-19.3 10-28.5 3.4-9.2 6.7-18.1 9.8-26.5 3.1-8.4 6.4-16.3 9.3-23.6 11.7-29.2 21-48.2 21-48.2l6.8 2.1z">
</path>
</svg>
