<svg id="Layer_1" xmlns="http://www.w3.org/2000/svg" viewBox="0 0 500 500">
    <style>
        .st0{fill:#008FBE;}
    </style>
    <path class="st0" d="M295.6 77.4c.1-.3.3-.7.4-1 4.3-13.6-3.2-28.1-16.7-32.5-13.2-4.2-27.3 2.8-32 15.7l-.6 1.8c0 .1-.1.2-.1.4-8.5 24.3-82.8 218.1-82.8 218.1h-1.3L74.8 58.3v-.1l-1.2-3.1c-6-12.7-20.9-18.9-34.3-13.9-13.7 5.2-20.8 20.2-16.3 34C33.7 102.4 134.9 348 134.9 348l-6.6 14.6c-11.1 30.2-23.6 50.5-57 50.5-3.2 0-14.5-.7-15.2-.7-10.8-.6-20.8 6.5-23.8 17.3-3.3 12.3 3.9 25 16.1 28.5 8.9 1.5 18 2.1 26.1 2.1 61.6 0 82-35.4 102.3-87.2 0 0 111.7-279.1 116.8-290.7.8-1.7 1.5-3.4 2-5zm111.1 311.9c-2.4 0-4.7-.3-6.9-1l-3.2-1.6c-7.9-4.4-98.5-65.5-99.3-81.7-.1-2.1.8-4 2.5-5.2 1.8-1.2 4.2-1.9 7.4-1.9 21.2 0 80.1 28 114.5 46.9 10.5 8.3 12.8 22.3 5.9 33.1-4.7 7.1-12.5 11.4-20.9 11.4M307.1 202c-3.2 0-5.6-.6-7.4-1.9-1.7-1.2-2.6-3.1-2.5-5.2.9-16.3 91.4-77.3 99.3-81.7l2.5-1.3c2.9-.9 5.2-1.3 7.6-1.3 8.5 0 16.3 4.2 20.9 11.3 6.9 10.8 4.5 24.8-5.4 32.7-34.9 19.4-93.8 47.4-115 47.4m150.4 71.3h-.3c-1.2 0-119.2-.3-128.5-19.2-.9-1.9-.8-4 .4-5.7 8.7-14 117.3-23.8 126.4-23.8h2.8c11.4 2.5 19.4 11.7 20.1 22.6.9 12.7-7.9 23.9-20.5 26.1h-.4z">
</path>
</svg>
