<svg class="logo-mark-store" xmlns="http://www.w3.org/2000/svg" viewBox="0 0 500 500">
    <linearGradient id="a" gradientUnits="userSpaceOnUse" x1="-469.233" y1="475.653" x2="-319.585" y2="689.373" gradientTransform="rotate(-106.003 -141.278 197.754)">
        <stop offset="0" stop-color="#FCD3A5">
</stop>
        <stop offset="1" stop-color="#F7901E">
</stop>
    </linearGradient>
    <path fill="url(#a)" d="M383.2 314.4c-1.1 3.4-2.3 6.7-3.7 10.2-13.7 33.2-40.4 60.2-73.4 74.5-57.9 25-146.4 4-176.1-56.6 34.7 77.7 122.2 120 206.4 95.9 67.1-19.3 113.6-75.5 123.8-140.2-24.6 9.9-50.7 15.3-77 16.2z">
</path>
    <path fill="#F7901E" d="M126.4 332.4c-7.6-9.4-13.7-19-31-25.2-18.1-6.5-28.9-7.3-49.4-5.6-10.1 2.5-6.6 8.5 2.6 40.4 32 111.4 148.2 175.9 259.7 143.9 86.8-24.9 145.1-101 151.5-186.1-2 9.3-4.8 18.9-8.9 28.7-17.4 42.2-51.3 76.6-93.2 94.7-43.3 18.7-93.3 19.1-137 1.1-37.4-15.4-81.9-51.3-94.3-91.9z">
</path>
    <path fill="#F7901E" d="M237.1 247.9c-36.2 10.4-57.1 48.1-46.7 84.3 10.4 36.2 48.1 57.1 84.3 46.7 36.2-10.4 57.1-48.1 46.7-84.3-10.4-36.1-48.1-57-84.3-46.7z">
</path>
    <path d="M216.5 127.5l-17.8-14.1c-3.3-2.6-2.9-6.3.7-8.3l26.2-14.2c3.6-2 5.9-.3 5 3.8l-6.5 30.1c-.9 4.1-4.3 5.3-7.6 2.7zm-4.3 19.9l-112.9 144c-2.6 3.3-7.3 3.8-10.6 1.3l-17.8-14.1c-3.3-2.6-3.9-7.4-1.3-10.6l112.9-144c2.6-3.3 7.3-3.8 10.6-1.3l17.8 14.1c3.2 2.5 3.8 7.3 1.3 10.6zm92.5-47.6c4.7-3.3 15.9-7.4 20.7 1.3 4.8 8.8 48.5 83 63.5 114.8 15 31.8 43.4 79.5 36.7 83.6-9.4 5.7-46.2-53.6-60.8-74.7-14.6-21.1-70-102.7-69.2-111.5 1-8.8 4.4-10.2 9.1-13.5zM278.1 58l8.4-4.3c4-2 9.2-.5 11.5 3.5l10.2 17.5c2.3 4 1 9.1-2.8 11.4l-11 6.5c-3.9 2.3-8.6.8-10.6-3.4l-9.5-20.1c-1.9-4.1-.2-9.1 3.8-11.1zm-2.2-5.9c-4 1-12.9 3.7-18.4-9.9-5.6-13.6 4.1-29.9-1.3-36.2 0 0 54.4 27.2 19.7 46.1z" fill="#4D8BBE">
</path>
    <path fill="#79A140" d="M69.8 210.1h31.8l38.9-49.6H69.8c-5.6 0-10.2 4.6-10.2 10.2v29.1c0 5.7 4.6 10.3 10.2 10.3z">
</path>
    <path fill="#4D8BBE" d="M167.1 160.5l-38.8 49.6h21.4l38.9-49.6">
</path>
    <path d="M441 160.5h-69.7c10.3 18.5 20.4 37 26.4 49.6H441c5.6 0 10.2-4.6 10.2-10.2v-29.1c.1-5.7-4.5-10.3-10.2-10.3zm-131.6 0h-94.1l-38.9 49.6h165.7c-14.1-20.8-24.7-37-32.7-49.6z" fill="#79A140">
</path>
</svg>
