<svg class="logo-text-room" xmlns="http://www.w3.org/2000/svg" viewBox="0 0 500 205">
    <g fill="#77787B">
        <path d="M7.8 13.7h70.4c26.1 0 48.5 32.2 48.5 52.7 0 13.8-13.5 37.8-28.2 46.2 12.8 33.8 34.7 73.4 34.7 73.4s-13.5 5.4-31.7 5.4c0 0-18.4-34.3-31-72H37.9v69.9s-5.8.7-14.9.7c-4.7 0-9.8-.2-15.2-.7V13.7zm65.8 78.5C83.8 92.2 95 75.7 95 66.4 95 55.9 82.6 41 73.6 41H37.9v51.3h35.7z">
</path>
        <path d="M176.6 71c39.6 0 50.4 21 50.4 56.9 0 40.3-15.4 62.7-50.4 62.7s-50.1-22.4-50.1-62.7C126.4 92 136.9 71 176.6 71zm0 94.7c16.3 0 22.1-14 22.1-36.1 0-21.7-5.8-33.3-22.1-33.3s-21.9 10.5-21.9 32.4c0 21.8 5.5 37 21.9 37zM284 71c39.6 0 50.4 21 50.4 56.9 0 40.3-15.4 62.7-50.4 62.7s-50.1-22.4-50.1-62.7C233.9 92 244.4 71 284 71zm0 94.7c16.3 0 22.1-14 22.1-36.1 0-21.7-5.8-33.3-22.1-33.3s-21.9 10.5-21.9 32.4c0 21.8 5.6 37 21.9 37zm146.2 23.5s-6.3.7-14.7.7c-4.2 0-8.9-.2-13.8-.7V97.6l-31.7.2v91.4s-6.3.7-14.7.7c-4.2 0-8.9-.2-13.8-.7V72.9s23.5-1.4 58.5-1.4h46c39.4 0 46.2 11.9 46.2 49.2v68.5s-6.1.7-14.5.7c-4.2 0-9.1-.2-14-.7v-70.6c0-16.6-3.3-21.2-17.7-21.2h-15.9v91.8z">
</path>
    </g>
</svg>
