<svg class="logo-text-store" xmlns="http://www.w3.org/2000/svg" viewBox="0 0 500 205">

    <path fill="#77787B" d="M122.1 25.3s-7 13.5-22 24c0 0-11.7-11.2-33.2-11.2-19.5 0-28.7 5.5-28.7 23.5C38.3 82.2 56 85 73.5 87.7c25.7 4 54.2 10.2 54.2 56.6 0 42.2-24.7 55.6-65.4 55.6-37.7 0-58.1-21.2-58.1-21.2s8.5-15.2 23.5-22.5c0 0 13 14.2 34.7 14.2 22.2 0 33.2-7 33.2-26.2 0-22.5-18.7-26.2-36.7-28.9-25-4.2-52.4-10.7-52.4-52.7C6.3 21.8 31 7.6 67 7.6c37.4 0 55.1 17.7 55.1 17.7zm145 45.9c42.4 0 53.9 22.5 53.9 60.9 0 43.2-16.5 67.1-53.9 67.1s-53.7-24-53.7-67.1c0-38.4 11.3-60.9 53.7-60.9zm0 101.4c17.5 0 23.7-15 23.7-38.7 0-23.2-6.2-35.7-23.7-35.7s-23.5 11.2-23.5 34.7 6 39.7 23.5 39.7zm124.5-99.9s.7 6 .7 14c0 4-.2 9-.7 13.5 0 0-9.7-1-18.2-1-9.2 0-15.2.5-15.2.5v98.1s-7 .7-16 .7c-4.5 0-9.7-.2-14.7-.7V73.2s12.5-1.7 31.9-1.7c21.2 0 32.2 1.2 32.2 1.2zm26.7 73.4c0 19 12 26.7 29.2 26.7 21 0 34.9-6.7 34.9-6.7 6.2 12.7 7.7 26 7.7 26s-15.5 7.5-42.7 7.5c-42.7 0-59.9-22-59.9-65.1 0-42.2 20-63.1 55.4-63.1 33.2 0 52.7 23.5 52.7 60.1 0 9-1 14.7-1 14.7h-76.3zm.5-23.7h44.7v-3.7c0-9.7-5.5-21-20.5-21-16.9 0-23.9 10.2-24.2 24.7z">
</path>
    <path d="M151.2 45.5l30.4-6.5v33.2h31.9c.5 4.2.7 8.7.7 12.7 0 8-.7 14.2-.7 14.2h-31.9v98.6s-6.7.7-15.7.7c-4.5 0-9.5-.2-14.7-.7V45.5zm0 54.8h-31.9s-.7-6.2-.7-14.2c0-4 .2-8.5.7-12.7h31.9v26.9z" fill="#77787B">
</path>
</svg>
