<svg viewBox="0 0 24 24" xmlns="http://www.w3.org/2000/svg">
    <path d="M13 19.373v1.46h2.528c.589 0 1.066.484 1.066 1.083S16.117 23 15.528 23H7.412a1.075 1.075 0 0 1-1.065-1.084c0-.599.477-1.084 1.065-1.084H10v-1.506c-3.402-.663-5.435-3.452-5.992-8.11a1.08 1.08 0 0 1 .929-1.208 1.07 1.07 0 0 1 1.186.945c.523 4.372 2.319 6.36 5.55 6.36 2.104 0 3.468-.982 4.33-2.724.331-.67.567-1.42.714-2.191a7.996 7.996 0 0 0 .153-1.314c0-.599.476-1.084 1.065-1.084.588 0 1.065.485 1.065 1.084 0 1.174-.34 2.955-1.095 4.48-1.014 2.05-2.641 3.428-4.905 3.809z"></path>
    <path d="M11.5 15c1.932 0 3.5-1.879 3.5-4.563V5.045C15 2.812 13.432 1 11.5 1S8 2.812 8 5.045v5.392C8 13.12 9.568 15 11.5 15z"></path>
</svg>