<svg viewBox="1 1 22 22" xmlns="http://www.w3.org/2000/svg">
    <path d="M12.5 8.666c1.183 0 2.143-.894 2.143-2V4c0-1.104-.96-2-2.143-2-1.183 0-2.143.896-2.143 2v2.666c0 1.105.96 2 2.143 2z"></path>
    <path d="M13.571 13v-1.101c2.442-.465 4.286-2.485 4.286-4.899h-2.143c0 1.654-1.442 3-3.214 3S9.286 8.654 9.286 7H7.143c0 2.415 1.844 4.435 4.286 4.899V13h2.142zM17.857 14v3.697l-2.323-3.252a1.112 1.112 0 0 0-1.202-.402c-.45.128-.76.517-.76.957v7h2.142v-3.697l2.323 3.252c.203.283.54.445.892.445.104 0 .207-.014.31-.043.451-.127.761-.517.761-.957v-7h-2.143zM8.214 14C6.442 14 5 15.346 5 17v2c0 1.654 1.442 3 3.214 3s3.215-1.346 3.215-3v-2c0-1.654-1.443-3-3.215-3zm1.072 5c0 .552-.481 1-1.072 1-.59 0-1.071-.448-1.071-1v-2c0-.551.48-1 1.071-1 .59 0 1.072.449 1.072 1v2z"></path>
</svg>