<?xml version="1.0" encoding="UTF-8" standalone="no"?>
<svg viewBox="0 0 21 21" version="1.1" xmlns="http://www.w3.org/2000/svg" xmlns:xlink="http://www.w3.org/1999/xlink">
    <!-- Generator: Sketch 3.8.3 (29802) - http://www.bohemiancoding.com/sketch -->
    <title>mirror-vertical</title>
    <desc>Created with Sketch.</desc>
    <defs></defs>
    <g id="Iconography" stroke="none" stroke-width="1" fill="none" fill-rule="evenodd">
        <g id="New-Icons---Gold-Release" transform="translate(-1417.000000, -169.000000)">
            <g id="mirror-vertical" transform="translate(1416.000000, 168.000000)">
                <g id="Group">
                    <g id="Frame_-_24px">
                        <rect id="Rectangle-path" x="0" y="0" width="23.060625" height="23.060625"></rect>
                    </g>
                    <g id="Line_Icons" transform="translate(1.921719, 1.921719)" fill="#d2d3d5">
                        <g id="Group">
                            <polygon id="Shape" points="9.60859375 10.5694531 13.4520312 10.5694531 13.4520312 8.64773438 9.60859375 8.64773438 9.60859375 5.76515625 4.80429687 9.60859375 9.60859375 13.4520313"></polygon>
                            <rect id="Rectangle-path" x="-1.45661261e-13" y="8.64773437" width="1.92171875" height="1.92171875"></rect>
                            <rect id="Rectangle-path" x="-1.45661261e-13" y="5.76515625" width="1.92171875" height="1.92171875"></rect>
                            <rect id="Rectangle-path" x="-1.45661261e-13" y="2.88257813" width="1.92171875" height="1.92171875"></rect>
                            <rect id="Rectangle-path" x="5.76515625" y="6.81676937e-14" width="1.92171875" height="1.92171875"></rect>
                            <rect id="Rectangle-path" x="2.88257812" y="6.81676937e-14" width="1.92171875" height="1.92171875"></rect>
                            <rect id="Rectangle-path" x="-1.45661261e-13" y="6.81676937e-14" width="1.92171875" height="1.92171875"></rect>
                            <rect id="Rectangle-path" x="-1.45661261e-13" y="11.5303125" width="1.92171875" height="1.92171875"></rect>
                            <rect id="Rectangle-path" x="-1.45661261e-13" y="14.4128906" width="1.92171875" height="1.92171875"></rect>
                            <rect id="Rectangle-path" x="-1.45661261e-13" y="17.2954688" width="1.92171875" height="1.92171875"></rect>
                            <rect id="Rectangle-path" x="2.88257812" y="17.2954688" width="1.92171875" height="1.92171875"></rect>
                            <rect id="Rectangle-path" x="5.76515625" y="17.2954688" width="1.92171875" height="1.92171875"></rect>
                            <polygon id="Shape" points="8.64773438 6.81676937e-14 8.64773438 4.80429688 10.5694531 4.80429688 10.5694531 1.92171875 17.2954688 1.92171875 17.2954688 17.2954688 10.5694531 17.2954688 10.5694531 15.37375 8.64773438 15.37375 8.64773438 19.2171875 19.2171875 19.2171875 19.2171875 6.81676937e-14"></polygon>
                        </g>
                    </g>
                </g>
            </g>
        </g>
    </g>
</svg>