<?xml version="1.0" encoding="UTF-8" standalone="no"?>
<svg viewBox="-3 0 22 22" version="1.1" xmlns="http://www.w3.org/2000/svg" xmlns:xlink="http://www.w3.org/1999/xlink" xmlns:sketch="http://www.bohemiancoding.com/sketch/ns">
    <path d="M8.36741101,11.261149 L1.51145462,18.117106 C1.11207932,17.339199 0.887131824,16.459834 0.887131824,15.528541 L0.887131824,7.882417 C0.887131824,6.343287 2.15627352,5.095575 3.72761802,5.095575 L9.74984701,5.095575 C11.056394,5.095575 12.156909,5.962499 12.488298,7.140262 L8.75275901,10.875801 L1.08218522,10.875801 L0.887131824,10.875801 L0.887131824,11.261149 L1.08218522,11.261149 L8.36741101,11.261149 L8.36741101,11.261149 Z M12.590333,11.050862 L12.590333,15.528541 C12.590333,18.705098 9.97119301,21.280207 6.73873201,21.280207 C5.49457202,21.280207 4.34110122,20.898797 3.39288942,20.248305 C5.48077802,18.160417 8.98214301,14.659052 12.065601,11.575594 L12.590333,11.050862 Z M6.73873201,5.28825 L6.73873201,10.683127 L6.73873201,10.875801 L7.12883901,10.875801 L7.12883901,10.683127 L7.12883901,5.28825 L7.12883901,5.095575 L6.73873201,5.095575 L6.73873201,5.28825 L6.73873201,5.28825 Z M7.29723501,5.034524 C7.29156901,3.740588 7.50691801,3.351997 8.11323601,3.00625 C8.13644001,2.993018 8.15793701,2.980902 8.20435301,2.954809 C9.13238501,2.432444 9.42415501,1.806062 9.23126201,0 L8.52585201,0.072745 C8.69059501,1.615252 8.52477601,1.971238 7.85180201,2.350038 C7.80549401,2.376069 7.78224501,2.389172 7.75722801,2.403438 C6.92602201,2.877425 6.58122201,3.499606 6.58795601,5.037523 L7.29723501,5.034524 L7.29723501,5.034524 Z M1.51364942,21.375176 L15.740299,7.148527 C16.086567,6.802259 16.086567,6.240847 15.740299,5.894579 C15.394031,5.54831 14.832619,5.54831 14.486351,5.894579 L0.259701225,20.121228 C-0.0865670749,20.467496 -0.0865670749,21.028908 0.259701225,21.375176 C0.605969424,21.721444 1.16738122,21.721444 1.51364942,21.375176 L1.51364942,21.375176 Z" id="mouse-off" sketch:type="MSShapeGroup">
    </path>
</svg>