<svg viewBox="-3 0 65 65" xmlns="http://www.w3.org/2000/svg">
    <path d="M12 23.9c0-4.472 3.687-8.096 8.252-8.096h17.496c4.557 0 8.252 3.63 8.252 8.096v22.213c0 9.229-7.61 16.71-17 16.71-9.389 0-17-7.476-17-16.71V23.9zm17-7.537v16.233h1.133V15.803H29v.56zM12.567 33.716H46v-1.12H12v1.12h.567zm18.056-18.09c-.017-3.759.609-4.888 2.37-5.892l.265-.15C35.954 8.067 36.802 6.247 36.24 1l-2.05.211c.48 4.482-.002 5.516-1.957 6.616l-.275.155c-2.415 1.377-3.417 3.185-3.397 7.653l2.06-.009z"></path>
</svg>