<svg viewBox="0 0 11 13" fill="none" xmlns="http://www.w3.org/2000/svg">
<path d="M0 2.48974L0.758778 1.73689L10.6703 11.6484L9.91747 12.4072L9.18833 11.6899C8.34656 12.5021 7.19654 13 5.92795 13C4.6702 13 3.46396 12.5004 2.5746 11.611C1.68523 10.7216 1.18559 9.51539 1.18559 8.25764V5.88646H3.39672L2.21113 4.70087H1.18559C1.18559 4.38076 1.21523 4.06658 1.27451 3.76425L0 2.48974ZM5.33516 0V4.70087H5.22846L2.24669 1.71318C2.99362 0.788418 4.09029 0.154127 5.33516 0ZM10.6703 5.88646V8.25764C10.6703 8.82079 10.5695 9.36024 10.3917 9.86411L6.41405 5.88646H10.6703ZM6.52075 0C8.85636 0.29047 10.6703 2.28226 10.6703 4.70087H6.52075V0Z" fill="white"/>
</svg>
