<?xml version="1.0" encoding="UTF-8" standalone="no"?>
<svg viewBox="0 0 65 65" version="1.1" xmlns="http://www.w3.org/2000/svg" xmlns:xlink="http://www.w3.org/1999/xlink">
    <defs></defs>
    <g id="Icons-(Lightyear)" stroke="none" stroke-width="1" fill="none" fill-rule="evenodd">
        <g id="Artboard-4" fill="#000000">
            <path d="M12,23.899904 C12,19.4284415 15.6870952,15.8036048 20.2521465,15.8036048 L37.7478535,15.8036048 C42.3053882,15.8036048 46,19.4345168 46,23.899904 L46,46.1133318 C46,55.3418294 38.3909051,62.8230048 29,62.8230048 C19.6111593,62.8230048 12,55.3466619 12,46.1133318 L12,23.899904 L12,23.899904 Z M29,16.3633596 L29,32.0364929 L29,32.5962477 L30.1333333,32.5962477 L30.1333333,32.0364929 L30.1333333,16.3633596 L30.1333333,15.8036048 L29,15.8036048 L29,16.3633596 L29,16.3633596 Z M12.5666667,33.7157572 L45.4333333,33.7157572 L46,33.7157572 L46,32.5962477 L45.4333333,32.5962477 L12.5666667,32.5962477 L12,32.5962477 L12,33.7157572 L12.5666667,33.7157572 Z M30.6225542,15.6262389 C30.6060947,11.8671107 31.2317228,10.7381832 32.9931931,9.7337219 C33.0606051,9.69528082 33.123057,9.66008173 33.2579047,9.58427537 C35.9540104,8.06670677 36.8016573,6.24695088 36.241269,1 L34.1919178,1.21133854 C34.6705295,5.69261007 34.1887932,6.72681733 32.2336773,7.82730176 C32.0991428,7.90292623 32.0315997,7.94099479 31.9589226,7.98243822 C29.5441116,9.35946074 28.5424042,11.1670125 28.5619672,15.6349505 L30.6225542,15.6262389 Z" id="Rectangle-1"></path>
        </g>
    </g>
</svg>