<svg class="mute" xmlns="http://www.w3.org/2000/svg" viewBox="0 0 500 500">
    <path d="M103.8 337.8l-12.5-10.5H26.9c-12 0-22-9.9-22-22v-87.8c0-12 9.9-22 22-22h64.3L212 95.8c6.8-5.2 15.7-6.8 23.5-3.1 7.8 3.7 12.5 11.5 12.5 19.9v297.9c0 8.4-4.7 16.2-12.5 19.9-3.1 1.6-6.3 2.1-9.4 2.1-5.2 0-9.9-1.6-14.1-5.2l-43.4-36.1-64.8-53.4zm226.3-115c-4.2-13.6-11-26.1-19.3-38.2-6.3-8.9-5.7-20.9 2.1-28.7l3.1-3.1c4.2-4.2 9.9-6.3 15.7-6.3h1.6c6.3.5 12 3.7 16.2 8.9 7.3 9.9 13.6 19.9 18.3 30.8l2.6 5.2c9.4 22 14.1 45.5 14.1 70 0 38.7-12 75.3-35 105.6-3.7 5.2-9.9 8.4-16.2 8.9h-1.6c-5.7 0-11.5-2.1-15.7-6.3l-3.1-3.1c-7.8-7.8-8.9-19.9-2.1-28.7 16.7-22.5 25.1-48.6 25.1-76.3 0-11-1.6-22-4.2-32.4l-1.6-6.3z">
</path>
    <path d="M412.2 145.4c-6.8-12.5-15.2-24-24.6-35-7.3-8.9-6.8-22 1-29.8l3.1-3.1c4.2-4.2 9.9-6.3 15.7-6.3h1c6.3.5 12 3.1 16.2 7.8 8.9 11 16.7 20.9 24 32.9l1 1c27.2 44.4 42.3 95.7 42.3 149 0 66.9-23.5 131.7-66.9 183-4.2 4.7-9.9 7.3-16.2 7.8h-1c-5.7 0-11.5-2.1-15.7-6.3l-3.1-3.1c-8.4-7.8-8.9-20.9-1-29.8 35.5-42.3 55.4-96.2 55.4-151.6 0-40.2-9.9-78.9-29.3-113.4l-1.9-3.1z">
</path>
</svg>
