<svg class="mute-activity" xmlns="http://www.w3.org/2000/svg" viewBox="0 0 500 500">
    <path d="M247.9 312v97.8c0 8.3-4.7 16.1-12.5 19.8-3.1 1.6-6.2 2.1-9.4 2.1-5.2 0-9.9-1.6-14-5.2l-43.2-35.9 79.1-78.6zm-143.6 25.5l-12.5-10.4h-64c-12 0-21.8-9.9-21.8-21.8v-87.4c0-12 9.9-21.8 21.8-21.8h64L212 96.6c6.8-5.2 15.6-6.8 23.4-3.1 7.8 3.6 12.5 11.4 12.5 19.8v82.2l-143.6 142zm264.8-145.7c9.4 21.8 14 45.3 14 69.7 0 38.5-12 74.9-34.9 105.1-3.6 5.2-9.9 8.3-16.1 8.8h-1.6c-5.7 0-11.4-2.1-15.6-6.2l-3.1-3.1c-7.8-7.8-8.8-19.8-2.1-28.6 16.6-22.4 25-48.4 25-75.9 0-10.9-1.6-21.8-4.2-32.3l38.6-37.5zm79.1-78.5c27.1 44.2 42.1 95.2 42.1 148.3 0 66.6-23.4 131.1-66.6 182.1-4.2 4.7-9.9 7.3-16.1 7.8h-1c-5.7 0-11.4-2.1-15.6-6.2l-3.1-3.1c-8.3-7.8-8.8-20.8-1-29.7 35.4-42.1 55.1-95.7 55.1-150.9 0-40.1-9.9-78.6-29.1-112.9l35.3-35.4zm40.6-62L54.4 483.1c-10.4 9.9-26.5 9.9-36.9 0-9.9-10.4-9.9-26.5 0-36.9L451.8 14.4c10.4-9.9 26.5-9.9 36.9 0 9.9 9.9 9.9 26.5.1 36.9z">
</path>
</svg>
