<svg viewBox="-1 0 51 51" xmlns="http://www.w3.org/2000/svg">
    <g fill="none" fill-rule="evenodd">
        <rect stroke="#D2D3D5" fill="#FFF" width="50" height="50" rx="2">
</rect>
        <path d="M37.756 22.822H27.178V12.244c0-.687-.557-1.244-1.245-1.244h-1.866c-.688 0-1.245.557-1.245 1.244v10.578H12.244c-.687 0-1.244.557-1.244 1.245v1.866c0 .688.557 1.245 1.244 1.245h10.578v10.578c0 .687.557 1.244 1.245 1.244h1.866c.688 0 1.245-.557 1.245-1.244V27.178h10.578c.687 0 1.244-.557 1.244-1.245v-1.866c0-.688-.557-1.245-1.244-1.245" fill="#6C9932">
</path>
    </g>
</svg>
