<svg xmlns="http://www.w3.org/2000/svg" viewBox="0 0 33 18">
    <path d="M1.163 4.948a.586.586 0 0 1-.584-.584V.591c0-.32.264-.584.584-.584h5.432c.32 0 .584.264.584.584v3.773c0 .32-.264.584-.584.584H1.163zm5.432 6.52H1.163a.586.586 0 0 1-.584-.583v-3.78c0-.32.264-.584.584-.584h5.432c.32 0 .584.263.584.584v3.78c0 .32-.264.584-.584.584zm19.969 6.386a.586.586 0 0 1-.584-.583V.59c0-.32.263-.584.584-.584h5.432c.32 0 .583.264.583.584v16.68c0 .32-.263.583-.583.583h-5.432zm-19.97.129h-5.43a.586.586 0 0 1-.585-.584v-3.78c0-.32.264-.584.584-.584h5.432c.32 0 .584.263.584.584v3.773c0 .327-.264.59-.584.59zm3.53-.121c-.757 0-1.38-.954-1.38-2.115V2.114C8.745.954 9.368 0 10.125 0h12.78c.757 0 1.378.954 1.378 2.114v13.633c0 1.168-.621 2.115-1.378 2.115h-12.78z"></path>
</svg>