<svg viewBox="0 0 19 16" xmlns="http://www.w3.org/2000/svg">
<path d="M14.6667 13.5003V15.3337H1.83333C1.3471 15.3337 0.880787 15.1405 0.536971 14.7967C0.193154 14.4529 0 13.9866 0 13.5003V4.33366H1.83333V13.5003H14.6667ZM18.3333 2.50033V9.83366C18.3333 10.3199 18.1402 10.7862 17.7964 11.13C17.4525 11.4738 16.9862 11.667 16.5 11.667H5.5C5.01377 11.667 4.54745 11.4738 4.20364 11.13C3.85982 10.7862 3.66667 10.3199 3.66667 9.83366V2.50033C3.66667 2.0141 3.85982 1.54778 4.20364 1.20396C4.54745 0.860146 5.01377 0.666992 5.5 0.666992H16.5C16.9862 0.666992 17.4525 0.860146 17.7964 1.20396C18.1402 1.54778 18.3333 2.0141 18.3333 2.50033ZM16.5 2.50033H5.5V9.83366H16.5V2.50033Z"/>
</svg>
