<?xml version="1.0" encoding="UTF-8" standalone="no"?>
<svg width="8px" height="13px" viewBox="0 0 8 13" version="1.1" xmlns="http://www.w3.org/2000/svg" xmlns:xlink="http://www.w3.org/1999/xlink">
    <!-- Generator: Sketch 39.1 (31720) - http://www.bohemiancoding.com/sketch -->
    <title>next</title>
    <desc>Created with Sketch.</desc>
    <defs></defs>
    <g id="Iconography" stroke="none" stroke-width="1">
        <g id="New-Icons---Gold-Release" transform="translate(-1232.000000, -341.000000)">
            <path d="M1239.42564,353.264664 L1238.85195,353.841287 C1238.6417,354.052904 1238.2972,354.052904 1238.08694,353.841287 L1232.75646,348.483809 C1232.74855,348.476424 1232.73923,348.471027 1232.73131,348.463073 L1232.15763,347.886451 C1232.02593,347.753799 1231.97676,347.568314 1232.01011,347.396464 C1232.02961,347.292501 1232.07878,347.193367 1232.15847,347.113549 L1232.73216,346.536927 C1232.73753,346.53153 1232.74403,346.527553 1232.74968,346.52244 L1238.08638,341.158713 C1238.29664,340.947096 1238.64085,340.947096 1238.85111,341.158713 L1239.42508,341.735336 C1239.63533,341.94667 1239.63533,342.292643 1239.42508,342.504261 L1234.45492,347.499574 L1239.42564,352.495739 C1239.6359,352.707357 1239.6359,353.05333 1239.42564,353.264664" id="next" transform="translate(1235.791667, 347.500000) scale(-1, 1) translate(-1235.791667, -347.500000) "></path>
        </g>
    </g>
</svg>
