<svg viewBox="0 0 192 192" xmlns="http://www.w3.org/2000/svg">
    <g fill="none" fill-rule="evenodd">
        <path fill="#FFF" d="M0 0h192v192H0z">
</path>
        <path d="M76.278 130h-.78l-5.314-7.91V130h-.787v-9.242h.787l5.32 7.915v-7.915h.774V130zm1.752-3.536c0-.66.128-1.254.384-1.783.256-.524.618-.94 1.085-1.23.463-.294.993-.44 1.59-.44.91 0 1.65.32 2.22.96.564.64.85 1.49.85 2.55v.158c0 .664-.13 1.262-.386 1.793-.256.53-.617.94-1.083 1.228-.464.288-.995.432-1.592.432-.91 0-1.65-.32-2.218-.964-.57-.64-.854-1.49-.854-2.548v-.154zm.762.21c0 .82.212 1.495.637 2.022.42.526.98.79 1.67.79.684 0 1.24-.264 1.664-.79.426-.527.638-1.222.638-2.086v-.146c0-.524-.097-1.005-.292-1.44-.193-.436-.466-.774-.82-1.013-.35-.234-.75-.354-1.204-.354-.678 0-1.23.266-1.657.797-.43.53-.64 1.226-.64 2.085v.14zM90.022 130h-.782v-9.242h.78V130zm3.02-6.868l.025 1.117c.254-.42.572-.73.953-.938.38-.207.804-.31 1.27-.31 1.082 0 1.77.443 2.062 1.332.245-.428.573-.757.984-.987.41-.23.863-.346 1.358-.346 1.473 0 2.224.805 2.254 2.413V130h-.762v-4.526c-.004-.613-.136-1.068-.397-1.365-.26-.3-.69-.45-1.277-.45-.546.01-1.008.186-1.384.53-.377.346-.586.766-.63 1.26V130h-.76v-4.583c-.005-.588-.143-1.027-.416-1.317-.273-.29-.693-.435-1.26-.435-.478 0-.89.137-1.232.41-.342.272-.596.678-.76 1.215V130h-.763v-6.868h.73zM108.207 130c-.077-.216-.125-.535-.146-.958-.262.347-.602.614-1.014.802-.413.19-.85.283-1.31.283-.66 0-1.195-.184-1.604-.552-.41-.368-.612-.834-.612-1.397 0-.668.278-1.197.834-1.587.56-.384 1.334-.58 2.33-.58h1.376v-.78c0-.49-.15-.876-.454-1.16-.3-.28-.742-.42-1.322-.42-.53 0-.967.135-1.314.406-.347.27-.52.597-.52.978l-.762-.006c0-.545.255-1.018.762-1.418.508-.4 1.132-.6 1.873-.6.766 0 1.37.19 1.81.573.44.382.67.917.684 1.602v3.25c0 .665.07 1.162.21 1.492V130h-.813zm-2.387-.546c.508 0 .96-.123 1.36-.368.4-.246.692-.573.874-.984v-1.51h-1.358c-.758.008-1.35.146-1.778.415-.427.27-.64.638-.64 1.108 0 .385.142.704.428.958.285.254.657.38 1.114.38zm4.71-2.952c0-1.074.238-1.926.714-2.554.476-.63 1.122-.943 1.94-.943.934 0 1.645.372 2.132 1.117l.038-.99h.71v6.728c0 .885-.247 1.585-.742 2.1-.495.518-1.166.776-2.012.776-.478 0-.934-.107-1.368-.32-.434-.214-.775-.5-1.025-.854l.425-.458c.538.66 1.177.99 1.917.99.63 0 1.13-.187 1.48-.56.356-.376.54-.895.553-1.56v-.863c-.487.68-1.196 1.02-2.127 1.02-.796 0-1.435-.316-1.918-.95-.483-.636-.724-1.493-.724-2.57v-.104zm.768.134c0 .876.175 1.567.527 2.072.35.506.846.76 1.485.76.935 0 1.598-.42 1.987-1.258v-3.193c-.178-.44-.434-.775-.768-1.006-.34-.23-.74-.34-1.21-.34-.64 0-1.137.25-1.49.75-.357.5-.535 1.24-.535 2.22zm9.407 3.49c-.584 0-1.112-.143-1.584-.43-.47-.288-.834-.69-1.1-1.204-.26-.514-.39-1.09-.39-1.73v-.272c0-.66.128-1.255.384-1.784.258-.53.614-.945 1.07-1.247.458-.308.953-.46 1.486-.46.833 0 1.494.285 1.983.855.488.568.732 1.345.732 2.33v.427h-4.9v.146c0 .78.223 1.427.67 1.945.446.52 1.008.778 1.685.778.405 0 .764-.073 1.075-.22.31-.148.593-.385.847-.71l.476.36c-.558.81-1.37 1.213-2.43 1.213zm-.14-6.474c-.57 0-1.052.21-1.444.63-.39.418-.624.98-.71 1.687h4.12v-.087c-.02-.66-.21-1.198-.564-1.613-.356-.413-.82-.62-1.397-.62zm-43.68 18.758h-4.197l-.952 2.59h-.82l3.5-9.242h.74l3.5 9.242h-.813l-.96-2.59zm-3.956-.666h3.702l-1.853-5.034-1.854 5.034zm8.723 2.21l2.09-5.822h.78L81.963 145h-.617l-2.577-6.868h.78l2.103 5.82zM90.01 145c-.075-.216-.124-.535-.145-.958-.267.347-.606.614-1.02.802-.41.19-.848.283-1.31.283-.66 0-1.194-.184-1.602-.552-.41-.368-.613-.834-.613-1.397 0-.668.278-1.197.835-1.587.556-.384 1.332-.58 2.326-.58h1.38v-.78c0-.49-.15-.876-.45-1.16-.304-.28-.745-.42-1.325-.42-.528 0-.966.135-1.313.406-.347.27-.52.597-.52.978l-.762-.006c0-.545.254-1.018.762-1.418.506-.4 1.13-.6 1.87-.6.765 0 1.37.19 1.812.573.442.382.67.917.682 1.602v3.25c0 .665.07 1.162.21 1.492V145h-.813zm-2.386-.546c.508 0 .962-.123 1.362-.368.4-.246.69-.573.873-.984v-1.51H88.5c-.757.008-1.35.146-1.777.415-.428.27-.64.638-.64 1.108 0 .385.142.704.427.958.286.254.657.38 1.114.38zm5.866.546h-.762v-6.868h.762V145zm-.896-8.855c0-.144.047-.266.14-.365.093-.1.22-.15.38-.15.162 0 .29.05.385.15.09.1.14.22.14.365 0 .144-.05.265-.145.362-.096.097-.224.146-.385.146-.16 0-.287-.05-.38-.146-.093-.097-.14-.218-.14-.362zm3.81 8.855h-.763v-9.75h.767V145zm6.398 0c-.077-.216-.125-.535-.146-.958-.267.347-.607.614-1.02.802-.412.19-.85.283-1.31.283-.66 0-1.194-.184-1.603-.552-.408-.368-.612-.834-.612-1.397 0-.668.28-1.197.84-1.587.556-.384 1.33-.58 2.326-.58h1.377v-.78c0-.49-.15-.876-.454-1.16-.303-.28-.744-.42-1.324-.42-.53 0-.967.135-1.314.406-.347.27-.52.597-.52.978l-.762-.006c0-.545.254-1.018.76-1.418.51-.4 1.133-.6 1.874-.6.767 0 1.37.19 1.813.573.442.382.67.917.683 1.602v3.25c0 .665.07 1.162.21 1.492V145h-.813zm-2.387-.546c.508 0 .96-.123 1.36-.368.4-.246.692-.573.874-.984v-1.51h-1.36c-.76.008-1.35.146-1.78.415-.428.27-.64.638-.64 1.108 0 .385.14.704.43.958.283.254.655.38 1.112.38zm10.543-2.818c0 1.07-.237 1.92-.71 2.548-.475.63-1.112.943-1.91.943-.958 0-1.68-.356-2.172-1.066l-.032.94h-.71v-9.75h.754v3.88c.483-.75 1.198-1.12 2.146-1.12.812 0 1.455.31 1.926.93.472.62.708 1.48.708 2.585v.116zm-.76-.134c0-.905-.177-1.604-.528-2.097-.352-.493-.847-.74-1.486-.74-.486 0-.9.12-1.237.36-.34.238-.595.588-.77 1.05v3.097c.382.863 1.055 1.295 2.02 1.295.626 0 1.116-.248 1.47-.743.353-.495.53-1.236.53-2.222zm3.287 3.498h-.762v-9.75h.762V145zm4.722.127c-.584 0-1.112-.144-1.583-.432-.472-.287-.84-.688-1.102-1.203-.262-.514-.393-1.09-.393-1.73v-.272c0-.66.123-1.255.38-1.784.255-.53.61-.945 1.07-1.247.455-.308.95-.46 1.484-.46.833 0 1.494.285 1.983.855.49.568.733 1.345.733 2.33v.427h-4.9v.146c0 .78.224 1.427.67 1.945.447.52 1.01.778 1.686.778.404 0 .763-.073 1.074-.22.31-.148.593-.385.847-.71l.476.36c-.558.81-1.37 1.213-2.43 1.213zm-.14-6.475c-.57 0-1.052.21-1.443.63-.392.418-.63.98-.715 1.687h4.12v-.087c-.026-.66-.21-1.198-.57-1.613-.355-.413-.82-.62-1.396-.62z" fill="#D2D3D5">
</path>
        <path d="M96 44c-12.15 0-22 9.85-22 22.003v39.213c0 1.104.895 1.996 2 1.996 1.1 0 1.995-.892 1.995-1.996 0-1.102.896-2 1.998-2 1.103 0 1.998.897 1.998 2 0 1.104.9 1.996 2 1.996s2-.892 2-1.996c0-1.102.897-2 1.998-2 1.104 0 1.998.897 1.998 2 0 1.104.894 1.996 1.997 1.996 1.104 0 1.998-.892 1.998-1.996 0-1.102.896-2 1.998-2 1.103 0 2 .897 2 2 0 1.104.893 1.996 1.996 1.996s2-.892 2-1.996c0-1.102.894-2 1.997-2 1.105 0 2 .897 2 2 0 1.104.894 1.996 1.998 1.996 1.103 0 1.998-.892 1.998-1.996 0-1.102.897-2 2-2 1.1 0 1.998.897 1.998 2 0 1.104.893 1.996 1.996 1.996s2-.892 2-1.996h.04V66.003C118 53.85 108.15 44 96 44zm9.25 30.468c-2.78 0-5.03-2.256-5.03-5.03 0-2.78 2.25-5.032 5.03-5.032 2.778 0 5.03 2.253 5.03 5.032 0 2.774-2.252 5.03-5.03 5.03zm-18.583 0c-2.778 0-5.03-2.256-5.03-5.03 0-2.78 2.252-5.032 5.03-5.032 2.778 0 5.03 2.253 5.03 5.032-.002 2.774-2.253 5.03-5.03 5.03zM102.5 85.5c0-3.59-2.91-6.5-6.5-6.5s-6.5 2.91-6.5 6.5 13 3.59 13 0z" fill="#DBDBDB">
</path>
    </g>
</svg>
