<svg width="20px" height="18px" viewBox="0 0 20 18" version="1.1" xmlns="http://www.w3.org/2000/svg" xmlns:xlink="http://www.w3.org/1999/xlink" xmlns:sketch="http://www.bohemiancoding.com/sketch/ns">
  <path d="M18,2 C16.896,2 16,2.896 16,4 L16,13 L20,13 L20,4 C20,2.896 19.104,2 18,2" id="Fill-3010"></path>
  <path d="M18,18 L20,15 L16,15 L18,18 Z" id="Fill-3011"></path>
  <path d="M11,6 L3,6 L3,4 L11,4 L11,6 Z M11,10 L3,10 L3,8 L11,8 L11,10 Z M8,14 L3,14 L3,12 L8,12 L8,14 Z M12,0 L2,0 C0.897,0 0,0.897 0,2 L0,16 C0,17.103 0.897,18 2,18 L12,18 C13.103,18 14,17.103 14,16 L14,2 C14,0.897 13.103,0 12,0 L12,0 Z" id="Fill-3012"></path>
</svg>
