<svg viewBox="0 0 209 20" xmlns="http://www.w3.org/2000/svg">
    <path d="M12.184 10.21c0 1.4-.243 2.633-.728 3.693-.484 1.06-1.177 1.876-2.077 2.448-.9.577-1.94.86-3.12.86-1.78 0-3.218-.633-4.31-1.91C.852 14.03.31 12.31.31 10.15V8.58c0-1.388.246-2.617.738-3.688.49-1.073 1.187-1.896 2.087-2.47.9-.577 1.936-.865 3.108-.865 1.172 0 2.206.283 3.103.848.896.565 1.588 1.364 2.077 2.396.488 1.03.743 2.23.764 3.59v1.82zm-1.287-1.654c0-1.834-.415-3.27-1.245-4.31-.83-1.04-1.968-1.56-3.41-1.56-1.418 0-2.546.522-3.386 1.565-.84 1.047-1.26 2.5-1.26 4.37v1.59c0 1.81.417 3.24 1.254 4.3.838 1.055 1.974 1.584 3.41 1.584 1.46 0 2.596-.52 3.412-1.564.817-1.043 1.225-2.496 1.225-4.358V8.556zm13.35 2.9c0 1.763-.39 3.164-1.17 4.2-.783 1.035-1.832 1.553-3.15 1.553-1.577 0-2.77-.59-3.58-1.76l-.05 1.55h-1.173V.93h1.245v6.39c.79-1.235 1.97-1.852 3.53-1.852 1.34 0 2.4.51 3.177 1.532.78 1.022 1.167 2.444 1.167 4.264v.19zm-1.255-.22c0-1.494-.29-2.647-.868-3.46-.58-.812-1.395-1.218-2.45-1.218-.8 0-1.48.197-2.04.59-.557.395-.98.972-1.265 1.733v5.11c.623 1.424 1.732 2.135 3.322 2.135 1.033 0 1.84-.407 2.422-1.223.583-.816.874-2.037.874-3.662zm10.798 2.887c0-.62-.25-1.12-.748-1.497-.5-.376-1.25-.67-2.255-.884-1.004-.212-1.784-.457-2.338-.732-.56-.276-.97-.612-1.24-1.01-.27-.397-.403-.88-.403-1.444 0-.893.373-1.63 1.12-2.213.746-.582 1.702-.873 2.867-.873 1.262 0 2.275.312 3.04.936.763.624 1.145 1.44 1.145 2.443h-1.257c0-.667-.277-1.22-.832-1.658-.553-.44-1.252-.66-2.096-.66-.824 0-1.484.184-1.983.55-.5.366-.747.842-.747 1.428 0 .566.207 1.004.622 1.314.413.31 1.17.595 2.27.853 1.097.257 1.92.533 2.47.826.546.293.952.645 1.217 1.057.265.41.398.91.398 1.497 0 .954-.385 1.72-1.156 2.29-.77.572-1.778.86-3.02.86-1.318 0-2.387-.32-3.206-.96-.82-.637-1.23-1.445-1.23-2.42h1.256c.05.73.358 1.3.926 1.71.57.407 1.32.61 2.255.61.872 0 1.576-.19 2.113-.574.537-.384.806-.868.806-1.454zm8.454 3.086c-.962 0-1.833-.24-2.61-.716-.778-.475-1.383-1.135-1.816-1.983-.432-.847-.648-1.797-.648-2.85v-.45c0-1.09.21-2.07.633-2.94.422-.872 1.01-1.56 1.763-2.056.753-.5 1.57-.748 2.448-.748 1.374 0 2.464.47 3.27 1.406.805.938 1.208 2.22 1.208 3.845v.7h-8.077v.242c0 1.282.368 2.35 1.104 3.206.73.854 1.66 1.28 2.773 1.28.67 0 1.26-.12 1.773-.365.512-.243.977-.633 1.396-1.17l.785.596c-.92 1.334-2.257 2-4.008 2zm-.23-10.677c-.942 0-1.735.345-2.38 1.036-.646.69-1.038 1.62-1.177 2.783h6.79v-.136c-.035-1.09-.345-1.975-.93-2.66-.587-.682-1.354-1.024-2.303-1.024zm12.148.21c-.265-.05-.548-.074-.848-.074-.78 0-1.442.22-1.982.654-.54.436-.926 1.07-1.157 1.9V17H48.93V5.68h1.224l.02 1.8c.664-1.34 1.728-2.01 3.193-2.01.348 0 .624.045.826.136l-.03 1.14zm5.503 8.527l3.443-9.594h1.287L60.168 17h-1.015L54.905 5.68h1.287l3.473 9.594zM73.592 17c-.126-.356-.206-.882-.24-1.58-.44.572-1 1.013-1.68 1.324-.68.31-1.4.465-2.16.465-1.09 0-1.97-.308-2.643-.91-.678-.61-1.01-1.38-1.01-2.307 0-1.102.454-1.974 1.372-2.616.917-.64 2.195-.96 3.834-.96h2.27V9.13c0-.81-.25-1.446-.748-1.91-.5-.464-1.227-.696-2.183-.696-.87 0-1.593.224-2.165.67-.572.446-.858.984-.858 1.61l-1.255-.01c0-.9.417-1.678 1.254-2.338.838-.66 1.867-.988 3.088-.988 1.263 0 2.26.315 2.988.947.73.63 1.105 1.51 1.126 2.64v5.36c0 1.094.115 1.913.345 2.457V17H73.59zm-3.934-.9c.837 0 1.585-.202 2.244-.607.66-.404 1.14-.945 1.44-1.62V11.38H71.1c-1.25.015-2.225.244-2.93.687-.705.443-1.057 1.05-1.057 1.825 0 .635.236 1.162.706 1.58.47.42 1.08.628 1.834.628zM79.87 2.78v2.9h2.344v1.024H79.87v7.544c0 .628.113 1.095.34 1.402.227.307.605.46 1.135.46.21 0 .548-.034 1.015-.104l.052 1.025c-.327.12-.774.18-1.34.18-.857 0-1.48-.25-1.872-.75-.39-.494-.586-1.23-.586-2.2V6.707h-2.082V5.68h2.082v-2.9h1.256zM86.21 17h-1.255V5.68h1.256V17zM84.736 2.404c0-.237.077-.438.23-.602.154-.164.363-.246.628-.246s.476.082.633.246c.157.164.236.365.236.602s-.08.436-.236.596c-.157.16-.368.24-.633.24s-.474-.08-.628-.24c-.153-.16-.23-.36-.23-.596zm4.185 8.768c0-1.088.21-2.068.638-2.94.422-.872 1.018-1.55 1.79-2.035.77-.485 1.643-.727 2.62-.727 1.506 0 2.727.528 3.662 1.585s1.4 2.457 1.4 4.2v.262c0 1.095-.21 2.08-.633 2.956-.422.876-1.017 1.55-1.784 2.025-.766.474-1.642.71-2.625.71-1.5 0-2.72-.527-3.657-1.584-.936-1.057-1.406-2.457-1.406-4.2v-.252zm1.26.345c0 1.354.35 2.464 1.05 3.333.7.868 1.62 1.302 2.758 1.302 1.13 0 2.045-.434 2.746-1.302.702-.87 1.053-2.014 1.053-3.437v-.24c0-.866-.16-1.658-.482-2.376-.32-.72-.77-1.275-1.348-1.67-.58-.393-1.242-.59-1.988-.59-1.117 0-2.028.438-2.73 1.313-.707.875-1.06 2.02-1.06 3.437v.23zm12.63-5.838l.04 1.93c.426-.697.957-1.23 1.59-1.595.636-.367 1.337-.55 2.104-.55 1.215 0 2.12.34 2.71 1.025.594.685.894 1.71.9 3.077V17h-1.244V9.56c-.008-1.01-.22-1.764-.644-2.26-.422-.495-1.097-.742-2.025-.742-.772 0-1.46.242-2.054.727-.595.485-1.037 1.14-1.323 1.962V17h-1.245V5.68h1.193zm56.825-3.918l5.62 13.445 5.64-13.445h1.715V17h-1.288v-6.634l.106-6.8L165.753 17h-.995l-5.65-13.382.104 6.706V17h-1.287V1.766h1.706zm15.852 9.406c0-1.088.21-2.068.633-2.94.42-.87 1.02-1.55 1.79-2.035.77-.485 1.643-.727 2.62-.727 1.506 0 2.727.526 3.662 1.583s1.403 2.457 1.403 4.2v.262c0 1.095-.21 2.08-.633 2.956-.423.876-1.018 1.55-1.785 2.025-.767.474-1.643.71-2.626.71-1.5 0-2.72-.527-3.66-1.584-.935-1.057-1.405-2.457-1.405-4.2v-.25zm1.256.345c0 1.354.35 2.464 1.053 3.333.7.866 1.62 1.3 2.757 1.3 1.13 0 2.044-.434 2.745-1.3.7-.87 1.052-2.016 1.052-3.44v-.24c0-.865-.16-1.657-.483-2.375-.32-.72-.77-1.274-1.35-1.67-.578-.392-1.24-.59-1.987-.59-1.116 0-2.027.44-2.73 1.314-.706.874-1.058 2.02-1.058 3.436v.23zm10.935-.282c0-1.757.392-3.157 1.177-4.2.785-1.043 1.85-1.564 3.197-1.564 1.527 0 2.69.6 3.494 1.81V.93h1.246V17h-1.17l-.055-1.507c-.8 1.144-1.98 1.716-3.535 1.716-1.305 0-2.356-.53-3.155-1.58-.8-1.05-1.198-2.467-1.198-4.253v-.146zm1.266.22c0 1.444.29 2.583.87 3.417.578.833 1.395 1.25 2.448 1.25 1.54 0 2.638-.68 3.286-2.04V8.765c-.648-1.47-1.737-2.207-3.264-2.207-1.054 0-1.874.41-2.46 1.24-.586.823-.88 2.042-.88 3.654zm15.528 5.755c-.96 0-1.83-.238-2.61-.712-.777-.475-1.382-1.135-1.815-1.983-.432-.848-.65-1.798-.65-2.85v-.45c0-1.09.213-2.07.635-2.94.422-.873 1.01-1.56 1.763-2.057.753-.5 1.57-.748 2.448-.748 1.375 0 2.465.47 3.27 1.407.807.938 1.21 2.22 1.21 3.845v.7h-8.078v.24c0 1.284.367 2.353 1.103 3.208.737.853 1.663 1.28 2.78 1.28.67 0 1.26-.12 1.772-.366.514-.245.98-.635 1.398-1.173l.785.597c-.92 1.332-2.257 2-4.008 2zm-.23-10.673c-.94 0-1.734.345-2.38 1.036-.644.69-1.037 1.62-1.176 2.785h6.79v-.136c-.034-1.09-.344-1.976-.93-2.66-.586-.683-1.353-1.025-2.302-1.025zm-70.562 13.29c10.368 0 18.772-9.628 18.772-9.628S144.04.57 133.672.57C123.305.57 114.9 10.2 114.9 10.2s8.405 9.626 18.772 9.626zm0-1.852c-4.354 0-7.884-3.482-7.884-7.776 0-4.296 3.53-7.777 7.885-7.777s7.885 3.48 7.885 7.775c0 4.293-3.53 7.775-7.886 7.775zm0-2.963c2.696 0 4.88-2.156 4.88-4.814 0-2.66-2.184-4.815-4.88-4.815-2.695 0-4.88 2.156-4.88 4.815 0 2.657 2.185 4.812 4.88 4.812zm2.065-5.185c.725 0 1.313-.58 1.313-1.296 0-.716-.587-1.296-1.313-1.296s-1.314.58-1.314 1.295.588 1.295 1.314 1.295z" fill="#EDEEEF" fill-rule="evenodd">
</path>
</svg>
