<?xml version="1.0" encoding="UTF-8" standalone="no"?>
<svg viewBox="0 0 22 17" version="1.1" xmlns="http://www.w3.org/2000/svg" xmlns:xlink="http://www.w3.org/1999/xlink">
    <!-- Generator: sketchtool 3.8.3 (29802) - http://www.bohemiancoding.com/sketch -->
    <title>8D13FA9E-E239-4D2F-AD85-37C1FC97363D</title>
    <desc>Created with sketchtool.</desc>
    <defs></defs>
    <g id="Room-Final" stroke="none" stroke-width="1" fill="none" fill-rule="evenodd">
        <g id="Assets" transform="translate(-539.000000, -336.000000)" fill="#000000">
            <path d="M559,336 L556,336 L556,338 L559,338 L559,344 L541,344 L541,338 L544,338 L544,336 L541,336 C539.897,336 539,336.897 539,338 L539,351 C539,352.103 539.897,353 541,353 L547,353 C547.4,353 547.762,352.762 547.919,352.394 L550,347.539 L552.081,352.393 C552.238,352.762 552.6,352.999 553,352.999 L559,352.999 C560.103,352.999 561,352.102 561,350.999 L561,337.999 C561,336.896 560.103,336 559,336 L559,336 Z" id="overlay"></path>
        </g>
    </g>
</svg>