<svg viewBox="-4 0 49 49" xmlns="http://www.w3.org/2000/svg">
    <g fill-rule="evenodd">
        <path d="M32.512 9.41c-.875 0-1.506-.934-1.506-1.81V.914H2.386c-1.166 0-2.12.92-2.12 2.088V46.58c0 1.167.954 2.123 2.12 2.123H37.1c1.167 0 2.386-.956 2.386-2.124V9.41h-6.974">
        </path>
        <path d="M32.066.666v6.456c0 .674.684 1.226 1.357 1.226h6.31L32.067.666">
        </path>
        <path class="adobe-swatch" d="M31.035 29.367c-.393-.76-1.353-1.13-2.94-1.13-.93 0-2.07.12-3.4.363-1.85-1.967-3.783-4.837-5.15-7.656 1.356-5.698.454-6.845.156-7.226-.31-.404-.77-.628-1.28-.628-.21 0-.44.04-.67.117-.58.195-1.02.608-1.27 1.193-.71 1.674.27 4.527 1.28 6.726-.86 3.434-2.31 7.546-3.83 10.882-3.83 1.76-5.87 3.48-6.06 5.13-.07.6.08 1.48 1.13 2.27.29.217.63.33.98.33.89 0 1.78-.677 2.82-2.133.75-1.06 1.57-2.507 2.41-4.3 2.71-1.188 6.07-2.26 8.94-2.86 1.6 1.536 3.03 2.314 4.266 2.314.91 0 1.684-.42 2.25-1.21.587-.82.72-1.56.395-2.19zM9.985 38.03c-.474-.365-.446-.61-.436-.702.06-.563.94-1.562 3.1-2.778-1.64 3.03-2.52 3.432-2.68 3.48zm8.055-22.96c.07-.158.148-.212.246-.246.044-.015.076-.02.1-.026.153.23.33 1.14 0 3.282-.4-1.242-.607-2.4-.346-3.01zm-1.846 15.98c1.025-2.45 1.98-5.154 2.705-7.658 1.13 2.042 2.5 4.025 3.87 5.612-2.16.508-4.46 1.224-6.58 2.046zm13.06-.486c-.314.437-.624.494-.863.494-.53 0-1.26-.35-2.09-.98.68-.09 1.29-.135 1.8-.134.9 0 1.27.136 1.39.2-.02.073-.08.21-.23.42z">
        </path>
    </g>
</svg>
