<svg xmlns="http://www.w3.org/2000/svg" viewBox="0 0 675 125" enable-background="new 0 0 675 125">
    <path d="M145.8 37.6h20c7.1 0 13.8 7.6 13.8 17.1 0 8.9-6.7 16.8-13.8 16.8h-14.5v18.3c-.8.1-1.7.1-2.4.1-1.2 0-2.3-.1-3.1-.1V37.6zm28 17.1c0-7.2-4.2-12.6-9.6-12.6h-13v25.1h13c5.4 0 9.6-5.8 9.6-12.5zm29.2.4c.2.8.2 1.5.2 2.1 0 .8-.1 1.4-.2 1.9 0 0-2.7-.2-5.2-.2-3.8 0-6.8.4-6.8.4v30.6c-1.1.1-1.7.1-2.5.1-1 0-2.1-.1-2.7-.1V55.3s5.9-.4 10.9-.4c3.7 0 6.3.2 6.3.2zm5.9 17.9c0 8.4 4.5 13.1 12.6 13.1 5.5 0 9.3-1.2 10.8-2 1.4 1.8 1.2 4.1 1.2 4.1s-3.7 1.9-12.1 1.9c-12.5 0-17.9-6.6-17.9-17.9 0-12 6.1-17.4 16.3-17.4 9.5 0 14.7 4.3 15.1 14.9l.1 3.3h-26.1zm0-3.8h20.5c.1-6.6-2.3-10.4-9.6-10.4-7.2.1-10.9 3.9-10.9 10.4zm53.6-11.6s-1.2 2.1-3.5 3c0 0-3.2-1.9-7.4-1.9-5.1 0-7.5 2.1-7.5 5.3 0 4.9 3.6 5.9 10 6.4 5.4.5 10.3 3.5 10.3 9.4 0 7.7-4.7 10.5-14.4 10.5-7.2 0-11.1-3.3-11.1-3.3s1.2-2 3.5-2.9c0 0 3.6 2.4 7.7 2.4 7.2 0 9.5-2.2 9.5-5.9 0-5.2-4.4-6.2-10.4-6.9-5.8-.7-9.9-2.7-9.9-8.9 0-7.6 4.2-10 12.4-10 6.8 0 10.8 2.8 10.8 2.8zM274.4 73c0 8.4 4.5 13.1 12.6 13.1 5.5 0 9.3-1.2 10.8-2 1.4 1.8 1.2 4.1 1.2 4.1s-3.7 1.9-12.1 1.9c-12.5 0-17.9-6.6-17.9-17.9 0-12 6.1-17.4 16.3-17.4 9.5 0 14.7 4.3 15.1 14.9l.1 3.2h-26.1zm0-3.8H295c.1-6.6-2.3-10.4-9.6-10.4-7.3.1-11 3.9-11 10.4zm37.1 20.6c-1 .1-1.7.1-2.5.1-1.1 0-2.2-.1-2.8-.1V55.5l12.1-.6c12.7-.6 15.7 4.4 15.7 15v19.9s-1.5.1-2.8.1c-.6 0-1.6-.1-2.4-.1V69.2c0-7.1-1.8-10.8-10.4-10.2l-6.8.4v30.4zm50.5-4c.1.7.2 1.3.2 1.9 0 .8 0 1.7-.1 2.1 0 0-4.1.3-7.1.3-10 .1-15-5-15-17.1 0-10.6 2.8-18 14.3-18 4.2 0 7.8.3 7.8.3.1.7.1 1.4.1 2 0 .8 0 1.7-.1 2.2 0 0-4.7-.3-7.8-.3-7.9 0-8.8 5.9-8.8 13.8 0 9.5 2.2 13.1 9.5 13.1 2.9-.1 5.6-.2 7-.3zm7.8-12.8c0 8.4 4.5 13.1 12.6 13.1 5.5 0 9.3-1.2 10.8-2 1.4 1.8 1.2 4.1 1.2 4.1s-3.7 1.9-12.1 1.9c-12.5 0-17.9-6.6-17.9-17.9 0-12 6.1-17.4 16.3-17.4 9.5 0 14.7 4.3 15.1 14.9l.1 3.2h-26.1zm0-3.8h20.5c.1-6.6-2.3-10.4-9.6-10.4-7.2.1-10.9 3.9-10.9 10.4z" fill="#FFF">
</path>
    <defs>
        <filter id="a" filterUnits="userSpaceOnUse" x="18.8" y="42.6" width="21" height="46.5">
            <feFlood result="back" flood-color="#fff" flood-opacity="1">
</feFlood>
            <feBlend in="SourceGraphic" in2="back">
</feBlend>
        </filter>
    </defs>
    <mask maskUnits="userSpaceOnUse" x="18.8" y="42.6" width="21" height="46.5" id="b">
        <g filter="url(#a)">
            <linearGradient id="c" gradientUnits="userSpaceOnUse" x1="18.831" y1="65.807" x2="39.853" y2="65.807">
                <stop offset="0">
</stop>
                <stop offset="1" stop-color="#FFF">
</stop>
            </linearGradient>
            <path mask="url(#b)" fill="url(#c)" d="M33.8 78l-1.2-.9c-4-3.1-6.6-7.8-7.2-12.8-1.1-8.8 5.2-20 14.5-21.7-11.9 1.7-21 11.9-21 24.2 0 9.8 5.8 18.3 14.2 22.2-.5-3.7-.2-7.4.7-11z">
</path>
        </g>
    </mask>
    <linearGradient id="d" gradientUnits="userSpaceOnUse" x1="18.831" y1="65.807" x2="39.853" y2="65.807">
        <stop offset="0" stop-color="#FFF">
</stop>
        <stop offset="1" stop-color="#FFF">
</stop>
    </linearGradient>
    <path fill="url(#d)" d="M33.8 78l-1.2-.9c-4-3.1-6.6-7.8-7.2-12.8-1.1-8.8 5.2-20 14.5-21.7-11.9 1.7-21 11.9-21 24.2 0 9.8 5.8 18.3 14.2 22.2-.5-3.7-.2-7.4.7-11z">
</path>
    <path fill="#FFF" d="M41.4 42.5c1.6-.7 3.1-1.1 4.6-3.2 1.6-2.2 2.1-3.6 2.7-6.5.1-1.5-.9-1.2-5.6-1.2-16.3 0-29.6 13.3-29.6 29.6 0 12.7 8 23.6 19.3 27.8-1.2-.6-2.4-1.4-3.5-2.3-5-4-8.4-9.9-9.2-16.3-.9-6.6 1-13.4 5.2-18.6 3.5-4.6 10.1-9.2 16.1-9.3z">
</path>
    <circle fill="#FFF" cx="34.9" cy="59.6" r="6.2">
</circle>
    <defs>
        <filter id="e" filterUnits="userSpaceOnUse" x="92.8" y="35.5" width="20.9" height="46.5">
            <feFlood result="back" flood-color="#fff" flood-opacity="1">
</feFlood>
            <feBlend in="SourceGraphic" in2="back">
</feBlend>
        </filter>
    </defs>
    <mask maskUnits="userSpaceOnUse" x="92.8" y="35.5" width="20.9" height="46.5" id="f">
        <g filter="url(#e)">
            <linearGradient id="g" gradientUnits="userSpaceOnUse" x1="92.786" y1="58.775" x2="113.695" y2="58.775">
                <stop offset="0">
</stop>
                <stop offset="1" stop-color="#FFF">
</stop>
            </linearGradient>
            <path mask="url(#f)" fill="url(#g)" d="M98.7 46.6l1.2.9c4 3.1 6.6 7.8 7.3 12.8 1.2 8.8-5.1 20-14.4 21.7 11.9-1.7 21-12 20.9-24.3 0-9.8-5.9-18.3-14.3-22.2.4 3.7.1 7.5-.7 11.1z">
</path>
        </g>
    </mask>
    <linearGradient id="h" gradientUnits="userSpaceOnUse" x1="92.786" y1="58.775" x2="113.695" y2="58.775">
        <stop offset="0" stop-color="#FFF">
</stop>
        <stop offset="1" stop-color="#FFF">
</stop>
    </linearGradient>
    <path fill="url(#h)" d="M98.7 46.6l1.2.9c4 3.1 6.6 7.8 7.3 12.8 1.2 8.8-5.1 20-14.4 21.7 11.9-1.7 21-12 20.9-24.3 0-9.8-5.9-18.3-14.3-22.2.4 3.7.1 7.5-.7 11.1z">
</path>
    <path fill="#FFF" d="M91.3 82.1c-1.6.7-3.1 1.1-4.6 3.3-1.6 2.2-2.1 3.6-2.7 6.5 0 1.5.9 1.2 5.6 1.2 16.3-.1 29.5-13.4 29.5-29.7-.1-12.7-8.2-23.6-19.5-27.7 1.2.6 2.4 1.4 3.6 2.3 5.1 4 8.4 9.9 9.3 16.3.9 6.6-1 13.4-5.1 18.6-3.6 4.4-10.1 9.1-16.1 9.2z">
</path>
    <circle fill="#FFF" cx="97.6" cy="65" r="6.2">
</circle>
    <defs>
        <filter id="i" filterUnits="userSpaceOnUse" x="47.4" y="89" width="46.5" height="20.9">
            <feFlood result="back" flood-color="#fff" flood-opacity="1">
</feFlood>
            <feBlend in="SourceGraphic" in2="back">
</feBlend>
        </filter>
    </defs>
    <mask maskUnits="userSpaceOnUse" x="47.4" y="89" width="46.5" height="20.9" id="j">
        <g filter="url(#i)">
            <linearGradient id="k" gradientUnits="userSpaceOnUse" x1="1937.367" y1="-201.38" x2="1958.468" y2="-171.245" gradientTransform="rotate(-90.298 1148.86 887.905)">
                <stop offset="0">
</stop>
                <stop offset="1" stop-color="#FFF">
</stop>
            </linearGradient>
            <path mask="url(#j)" fill="url(#k)" d="M82.8 94.9l-.9 1.2c-3.1 4-7.8 6.6-12.8 7.3-8.8 1.2-20-5-21.7-14.4 1.7 11.9 12 21 24.4 20.9 9.8-.1 18.3-5.9 22.1-14.3-3.8.4-7.5.2-11.1-.7z">
</path>
        </g>
    </mask>
    <linearGradient id="l" gradientUnits="userSpaceOnUse" x1="1937.367" y1="-201.38" x2="1958.468" y2="-171.245" gradientTransform="rotate(-90.298 1148.86 887.905)">
        <stop offset="0" stop-color="#FFF">
</stop>
        <stop offset="1" stop-color="#FFF">
</stop>
    </linearGradient>
    <path fill="url(#l)" d="M82.8 94.9l-.9 1.2c-3.1 4-7.8 6.6-12.8 7.3-8.8 1.2-20-5-21.7-14.4 1.7 11.9 12 21 24.4 20.9 9.8-.1 18.3-5.9 22.1-14.3-3.8.4-7.5.2-11.1-.7z">
</path>
    <path fill="#FFF" d="M47.3 87.5c-.7-1.6-1.1-3.1-3.3-4.6-2.2-1.6-3.6-2.1-6.5-2.6-1.5 0-1.2.9-1.2 5.6.1 16.3 13.4 29.5 29.8 29.4 12.7-.1 23.6-8.2 27.7-19.5-.6 1.2-1.4 2.4-2.3 3.6-4 5.1-9.9 8.4-16.3 9.3-6.6.9-13.4-1-18.6-5.1-4.5-3.5-9.2-10.1-9.3-16.1z">
</path>
    <circle fill="#FFF" cx="64.4" cy="93.9" r="6.2">
</circle>
    <defs>
        <filter id="m" filterUnits="userSpaceOnUse" x="40" y="15.1" width="47.8" height="20.8">
            <feFlood result="back" flood-color="#fff" flood-opacity="1">
</feFlood>
            <feBlend in="SourceGraphic" in2="back">
</feBlend>
        </filter>
    </defs>
    <mask maskUnits="userSpaceOnUse" x="40" y="15.1" width="47.8" height="20.8" id="n">
        <g filter="url(#m)">
            <linearGradient id="o" gradientUnits="userSpaceOnUse" x1="269.075" y1="1968.208" x2="290.774" y2="1999.198" gradientTransform="rotate(89.438 1158.133 898.292)">
                <stop offset="0">
</stop>
                <stop offset="1" stop-color="#FFF">
</stop>
            </linearGradient>
            <path mask="url(#n)" fill="url(#o)" d="M51.1 30.2L52 29c3.1-4 7.7-6.7 12.8-7.4 8.8-1.2 21.3 5 23.1 14.3C86 24 75.7 15 63.4 15.1c-9.8.1-19.6 6-23.4 14.4 3.7-.4 7.5-.2 11.1.7z">
</path>
        </g>
    </mask>
    <linearGradient id="p" gradientUnits="userSpaceOnUse" x1="269.075" y1="1968.208" x2="290.774" y2="1999.198" gradientTransform="rotate(89.438 1158.133 898.292)">
        <stop offset="0" stop-color="#FFF">
</stop>
        <stop offset="1" stop-color="#FFF">
</stop>
    </linearGradient>
    <path fill="url(#p)" d="M51.1 30.2L52 29c3.1-4 7.7-6.7 12.8-7.4 8.8-1.2 21.3 5 23.1 14.3C86 24 75.7 15 63.4 15.1c-9.8.1-19.6 6-23.4 14.4 3.7-.4 7.5-.2 11.1.7z">
</path>
    <path fill="#FFF" d="M86.6 37.4c.7 1.6 1.2 3.1 3.3 4.6 2.2 1.6 3.7 2.1 6.5 2.6 1.5 0 1.2-.9 1.2-5.6-.2-16.3-13.5-29.4-29.9-29.3C55 9.8 44.2 18 40.1 29.3c.6-1.2 1.4-2.4 2.3-3.6 4-5.1 9.8-8.5 16.2-9.4 6.6-.9 13.4.9 18.7 5 4.5 3.6 9.2 10.1 9.3 16.1z">
</path>
    <circle fill="#FFF" cx="69.4" cy="31.1" r="6.2">
</circle>
    <path d="M412.3 81.9h18.8c.2 1.4.2 2.8.2 4 0 2.6-.2 4.2-.2 4.2h-29V37.7c1.7-.1 3.4-.2 5-.2 3.1 0 5.2.2 5.2.2v44.2zm31.5-6.2c0 5.3 3.7 7.3 9 7.3 6.4 0 10.7-1.9 10.7-1.9 1.9 3.5 2.4 7.2 2.4 7.2s-4.7 2.1-13.1 2.1c-13.1 0-18.4-6-18.4-18 0-11.8 6.1-17.6 17-17.6 10.2 0 16.1 6.5 16.1 16.8 0 2.5-.3 4.1-.3 4.1h-23.4zm.1-6.6h13.7v-1c0-2.7-1.7-5.8-6.3-5.8-5.2-.1-7.3 2.7-7.4 6.8zm28.3 10.5c0-6.8 3.6-10.6 13.4-10.6h7v-1.8c0-4-2.8-4.8-6.6-4.8-5.1 0-10.1 1.4-10.1 1.4s-1.1-3.9-.7-7.5c0 0 3.8-1.4 10.8-1.4 10.6 0 16 3 16 11.9V90s-8.7.3-17.1.3c-9.2-.1-12.7-3.8-12.7-10.7zm20.4 3.8v-8.1l-6.3-.1c-4.5-.1-5 2.2-5 4.3 0 2.2.7 4 4.3 4 3.1.1 7-.1 7-.1zm37.9-28.3s.2 1.7.2 3.9c0 1.1-.1 2.4-.2 3.6h-10.3v27.3s-2.1.2-4.9.2c-1.4 0-3-.1-4.5-.2V55.4s3.8-.5 9.8-.5c5.5 0 9.9.2 9.9.2zm13.6 7.5v27.3s-2.1.2-4.8.2c-1.4 0-3-.1-4.6-.2V55.4s6.5-.5 14.2-.5c12.2 0 16 3.9 16 14.7v20.3s-2.1.2-4.8.2c-1.4 0-3-.1-4.6-.2V69c0-5-1.6-6.4-6.6-6.4h-4.8zm29.2-16.8c0-2.2.2-4 .2-4 1.5-.1 3.1-.2 4.5-.2 2.8 0 5.1.2 5.1.2s.2 1.7.2 4c0 1.1-.1 2.4-.2 3.6 0 0-2.2.2-5.1.2-1.5 0-3-.1-4.5-.2-.1-1.3-.2-2.5-.2-3.6zm9.7 44.1c-1.5.1-3.1.2-4.4.2-2.8 0-4.9-.2-4.9-.2V55.1c1.6-.1 3.1-.2 4.5-.2 2.8 0 4.8.2 4.8.2v34.8zm18.6-27.3v27.3s-2.1.2-4.8.2c-1.4 0-3-.1-4.6-.2V55.4s6.5-.5 14.2-.5c12.2 0 16 3.9 16 14.7v20.3s-2.1.2-4.8.2c-1.4 0-3-.1-4.6-.2V69c0-5-1.6-6.4-6.6-6.4h-4.8zm43.1 27.5c-11.3 0-16.1-5.3-16.1-18 0-9.9 5.5-17.2 16.8-17.2 8.3 0 16.1.2 16.1.2v31.7c0 11.3-4.4 18.3-17.1 18.3-8 0-13.3-2.4-13.3-2.4s.5-3.7 2.4-7.2c0 0 4.9 2.2 10.9 2.2 5.3 0 7.7-2.7 7.7-7.9 0-.1-4 .3-7.4.3zm7.4-7.3V62.5h-6c-5.4 0-7.9 4.2-7.9 9.5 0 7.2 1.8 10.8 7.2 10.8h6.7z" fill="#FFF">
</path>
</svg>
