<svg viewBox="0 0 51 51" xmlns="http://www.w3.org/2000/svg"><g fill-rule="evenodd"><path d="M25.5 50.09c13.58 0 24.59-11.01 24.59-24.59S39.08.91 25.5.91.91 11.92.91 25.5 11.92 50.09 25.5 50.09zm0-1.822c-12.574 0-22.768-10.194-22.768-22.768S12.926 2.732 25.5 2.732 48.268 12.926 48.268 25.5 38.074 48.268 25.5 48.268z"/><path d="M37.616 25.482L21.367 11.13a.792.792 0 0 0-.861-.126.822.822 0 0 0-.47.746v28.707c0 .321.184.613.47.746a.796.796 0 0 0 .861-.126l16.249-14.353a.828.828 0 0 0 0-1.24"/></g></svg>