<svg viewBox="0 0 24 24" xmlns="http://www.w3.org/2000/svg">
    <path d="M6.314 15.412c-.754-1.261-1.171-2.339-1.277-2.97-.213-1.276 1.304-1.895 2.08-.776l.298.429c.406.587.818.887 1.175 1.04l-2.276 2.277zm.55.863l7.584-7.584c.295.17.496.397.546.633.187-.133.457-.212.76-.217L7.59 17.269c-.263-.336-.505-.669-.726-.994zm1.366 1.77l8.627-8.628c.282.187.457.436.462.686.258-.239.743-.345 1.263-.244.655.127 1.135.54 1.142.954v4.763c0 .647-.175 1.284-.507 1.84l-.93 1.56v1.404H9.093v-1.404c-.305-.309-.593-.62-.862-.931zm5.078-9.627l-3.586 3.586.004-10.039C9.724.785 11.655.63 11.784 1.818c.003.01.698 6.744.71 6.869v.002h.003c.183-.16.474-.258.81-.271zM9.098 22.49v-1.297h9.198v1.297c0 .279-.229.507-.508.507H9.605a.509.509 0 0 1-.508-.507z" fill-rule="nonzero"></path>
    <path d="M21.675 3.892a1.108 1.108 0 0 0-1.567-1.567L2.325 20.108a1.108 1.108 0 0 0 1.567 1.567L21.675 3.892z"></path>
</svg>