<svg viewBox="0 0 24 24" xmlns="http://www.w3.org/2000/svg">
    <path d="M14.511 12.53L16 14.02 14.02 16l-1.49-1.489L9.043 18H22a1 1 0 0 1 1 1v3a1 1 0 0 1-1 1H6a1 1 0 0 1-1-.96l-.172.173L3.414 20.8 21.8 2.414l1.414 1.414-8.702 8.702zm-6.483 6.483l-1.96 1.96c.19.647.76 1.115 1.432 1.115.828 0 1.5-.71 1.5-1.588 0-.68-.404-1.26-.972-1.487zm1.674-7.33l-1.287-1.287-3.679 3.679L1 1l13.076 3.735-3.68 3.68 1.287 1.287-1.981 1.98zM10 22.088c.552 0 1-.474 1-1.059 0-.584-.448-1.058-1-1.058s-1 .474-1 1.058c0 .585.448 1.06 1 1.06zm8.5 0c.828 0 1.5-.71 1.5-1.588 0-.877-.672-1.588-1.5-1.588s-1.5.71-1.5 1.588c0 .877.672 1.588 1.5 1.588zm-3 0c.828 0 1.5-.474 1.5-1.059 0-.584-.672-1.058-1.5-1.058s-1.5.474-1.5 1.058c0 .585.672 1.06 1.5 1.06zm5.5 0c.552 0 1-.474 1-1.059 0-.584-.448-1.058-1-1.058s-1 .474-1 1.058c0 .585.448 1.06 1 1.06zm-8.5 0c.828 0 1.5-.71 1.5-1.588 0-.877-.672-1.588-1.5-1.588s-1.5.71-1.5 1.588c0 .877.672 1.588 1.5 1.588z"></path>
</svg>