<svg viewBox="0 0 24 24" xmlns="http://www.w3.org/2000/svg">
    <path d="M16 14.019L14.02 16l-5.605-5.604-3.679 3.679L1 1l13.076 3.735-3.68 3.68L16 14.019zM6 18h16a1 1 0 0 1 1 1v3a1 1 0 0 1-1 1H6a1 1 0 0 1-1-1v-3a1 1 0 0 1 1-1zm1.5 4.088c.828 0 1.5-.71 1.5-1.588 0-.877-.672-1.588-1.5-1.588S6 19.622 6 20.5c0 .877.672 1.588 1.5 1.588zm2.5 0c.552 0 1-.474 1-1.059 0-.584-.448-1.058-1-1.058s-1 .474-1 1.058c0 .585.448 1.06 1 1.06zm8.5 0c.828 0 1.5-.71 1.5-1.588 0-.877-.672-1.588-1.5-1.588s-1.5.71-1.5 1.588c0 .877.672 1.588 1.5 1.588zm-3 0c.828 0 1.5-.474 1.5-1.059 0-.584-.672-1.058-1.5-1.058s-1.5.474-1.5 1.058c0 .585.672 1.06 1.5 1.06zm5.5 0c.552 0 1-.474 1-1.059 0-.584-.448-1.058-1-1.058s-1 .474-1 1.058c0 .585.448 1.06 1 1.06zm-8.5 0c.828 0 1.5-.71 1.5-1.588 0-.877-.672-1.588-1.5-1.588s-1.5.71-1.5 1.588c0 .877.672 1.588 1.5 1.588z"></path>
</svg>