<svg xmlns="http://www.w3.org/2000/svg" viewBox="0 0 152 25">
    <title>
        logo
    </title>
    <defs>
        <linearGradient id="a" x1="23.218%" x2="123.699%" y1="17.319%" y2="82.266%">
            <stop offset="0%" stop-color="#FECF9E"/>
            <stop offset="100%" stop-color="#F7901E"/>
        </linearGradient>
        <linearGradient id="b" x1="76.67%" x2="-24.952%" y1="82.679%" y2="18.08%">
            <stop offset="0%" stop-color="#FECF9E"/>
            <stop offset="100%" stop-color="#F7901E"/>
        </linearGradient>
        <linearGradient id="c" x1="17.366%" x2="81.936%" y1="76.983%" y2="-24.723%">
            <stop offset="0%" stop-color="#B1B3B6"/>
            <stop offset="100%" stop-color="#77787B"/>
        </linearGradient>
        <linearGradient id="d" x1="82.434%" x2="18.047%" y1="22.348%" y2="128.127%">
            <stop offset="0%" stop-color="#B1B3B6"/>
            <stop offset="100%" stop-color="#77787B"/>
        </linearGradient>
    </defs>
    <g fill="none" fill-rule="evenodd">
        <path fill="#77787B" d="M31.033 6.44h4.692c1.665 0 3.237 1.736 3.237 3.906 0 2.032-1.572 3.837-3.237 3.837h-3.402v4.18c-.187.022-.398.022-.563.022-.28 0-.54-.023-.727-.023V6.44zm6.568 3.93c0-1.646-.98-2.88-2.25-2.88H32.3v5.733h3.05c1.266 0 2.25-1.324 2.25-2.854zm6.85.067c.05.183.05.343.05.48 0 .182-.023.32-.046.434 0 0-.632-.04-1.22-.04-.89 0-1.593.09-1.593.09v6.99c-.26.022-.4.022-.587.022-.235 0-.493-.023-.634-.023v-7.903s1.383-.092 2.556-.092c.868 0 1.478.047 1.478.047zm1.388 4.11c0 1.92 1.055 2.993 2.955 2.993 1.29 0 2.183-.274 2.534-.457.33.41.282.937.282.937s-.87.433-2.84.433c-2.93 0-4.2-1.507-4.2-4.088 0-2.74 1.433-3.974 3.825-3.974 2.23 0 3.45.988 3.544 3.408l.023.73H45.84v.024zm0-.867h4.808c.024-1.507-.54-2.375-2.252-2.375-1.687 0-2.554.89-2.554 2.375zm12.572-2.65s-.28.48-.82.686c0 0-.75-.434-1.737-.434-1.195 0-1.76.48-1.76 1.21 0 1.12.847 1.348 2.348 1.462 1.27.114 2.418.8 2.418 2.147 0 1.76-1.102 2.4-3.378 2.4-1.69 0-2.604-.75-2.604-.75s.28-.457.82-.663c0 0 .845.548 1.807.548 1.688 0 2.227-.5 2.227-1.346 0-1.19-1.033-1.417-2.44-1.577-1.36-.16-2.323-.616-2.323-2.032 0-1.734.986-2.283 2.91-2.283 1.594-.02 2.532.64 2.532.64zm2.792 3.518c0 1.92 1.055 2.992 2.955 2.992 1.29 0 2.182-.274 2.534-.457.33.41.28.937.28.937s-.866.433-2.836.433c-2.93 0-4.197-1.507-4.197-4.088 0-2.74 1.43-3.974 3.824-3.974 2.228 0 3.448.988 3.54 3.408l.024.73H61.2v.024zm0-.868h4.808c.024-1.507-.54-2.375-2.25-2.375-1.69 0-2.558.89-2.558 2.375zm8.7 4.705c-.232.023-.397.023-.584.023-.258 0-.516-.023-.657-.023V10.53l2.84-.14c2.98-.136 3.682 1.006 3.682 3.427v4.545s-.353.023-.66.023c-.14 0-.373-.023-.56-.023v-4.705c0-1.62-.424-2.466-2.44-2.33l-1.596.092v6.96H69.9zm11.848-.915c.023.16.047.298.047.435 0 .183 0 .39-.024.48 0 0-.96.068-1.664.068-2.37 0-3.544-1.164-3.544-3.928 0-2.42.657-4.11 3.354-4.11.986 0 1.83.068 1.83.068.024.16.024.32.024.457 0 .182 0 .388-.022.502 0 0-1.103-.068-1.83-.068-1.853 0-2.064 1.347-2.064 3.15 0 2.17.516 2.993 2.228 2.993.706 0 1.34-.046 1.668-.046zm1.83-2.922c0 1.92 1.055 2.992 2.955 2.992 1.29 0 2.182-.274 2.533-.457.33.41.282.937.282.937s-.868.433-2.838.433c-2.934 0-4.2-1.507-4.2-4.088 0-2.74 1.43-3.974 3.822-3.974 2.23 0 3.448.988 3.542 3.408l.024.73h-6.123v.024zm0-.868h4.808c.024-1.507-.54-2.375-2.252-2.375-1.69 0-2.556.89-2.556 2.375z"/>
        <path fill="url(#a)" d="M4.762 15.667l-.282-.205a4.365 4.365 0 0 1-1.69-2.924c-.257-2.01 1.22-4.567 3.403-4.956-2.792.39-4.926 2.718-4.926 5.527 0 2.233 1.36 4.18 3.33 5.07-.117-.827-.046-1.69.165-2.517z"/>
        <path fill="#F7901E" d="M6.544 7.56c.376-.16.728-.252 1.08-.73.375-.504.492-.823.633-1.486.023-.342-.21-.274-1.314-.274C3.12 5.07 0 8.108 0 11.83c0 2.9 1.877 5.39 4.527 6.35a4.554 4.554 0 0 1-.82-.526c-1.174-.913-1.97-2.26-2.16-3.723a5.49 5.49 0 0 1 1.22-4.243c.822-1.05 2.37-2.1 3.777-2.123z"/>
        <ellipse cx="5.02" cy="11.465" fill="#F7901E" rx="1.454" ry="1.416"/>
        <path fill="url(#b)" d="M19.985 8.496l.282.205a4.495 4.495 0 0 1 1.712 2.93c.28 2.01-1.2 4.566-3.38 4.955 2.79-.388 4.923-2.74 4.9-5.55 0-2.237-1.384-4.178-3.355-5.07.093.87.023 1.714-.165 2.536z"/>
        <path fill="#F7901E" d="M18.25 16.626c-.376.16-.728.252-1.08.754-.375.502-.492.822-.633 1.485 0 .342.21.274 1.314.274 3.828-.028 6.92-3.066 6.92-6.788-.02-2.9-1.92-5.39-4.57-6.327.28.136.563.32.845.525a5.717 5.717 0 0 1 2.182 3.723 5.572 5.572 0 0 1-1.196 4.248c-.845 1.007-2.37 2.058-3.777 2.1z"/>
        <ellipse cx="19.727" cy="12.698" fill="#F7901E" rx="1.454" ry="1.416"/>
        <path fill="url(#c)" d="M16.256 19.527c-.07.09-.14.183-.212.274-.727.918-1.83 1.51-3.002 1.67-2.064.276-4.69-1.14-5.09-3.29.4 2.72 2.815 4.8 5.723 4.777 2.3-.023 4.293-1.348 5.184-3.266-.896.09-1.76.045-2.608-.16z"/>
        <path fill="#77787B" d="M7.928 17.837c-.164-.366-.258-.708-.774-1.05-.516-.366-.844-.48-1.524-.595-.352 0-.282.206-.282 1.28.024 3.722 3.143 6.737 6.99 6.714 2.98-.023 5.536-1.873 6.498-4.454-.14.274-.33.55-.54.823-.938 1.164-2.322 1.918-3.823 2.124a5.957 5.957 0 0 1-4.363-1.17c-1.056-.8-2.158-2.307-2.182-3.677z"/>
        <ellipse cx="11.94" cy="19.298" fill="#77787B" rx="1.454" ry="1.416"/>
        <path fill="url(#d)" d="M8.82 4.75l.21-.274a4.634 4.634 0 0 1 3.003-1.69c2.065-.274 4.997 1.142 5.42 3.266-.423-2.718-2.84-4.773-5.725-4.75-2.298.023-4.597 1.37-5.488 3.29.844-.093 1.735-.024 2.58.158z"/>
        <path fill="#77787B" d="M17.147 6.395c.164.365.28.708.774 1.05.52.366.87.48 1.53.594.35 0 .28-.21.28-1.28-.05-3.725-3.17-6.74-7.014-6.69C9.736.09 7.2 1.962 6.24 4.543c.14-.274.328-.548.54-.822a5.91 5.91 0 0 1 3.8-2.147 6.009 6.009 0 0 1 4.385 1.142c1.056.822 2.158 2.306 2.182 3.677z"/>
        <ellipse cx="13.112" cy="4.956" fill="#77787B" rx="1.454" ry="1.416"/>
        <path fill="#F7901E" d="M93.546 16.558h4.41c.046.32.046.64.046.913 0 .6-.046.96-.046.96h-6.803V6.468c.4-.023.798-.045 1.173-.045.727 0 1.22.045 1.22.045V16.56zm7.39-1.416c0 1.21.866 1.667 2.11 1.667 1.5 0 2.51-.44 2.51-.44.445.8.563 1.646.563 1.646s-1.108.48-3.078.48c-3.073 0-4.316-1.37-4.316-4.113 0-2.695 1.43-4.02 3.986-4.02 2.393 0 3.777 1.485 3.777 3.838 0 .57-.07.937-.07.937h-5.49zm.022-1.507h3.214v-.23c0-.615-.4-1.323-1.478-1.323-1.22-.023-1.713.64-1.736 1.553zm6.638 2.398c0-1.553.845-2.42 3.144-2.42h1.64V13.2c0-.913-.655-1.096-1.547-1.096-1.196 0-2.37.32-2.37.32s-.257-.89-.163-1.713c0 0 .89-.32 2.533-.32 2.487 0 3.753.69 3.753 2.72v5.3s-2.04.07-4.01.07c-2.16-.023-2.98-.87-2.98-2.443zm4.785.867v-1.827l-1.472-.022c-1.056-.02-1.173.507-1.173.987 0 .502.165.913 1.01.913.727 0 1.64-.047 1.64-.047zm8.895-6.463s.047.388.047.89c0 .252-.025.55-.05.823h-2.414v6.235s-.493.046-1.15.046c-.328 0-.704-.02-1.055-.04v-7.88s.893-.115 2.3-.115c1.29 0 2.323.047 2.323.047zm3.19 1.713v6.235s-.493.046-1.126.046c-.33 0-.705-.02-1.08-.04v-7.88s1.524-.115 3.33-.115c2.86 0 3.753.892 3.753 3.36v4.635s-.49.045-1.124.045c-.33 0-.705-.022-1.08-.045v-4.774c0-1.142-.376-1.462-1.548-1.462h-1.125zm6.848-3.837c0-.502.05-.913.05-.913.35-.023.726-.046 1.055-.046.656 0 1.196.046 1.196.046s.048.388.048.913c0 .25-.023.548-.046.822 0 0-.515.046-1.195.046-.352 0-.704-.02-1.056-.04a9.99 9.99 0 0 1-.048-.823zm2.277 10.095c-.35.023-.728.045-1.033.045-.656 0-1.15-.045-1.15-.045v-7.97c.376-.024.728-.047 1.056-.047.658 0 1.127.05 1.127.05v7.97zm4.363-6.258v6.235s-.492.046-1.126.046c-.328 0-.703-.02-1.08-.04v-7.88s1.526-.115 3.332-.115c2.86 0 3.75.892 3.75 3.36v4.635s-.492.045-1.126.045c-.328 0-.703-.022-1.08-.045v-4.774c0-1.142-.374-1.462-1.547-1.462h-1.126zm10.11 6.28c-2.65 0-3.776-1.21-3.776-4.11 0-2.26 1.29-3.93 3.94-3.93 1.947 0 3.777.047 3.777.047v7.24c0 2.58-1.03 4.18-4.01 4.18-1.877 0-3.12-.55-3.12-.55s.117-.844.563-1.643c0 0 1.15.502 2.557.502 1.24 0 1.804-.616 1.804-1.804 0 0-.938.07-1.736.07zm1.736-1.644V12.15h-1.41c-1.267 0-1.853.96-1.853 2.17 0 1.644.422 2.466 1.688 2.466h1.572z"/>
    </g>
</svg>
