<?xml version="1.0" encoding="UTF-8" standalone="no"?>
<svg width="8px" height="13px" viewBox="0 0 8 13" version="1.1" xmlns="http://www.w3.org/2000/svg" xmlns:xlink="http://www.w3.org/1999/xlink">
    <!-- Generator: Sketch 39.1 (31720) - http://www.bohemiancoding.com/sketch -->
    <title>previous</title>
    <desc>Created with Sketch.</desc>
    <defs></defs>
    <g id="Iconography" stroke="none" stroke-width="1">
        <g id="New-Icons---Gold-Release" transform="translate(-1208.000000, -341.000000)">
            <path d="M1215.42564,353.264664 L1214.85195,353.841287 C1214.6417,354.052904 1214.2972,354.052904 1214.08694,353.841287 L1208.75646,348.483809 C1208.74855,348.476424 1208.73923,348.471027 1208.73131,348.463073 L1208.15763,347.886451 C1208.02593,347.753799 1207.97676,347.568314 1208.01011,347.396464 C1208.02961,347.292501 1208.07878,347.193367 1208.15847,347.113549 L1208.73216,346.536927 C1208.73753,346.53153 1208.74403,346.527553 1208.74968,346.52244 L1214.08638,341.158713 C1214.29664,340.947096 1214.64085,340.947096 1214.85111,341.158713 L1215.42508,341.735336 C1215.63533,341.94667 1215.63533,342.292643 1215.42508,342.504261 L1210.45492,347.499574 L1215.42564,352.495739 C1215.6359,352.707357 1215.6359,353.05333 1215.42564,353.264664" id="previous"></path>
        </g>
    </g>
</svg>
