<?xml version="1.0" encoding="UTF-8" standalone="no"?>
<svg width="19px" height="20px" viewBox="0 0 19 20" version="1.1" xmlns="http://www.w3.org/2000/svg" xmlns:xlink="http://www.w3.org/1999/xlink" xmlns:sketch="http://www.bohemiancoding.com/sketch/ns">
    <!-- Generator: sketchtool 3.4.4 (395) - http://www.bohemiancoding.com/sketch -->
    <title>Print</title>
    <desc>Created with sketchtool.</desc>
    <defs></defs>
    <g id="Final-Flow" stroke="none" stroke-width="1" fill="none" fill-rule="evenodd" sketch:type="MSPage">
        <g id="Assets" sketch:type="MSArtboardGroup" transform="translate(-196.000000, -134.000000)" fill="#747678">
            <path d="M200.822038,135.380404 L206.778673,135.380404 L206.778673,137.735746 C206.778673,138.02276 206.891232,138.255105 207.062322,138.428225 C207.233412,138.601345 207.458531,138.71524 207.746682,138.71524 L210.128436,138.71524 L210.128436,144.455532 L211.546682,144.455532 L211.546682,138.883804 C211.546682,138.250549 211.317062,137.681076 210.862322,137.220942 L208.363507,134.69248 C207.908768,134.232345 207.341469,134 206.720142,134 L200.479858,134 C199.912559,134 199.516351,134.460135 199.516351,135.029608 L199.516351,144.496534 L200.934597,144.496534 L200.934597,135.380404 L200.822038,135.380404 L200.822038,135.380404 Z M208.133886,136.469237 L209.038863,137.38495 L208.133886,137.38495 L208.133886,136.469237 Z M202.465403,138.364444 L204.392417,138.364444 C204.788626,138.364444 205.076777,138.018204 205.076777,137.671964 C205.076777,137.271055 204.793128,136.979485 204.392417,136.979485 L202.465403,136.979485 C202.069194,136.979485 201.781043,137.325725 201.781043,137.671964 C201.785545,138.018204 202.064692,138.364444 202.465403,138.364444 Z M208.534597,139.567172 L202.465403,139.567172 C202.069194,139.567172 201.781043,139.854187 201.781043,140.259652 C201.781043,140.665117 202.064692,140.952131 202.465403,140.952131 L208.530095,140.952131 C208.926303,140.952131 209.214455,140.665117 209.214455,140.259652 C209.209953,139.913412 208.876777,139.567172 208.534597,139.567172 L208.534597,139.567172 Z M208.534597,142.209529 L202.465403,142.209529 C202.069194,142.209529 201.781043,142.555768 201.781043,142.902008 C201.781043,143.302917 202.064692,143.594488 202.465403,143.594488 L208.530095,143.594488 C208.926303,143.594488 209.214455,143.248248 209.214455,142.902008 C209.209953,142.555768 208.876777,142.209529 208.534597,142.209529 L208.534597,142.209529 Z M212.388626,141.11614 L212.388626,143.80861 L212.843365,144.555759 C212.955924,144.728879 212.955924,144.901999 212.843365,145.075119 C212.730806,145.248239 212.559716,145.362133 212.388626,145.362133 L198.611374,145.362133 C198.440284,145.362133 198.269194,145.248239 198.156635,145.075119 C198.044076,144.901999 198.044076,144.728879 198.156635,144.555759 L198.498815,143.98173 L198.498815,141.28926 L196.454739,144.674209 C196.17109,145.134344 196,145.649148 196,146.223177 L196,151.384884 C196,152.414492 196.796919,153.220866 197.814455,153.220866 L213.122512,153.220866 C214.140047,153.220866 214.936967,152.414492 214.936967,151.384884 L214.936967,146.223177 C214.936967,145.703817 214.765877,145.134344 214.482227,144.674209 L212.388626,141.11614 L212.388626,141.11614 Z M211.968483,150.604381 C212.520768,150.604381 212.968483,150.156665 212.968483,149.604381 C212.968483,149.052096 212.520768,148.604381 211.968483,148.604381 C211.416199,148.604381 210.968483,149.052096 210.968483,149.604381 C210.968483,150.156665 211.416199,150.604381 211.968483,150.604381 Z" id="Print" sketch:type="MSShapeGroup"></path>
        </g>
    </g>
</svg>