<?xml version="1.0" encoding="UTF-8" standalone="no"?>
<svg width="18px" height="16px" viewBox="0 0 18 16" version="1.1" xmlns="http://www.w3.org/2000/svg" xmlns:xlink="http://www.w3.org/1999/xlink">
    <!-- Generator: sketchtool 3.8.3 (29802) - http://www.bohemiancoding.com/sketch -->
    <title>5B7A690F-FB89-41C8-B0AB-4CD3F06DF8A9</title>
    <desc>Created with sketchtool.</desc>
    <defs></defs>
    <g id="Room-Final" stroke="none" stroke-width="1" fill="none" fill-rule="evenodd">
        <g id="Profile-Menu" transform="translate(-66.000000, -488.000000)" fill="#4C4F52">
            <path d="M77.3804714,490.666667 L77.3804714,488.888889 C77.3804714,488.398222 76.9882828,488 76.5050505,488 L73.003367,488 C72.5201347,488 72.1279461,488.398222 72.1279461,488.888889 L72.1279461,490.666667 L66,490.666667 L66,492.444444 L72.1279461,492.444444 L72.1279461,494.222222 C72.1279461,494.712889 72.5201347,495.111111 73.003367,495.111111 L76.5050505,495.111111 C76.9882828,495.111111 77.3804714,494.712889 77.3804714,494.222222 L77.3804714,492.444444 L83.5084175,492.444444 L83.5084175,490.666667 L77.3804714,490.666667 Z M75.6296296,493.333333 L73.8787879,493.333333 L73.8787879,489.777778 L75.6296296,489.777778 L75.6296296,493.333333 Z M81.7575758,497.777778 C81.7575758,497.287111 81.3653872,496.888889 80.8821549,496.888889 L77.3804714,496.888889 C76.8972391,496.888889 76.5050505,497.287111 76.5050505,497.777778 L76.5050505,499.555556 L66,499.555556 L66,501.333333 L76.5050505,501.333333 L76.5050505,503.111111 C76.5050505,503.601778 76.8972391,504 77.3804714,504 L80.8821549,504 C81.3653872,504 81.7575758,503.601778 81.7575758,503.111111 L81.7575758,501.333333 L83.5084175,501.333333 L83.5084175,499.555556 L81.7575758,499.555556 L81.7575758,497.777778 Z M80.006734,502.222222 L78.2558923,502.222222 L78.2558923,498.666667 L80.006734,498.666667 L80.006734,502.222222 Z" id="profile"></path>
        </g>
    </g>
</svg>