<?xml version="1.0" encoding="UTF-8" standalone="no"?>
<svg width="22px" height="22px" viewBox="0 0 22 22" version="1.1" xmlns="http://www.w3.org/2000/svg" xmlns:xlink="http://www.w3.org/1999/xlink">
    <g id="Filled_Icons" transform="translate(1.000000, 1.000000)">
        <path d="M21.2422554,10.3184783 L18.4884293,7.56369565 C18.1297336,7.20595652 17.4946032,7.20595652 17.1359076,7.56369565 C16.7743423,7.92526087 16.2932119,8.12421739 15.7824293,8.12421739 C14.7273858,8.12421739 13.8693858,7.26526087 13.8693858,6.21117391 C13.8693858,5.7003913 14.0683423,5.22021739 14.4299076,4.85865217 C14.8039076,4.48465217 14.8039076,3.88013043 14.4299076,3.50708696 L11.6760815,0.754217391 C11.3173858,0.394565217 10.6822554,0.394565217 10.3235597,0.754217391 L8.22782059,2.84804348 C7.52095103,1.96613043 6.44677712,1.42856522 5.26164668,1.42856522 C3.15155973,1.42856522 1.4346032,3.14456522 1.4346032,5.25465217 C1.4346032,6.43978261 1.97216842,7.51491304 2.85503799,8.22178261 L0.758342334,10.3184783 C0.579472769,10.4973478 0.478081464,10.7403043 0.478081464,10.9937826 C0.478081464,11.2472609 0.578516247,11.4902174 0.758342334,11.671 L3.51216842,14.4238696 C3.88616842,14.7988261 4.49069016,14.7988261 4.86469016,14.4238696 C5.22625538,14.0623043 5.70738581,13.8633478 6.21816842,13.8633478 C7.2732119,13.8633478 8.1312119,14.7223043 8.1312119,15.7763913 C8.1312119,16.2871739 7.93225538,16.7673478 7.57069016,17.128913 C7.39086407,17.3087391 7.29042929,17.5516957 7.29042929,17.8051739 C7.29042929,18.0596087 7.39182059,18.3025652 7.57069016,18.4814348 L10.3245162,21.2352609 C10.511038,21.4217826 10.7559076,21.5155217 10.9998206,21.5155217 C11.2446902,21.5155217 11.4895597,21.4217826 11.6760815,21.2362174 L13.7727771,19.1395217 C14.4796467,20.0214348 15.5538206,20.559 16.738951,20.559 C18.849038,20.559 20.565038,18.843 20.565038,16.732913 C20.565038,15.5477826 20.0274728,14.4726522 19.1455597,13.7657826 L21.2412989,11.6700435 C21.6152989,11.2960435 21.6152989,10.6915217 21.2422554,10.3184783 L21.2422554,10.3184783 Z" id="Shape"></path>
    </g>
</svg>