<svg viewBox="0 0 48 48" xmlns="http://www.w3.org/2000/svg">
    <path d="M24 48c13.255 0 24-10.745 24-24S37.255 0 24 0 0 10.745 0 24s10.745 24 24 24zm-2.922-16.883c0-2.187.266-3.93.797-5.226.53-1.29 1.504-2.57 2.918-3.83 1.414-1.26 2.355-2.28 2.824-3.07.47-.79.703-1.62.703-2.49 0-2.64-1.218-3.96-3.656-3.96-1.156 0-2.082.36-2.777 1.07-.696.71-1.06 1.69-1.09 2.94H14c.03-2.98.996-5.32 2.895-7C18.793 7.85 21.383 7 24.665 7c3.312 0 5.882.8 7.71 2.402 1.828 1.602 2.742 3.864 2.742 6.786 0 1.328-.297 2.582-.89 3.76-.594 1.18-1.633 2.49-3.118 3.927l-1.9 1.805c-1.19 1.14-1.87 2.476-2.04 4.008l-.1 1.43h-6zm-.68 7.195c0-1.046.356-1.91 1.067-2.59.71-.68 1.62-1.02 2.73-1.02 1.11 0 2.02.34 2.73 1.02.712.68 1.067 1.544 1.067 2.59 0 1.032-.347 1.883-1.043 2.555-.7.672-1.62 1.008-2.76 1.008-1.14 0-2.06-.336-2.76-1.008-.7-.672-1.05-1.523-1.05-2.554z" fill-rule="evenodd">
</path>
</svg>
