<svg xmlns="http://www.w3.org/2000/svg" viewBox="0 0 21 21">
<path d="M10 14v2a1 1 0 0 1-1 1H8v3a1 1 0 0 1-1 1H3a1 1 0 0 1-1-1v-3H1a1 1 0 0 1-1-1v-2c0-2.305 1.577-4.231 3.702-4.808A2.993 2.993 0 0 1 2 6.5c0-1.654 1.346-3 3-3s3 1.346 3 3a2.993 2.993 0 0 1-1.702 2.692C8.423 9.769 10 11.695 10 14zm-2 1v-1c0-1.654-1.346-3-3-3s-3 1.346-3 3v1h1a1 1 0 0 1 1 1v3h2v-3a1 1 0 0 1 1-1h1zM5 5.5c-.551 0-1 .449-1 1 0 .551.449 1 1 1 .551 0 1-.449 1-1 0-.551-.449-1-1-1zm10.754 9.923C17.079 16.075 18 17.427 18 19v1a1 1 0 0 1-1 1h-6a1 1 0 0 1-1-1v-1c0-1.573.921-2.925 2.246-3.577A2.993 2.993 0 0 1 11 13c0-1.654 1.346-3 3-3s3 1.346 3 3c0 .998-.495 1.877-1.246 2.423zM12 19h4c0-1.104-.897-2-2-2s-2 .896-2 2zm2-7c-.551 0-1 .449-1 1 0 .551.449 1 1 1 .551 0 1-.449 1-1 0-.551-.449-1-1-1zm7-9v2h-3v3h-2V5h-3V3h3V0h2v3h3z"></path>
</svg>
