<?xml version="1.0" encoding="UTF-8" standalone="no"?>
<svg viewBox="0 0 24 23" version="1.1" xmlns="http://www.w3.org/2000/svg" xmlns:xlink="http://www.w3.org/1999/xlink">
    <path d="M19.9392,12.48 C19.06272,16.32192 15.62496,19.2 11.52096,19.2 C7.62816,19.2 4.33152,16.61184 3.2544,13.06656 L5.76096,10.56 L0.00096,10.56 L0.00096,16.32 L1.75488,14.56608 C3.33696,18.40608 7.11648,21.12 11.52096,21.12 C16.68768,21.12 20.99136,17.38752 21.8976,12.48 L19.9392,12.48 L19.9392,12.48 Z" id="Shape"></path>
    <path d="M21.28704,6.55392 C19.70592,2.71296 15.9264,0 11.52096,0 C6.35424,0 2.05056,3.73248 1.14432,8.64 L3.10272,8.64 C3.9792,4.79808 7.41696,1.92 11.52096,1.92 C15.41376,1.92 18.7104,4.50816 19.78752,8.0544 L17.28096,10.56 L23.04096,10.56 L23.04096,4.8 L21.28704,6.55392 L21.28704,6.55392 Z" id="Shape"></path>
</svg>