<?xml version="1.0" encoding="UTF-8" standalone="no"?>
<svg  viewBox="0 0 20 20" version="1.1" xmlns="http://www.w3.org/2000/svg" xmlns:xlink="http://www.w3.org/1999/xlink">
    <defs></defs>
    <g id="Single-Icon-Export-View" stroke="none" stroke-width="1">
        <g id="Artboard-2" transform="translate(-2.000000, -2.000000)">
            <g id="refresh-thick" transform="translate(2.000000, 2.000000)">
                <g id="Group">
                    <path d="M10,16.6666667 C8.205,16.6666667 6.56,15.935 5.315,14.685 L8.33333333,11.6666667 L0,11.6666667 L0,20 L2.93666667,17.065 C4.80166667,18.94 7.305,20 10,20 C15.515,20 20,15.515 20,10 L16.6666667,10 C16.6666667,13.6766667 13.675,16.6666667 10,16.6666667 L10,16.6666667 Z" id="Shape"></path>
                    <path d="M17.0666667,2.935 C15.2016667,1.06 12.6966667,0 10,0 C4.485,0 0,4.485 0,10 L3.33333333,10 C3.33333333,6.325 6.325,3.33333333 10,3.33333333 C11.7966667,3.33333333 13.44,4.06666667 14.685,5.315 L11.6666667,8.33333333 L20,8.33333333 L20,0 L17.0666667,2.935 L17.0666667,2.935 Z" id="Shape"></path>
                </g>
            </g>
        </g>
    </g>
</svg>