<svg class="reward" xmlns="http://www.w3.org/2000/svg" viewBox="0 0 51.297 51.297">
        <path d="M48.096 26.954c-.247-.494-.247-1.295 0-1.79l3.106-6.21c.247-.494 0-.894-.553-.894h-8.24c-2.92-6.538-9.47-11.113-17.08-11.113-7.61 0-14.16 4.575-17.08 11.113H.65c-.553 0-.8.4-.554.895l3.106 6.21c.247.495.247 1.295 0 1.79l-3.106 6.21c-.247.495 0 .895.553.895h8c3.08 6.094 9.39 10.29 16.68 10.29s13.59-4.196 16.68-10.29h8.63c.55 0 .8-.4.55-.895l-3.11-6.21zm-22.76 16.32c-6.688 0-12.505-3.725-15.492-9.214-1.36-2.5-2.133-5.365-2.133-8.41 0-2.722.64-5.29 1.74-7.59 2.84-5.93 8.88-10.036 15.89-10.036S38.39 12.13 41.23 18.06c1.1 2.3 1.736 4.868 1.736 7.59 0 3.045-.772 5.91-2.132 8.41-2.984 5.49-8.802 9.214-15.49 9.214z">
</path>
        <path d="M25.337 10.85c-5.396 0-10.103 2.896-12.69 7.21-1.33 2.22-2.11 4.81-2.11 7.59 0 3.125.975 6.02 2.63 8.41 2.67 3.858 7.122 6.39 12.17 6.39s9.5-2.532 12.17-6.39c1.655-2.39 2.63-5.285 2.63-8.41 0-2.78-.78-5.37-2.11-7.59-2.587-4.314-7.294-7.21-12.69-7.21zm5.928 23.273c.17.525-.053.688-.5.363l-.586-.426L26 31.025c-.446-.325-1.17-.325-1.617 0l-4.178 3.035-.586.426c-.45.325-.68.162-.5-.363l.02-.063 1.79-5.537c.17-.525-.06-1.214-.5-1.54l-4.77-3.46c-.45-.325-.36-.588.19-.588h5.89c.55 0 1.13-.426 1.31-.95l1.27-3.925.54-1.676c.17-.525.45-.525.62 0l.54 1.676 1.27 3.924c.17.525.76.95 1.31.95h5.89c.55 0 .64.264.19.59l-4.76 3.46c-.45.325-.67 1.014-.5 1.54l1.8 5.536.02.063z">
</path>
</svg>
