<svg id="Layer_1" xmlns="http://www.w3.org/2000/svg" viewBox="0 0 100.3 30.1">
    <style>
        .st0{fill:#77787B;} .st1{fill:#78A240;} .st2{fill:url(#XMLID_2_);} .st3{fill:#F7901E;} .st4{fill:url(#XMLID_3_);}
    </style>
    <g id="XMLID_4_">
        <path id="XMLID_43_" class="st0" d="M37.3 4.3h9.1c3.4 0 6.3 4.2 6.3 6.8 0 1.8-1.8 4.9-3.7 6 1.7 4.4 4.5 9.5 4.5 9.5s-1.8.7-4.1.7c0 0-2.4-4.5-4-9.4h-4.2V27s-.8.1-1.9.1c-.6 0-1.3 0-2-.1V4.3zm8.6 10.2c1.3 0 2.8-2.1 2.8-3.4 0-1.3-1.6-3.3-2.8-3.3h-4.6v6.7h4.6z">
</path>
        <path id="XMLID_59_" class="st0" d="M59.3 11.8c5.1 0 6.5 2.7 6.5 7.4 0 5.2-2 8.1-6.5 8.1-4.6 0-6.5-2.9-6.5-8.1 0-4.7 1.3-7.4 6.5-7.4zm0 12.3c2.1 0 2.9-1.8 2.9-4.7 0-2.8-.8-4.3-2.9-4.3-2.1 0-2.9 1.3-2.9 4.2 0 2.8.8 4.8 2.9 4.8z">
</path>
        <path id="XMLID_112_" class="st0" d="M73.2 11.8c5.1 0 6.5 2.7 6.5 7.4 0 5.2-2 8.1-6.5 8.1-4.6 0-6.5-2.9-6.5-8.1 0-4.7 1.4-7.4 6.5-7.4zm0 12.3c2.1 0 2.9-1.8 2.9-4.7 0-2.8-.8-4.3-2.9-4.3-2.1 0-2.9 1.3-2.9 4.2.1 2.8.8 4.8 2.9 4.8z">
</path>
        <path id="XMLID_172_" class="st0" d="M92.2 27.1s-.8.1-1.9.1c-.5 0-1.2 0-1.8-.1V15.2h-4.1v11.9s-.8.1-1.9.1c-.5 0-1.2 0-1.8-.1V12s3-.2 7.6-.2h6c5.1 0 6 1.5 6 6.4v8.9s-.8.1-1.9.1c-.5 0-1.2 0-1.8-.1v-9.2c0-2.1-.4-2.8-2.3-2.8h-2.1v12z">
</path>
        <g id="XMLID_127_">
            <path id="XMLID_176_" class="st1" d="M80.7 4.3h2.5c.7 0 1.2.2 1.4.6.2.2.3.5.3.8 0 .4-.1.7-.3.9-.1.1-.3.2-.4.3.3.1.5.2.7.4.3.3.4.6.4 1s-.1.7-.4 1c-.4.4-.9.7-1.7.7h-2.4l-.1-5.7zm2.2 2.4c.3 0 .6 0 .8-.1.3-.1.4-.4.4-.8s-.2-.6-.4-.8c-.2-.1-.4-.1-.8-.1h-1.4v1.8h1.4zm.2 2.7c.5 0 .8-.1 1-.4.1-.2.2-.4.2-.6 0-.4-.2-.7-.6-.9-.2-.1-.5-.1-.8-.1h-1.6v2h1.8z">
</path>
            <path id="XMLID_182_" class="st1" d="M86.1 4.3h4.2V5h-3.4v1.7H90v.7h-3.1v2h3.5v.6h-4.2l-.1-5.7z">
</path>
            <path id="XMLID_184_" class="st1" d="M95.6 4.3V5h-1.9v5h-.8V4.9H91v-.6h4.6z">
</path>
            <path id="XMLID_186_" class="st1" d="M97.4 4.3h.9l2.1 5.7h-.9l-.6-1.7h-2.2L96 10h-.8l2.2-5.7zm1.3 3.4l-.9-2.5-.9 2.5h1.8z">
</path>
        </g>
        <g id="XMLID_90_">
            <g id="XMLID_96_">
                <linearGradient id="XMLID_2_" gradientUnits="userSpaceOnUse" x1="136.136" y1="16.117" x2="146.729" y2=".988" gradientTransform="matrix(-1 .005 .005 1 164.748 3.743)">
                    <stop offset="0" stop-color="#FECF9E">
</stop>
                    <stop offset="1" stop-color="#F7901E">
</stop>
                </linearGradient>
                <path id="XMLID_99_" class="st2" d="M23.6 6.8c.2.1.4.3.6.4 2 1.6 3.3 3.9 3.7 6.4.6 4.4-2.5 10-7.2 10.9 6-.9 10.5-6 10.5-12.2 0-4.9-3-9.2-7.2-11.1.1 1.9 0 3.8-.4 5.6z">
</path>
                <path id="XMLID_98_" class="st3" d="M19.9 24.6c-.8.4-1.6.6-2.3 1.6-.8 1.1-1.1 1.8-1.3 3.3 0 .7.4.6 2.8.6 8.2 0 14.8-6.7 14.8-14.9 0-6.4-4.1-11.8-9.8-13.9.6.3 1.2.7 1.8 1.2 2.5 2 4.2 5 4.7 8.1.4 3.3-.5 6.7-2.6 9.3-1.8 2.3-5.1 4.6-8.1 4.7z">
</path>
                <circle id="XMLID_97_" class="st3" cx="23.1" cy="16" r="3.1">
</circle>
            </g>
            <g id="XMLID_92_">
                <linearGradient id="XMLID_3_" gradientUnits="userSpaceOnUse" x1="-158.481" y1="626.884" x2="-147.903" y2="611.777" gradientTransform="rotate(3.97 -9250.39 2057.554)">
                    <stop offset="0" stop-color="#B1B3B6">
</stop>
                    <stop offset="1" stop-color="#77787B">
</stop>
                </linearGradient>
                <path id="XMLID_95_" class="st4" d="M9.6 22.9c-.2-.2-.4-.3-.6-.5-1.9-1.7-3-4.1-3.2-6.7-.3-4.5 3.3-9.8 8-10.3-6 .4-10.9 5.2-11.4 11.4-.4 4.9 2.3 9.4 6.3 11.6.1-1.8.3-3.7.9-5.5z">
</path>
                <path id="XMLID_94_" class="st0" d="M14.6 5.4c.8-.3 1.6-.4 2.5-1.4.9-1.1 1.2-1.7 1.6-3.1.1-.7-.4-.6-2.8-.8C7.7-.5.6 5.7 0 13.8c-.4 6.4 3.2 12.1 8.7 14.6-.5-.4-1.1-.8-1.7-1.3-2.4-2.2-3.8-5.3-4-8.5-.2-3.3 1-6.6 3.2-9.1 2-2.1 5.4-4.2 8.4-4.1z">
</path>
                <circle id="XMLID_93_" class="st0" cx="10.8" cy="13.8" r="3.1">
</circle>
            </g>
            <path id="XMLID_91_" class="st1" d="M20.2 5s-.2 1.4-.7 3.6c-.1.5-.3 1.1-.4 1.7-.2.6-.3 1.3-.5 1.9-.2.6-.4 1.3-.6 2l-.6 2.1-.6 2.1s-.4 1.3-.7 2c-.4 1.3-.9 2.5-1.3 3.5s-.8 1.8-1.1 2.4c-.3.6-.4.9-.4.9l-.5-.2s0-.4.2-1c.1-.6.3-1.5.5-2.6s.5-2.3.9-3.6c.2-.7.4-1.3.6-2l.6-2.1c.2-.7.4-1.4.7-2.1.2-.7.5-1.3.7-2s.5-1.3.7-1.8c.2-.6.4-1.1.6-1.6.8-2 1.4-3.3 1.4-3.3l.5.1z">
</path>
        </g>
    </g>
</svg>
