<svg viewBox="0 0 118 36" xmlns="http://www.w3.org/2000/svg">
    <defs>
        <linearGradient x1=".102%" y1="50.024%" x2="100.083%" y2="50.024%" id="a">
            <stop stop-color="#FFF" stop-opacity=".1" offset="0%">
</stop>
            <stop stop-color="#FFF" offset="100%">
</stop>
        </linearGradient>
        <linearGradient x1="26.732%" y1="14.953%" x2="110.263%" y2="83.698%" id="b">
            <stop stop-color="#FFF" stop-opacity=".1" offset="0%">
</stop>
            <stop stop-color="#FFF" offset="100%">
</stop>
        </linearGradient>
    </defs>
    <g fill="none" fill-rule="evenodd">
        <path d="M43.81 5.154h10.66c3.966 0 7.333 4.926 7.333 8.07 0 2.123-2.058 5.8-4.265 7.088 1.945 5.19 5.275 11.254 5.275 11.254s-2.058.834-4.79.834c0 0-2.805-5.267-4.713-11.065h-4.938V32.06s-.898.113-2.245.113c-.712 0-1.497-.038-2.283-.114V5.15h-.038zm9.95 12.05c1.572 0 3.256-2.54 3.256-3.98 0-1.59-1.87-3.902-3.255-3.902H48.38v7.882h5.387z" fill="#FFF">
</path>
        <path d="M69.362 13.945c5.986 0 7.632 3.22 7.632 8.716 0 6.18-2.32 9.63-7.632 9.63-5.313 0-7.595-3.45-7.595-9.625 0-5.494 1.61-8.715 7.595-8.715zm0 14.514c2.47 0 3.367-2.16 3.367-5.538 0-3.334-.9-5.115-3.37-5.115s-3.33 1.59-3.33 4.964c.04 3.373.86 5.685 3.33 5.685zM85.636 13.94c5.986 0 7.632 3.22 7.632 8.716 0 6.18-2.32 9.626-7.632 9.626-5.312 0-7.595-3.448-7.595-9.625 0-5.494 1.61-8.715 7.6-8.715zm0 14.514c2.47 0 3.367-2.16 3.367-5.535 0-3.333-.898-5.114-3.367-5.114-2.47 0-3.33 1.592-3.33 4.965.038 3.373.86 5.685 3.33 5.685zm22.148 3.637s-.935.114-2.207.114c-.636 0-1.347-.037-2.095-.113v-14.06l-4.79.04v14.02s-.934.114-2.206.114c-.636 0-1.347-.037-2.096-.113V14.25s3.555-.227 8.867-.227h6.96c5.985 0 6.995 1.82 6.995 7.542V32.1s-.936.114-2.208.114c-.636 0-1.384-.037-2.132-.113V21.26c0-2.54-.486-3.26-2.694-3.26h-2.394v14.097zM94.316 5.113h2.918c.785 0 1.347.23 1.683.72.187.268.3.61.3.988 0 .42-.113.8-.374 1.066-.113.152-.3.265-.524.38.33.15.593.264.78.454.3.302.45.72.45 1.21 0 .455-.15.834-.41 1.175-.41.53-1.05.796-1.947.796H94.35V5.117h-.036zM96.86 7.96c.374 0 .673-.038.898-.152.336-.15.523-.492.523-.91 0-.454-.182-.757-.52-.91-.19-.074-.485-.112-.9-.112H95.22v2.122h1.646V7.96zm.3 3.145c.56 0 .972-.15 1.196-.492.15-.19.225-.452.225-.755 0-.493-.22-.834-.67-1.024-.223-.113-.56-.15-.934-.15H95.14v2.386h2.02v.038zm3.478-5.987h4.864v.833h-3.966v2.046h3.667v.796h-3.667v2.31h4.04v.8h-4.938V5.114zm11.037 0v.796h-2.245V11.9h-.935V5.91h-2.245v-.796h5.425zm2.095 0h1.01l2.432 6.783h-1.01l-.71-2.05h-2.62l-.71 2.05h-.936l2.544-6.785zm1.534 3.98L114.256 6.1l-1.085 2.995h2.138z" fill="#FFF">
</path>
        <g transform="translate(19.08 1.137)">
            <path d="M8.642 6.897c.225.15.487.34.71.53 2.32 1.857 3.892 4.624 4.266 7.58.673 5.23-2.956 11.86-8.418 12.884 6.96-1.02 12.27-7.082 12.234-14.433-.037-5.837-3.442-10.84-8.38-13.114.262 2.2.112 4.436-.412 6.558z" fill="url(#a)">
</path>
            <path d="M4.34 27.966c-.898.417-1.833.682-2.694 1.933C.71 31.22.412 32.06.112 33.76c-.037.872.524.72 3.255.72 9.578-.038 17.284-7.92 17.247-17.62C20.577 9.32 15.824 2.917 9.24.452c.712.38 1.385.835 2.096 1.366 2.955 2.348 4.938 5.873 5.425 9.624.528 3.903-.56 7.92-2.99 11.028-2.093 2.652-5.95 5.42-9.43 5.494z" fill="#FFF">
</path>
            <ellipse fill="#FFF" cx="8.044" cy="17.773" rx="3.629" ry="3.676">
</ellipse>
        </g>
        <path d="M11.448 27.133l-.673-.57c-2.208-2.007-3.517-4.887-3.704-7.88-.294-5.268 3.82-11.597 9.358-12.203-6.996.493-12.76 6.177-13.246 13.453-.41 5.835 2.658 11.065 7.37 13.718-.073-2.23.227-4.43.9-6.513z" fill="url(#b)">
</path>
        <path d="M17.284 6.442c.936-.34 1.87-.53 2.844-1.705 1.01-1.25 1.384-2.046 1.833-3.714.08-.87-.482-.758-3.213-.947C9.207-.606.937 6.706.267 16.37c-.53 7.542 3.74 14.287 10.134 17.205-.67-.417-1.31-.91-1.98-1.516-2.77-2.58-4.49-6.22-4.712-10.01-.225-3.94 1.16-7.88 3.778-10.8 2.283-2.5 6.323-4.963 9.802-4.812z" fill="#FFF">
</path>
        <ellipse fill="#FFF" cx="12.832" cy="16.333" rx="3.629" ry="3.676">
</ellipse>
        <path d="M23.794 5.95s-.262 1.705-.823 4.206c-.15.644-.294 1.326-.48 2.008-.188.72-.376 1.478-.563 2.236-.224.758-.45 1.592-.673 2.387-.223.796-.485 1.63-.71 2.464-.224.838-.486 1.63-.75 2.43-.26.796-.522 1.59-.784 2.35-.524 1.515-1.048 2.917-1.535 4.09-.485 1.214-.896 2.16-1.233 2.88-.3.68-.524 1.06-.524 1.06l-.56-.19s.036-.414.186-1.172c.11-.758.337-1.82.6-3.07.26-1.25.635-2.728 1.046-4.282.187-.796.45-1.59.673-2.387.225-.797.487-1.63.75-2.426.26-.795.52-1.63.784-2.425.262-.797.562-1.59.823-2.35.262-.758.562-1.478.786-2.16.263-.68.525-1.327.75-1.933.935-2.387 1.683-3.94 1.683-3.94l.56.226z" fill="#FFF">
</path>
    </g>
</svg>
