<?xml version="1.0" encoding="UTF-8" standalone="no"?>
<svg viewBox="0 0 20 20" version="1.1" xmlns="http://www.w3.org/2000/svg" xmlns:xlink="http://www.w3.org/1999/xlink">
    <defs></defs>
    <g id="Iconography" stroke="none" stroke-width="1" fill="none" fill-rule="evenodd">
        <g id="New-Icons---Gold-Release" transform="translate(-1514.000000, -218.000000)">
            <g id="rotate" transform="translate(1524.000000, 228.000000) scale(-1, 1) translate(-1524.000000, -228.000000) translate(1512.000000, 216.000000)">
                <g id="Group">
                    <g id="Frame_-_24px">
                        <rect id="Rectangle-path" x="0" y="0" width="24" height="24"></rect>
                    </g>
                    <g id="Filled_Icons" transform="translate(2.000000, 2.000000)" fill="#d2d3d5">
                        <path d="M10,0 C7.285,0 4.779,1.089 2.938,2.938 L1,1 L1,7 L7,7 L4.351,4.351 C5.824,2.871 7.828,2 10,2 C14.411,2 18,5.589 18,10 C18,14.411 14.411,18 10,18 C5.589,18 2,14.411 2,10 L0,10 C0,15.515 4.486,20 10,20 C15.514,20 20,15.515 20,10 C20,4.485 15.514,0 10,0 L10,0 Z" id="Shape"></path>
                    </g>
                </g>
            </g>
        </g>
    </g>
</svg>