<svg viewBox="0 0 65 57" xmlns="http://www.w3.org/2000/svg">
    <path d="M56.3 26.975C55.685 11.987 43.29 0 28.2 0 12.7 0 0 12.6 0 28.2c0 15.5 12.6 28.2 28.2 28.2 10.6 0 20.2-5.9 25-15.3.5-1.1.1-2.3-.9-2.9-1.1-.5-2.3-.1-2.9.9-4.1 8-12.3 13-21.2 13C15 52.1 4.3 41.4 4.3 28.2S15 4.3 28.2 4.3c12.756 0 23.13 10.03 23.794 22.57l-4.77-4.77c-.388-.386-1.022-.39-1.41-.002L44.25 23.66c-.385.386-.387 1.02.003 1.41l8.193 8.193c.037.038.077.072.12.102l.034.035c.5.5 1 .7 1.6.7.27 0 .568-.058.85-.174.186-.037.365-.127.51-.272l8.594-8.594c.393-.393.388-1.018 0-1.407L62.59 22.09c-.385-.385-1.018-.388-1.406 0L56.3 26.975zm-35.076 2.45c-1.94 0-2.896-1.276-2.896-3.313 0-2.062 1.202-3.436 2.724-3.436 1.988 0 3.19 1.62 3.46 4.663-1.055 1.49-2.282 2.08-3.288 2.08zm-4.516 6.258c.86.933 2.11 1.645 3.78 1.645 3.117 0 5.964-2.43 5.964-8.713 0-5.03-2.308-7.535-5.4-7.535-2.503 0-4.614 2.037-4.614 5.032 0 3.215 1.743 4.834 4.442 4.834 1.3 0 2.7-.76 3.682-2.012-.074 5.007-1.94 6.725-4.148 6.725-.982 0-1.94-.5-2.577-1.26l-1.13 1.27zm21.297-6.528c0-5.252-1.89-8.075-5.007-8.075-3.14 0-5.03 2.823-5.03 8.075 0 5.252 1.89 8.173 5.03 8.173 3.117 0 5.007-2.92 5.007-8.173zm-5.007 6.553c-1.84 0-3.068-1.964-3.068-6.553 0-4.59 1.228-6.455 3.068-6.455 1.816 0 3.044 1.865 3.044 6.455s-1.228 6.553-3.044 6.553zm7.385-10.563c.875 0 1.534-.878 1.534-1.917 0-1.04-.66-1.918-1.534-1.918-.875 0-1.534.88-1.534 1.918 0 1.04.65 1.917 1.53 1.917zm0-.767c-.396 0-.767-.495-.767-1.15 0-.656.37-1.15.767-1.15.395 0 .767.494.767 1.15 0 .655-.372 1.15-.767 1.15z" fill-rule="evenodd">
</path>
</svg>
