<svg class="rounded-x" xmlns="http://www.w3.org/2000/svg" viewBox="0 0 500 500">
    <path fill="#B54B64" d="M250 13.1C119.2 13.1 13.1 119.2 13.1 250S119.2 486.9 250 486.9 486.9 380.8 486.9 250 380.8 13.1 250 13.1zm125.8 330.1c10 10 10 26.3 0 36.3-5 5-11.6 7.5-18.2 7.5s-13.1-2.5-18.2-7.5L250 290l-89.5 89.5c-5 5-11.6 7.5-18.2 7.5s-13.1-2.5-18.2-7.5c-10-10-10-26.3 0-36.3l89.5-89.5-89.5-89.5c-10-10-10-26.3 0-36.3 10-10 26.3-10 36.3 0l89.5 89.5 89.5-89.5c10-10 26.3-10 36.3 0 10 10 10 26.3 0 36.3l-89.5 89.5 89.6 89.5z">
</path>
</svg>
