<?xml version="1.0" encoding="UTF-8"?>
<svg  viewBox="0 0 24 24" version="1.1" xmlns="http://www.w3.org/2000/svg" xmlns:xlink="http://www.w3.org/1999/xlink">
    <g stroke="none" stroke-width="1">
        <g id="screen-share-outline">
            <path d="M22,0 C23.103,0 24,0.896 24,2 L24,15 C24,16.103 23.103,17 22,17 L13,17 L13,19 L17,19 L17,21 L7,21 L7,19 L11,19 L11,17 L2,17 C0.897,17 0,16.103 0,15 L0,2 C0,0.896 0.897,0 2,0 L22,0 Z M22,2 L2,2 L2,12 L21.998,12 L22,2 Z M2,15 L21.997,15 L21.997,14 L2,14 L2,15 Z" id="Shape" fill-rule="nonzero"></path>
            <path d="M12.3077778,7 L13.3077778,7 C8.63049316,6.85955811 7.72222222,9.54025 7.72222222,10.375 L7.72222222,11.5 L7.5,11.5 L7.5,10.375 C7.5,6.852625 9.67111111,4.75 13.3077778,4.75 L14.1666667,4.75 L14.1666667,2.5 L17.5,5.875 L14.1666667,9.25 L14.1666667,7 L12.3077778,7 Z" id="Shape"></path>
        </g>
    </g>
</svg>