<svg class="share" xmlns="http://www.w3.org/2000/svg" viewBox="0 0 511.626 511.627">
    <path d="M506.206 179.012L360.026 32.834c-3.618-3.617-7.9-5.426-12.848-5.426s-9.233 1.81-12.847 5.426c-3.61 3.62-5.42 7.902-5.42 12.85v73.09h-63.96c-135.71 0-218.98 38.353-249.82 115.06C5.04 259.334 0 291.03 0 328.906 0 360.5 12.087 403.42 36.26 457.67c.57 1.334 1.565 3.613 2.995 6.848 1.43 3.233 2.712 6.088 3.854 8.565 1.14 2.47 2.38 4.565 3.71 6.276 2.28 3.23 4.95 4.85 7.99 4.85 2.85 0 5.09-.95 6.71-2.86 1.61-1.9 2.42-4.29 2.42-7.13 0-1.72-.24-4.24-.72-7.57s-.72-5.57-.72-6.71c-.95-12.94-1.43-24.66-1.43-35.12 0-19.23 1.67-36.45 5-51.68 3.33-15.23 7.94-28.41 13.85-39.55 5.9-11.14 13.51-20.75 22.84-28.84 9.32-8.09 19.36-14.7 30.12-19.84 10.75-5.14 23.41-9.19 37.97-12.14 14.56-2.95 29.21-5 43.97-6.14s31.45-1.71 50.11-1.71h63.95v73.09c0 4.95 1.81 9.23 5.42 12.85 3.62 3.61 7.9 5.42 12.85 5.42 4.95 0 9.23-1.81 12.85-5.43L506.2 204.7c3.61-3.616 5.42-7.897 5.42-12.846 0-4.95-1.81-9.235-5.42-12.86z">
</path>
</svg>
