<svg  version="1.1" xmlns="http://www.w3.org/2000/svg" xmlns:xlink="http://www.w3.org/1999/xlink">
    <g id="Older-Concepts" stroke="none" stroke-width="1" >
        <g id="Document-View-Start-Page-2" transform="translate(-1083.000000, -91.000000)">
            <g id="Group-6" transform="translate(1063.000000, 74.550781)">
                <g id="Group-2" transform="translate(16.909120, 15.322266)">
                    <g id="file-new-2-copy" transform="translate(0.319384, 0.567707)">
                        <g id="Group">

                            <g id="Line_Icons" transform="translate(2.819393, 1.409696)" >
                                <g id="Group">
                                    <path d="M8.04513703,0 L1.40969634,0 C0.63224881,0 0,0.632953658 0,1.40969634 L0,12.6872671 C0,13.4647146 0.63224881,14.0969634 1.40969634,14.0969634 L9.8678744,14.0969634 C10.6453219,14.0969634 11.2775707,13.4647146 11.2775707,12.6872671 L11.2775707,3.23243371 L8.04513703,0 L8.04513703,0 Z M9.86857925,12.6872671 L1.40969634,12.6872671 L1.40969634,1.40969634 L7.04848171,1.40969634 L7.04848171,4.22908903 L9.8678744,4.22908903 L9.86857925,12.6872671 L9.86857925,12.6872671 Z" id="Shape"></path>
                                    <rect id="Rectangle-path" x="2.81939269" y="6.34363354" width="4.22908903" height="1.40969634"></rect>
                                    <rect id="Rectangle-path" x="2.81939269" y="9.16302623" width="5.63878537" height="1.40969634"></rect>
                                </g>
                            </g>
                        </g>
                    </g>
                </g>
            </g>
        </g>
    </g>
</svg>