<svg viewBox="0 0 22 30" xmlns="http://www.w3.org/2000/svg">
    <g fill="none" fill-rule="evenodd">
        <rect width="20" height="28" rx="4" stroke="#88CFD6" fill="#A7E4EA" transform="translate(1 1)">
</rect>
        <path d="M15.833 8c.466 0 .843.386.843.837v11.7c0 .462-.374.837-.843.837-.465 0-.843-.386-.843-.837v-11.7c0-.462.374-.837.843-.837zm-4.495 0c.465 0 .843.386.843.837v11.7c0 .462-.37.837-.84.837-.46 0-.84-.386-.84-.837v-11.7c0-.462.38-.837.85-.837zM6.843 8c.465 0 .843.386.843.837v11.7c0 .462-.374.837-.843.837-.466 0-.843-.386-.843-.837v-11.7C6 8.375 6.374 8 6.843 8z" fill="#88CFD6">
</path>
    </g>
</svg>
