<svg viewBox="0 0 66 66" xmlns="http://www.w3.org/2000/svg">
    <g fill="none" fill-rule="evenodd">
        <path d="M32.733 32.697L10.17 10.135C16.4 3.905 23.923.79 32.734.79v31.907" fill="#636363">
</path>
        <path d="M32.733 32.697H.825c0-8.81 3.115-16.332 9.346-22.562l22.57 22.562" fill="#686868">
</path>
        <path d="M32.733 32.697L10.17 55.26C3.94 49.03.826 41.507.826 32.696h31.908" fill="#7B7B7B">
</path>
        <path d="M32.733 32.697v31.908c-8.81 0-16.332-3.115-22.562-9.346l22.57-22.57" fill="#A7A7A7">
</path>
        <path d="M32.733 32.697L55.295 55.26c-6.23 6.23-13.75 9.345-22.562 9.345V32.697" fill="#DADADA">
</path>
        <path d="M32.733 32.697H64.64c0 8.81-3.114 16.332-9.345 22.562L32.733 32.69" fill="#E5E5E5">
</path>
        <path d="M32.733 32.697l22.562-22.562c6.23 6.23 9.346 13.75 9.346 22.562h-31.9" fill="#B7B7B7">
</path>
        <path d="M32.733 32.697V.79c8.81 0 16.332 3.114 22.562 9.345L32.733 32.697" fill="#676767">
</path>
        <path d="M34.518 31.433L24.115 7.44s-.346-.602-.932-.4c-.585.2-.488.888-.488.888l6.58 25.31c.025.142.062.284.11.424.505 1.465 2.102 2.244 3.567 1.74 1.465-.506 2.244-2.103 1.74-3.568-.05-.14-.107-.274-.174-.4" fill="#FFF">
</path>
        <path d="M.847 32.697C.847 15.087 15.123.81 32.733.81S64.62 15.088 64.62 32.698 50.342 64.583 32.732 64.583.847 50.307.847 32.697z" stroke="#F2F2F1">
</path>
    </g>
</svg>
