<svg class="stamp" xmlns="http://www.w3.org/2000/svg" viewBox="0 0 349.201 349.201">
    <path d="M346.06 40.533c1.065 0 2.088.167 3.117.31V22.796c-1.267.223-2.558.384-3.873.384-6.82 0-13.286-3.13-17.293-8.03-4.29-3.516-7.24-9.19-7.92-15.146h-24.22c-1.53 10.562-10.53 18.706-21.51 18.706h-6.23c-10.98 0-19.98-8.144-21.51-18.706h-19.33c-1.53 10.562-10.53 18.706-21.51 18.706h-6.23c-10.99 0-19.99-8.144-21.52-18.706H158.7c-1.53 10.562-10.53 18.706-21.52 18.706h-6.235c-10.983 0-19.98-8.144-21.51-18.706H90.1C88.574 10.566 79.577 18.71 68.59 18.71h-6.236C51.366 18.71 42.37 10.566 40.84.004H22.878c-.715 5.88-3.766 11.292-8.068 14.81-3.518 4.3-8.93 7.35-14.81 8.066v24.2c10.562 1.527 18.706 10.523 18.706 21.512v6.235C18.706 85.815 10.562 94.81 0 96.34v19.333c10.562 1.528 18.706 10.528 18.706 21.513v6.235c0 10.99-8.144 19.99-18.706 21.52v19.34c10.562 1.53 18.706 10.53 18.706 21.52v6.24C18.706 223 10.562 232 0 233.53v19.334c10.562 1.53 18.706 10.53 18.706 21.517v6.24c0 10.99-8.144 19.99-18.706 21.52v17.79c5.88.65 11.292 3.45 14.81 7.75 4.9 4.01 8.198 10.85 8.198 17.67 0 1.32-.16 2.6-.38 3.88h24.448c-.15-1.03-.31-2.05-.31-3.11 0-12.05 9.77-21.82 21.823-21.82h6.23c12.05 0 21.82 9.77 21.82 21.83 0 1.07-.17 2.09-.31 3.12h19.33c-.15-1.03-.31-2.05-.31-3.12 0-12.05 9.77-21.82 21.82-21.82h6.23c12.05 0 21.82 9.78 21.82 21.83 0 1.07-.17 2.09-.31 3.12h19.33c-.15-1.03-.31-2.05-.31-3.11 0-12.05 9.76-21.82 21.82-21.82H212c12.06 0 21.824 9.77 21.824 21.82 0 1.062-.17 2.09-.31 3.114h19.332c-.148-1.03-.31-2.056-.31-3.12 0-12.05 9.77-21.825 21.82-21.825h6.234c12.05 0 21.824 9.77 21.824 21.82 0 1.07-.166 2.09-.31 3.12h17.9c-.226-1.27-.39-2.56-.39-3.88 0-6.82 3.13-13.285 8.03-17.286 4-4.9 10.845-8.22 17.664-8.22 1.315 0 2.6.15 3.873.37V295.9c-1.03.15-2.05.31-3.11.31-12.06 0-21.82-9.768-21.82-21.824v-6.233c0-12.056 9.77-21.823 21.83-21.823 1.07 0 2.09.17 3.12.31V227.3c-1.03.15-2.05.31-3.12.31-12.05 0-21.82-9.77-21.82-21.83v-6.236c0-12.054 9.77-21.82 21.83-21.82 1.07 0 2.09.17 3.12.31V158.7c-1.03.15-2.05.31-3.12.31-12.06 0-21.82-9.77-21.82-21.822v-6.235c0-12.053 9.77-21.823 21.83-21.823 1.07 0 2.09.167 3.12.31V90.11c-1.03.148-2.05.31-3.12.31-12.05 0-21.82-9.77-21.82-21.823v-6.235c-.02-12.054 9.746-21.824 21.8-21.824zm-53 252.53H49.882V49.885H293.06V293.06z">
</path>
    <path d="M274.354 274.356v-82.1c0-.104-3.43-.152-5.846-.152-38.904.012-64.027 12.543-80.255 27.76 17.993 21.22 24.54 44.092 26.65 53.95l59.45.542zM155.578 273.2l-.23 1.94 3.08-.022 47.203-.42c-.06-.305-.14-.647-.21-.963-2.1-9.706-8.01-29.19-23.34-47.49-.33-.383-.63-.772-.97-1.162-.54-.633-1.11-1.267-1.68-1.894-19.51-21.57-52.8-40.23-109.49-37.99l-.75-4.38h-.58v95.09l86.18-.77.81-1.95zm-85.836 7.392v-.085m163.88-215.033c17.22 0 31.177 13.96 31.177 31.176 0 17.217-13.96 31.177-31.18 31.177s-31.18-13.96-31.18-31.177c0-17.216 13.96-31.176 31.17-31.176z">
</path>
</svg>
