<svg viewBox="0 0 52 56" xmlns="http://www.w3.org/2000/svg">
    <g fill-rule="evenodd">
        <path d="M24 55.947c13.255 0 24-10.745 24-24 0-13.254-10.745-24-24-24s-24 10.746-24 24c0 13.255 10.745 24 24 24zm0-4c-11.046 0-20-8.954-20-20 0-11.045 8.954-20 20-20s20 8.955 20 20c0 11.046-8.954 20-20 20zm-3-46h6v2.16s-1.478-.15-3-.15-3 .15-3 .15v-2.16zm-7-2.995c0-1.107.898-2.005 1.99-2.005h16.02c1.1 0 1.99.894 1.99 2.005v.99c0 1.108-.898 2.005-1.99 2.005H15.99c-1.1 0-1.99-.894-1.99-2.005v-.99zm30.165 6.4c.85-.712 2.107-.61 2.822.243l3.857 4.596c.71.85.6 2.11-.25 2.83l-.76.64c-.848.71-2.106.61-2.82-.24l-3.858-4.59c-.71-.84-.6-2.1.25-2.82l.76-.63z">
</path>
        <rect transform="rotate(50 31.5 26)" x="29" y="19" width="5" height="14" rx="3">
</rect>
    </g>
</svg>
