<svg class="store" xmlns="http://www.w3.org/2000/svg" viewBox="0 0 500 500">
    <g fill="#161616">
        <path d="M144.2 29h210.4v73l27.7 30.2v-112c0-11.4-8.8-20.1-20.1-20.1H135.4c-11.4 0-20.1 8.8-20.1 20.1v32.7h28.9V29z">
</path>
        <path d="M146.8 108.3h132.3V160c0 6.3 2.5 11.4 6.3 15.2 3.8 3.8 8.8 6.3 15.2 6.3h52.9v126H385V185.2c0-13.9-5.1-26.4-15.2-36.5l-55.5-55.5C304.2 83.1 291.6 78 277.8 78H139.2c-12.6 0-21.4 10.1-21.4 22.6v207.8h31.5V108.3h-2.5zm162.4 23.9l20.1 20.1h-20.1v-20.1z">
</path>
        <path d="M183.3 173.8h42.8c8.8 0 15.2-7.6 15.2-15.2 0-8.8-6.3-15.2-15.2-15.2h-42.8c-8.8 0-15.2 7.6-15.2 15.2.1 7.6 6.3 15.2 15.2 15.2zm134.8 26.4H183.3c-8.8 0-15.2 6.3-15.2 15.2 0 8.9 6.3 15.2 15.2 15.2H318c8.8 0 15.2-6.3 15.2-15.2-.1-7.6-7.5-15.2-15.1-15.2zm0 58H183.3c-8.8 0-15.2 7.6-15.2 15.2 0 8.8 6.3 15.2 15.2 15.2H318c8.8 0 15.2-7.6 15.2-15.2-.1-7.6-7.5-15.2-15.1-15.2z">
</path>
        <path d="M403.7 234.2v59.1l10.1 16.4c2.5 3.8 2.5 7.6 0 11.4-2.5 3.8-6.3 6.3-10.1 6.3h-306c-3.8 0-7.6-2.5-10.1-6.3s-2.5-7.6 0-11.4l7.6-12.6V238l-45.4 74.3c-6.3 10.1-10.1 21.4-10.1 34v113.3c0 22.6 17.7 40.3 40.3 40.3h340c22.6 0 40.3-17.7 40.3-40.3V346.3c0-11.4-3.8-23.9-10.1-34l-46.5-78.1z">
</path>
    </g>
</svg>
