<svg id="Layer_1" xmlns="http://www.w3.org/2000/svg" viewBox="0 0 83.9 31">
    <style>
        .st0{fill:#78A240;} .st1{fill:#77787B;} .st2{fill:url(#XMLID_2_);} .st3{fill:#F7901E;} .st4{fill:#4D8BBE;}
    </style>
    <g id="XMLID_5_">
        <g id="XMLID_114_">
            <path id="XMLID_189_" class="st0" d="M65.2 7.9h2.4c.6 0 1.1.2 1.4.6.2.2.2.5.2.8 0 .3-.1.6-.3.9-.1.1-.2.2-.5.3.3.1.5.2.6.4.2.2.4.6.4 1 0 .3-.1.7-.3 1-.3.4-.9.6-1.6.6h-2.3V7.9zm2 2.3c.3 0 .6-.1.7-.1.3-.1.4-.4.4-.7 0-.3-.2-.6-.5-.7-.2-.1-.4-.1-.7-.1h-1.3v1.7h1.4zm.3 2.5c.5 0 .8-.1 1-.4.1-.2.2-.4.2-.6 0-.4-.2-.7-.5-.8-.2-.1-.5-.1-.7-.1H66v1.9h1.5z">
</path>
            <path id="XMLID_193_" class="st0" d="M70.3 7.9h4v.7h-3.2v1.6h3v.6h-3v1.9h3.3v.7h-4l-.1-5.5z">
</path>
            <path id="XMLID_195_" class="st0" d="M79.3 7.9v.7h-1.8v4.8h-.7V8.5H75v-.6h4.3z">
</path>
            <path id="XMLID_197_" class="st0" d="M81 7.9h.8l2 5.5H83l-.6-1.6h-2.2l-.6 1.6H79l2-5.5zm1.3 3.2l-.9-2.4-.9 2.4h1.8z">
</path>
        </g>
        <path id="XMLID_82_" class="st1" d="M42.9 10.1s-.8 1.5-2.4 2.6c0 0-1.3-1.2-3.6-1.2-2.1 0-3.1.6-3.1 2.6 0 2.3 1.9 2.6 3.9 2.9 2.8.4 5.9 1.1 5.9 6.2 0 4.6-2.7 6.1-7.2 6.1-4.2 0-6.4-2.3-6.4-2.3s.9-1.7 2.6-2.4c0 0 1.4 1.6 3.8 1.6s3.6-.8 3.6-2.9c0-2.4-2-2.9-4-3.2-2.7-.5-5.7-1.2-5.7-5.8 0-4.5 2.7-6 6.7-6 4-.1 5.9 1.8 5.9 1.8z">
</path>
        <path id="XMLID_77_" class="st1" d="M58.8 15.1c4.7 0 5.9 2.4 5.9 6.7 0 4.7-1.8 7.3-5.9 7.3s-5.9-2.6-5.9-7.3c0-4.2 1.3-6.7 5.9-6.7zm0 11.1c1.9 0 2.6-1.6 2.6-4.2s-.7-3.9-2.6-3.9c-1.9 0-2.6 1.2-2.6 3.8s.7 4.3 2.6 4.3z">
</path>
        <path id="XMLID_75_" class="st1" d="M72.4 15.3s.1.7.1 1.5c0 .4 0 1-.1 1.5 0 0-1.1-.1-2-.1-1 0-1.7.1-1.7.1V29s-.8.1-1.8.1c-.5 0-1.1 0-1.6-.1V15.4s1.4-.2 3.5-.2c2.5 0 3.6.1 3.6.1z">
</path>
        <path id="XMLID_72_" class="st1" d="M75.4 23.3c0 2.1 1.3 2.9 3.2 2.9 2.3 0 3.8-.7 3.8-.7.7 1.4.9 2.8.9 2.8s-1.7.8-4.7.8c-4.7 0-6.6-2.4-6.6-7.1 0-4.6 2.2-6.9 6.1-6.9 3.6 0 5.8 2.6 5.8 6.6 0 1-.1 1.6-.1 1.6h-8.4zm0-2.5h4.9v-.4c0-1.1-.6-2.3-2.2-2.3-1.9-.1-2.6 1.1-2.7 2.7z">
</path>
        <g id="XMLID_3_">
            <path id="XMLID_80_" class="st1" d="M46.1 12.3l3.3-.7v3.6h3.5c.1.5.1 1 .1 1.4 0 .9-.1 1.6-.1 1.6h-3.5V29s-.7.1-1.7.1c-.5 0-1 0-1.6-.1V12.3z">
</path>
            <path id="XMLID_70_" class="st1" d="M46.1 18.3h-3.5s-.1-.7-.1-1.6c0-.4 0-.9.1-1.4h3.5v3z">
</path>
        </g>
        <g id="XMLID_132_">
            <linearGradient id="XMLID_2_" gradientUnits="userSpaceOnUse" x1="-19.455" y1="108.7" x2="-9.962" y2="95.142" gradientTransform="rotate(-106.003 47.1 -52.246)">
                <stop offset="0" stop-color="#FECF9E">
</stop>
                <stop offset="1" stop-color="#F7901E">
</stop>
            </linearGradient>
            <path id="XMLID_107_" class="st2" d="M21.8 19.6c-.1.2-.1.4-.2.6-.9 2.1-2.6 3.8-4.7 4.7-3.7 1.6-9.3.3-11.2-3.6 2.2 4.9 7.7 7.6 13.1 6.1 4.3-1.2 7.2-4.8 7.8-8.9-1.5.7-3.2 1-4.8 1.1z">
</path>
            <path id="XMLID_68_" class="st3" d="M5.5 20.7c-.5-.6-.9-1.2-2-1.6-1.1-.4-1.8-.5-3.1-.3-.6.2-.4.5.2 2.6 2 7.1 9.4 11.1 16.5 9.1 5.5-1.6 9.2-6.4 9.6-11.8-.1.6-.3 1.2-.6 1.8-1.1 2.7-3.2 4.9-5.9 6-2.7 1.2-5.9 1.2-8.7.1-2.4-1.1-5.2-3.3-6-5.9z">
</path>
            <path id="XMLID_65_" class="st3" d="M12.5 15.4c-2.3.7-3.6 3.1-3 5.3.7 2.3 3.1 3.6 5.3 3 2.3-.7 3.6-3.1 3-5.3-.6-2.4-3-3.7-5.3-3z">
</path>
            <g id="XMLID_63_">
                <path id="XMLID_131_" class="st4" d="M11.2 7.7L10 6.8c-.2-.2-.2-.4.1-.5l1.6-.9c.2-.1.4 0 .3.2l-.4 1.9c0 .3-.2.4-.4.2z">
</path>
                <path id="XMLID_130_" class="st4" d="M10.9 9l-7.2 9.1c-.2.2-.5.2-.7.1l-1-.9c-.2-.2-.2-.5-.1-.7l7.2-9.1c.2-.2.5-.2.7-.1l1.1.9c.2.2.2.5 0 .7z">
</path>
            </g>
            <g id="XMLID_64_">
                <path id="XMLID_115_" class="st4" d="M16.8 5.9c.3-.2 1-.5 1.3.1.3.6 3.1 5.3 4 7.3 1 2 2.8 5.1 2.3 5.3-.6.4-2.9-3.4-3.9-4.7s-4.4-6.5-4.4-7.1c.2-.5.4-.7.7-.9z">
</path>
                <path id="XMLID_113_" class="st4" d="M15.1 3.3l.5-.3c.3-.1.6 0 .7.2l.7 1.2c.1.2.1.6-.2.7l-.7.4c-.2.1-.6.1-.7-.2L14.8 4c-.1-.2.1-.6.3-.7z">
</path>
                <path id="XMLID_111_" class="st4" d="M15 2.9c-.2.1-.8.2-1.2-.6-.3-.9.3-1.9-.1-2.3 0 0 3.5 1.7 1.3 2.9z">
</path>
            </g>
            <path id="XMLID_133_" class="st0" d="M1.9 12.9h2l2.5-3.1H1.9c-.3 0-.6.3-.6.6v1.8c-.1.4.2.7.6.7z">
</path>
            <path id="XMLID_157_" class="st4" d="M8.1 9.8l-2.5 3.1H7l2.4-3.1z">
</path>
            <g id="XMLID_110_">
                <path id="XMLID_129_" class="st0" d="M18.7 9.8c.6.9 1.3 2 2.1 3.1h.4c-.5-.9-1.1-2-1.7-3.1h-.8z">
</path>
                <path id="XMLID_136_" class="st0" d="M25.5 9.8H21c.7 1.2 1.3 2.3 1.7 3.1h2.7c.3 0 .6-.3.6-.6v-1.8c.1-.4-.2-.7-.5-.7z">
</path>
                <path id="XMLID_137_" class="st0" d="M17.1 9.8h-6l-2.5 3.1h10.5c-.8-1.3-1.5-2.3-2-3.1z">
</path>
            </g>
        </g>
    </g>
</svg>
