<svg viewBox="0 0 24 24" version="1.1" xmlns="http://www.w3.org/2000/svg" xmlns:xlink="http://www.w3.org/1999/xlink">
    <path d="M4,9 L4,13 L6,13 L6,11 L8,11 L8,16 L6,16 L6,18 L12,18 L12,16 L10,16 L10,11 L12,11 L12,13 L14,13 L14,9 L4,9 Z" id="Shape"></path>
    <path d="M13.414,1.70530257e-13 L2,1.70530257e-13 C0.897,1.70530257e-13 0,0.898 0,2 L0,20 C0,21.103 0.897,22 2,22 L16,22 C17.103,22 18,21.103 18,20 L18,4.586 L13.414,1.70530257e-13 L13.414,1.70530257e-13 Z M2,20 L2,2 L12,2 L12,6 L16,6 L16.001,20 L2,20 L2,20 Z" id="Shape"></path>
</svg>