<svg class="techsupport-bubble" xmlns="http://www.w3.org/2000/svg" viewBox="0 0 500 500">
    <path d="M416.7 358.4H205l-95.9 106c-3.4 3.8-8 5.8-12.6 5.8-2.3 0-4.7-.5-6.9-1.6-6.7-3.1-11-10.5-11-18.6v-91.8C35 355.3.3 314.6.3 264.8V125.2c0-51.7 37.3-93.6 83.3-93.6h333.1c46 0 83.3 41.9 83.3 93.6v139.6c0 51.7-37.3 93.6-83.3 93.6zM258.5 225.7v-9.5c0-6.3 1.3-11.4 4-15.3 2.7-3.9 9.1-9.6 19.2-17 14.7-10.5 24.7-20 30-28.4 5.3-8.4 7.9-18.4 7.9-30 0-17.4-6.4-31.3-19.2-41.7s-30-15.6-51.7-15.6c-26.3 0-51.2 6.6-74.7 19.7l17.2 34.6c20.2-10.3 38.2-15.5 54-15.5 9 0 16.1 1.8 21.2 5.4 5.1 3.6 7.6 8.8 7.6 15.6 0 6.1-1.8 11.6-5.3 16.6-3.5 4.9-10.8 11.4-21.9 19.3-11.5 8.4-19.4 16.4-23.7 23.8-4.3 7.5-6.5 16.3-6.5 26.4v11.7h41.9zm-39.7 73.8c4.8 4.7 11.7 7 20.5 7 8.6 0 15.4-2.4 20.2-7.2 4.8-4.8 7.3-11.3 7.3-19.7 0-8.6-2.4-15.3-7.2-19.9-4.8-4.6-11.6-6.9-20.3-6.9-9.1 0-15.9 2.3-20.7 6.8-4.7 4.5-7.1 11.2-7.1 20 .1 8.6 2.5 15.2 7.3 19.9z">
</path>
</svg>
