<svg viewBox="0 0 30 30" xmlns="http://www.w3.org/2000/svg">
    <g transform="translate(1 1)" fill="none" fill-rule="evenodd">
        <rect stroke="#B6B8BA" fill="#EDEEEF" width="28" height="28" rx="4">
</rect>
        <path d="M9.35 20.593c-.465 0-.842-.378-.842-.842V7.31c0-.463.374-.84.843-.84.47 0 .85.378.85.84v12.44c0 .466-.37.843-.84.843zm4.496 0c-.466 0-.843-.378-.843-.842V7.31c0-.463.374-.84.843-.84.465 0 .843.378.843.84v12.44c0 .466-.38.843-.85.843zm4.494 0c-.464 0-.842-.378-.842-.842V7.31c0-.463.374-.84.843-.84.47 0 .85.378.85.84v12.44c0 .466-.37.843-.84.843z" fill="#D2D3D5">
</path>
    </g>
</svg>
