<?xml version="1.0" encoding="UTF-8" standalone="no"?>
<svg viewBox="0 0 13 12" version="1.1" xmlns="http://www.w3.org/2000/svg" xmlns:xlink="http://www.w3.org/1999/xlink">
    <!-- Generator: sketchtool 3.8.3 (29802) - http://www.bohemiancoding.com/sketch -->
    <title>D64C640B-25CF-4FBB-9566-3AAA29D2776A</title>
    <desc>Created with sketchtool.</desc>
    <defs></defs>
    <g id="Room-Final" stroke="none" stroke-width="1" fill="none" fill-rule="evenodd">
        <g id="Assets" transform="translate(-545.000000, -53.000000)" fill="#000000">
            <path d="M551.579358,64.7579095 C551.776381,64.9516737 552.09919,64.9516737 552.296213,64.7579095 L557.291153,59.8524247 C557.298568,59.8456624 557.307307,59.8407208 557.314721,59.8334384 L557.852296,59.3054635 C557.9757,59.1840033 558.021777,59.014167 557.990529,58.8568149 C557.972257,58.7616234 557.926179,58.6708533 557.851501,58.5977691 L557.313927,58.0697942 C557.308895,58.0648526 552.296742,53.1453231 552.296742,53.1453231 C552.09972,52.951559 551.777175,52.951559 551.580153,53.1453231 L551.042314,53.673298 C550.845291,53.8668021 550.845291,54.183587 551.042314,54.3773512 L555.699615,58.9512262 L551.041784,63.5258814 C550.844762,63.7196456 550.844762,64.0364305 551.041784,64.2299346 L551.579358,64.7579095 Z M545.685341,64.7579095 C545.882364,64.9516737 546.205173,64.9516737 546.402195,64.7579095 L551.397136,59.8524247 C551.40455,59.8456624 551.413289,59.8407208 551.420704,59.8334384 L551.958279,59.3054635 C552.081682,59.1840033 552.12776,59.014167 552.096512,58.8568149 C552.07824,58.7616234 552.032162,58.6708533 551.957484,58.5977691 L551.41991,58.0697942 C551.414878,58.0648526 546.402725,53.1453231 546.402725,53.1453231 C546.205703,52.951559 545.883158,52.951559 545.686136,53.1453231 L545.148296,53.673298 C544.951274,53.8668021 544.951274,54.183587 545.148296,54.3773512 L549.805598,58.9512262 L545.147767,63.5258814 C544.950744,63.7196456 544.950744,64.0364305 545.147767,64.2299346 L545.685341,64.7579095 Z" id="toggle" transform="translate(551.500000, 58.951616) rotate(-180.000000) translate(-551.500000, -58.951616) "></path>
        </g>
    </g>
</svg>