<svg class="trash" viewBox="-4 1 52 54" xmlns="http://www.w3.org/2000/svg">
    <path d="M1.973 17.14c-.195-1.092.545-1.976 1.645-1.976h37.114c1.102 0 1.842.875 1.648 1.975l-5.303 30.05c-.192 1.09-1.25 1.97-2.346 1.97H9.67c-1.103 0-2.152-.88-2.348-1.98l-5.35-30.04zM17 5.663H2.005C.9 5.663 0 6.563 0 7.67v2.988c0 1.12.898 2.006 2.005 2.006h39.99c1.106 0 2.005-.898 2.005-2.006V7.67c0-1.12-.898-2.006-2.005-2.006H28v-3c0-1.113-.892-2-1.992-2h-7.016C17.9.664 17 1.56 17 2.664v3zM9.114 21.6c-.145-.82.394-1.6 1.215-1.746.81-.144 1.59.398 1.73 1.224l3.82 21.65c.14.82-.4 1.6-1.22 1.746-.82.144-1.6-.398-1.74-1.224L9.11 21.6zM21 21.094c0-.83.666-1.502 1.5-1.502.828 0 1.5.667 1.5 1.502V42.09c0 .83-.666 1.5-1.5 1.5-.828 0-1.5-.664-1.5-1.5V21.096zm12.087-.017c.145-.82.917-1.37 1.74-1.224.815.144 1.36.92 1.214 1.745l-3.81 21.65c-.14.82-.92 1.37-1.74 1.224-.81-.144-1.36-.92-1.21-1.745l3.82-21.652z" fill-rule="evenodd">
</path>
</svg>