<svg id="Layer_1_copy_2" data-name="Layer 1 copy 2" xmlns="http://www.w3.org/2000/svg" viewBox="0 0 404.56 301.82"><defs><style>.cls-1{fill:#fff;}.cls-2{fill:#414042;}.cls-3{fill:#bd77a5;}.cls-4{fill:#1b75bc;}.cls-5{fill:#5fbedb;}.cls-6{fill:#f1f2f2;}.cls-7{fill:#ccebf6;}.cls-8{fill:#8e527c;}</style></defs><title>unicorn-illustration</title><path class="cls-1" d="M133.31,232.09S99.42,246.4,76.23,283.49c-.7.86,12.15,11.28,12.85,10.42,0,0,28.61-42.22,52.76-53.88Z" transform="translate(-47.84 -26.01)"></path><path class="cls-2" d="M133.22,232.73c-1.33.66-2.65,1.38-4,2.11s-2.79,1.62-4.16,2.46-2.72,1.72-4.05,2.63-2.67,1.8-4,2.74-2.61,1.88-3.89,2.86-2.54,2-3.79,3-2.47,2.06-3.68,3.11-2.42,2.12-3.59,3.22-2.34,2.2-3.49,3.32-2.28,2.26-3.37,3.44-2.21,2.33-3.28,3.53-2.11,2.42-3.16,3.63-2,2.47-3,3.75c-.5.63-1,1.26-1.54,1.85s-1,1.23-1.58,1.82c-1.09,1.19-2.18,2.4-3.21,3.65a34.84,34.84,0,0,0-2.8,4l-.09.15.05-.09c.18-.32.05-.33.1-.29a1.14,1.14,0,0,0,.09.13,3.26,3.26,0,0,0,.33.32,4.77,4.77,0,0,0,.85.57c.61.35,1.3.61,1.95.91a9.33,9.33,0,0,1,1.81,1,17.15,17.15,0,0,1,1.54,1.37c.5.48.95,1,1.41,1.55l1.37,1.62a15.52,15.52,0,0,0,1.47,1.49,7.56,7.56,0,0,0,.81.6,2.76,2.76,0,0,0,.41.22l.16.06s0-.09-.26.16l0,0c.89-1.32,1.81-2.62,2.73-3.91l2.73-3.9,5.49-7.8q2.78-3.88,5.7-7.67,1.49-1.87,3-3.71c1-1.23,2.09-2.41,3.15-3.6,2.13-2.38,4.39-4.64,6.66-6.89q1.73-1.66,3.52-3.27c1.19-1.08,2.4-2.13,3.64-3.14s2.5-2,3.79-3,2.61-1.87,4-2.73,2.75-1.68,4.17-2.44c.72-.36,1.43-.73,2.16-1.08l2.22-.94h0l-.13.86Zm.2-1.26,8.78,8.18.55.51-.68.35h0l-2,1.24c-.66.42-1.3.88-1.95,1.31-1.28.9-2.55,1.81-3.76,2.8s-2.44,2-3.63,3L129,250.37,127.22,252c-1.14,1.07-2.29,2.13-3.42,3.23s-2.23,2.2-3.33,3.32-2.2,2.23-3.28,3.38L114,265.32l-6.39,7q-3.22,3.47-6.34,7c-1,1.19-2.08,2.38-3.1,3.6s-2,2.42-3,3.68-2,2.49-2.89,3.77-1.85,2.57-2.75,3.86l0,0h0a.7.7,0,0,1-.49.25,1.06,1.06,0,0,1-.27,0,2.18,2.18,0,0,1-.35-.1l-.55-.23-1-.47c-.66-.31-1.33-.6-2-.9s-1.34-.59-2-.91a16.46,16.46,0,0,1-1.89-1.07,13.37,13.37,0,0,1-1.7-1.32,8.08,8.08,0,0,1-1.36-1.73c-.39-.65-.72-1.34-1.1-2-.18-.34-.38-.65-.58-1-.1-.17-.21-.32-.31-.51a2.75,2.75,0,0,1-.16-.33,1.09,1.09,0,0,1-.07-.26.71.71,0,0,1,.14-.53l0,.05c.92-1.35,1.73-2.76,2.52-4.19s1.53-2.91,2.39-4.31a34.57,34.57,0,0,1,2.74-4.09c1-1.31,2.07-2.54,3.1-3.81s2.13-2.49,3.25-3.69,2.22-2.41,3.37-3.58,2.33-2.31,3.5-3.45,2.39-2.24,3.62-3.32,2.47-2.15,3.73-3.19,2.55-2,3.85-3,2.62-2,4-2.9,2.68-1.87,4-2.77,2.74-1.79,4.15-2.61,2.83-1.64,4.25-2.43a82,82,0,0,1,8.84-4.24Z" transform="translate(-47.84 -26.01)"></path><path class="cls-3" d="M99.32,280.05c-8.6-1.78-13.65-9.83-13.65-9.83l-9.44,13.27,12.85,10.42Z" transform="translate(-47.84 -26.01)"></path><path class="cls-2" d="M98.26,280.43a8.69,8.69,0,0,1-1.2-.34L96,279.72l-1-.45a10.17,10.17,0,0,1-1-.49c-.32-.18-.66-.33-1-.54-.63-.38-1.26-.78-1.85-1.22a21.84,21.84,0,0,1-1.73-1.39c-.56-.49-1.09-1-1.61-1.52s-1-1.08-1.48-1.65a21.3,21.3,0,0,1-1.35-1.8l1.37,0L77,284l-.16-1.2,12.82,10.46-1.21.15,5.19-6.88Zm2.08-.74-5.52,7.74-5.05,7-.52.71-.69-.56L75.67,284.18l-.65-.52.49-.68L85,269.75l.71-1,.66,1a20,20,0,0,0,1.21,1.66c.43.54.89,1.07,1.37,1.58s1,1,1.49,1.46,1,.92,1.6,1.34,1.12.82,1.7,1.2c.29.2.6.35.9.53a9.17,9.17,0,0,0,.92.49l.94.45,1,.36a6.62,6.62,0,0,0,1,.32Z" transform="translate(-47.84 -26.01)"></path><path class="cls-1" d="M150.31,254.37s-27.7,20.91-40.35,60.19c.38-1,9.07,4.58,14.16,6.57,0,0,16.44-45.23,35.83-61.46Z" transform="translate(-47.84 -26.01)"></path><path class="cls-2" d="M150.38,255c-2.21,1.9-4.32,4-6.37,6.05-1.05,1.1-2.09,2.2-3.1,3.34s-2,2.27-3,3.42-2,2.32-2.9,3.51-1.87,2.39-2.78,3.61-1.79,2.45-2.65,3.7-1.72,2.49-2.54,3.77-1.63,2.55-2.43,3.84-1.56,2.6-2.29,3.92-1.48,2.64-2.18,4-1.37,2.7-2.05,4-1.31,2.73-1.9,4.12l-1.86,4.14c-.63,1.38-1.23,2.77-1.89,4.15s-1.27,2.77-2,4.13l-.95-.33h0a.72.72,0,0,1,.27-.41,1.14,1.14,0,0,1,.32-.16,2.11,2.11,0,0,1,.44-.1,5.13,5.13,0,0,1,.66,0,8.66,8.66,0,0,1,1.13.1,11.59,11.59,0,0,1,2,.53,20.4,20.4,0,0,1,3.57,1.75c1.13.66,2.22,1.38,3.29,2.14s2.09,1.56,3.11,2.48h0l-.65.29c.82-2.9,1.83-5.72,2.81-8.56s2.11-5.62,3.28-8.39c.58-1.38,1.16-2.77,1.78-4.14l1.88-4.1c1.28-2.72,2.66-5.4,4.06-8.06s2.95-5.26,4.51-7.84q1.2-1.92,2.46-3.8c.84-1.26,1.7-2.5,2.61-3.71s1.83-2.41,2.79-3.59,2-2.32,3-3.42,2.13-2.17,3.25-3.19c.58-.5,1.14-1,1.73-1.48l1.82-1.38h0l.08.82Zm-.11-1.2,9.92,5.46.62.34-.54.48h0c-1,1.06-2.05,2.13-3,3.25s-1.91,2.24-2.8,3.43-1.78,2.36-2.63,3.55-1.69,2.42-2.49,3.66-1.61,2.48-2.38,3.74-1.53,2.53-2.28,3.81-1.5,2.55-2.22,3.85l-2.15,3.9c-1.43,2.6-2.77,5.25-4.13,7.89s-2.65,5.32-4,8l-3.84,8.07-1.91,4.05-1.87,4.07-.23.5-.42-.2h0a15.59,15.59,0,0,1-4.05-.81,29.52,29.52,0,0,1-3.7-1.52,23.27,23.27,0,0,1-3.4-1.95,18.48,18.48,0,0,1-1.52-1.2l-.7-.63-.29-.29s-.07-.08-.05-.12,0,0,.09-.1a.39.39,0,0,0,.11-.23h0l-.95-.33a43.36,43.36,0,0,1,1-4.54c.42-1.49.85-3,1.4-4.42s1.11-2.89,1.72-4.31,1.31-2.8,2-4.2,1.37-2.77,2.12-4.12,1.47-2.72,2.25-4.05,1.6-2.65,2.41-4,1.67-2.6,2.55-3.87,1.76-2.54,2.68-3.78,1.86-2.46,2.83-3.67,1.94-2.4,2.95-3.57,2-2.33,3.06-3.47,2.09-2.27,3.19-3.35,2.21-2.15,3.33-3.2A77.35,77.35,0,0,1,150,254Z" transform="translate(-47.84 -26.01)"></path><path class="cls-3" d="M130.29,306.09c-8.28.35-14.76-5.84-14.76-5.84L110,314.57l14.16,6.57Z" transform="translate(-47.84 -26.01)"></path><path class="cls-2" d="M129.41,306.68a8.2,8.2,0,0,1-1.17,0l-1.07-.09-1-.17a9.59,9.59,0,0,1-1-.22c-.34-.09-.68-.15-1-.27-.67-.21-1.33-.42-2-.69a20.61,20.61,0,0,1-1.9-.87c-.62-.32-1.23-.66-1.82-1s-1.17-.75-1.73-1.17a20.11,20.11,0,0,1-1.65-1.33l1.26-.28-5.52,14.34-.43-1.06,14.14,6.61-1.07.42,3.16-7.49Zm1.73-1.16-3.27,8.36-3,7.55-.31.77-.76-.35-14.18-6.53-.72-.33.29-.73,5.63-14.3.42-1.06.84.78a18.88,18.88,0,0,0,1.49,1.24c.52.4,1.06.77,1.62,1.13s1.12.69,1.7,1,1.17.6,1.77.86,1.21.49,1.83.71c.31.12.63.18.94.28a8.65,8.65,0,0,0,1,.23l1,.19,1,.11a6.25,6.25,0,0,0,1,.07Z" transform="translate(-47.84 -26.01)"></path><path class="cls-1" d="M298.56,271.17s10.33,31.33,41.79,54.74c.57.54,10.81-10.19,10.25-10.73,0,0-35.65-28.64-44.32-51.06Z" transform="translate(-47.84 -26.01)"></path><path class="cls-2" d="M299.13,271.29c1,2.57,2.24,5.1,3.49,7.59.67,1.28,1.34,2.56,2.05,3.81s1.42,2.51,2.16,3.75,1.49,2.47,2.27,3.68,1.58,2.41,2.39,3.6,1.66,2.36,2.51,3.52,1.71,2.32,2.61,3.45,1.79,2.26,2.7,3.37,1.85,2.21,2.82,3.27,1.93,2.14,2.92,3.18,2,2.05,3,3.08,2.06,2,3.14,3c.53.49,1,1,1.54,1.51s1,1,1.51,1.55c1,1.06,2,2.12,3,3.13a32.41,32.41,0,0,0,3.33,2.79l0,0a.37.37,0,0,0-.32-.11s0,0,0,0l.14-.1a3.36,3.36,0,0,0,.31-.29,4.64,4.64,0,0,0,.55-.74c.35-.53.62-1.13.93-1.69a8.2,8.2,0,0,1,1.05-1.55,14.73,14.73,0,0,1,1.33-1.28c.46-.41,1-.77,1.48-1.14l1.55-1.09a15.33,15.33,0,0,0,1.46-1.18,7.74,7.74,0,0,0,.62-.67,2.83,2.83,0,0,0,.25-.34l.08-.15s0,0,0,0a.36.36,0,0,0,.13.32l0,0c-1.12-.9-2.21-1.8-3.3-2.72l-3.29-2.73-3.3-2.72-3.27-2.75q-3.26-2.78-6.44-5.66-1.56-1.47-3.1-3c-1-1-2-2-3-3.08-2-2.08-3.83-4.26-5.68-6.45q-1.36-1.67-2.67-3.38c-.87-1.14-1.73-2.3-2.54-3.48s-1.61-2.38-2.38-3.61-1.49-2.47-2.15-3.75-1.28-2.59-1.87-3.91c-.27-.67-.56-1.33-.82-2l-.68-2.06h0l.76.18ZM298,271l7.95-7.25.5-.45.27.63h0c.64,1.26,1.29,2.5,2,3.72s1.44,2.4,2.24,3.56,1.58,2.32,2.39,3.46,1.66,2.26,2.53,3.36,1.74,2.21,2.63,3.29,1.81,2.15,2.72,3.22,1.84,2.13,2.78,3.18l2.84,3.13,5.75,6.21q2.87,3.13,5.83,6.17l3,3c1,1,2,2,3.06,3,2.07,1.94,4.22,3.8,6.4,5.59l0,0h0a.58.58,0,0,1,.16.54,1,1,0,0,1-.06.21,2.52,2.52,0,0,1-.13.27l-.26.44-.52.83c-.33.55-.65,1.12-1,1.69s-.63,1.14-1,1.7a15.09,15.09,0,0,1-1.08,1.6,12.14,12.14,0,0,1-1.28,1.41,7.34,7.34,0,0,1-1.62,1.08c-.6.3-1.23.56-1.83.86-.31.14-.59.3-.89.46l-.45.25-.27.14a1.09,1.09,0,0,1-.21.07.59.59,0,0,1-.55-.14l0,0c-1.13-.92-2.35-1.74-3.56-2.55s-2.49-1.58-3.68-2.45a31,31,0,0,1-3.45-2.75c-1.09-1-2.11-2-3.18-3.06s-2.07-2.09-3.05-3.18-2-2.16-2.95-3.28-1.9-2.24-2.83-3.37-1.83-2.29-2.71-3.47-1.75-2.36-2.58-3.56-1.64-2.43-2.43-3.67-1.57-2.48-2.31-3.74-1.48-2.53-2.18-3.82-1.4-2.58-2-3.9-1.26-2.64-1.86-4a73.51,73.51,0,0,1-3.15-8.21Z" transform="translate(-47.84 -26.01)"></path><path class="cls-3" d="M339,305.86c-2.22,7.55-9.78,11.49-9.78,11.49l11.17,9.4L350.63,316Z" transform="translate(-47.84 -26.01)"></path><path class="cls-2" d="M339.24,306.84a7.79,7.79,0,0,1-.39,1l-.41.93-.47.88a9.13,9.13,0,0,1-.51.86c-.18.28-.35.57-.55.83-.39.54-.79,1.07-1.23,1.57a19.59,19.59,0,0,1-1.37,1.44c-.47.46-1,.9-1.48,1.32s-1,.82-1.58,1.2a19.11,19.11,0,0,1-1.71,1.08l.13-1.22,11.21,9.36-1.09.06,10.28-10.7,0,1.09-5.77-5.14Zm-.49-1.89,6.5,5.48,5.87,5,.6.51-.55.58L341,327.3l-.52.54-.57-.48-11.14-9.45-.83-.7,1-.52a18,18,0,0,0,1.57-1c.52-.35,1-.72,1.51-1.11s1-.8,1.42-1.23.9-.87,1.31-1.33.82-.94,1.2-1.43c.2-.24.36-.51.54-.76a8.22,8.22,0,0,0,.5-.78l.47-.81.39-.82a17.8,17.8,0,0,0,.69-1.77Z" transform="translate(-47.84 -26.01)"></path><path class="cls-1" d="M313.36,253s16.19,28.74,51.6,45.62l8-12.51s-40.52-21.2-53.36-41.52Z" transform="translate(-47.84 -26.01)"></path><path class="cls-2" d="M313.94,253c1.51,2.32,3.18,4.57,4.9,6.77.9,1.13,1.81,2.25,2.75,3.34s1.88,2.19,2.84,3.26,1.94,2.14,2.94,3.17,2,2.06,3,3.07,2.08,2,3.15,3,2.13,1.94,3.22,2.88,2.19,1.87,3.3,2.79,2.24,1.81,3.4,2.67,2.3,1.72,3.48,2.55,2.38,1.62,3.56,2.44,2.41,1.57,3.65,2.3l3.67,2.27c1.22.77,2.45,1.51,3.67,2.3s2.45,1.54,3.64,2.41h0l-.61.17c.62-1.07,1.28-2.12,1.93-3.17s1.3-2.1,2-3.13c1.35-2.07,2.67-4.16,4.06-6.21h0l.18.68c-2.63-1.14-5.16-2.45-7.71-3.73s-5-2.7-7.49-4.15c-1.23-.72-2.47-1.44-3.67-2.2l-3.62-2.29c-2.41-1.55-4.75-3.19-7.08-4.85s-4.58-3.44-6.82-5.24q-1.66-1.37-3.27-2.8c-1.08-.95-2.14-1.92-3.17-2.93s-2-2-3-3.08S324.92,253.1,324,252s-1.76-2.29-2.59-3.47c-.4-.6-.81-1.2-1.19-1.81l-1.07-1.88h0l.78,0Zm-1.14-.05,6.39-8.65.4-.54.38.57h0c.87,1.11,1.75,2.2,2.66,3.26s1.88,2.08,2.88,3.06,2,2,3,2.93,2.06,1.9,3.13,2.81,2.13,1.83,3.22,2.72,2.19,1.76,3.3,2.63,2.21,1.74,3.34,2.58l3.4,2.51c2.27,1.67,4.59,3.27,6.91,4.89s4.68,3.17,7,4.74l7.11,4.64c2.36,1.57,4.78,3.05,7.17,4.58l.46.3-.28.38h0c-1.27,2.12-2.61,4.2-3.92,6.3-.65,1.05-1.33,2.09-2,3.12s-1.35,2.07-2.06,3.09l-.25.36-.35-.19h0a41.2,41.2,0,0,1-4.16-1.5c-1.35-.58-2.7-1.17-4-1.88s-2.58-1.41-3.84-2.16-2.47-1.59-3.71-2.39-2.43-1.65-3.61-2.53-2.37-1.74-3.52-2.64-2.3-1.83-3.43-2.76-2.24-1.89-3.33-2.88-2.17-2-3.23-3-2.08-2.07-3.1-3.13-2-2.13-3-3.23-1.94-2.2-2.88-3.32-1.87-2.26-2.75-3.43-1.75-2.35-2.6-3.54a73.51,73.51,0,0,1-4.68-7.44Z" transform="translate(-47.84 -26.01)"></path><path class="cls-1" d="M130.52,91.25s-38.67-8.67-48-8.67-28,.67-32,21.33,6.67,41.17,27.33,41.17c0,0,30,4.83,57.33-15.17,0,0-26,46,0,105.33,0,0,20.67,57.33,90,58.67,0,0,77-4.33,102.83-40.83,0,0,23.83-21.83-8.83-63.5s-126.73,4.33-126.73,4.33l-18.61-91.33S173.19,80.59,130.52,91.25Z" transform="translate(-47.84 -26.01)"></path><path class="cls-2" d="M130.54,91.76l-18.39-3.11q-4.56-.77-9.13-1.49c-3-.5-6.08-1-9.11-1.41s-6.08-.86-9.05-1.08c-.74-.05-1.47-.09-2.16-.09l-2.26,0c-1.51,0-3,.13-4.48.26a40.58,40.58,0,0,0-8.6,1.66,23.22,23.22,0,0,0-7.51,4,19.73,19.73,0,0,0-5.27,6.61A27.55,27.55,0,0,0,52,105.47a39.69,39.69,0,0,0-.42,8.84,40.88,40.88,0,0,0,.51,4.38A37.65,37.65,0,0,0,53.19,123a32,32,0,0,0,3.61,7.85,26.69,26.69,0,0,0,2.57,3.39c.45.54,1,1,1.45,1.53s1,1,1.58,1.38a23.69,23.69,0,0,0,7.23,4,26.52,26.52,0,0,0,8.23,1.37h.22l.19,0c1.06.17,2.33.31,3.52.4s2.43.16,3.65.19c2.45.07,4.9,0,7.36-.13a89.19,89.19,0,0,0,14.63-2.06q1.81-.4,3.6-.9c1.19-.32,2.38-.69,3.56-1s2.36-.76,3.52-1.2,2.31-.9,3.47-1.35,2.3-1,3.42-1.51,2.25-1.08,3.36-1.66,2.2-1.19,3.3-1.8,2.16-1.28,3.24-1.93l1.53-.9-.8,1.55A85.53,85.53,0,0,0,130.5,143a119.5,119.5,0,0,0-3.39,13.39A125.27,125.27,0,0,0,125,183.79a129.65,129.65,0,0,0,1.2,13.7A126.84,126.84,0,0,0,128.82,211a137,137,0,0,0,4,13.12l1.23,3.2c.4,1.07.82,2.13,1.29,3.18l1.36,3.15.34.79.35.86c.21.51.44,1,.68,1.53a87.38,87.38,0,0,0,6.71,11.77,98,98,0,0,0,8.35,10.69,92.47,92.47,0,0,0,20.71,17.23,90,90,0,0,0,12,6.12,93.58,93.58,0,0,0,26,6.71c4.46.53,8.94.8,13.44,1H225c2.23-.1,4.6-.27,6.91-.47s4.65-.44,7-.71c4.65-.53,9.29-1.16,13.91-1.93s9.22-1.62,13.8-2.64,9.11-2.18,13.59-3.52,8.91-2.88,13.24-4.63c2.16-.88,4.31-1.8,6.42-2.8s4.2-2,6.22-3.2a78.69,78.69,0,0,0,11.54-7.85,57,57,0,0,0,9.57-10.07l.06-.08.09-.08a24.39,24.39,0,0,0,3.69-4.83,29.78,29.78,0,0,0,2.58-5.64,33.49,33.49,0,0,0,1.72-12.26,45,45,0,0,0-2.21-12.26,64.49,64.49,0,0,0-5-11.48,95.07,95.07,0,0,0-6.76-10.63c-.59-.87-1.26-1.68-1.9-2.52s-1.29-1.72-1.93-2.45l-1-1.22c-.35-.4-.69-.73-1-1.1-.66-.73-1.45-1.41-2.19-2.11a40.82,40.82,0,0,0-10.3-6.58,54.37,54.37,0,0,0-11.78-3.69,94.89,94.89,0,0,0-25-1.18,164.51,164.51,0,0,0-25,3.92c-4.13,1-8.25,2-12.34,3.17s-8.15,2.43-12.19,3.79c-8.06,2.72-16.06,5.72-23.86,9.15h0l-.58.28L192,194l-18.61-91.33v-.08a11.05,11.05,0,0,0-.67-2.9,13.79,13.79,0,0,0-3.28-5.05A15.56,15.56,0,0,0,167,92.73c-.42-.29-.87-.53-1.31-.79s-.92-.46-1.37-.68l-1.43-.58c-.48-.18-1-.32-1.46-.48a27.53,27.53,0,0,0-3-.71c-1-.21-2-.31-3.07-.44s-2.07-.17-3.11-.18-2.08,0-3.12,0l-1.56.06-1.56.13c-1,.07-2.07.19-3.11.32s-2.07.27-3.1.45-2.06.33-3.08.55-2.05.38-3.07.64Zm0-1,2.95-.69c1-.26,2.06-.43,3.09-.64s2.07-.39,3.11-.56,2.08-.34,3.13-.45,2.1-.26,3.15-.33l1.58-.13,1.59-.06c1.06-.06,2.12,0,3.18,0s2.12.11,3.18.18,2.11.23,3.16.45a28.52,28.52,0,0,1,3.11.74c.51.17,1,.32,1.52.5l1.49.61c.48.24,1,.46,1.44.72s.94.53,1.38.84a16.56,16.56,0,0,1,2.52,2,14.79,14.79,0,0,1,3.52,5.42,11.89,11.89,0,0,1,.73,3.22v-.08L193,193.82l-.71-.35h0c3.83-2,7.72-3.74,11.65-5.45s7.9-3.34,11.92-4.83,8.07-2.92,12.16-4.24,8.21-2.54,12.39-3.6a167.78,167.78,0,0,1,25.46-4.6,100.54,100.54,0,0,1,13-.47,74,74,0,0,1,13,1.44,64.34,64.34,0,0,1,6.4,1.64,53.64,53.64,0,0,1,6.18,2.44,44.49,44.49,0,0,1,11.11,7.34c.8.78,1.63,1.51,2.39,2.37.38.42.79.84,1.14,1.25l1,1.24c.75.9,1.31,1.75,2,2.63s1.3,1.73,1.89,2.64a98.2,98.2,0,0,1,6.72,11.15,67,67,0,0,1,4.81,12.14,49.73,49.73,0,0,1,2,13c.05,1.1-.05,2.19-.08,3.29s-.19,2.19-.39,3.27a35.17,35.17,0,0,1-1.55,6.4,30.59,30.59,0,0,1-6.73,11.39l.15-.17a59.3,59.3,0,0,1-9.68,10.74c-1.82,1.58-3.69,3.11-5.63,4.53s-3.95,2.76-6,4a122.42,122.42,0,0,1-12.69,6.83c-4.35,2-8.81,3.84-13.32,5.46s-9.09,3.08-13.7,4.39-9.27,2.47-14,3.48-9.4,1.89-14.14,2.63q-3.56.55-7.13,1c-2.4.3-4.75.56-7.24.77h-.27a92.6,92.6,0,0,1-14.28-1.17,113.64,113.64,0,0,1-14-3.15,99,99,0,0,1-13.47-5,96,96,0,0,1-12.58-6.88,97.85,97.85,0,0,1-21.39-18.85A102.74,102.74,0,0,1,141,251.06a91.69,91.69,0,0,1-6.7-12.58c-.24-.55-.46-1.11-.69-1.67l-.16-.43-.08-.22,0-.12,0-.06,0,.07-.33-.82-1.3-3.28c-.45-1.09-.85-2.19-1.23-3.3l-1.17-3.33a140.55,140.55,0,0,1-3.74-13.58,130,130,0,0,1-2.34-13.88,132.45,132.45,0,0,1-.82-14,127.46,127.46,0,0,1,3-27.85,121.1,121.1,0,0,1,3.82-13.47,86.51,86.51,0,0,1,5.58-12.85l.73.65c-1,.79-2,1.62-3,2.39s-2.06,1.52-3.13,2.22-2.15,1.4-3.25,2.06-2.23,1.27-3.35,1.9-2.29,1.18-3.47,1.7-2.35,1.06-3.55,1.55-2.41.94-3.63,1.36-2.45.82-3.69,1.19-2.49.71-3.75,1-2.53.57-3.8.83q-3.82.73-7.7,1.14c-2.58.27-5.18.39-7.79.41q-2,0-3.92-.08c-1.33-.07-2.58-.15-4-.34l.42,0a30.53,30.53,0,0,1-10-1.6A27,27,0,0,1,59.12,141a29.66,29.66,0,0,1-6.32-7.77,36.25,36.25,0,0,1-3.64-9.14,43.54,43.54,0,0,1-1.3-9.61,47.55,47.55,0,0,1,.71-9.61,33.92,33.92,0,0,1,2.88-9.3A24.52,24.52,0,0,1,54,91.33a22.7,22.7,0,0,1,3.42-3.66,26.6,26.6,0,0,1,8.62-4.89,38.51,38.51,0,0,1,9.51-2c1.6-.15,3.19-.19,4.77-.21.81,0,1.56,0,2.37,0s1.67.09,2.46.18c3.18.35,6.23.88,9.29,1.44s6.09,1.2,9.12,1.85,6,1.37,9,2.09,6,1.43,9,2.22S127.58,89.9,130.53,90.74Z" transform="translate(-47.84 -26.01)"></path><path class="cls-4" d="M145.52,88.09l23.33-57.5s1.67-2.67,1.67,0-4.67,62.33-4.67,62.33Z" transform="translate(-47.84 -26.01)"></path><path class="cls-5" d="M162,47.56s6.41.15,7.49-1.49l1.07-15.48c-.35-3-1.67,0-1.67,0Z" transform="translate(-47.84 -26.01)"></path><path class="cls-5" d="M160.12,50.43s7.2.82,9.4-.6l-.79,9.83s-9.47,2.52-12.62,1Z" transform="translate(-47.84 -26.01)"></path><path class="cls-5" d="M155.22,63.92s9.88,1.13,12.91-.82L167,76.6s-13,3.46-17.32,1.4Z" transform="translate(-47.84 -26.01)"></path><path class="cls-2" d="M167.21,92.9l-23.74-5.64,24.11-59.35c.65-1,1.69-2.19,3-1.82,1,.27,1.44,1.15,1.44,2.62,0,2.69-4.48,60-4.67,62.45Zm-19.65-7.75,16.93,4c1.35-17.25,3.53-45.55,4.27-56.26Z" transform="translate(-47.84 -26.01)"></path><path class="cls-6" d="M141.69,81.09s6.33-18.33-7.83-19.83c0,0-8.5,2.17,0,19.83s2.73,4.17,2.73,4.17l3.6-.83Z" transform="translate(-47.84 -26.01)"></path><path class="cls-2" d="M141.16,80.9a28.94,28.94,0,0,0,1-6,21.93,21.93,0,0,0,0-3c0-.5-.08-1-.16-1.47a11.93,11.93,0,0,0-.3-1.43c-.11-.47-.29-.92-.44-1.36L141,67l-.33-.62a7.67,7.67,0,0,0-.79-1.12,3.7,3.7,0,0,0-.46-.5,4.76,4.76,0,0,0-.51-.46,9.56,9.56,0,0,0-1.11-.81,12.66,12.66,0,0,0-1.25-.66,14.48,14.48,0,0,0-1.35-.56c-.46-.19-.95-.3-1.43-.51H134a7.35,7.35,0,0,0-1.21,1.59,8.82,8.82,0,0,0-.68,1.73c-.07.31-.12.63-.2.93l-.12,1a7.57,7.57,0,0,0-.05,1,5.79,5.79,0,0,0,0,1,14.49,14.49,0,0,0,.28,2.13l.2,1.07c.08.36.2.71.29,1.07a21.67,21.67,0,0,0,.64,2.15c.25.71.48,1.43.76,2.13l.88,2.11c.27.7.6,1.42.91,2.14l1.88,4.28.94,2.13.48,1,.11.22,0,.07,0,0a.91.91,0,0,0-.29-.18.93.93,0,0,0-.47,0,.9.9,0,0,0-.55.35.84.84,0,0,0-.16.38,1,1,0,0,0,0,.12v.12s0,0,0,0,0-.06,0-.1l-.07-.25c-.41-1.45-.93-3-1.39-4.44h0l-.23-.55.58-.13,3.6-.83h0l-.34.28Zm1,.4-1.56,3.32-.11.23-.24.05h0l-3.6.83.35-.68h0c.75,1.4,1.46,2.76,2.12,4.26l.12.3.06.18,0,.13a.8.8,0,0,1,0,.11v.14a.8.8,0,0,1,0,.13,1,1,0,0,1-.17.41.93.93,0,0,1-1.06.31,1.1,1.1,0,0,1-.35-.23l-.14-.15-.13-.18-.19-.28-.64-1c-.41-.68-.79-1.37-1.18-2.05-.77-1.37-1.52-2.75-2.24-4.14s-1.43-2.83-2.11-4.28c-.32-.74-.6-1.5-.9-2.25a23.87,23.87,0,0,1-.79-2.31c-.11-.39-.24-.78-.34-1.18l-.25-1.22a17.55,17.55,0,0,1-.36-2.51,8.13,8.13,0,0,1,0-1.3,9.34,9.34,0,0,1,.06-1.32c.07-.45.13-.9.24-1.34s.3-.88.49-1.31a6.18,6.18,0,0,1,1.79-2.22,4.31,4.31,0,0,1,2.65-1h.18a10.18,10.18,0,0,1,1.65,0,8.52,8.52,0,0,1,1.65.31,8.79,8.79,0,0,1,1.61.61,9.12,9.12,0,0,1,1.46,1,5.11,5.11,0,0,1,.65.59,5.36,5.36,0,0,1,.59.65,9.76,9.76,0,0,1,1,1.44l.39.77.32.8a11.44,11.44,0,0,1,.44,1.63,19.14,19.14,0,0,1,.08,6.52,32.11,32.11,0,0,1-1.51,6.21Z" transform="translate(-47.84 -26.01)"></path><path class="cls-3" d="M319.19,189.59s10.67-56,56.67-45.5c0,0,10,0,20.5,14.5s28.5,19,38,11.5,7.5-27.5,0-34.5,23.5,12,14,49.5c-13.5,30.5-27,26.5-27,26.5l25.39,1.5s-15.89,27-53.39,24.5-45-41.77-54-51.63-15.28,10.33-15.28,10.33Z" transform="translate(-47.84 -26.01)"></path><path class="cls-2" d="M452.09,164.25a51.7,51.7,0,0,0-6.8-20.51,47.3,47.3,0,0,0-6.58-8.79,27.88,27.88,0,0,0-2.09-2,13.36,13.36,0,0,0-1.32-1c-.12-.08-.32-.2-.52-.3a4.77,4.77,0,0,0-.52-.22,3.76,3.76,0,0,0-.62-.15,2.92,2.92,0,0,0-.92,0,2.89,2.89,0,0,0-2.38,2.46,2.42,2.42,0,0,0,0,.9,3.32,3.32,0,0,0,.15.56,2.23,2.23,0,0,0,.13.3,4.11,4.11,0,0,0,.31.52l.21.29.17.2c.22.26.4.45.6.65l.51.5c.23.25.47.46.68.74a13.32,13.32,0,0,1,1.23,1.73,24.41,24.41,0,0,1,3,8.65,28.71,28.71,0,0,1,0,9.3,16.39,16.39,0,0,1-3.39,7.86l-.32.37-.29.29a9.29,9.29,0,0,1-.85.76l-.08.07,0,0,0,0-.22.14-.43.28c-.29.18-.56.38-.85.56-.64.26-1.22.62-1.89.83l-1,.31-.5.16-.53.09a20.6,20.6,0,0,1-8.78-.31,30,30,0,0,1-8.49-3.56q-1-.66-2-1.28c-.64-.45-1.24-.95-1.87-1.41a22.8,22.8,0,0,1-1.81-1.5l-.9-.76-.79-.79-.8-.79-.41-.4-.42-.5-1.67-2-1.64-2c-.55-.72-1.21-1.38-1.82-2.06a42.49,42.49,0,0,0-8.51-7.18,31,31,0,0,0-5.12-2.56,25.51,25.51,0,0,0-2.81-.87c-.49-.1-1-.22-1.49-.29-.25,0-.51-.07-.79-.1l-.42,0h-.32l-2.27-.37a25.94,25.94,0,0,0-2.66-.36,45,45,0,0,0-5.38-.27,43.91,43.91,0,0,0-5.39.32c-.9.09-1.78.3-2.67.45l-1.33.25-1.31.36c-.86.26-1.75.44-2.59.77l-2.53,1a41.37,41.37,0,0,0-4.78,2.46l-1.15.68-1.1.77c-.72.53-1.48,1-2.15,1.58s-1.38,1.12-2,1.71l-1.93,1.83c-1.22,1.27-2.42,2.56-3.51,3.94-.57.67-1.08,1.38-1.6,2.08s-1,1.41-1.5,2.15c-1,1.44-1.87,2.94-2.72,4.45s-1.63,3.07-2.37,4.63-1.41,3.16-2,4.76-1.22,3.23-1.75,4.87-1,3.29-1.46,5-.83,3.34-1.13,5l0,.22,5,6.86.58.8.3-.94h0a35.34,35.34,0,0,1,4.7-8.79,9.49,9.49,0,0,1,3.49-3,3.81,3.81,0,0,1,3.84.46l.44.31.4.35a9.44,9.44,0,0,1,.85.86,16.25,16.25,0,0,1,1.4,1.87,45.31,45.31,0,0,1,2.46,4.3c1.53,3,2.94,6.1,4.44,9.19a103.88,103.88,0,0,0,10.59,17.89,52,52,0,0,0,15.81,14,46.53,46.53,0,0,0,9.89,4.08,52.07,52.07,0,0,0,5.26,1.14c.9.16,1.8.31,2.63.37l1.27.13.64.07.32,0,.16,0h.23a77.44,77.44,0,0,0,10.54-.13,58.55,58.55,0,0,0,10.4-1.83,56.2,56.2,0,0,0,18.93-9,54.46,54.46,0,0,0,7.79-7,42.92,42.92,0,0,0,6.15-8.41h0l.42-.7-.83,0-18.09-1.07.44-.18,1.24-.51,1.16-.64c.38-.22.78-.42,1.15-.67l1.08-.76,1.07-.78,1-.87a25.07,25.07,0,0,0,1.92-1.78l1.77-1.92c.58-.65,1.08-1.35,1.62-2s1.09-1.35,1.54-2.08l1.42-2.15c.48-.72,1-1.43,1.35-2.19l1.27-2.23c.42-.75.86-1.48,1.22-2.25l2.26-4.59.05-.11.06-.21a62.26,62.26,0,0,0,1.9-10.54A55.12,55.12,0,0,0,452.09,164.25Zm-4.2,10.47a58,58,0,0,1-1.43,9.73l-2,4.31c-.32.76-.72,1.47-1.1,2.2l-1.15,2.17a24.32,24.32,0,0,1-1.22,2.12l-1.28,2.08c-.4.72-.93,1.33-1.38,2s-.91,1.35-1.42,2l-1.54,1.85a22.25,22.25,0,0,1-1.63,1.76l-.84.86-.9.77-.9.79c-.3.25-.64.46-1,.7l-1,.69-1,.59a19.69,19.69,0,0,1-2.12,1l-1.12.37c-.38.12-.76.17-1.15.27a12.49,12.49,0,0,1-1.6.15l-.8,0-.17,1h0a8.06,8.06,0,0,0,2.7.38c.44,0,.9,0,1.34-.09l.19,0,20.32,1.2a52.07,52.07,0,0,1-6.27,6.68,59,59,0,0,1-26.16,13.71,65,65,0,0,1-9.77,1.49,73.19,73.19,0,0,1-9.91,0c-1.52-.16-3.43-.26-4.91-.56a48.14,48.14,0,0,1-4.74-1,42.29,42.29,0,0,1-9-3.65,45.6,45.6,0,0,1-8-5.58,54.76,54.76,0,0,1-6.8-7.15,105.08,105.08,0,0,1-10.71-17c-1.61-3-3.15-6-4.85-9.05a44.35,44.35,0,0,0-2.82-4.46,18.29,18.29,0,0,0-1.8-2.11,11.53,11.53,0,0,0-1-.9l-.59-.46-.63-.39a6.43,6.43,0,0,0-2.9-.94,6,6,0,0,0-3,.63,8.52,8.52,0,0,0-2.3,1.7,14.52,14.52,0,0,0-1.73,2.1,32.11,32.11,0,0,0-4,8.57l-4.15-5.69c.37-1.57.82-3.14,1.31-4.69s1.07-3.22,1.69-4.79,1.27-3.14,2-4.68,1.45-3.05,2.24-4.54,1.64-2.94,2.53-4.37,1.83-2.82,2.84-4.15c.48-.68,1-1.34,1.54-2s1-1.3,1.62-1.9c1.09-1.25,2.29-2.4,3.49-3.53l1.88-1.61c.64-.51,1.32-1,2-1.48s1.37-.9,2-1.35l1-.65,1.08-.56a37.63,37.63,0,0,1,4.43-2l2.31-.74c.76-.26,1.57-.37,2.35-.57l1.18-.26,1.2-.15c.8-.09,1.59-.24,2.4-.28a39.32,39.32,0,0,1,4.84,0,40.25,40.25,0,0,1,4.83.49,22.45,22.45,0,0,1,2.4.45l2.39.52.58.07.12,0,.22,0,.49.09c.34.06.69.17,1,.26a20.25,20.25,0,0,1,2.1.77,25.46,25.46,0,0,1,4,2.28,36.54,36.54,0,0,1,6.94,6.52c.5.64,1,1.22,1.51,1.9l1.52,2.09,1.54,2.08.38.52.48.55,1,1.1,1,1.1,1,1c.7.64,1.34,1.33,2.1,1.9s1.48,1.17,2.26,1.72,1.59,1,2.39,1.54a37,37,0,0,0,10.63,4.19,27.36,27.36,0,0,0,11.75.11l.74-.15.73-.24,1.46-.49a30.05,30.05,0,0,0,2.82-1.32c.45-.27.87-.58,1.31-.87l.65-.45.32-.23,0,0,.15-.12.06-.05.12-.11c.34-.3.61-.51,1.06-1l.61-.63c.19-.21.34-.41.51-.61a22.7,22.7,0,0,0,4.59-11,33.68,33.68,0,0,0,.31-7,46.77,46.77,0,0,1,3.7,12.7A50.64,50.64,0,0,1,447.88,174.72Z" transform="translate(-47.84 -26.01)"></path><path class="cls-6" d="M174.46,97.7s9.29-18.44,18.59-18.44,11.14,8-1.86,17-17.33,6.33-17.33,6.33Z" transform="translate(-47.84 -26.01)"></path><path class="cls-2" d="M174,97.47a54.59,54.59,0,0,1,4.2-8.09A39.78,39.78,0,0,1,184,82.12a19.42,19.42,0,0,1,3.83-3,11.06,11.06,0,0,1,5-1.58c.13,0,.19,0,.38,0H194c.44,0,.89.06,1.31.13a10.6,10.6,0,0,1,2.57.66,7.68,7.68,0,0,1,2.45,1.52A5.87,5.87,0,0,1,202,82.53a6.24,6.24,0,0,1,.1,3,8.34,8.34,0,0,1-.93,2.52A15.19,15.19,0,0,1,198,91.82a36.84,36.84,0,0,1-3.65,2.88c-1.25.88-2.51,1.73-3.79,2.52s-2.56,1.57-3.88,2.31a43.1,43.1,0,0,1-4.06,2,23.28,23.28,0,0,1-4.31,1.43,11.74,11.74,0,0,1-2.28.31,7.4,7.4,0,0,1-1.17-.05,3.53,3.53,0,0,1-1.21-.32l-.19-.09,0-.25c.16-1.64.34-3.27.46-4.91v-.05Zm.92.4c-.27,1.58-.49,3.17-.73,4.75l-.17-.34a4.57,4.57,0,0,0,2,.35,11.14,11.14,0,0,0,2.17-.26A21.7,21.7,0,0,0,182.4,101a42.44,42.44,0,0,0,3.94-2.07c1.26-.78,2.5-1.59,3.72-2.47a27.47,27.47,0,0,0,3.45-2.79,22.62,22.62,0,0,0,2.87-3.29,15.07,15.07,0,0,0,2-3.6,5.07,5.07,0,0,0,.27-3.21,3.26,3.26,0,0,0-2-2,7.19,7.19,0,0,0-1.77-.47c-.32-.06-.62-.07-.92-.11l-.55,0h-.46a7.77,7.77,0,0,0-3.53,1A19.85,19.85,0,0,0,186,84.32a45.35,45.35,0,0,0-5.91,6.36c-.92,1.15-1.79,2.34-2.65,3.55S175.73,96.65,174.94,97.88Z" transform="translate(-47.84 -26.01)"></path><path class="cls-2" d="M174.46,97.7s11.36-12.44,12.71-8.11S176,100.68,176,100.68Z" transform="translate(-47.84 -26.01)"></path><path class="cls-2" d="M139.08,85.25s-8.29-14.67-3.75-14.6,7.06,14.09,7.06,14.09Z" transform="translate(-47.84 -26.01)"></path><path class="cls-2" d="M60.45,102.67l.28-.56a13.39,13.39,0,0,1,.88-1.38A10.08,10.08,0,0,1,63.24,99a5.42,5.42,0,0,1,1.29-.82,3,3,0,0,1,2-.19,2.85,2.85,0,0,1,1.64,1.27,5.77,5.77,0,0,1,.65,1.45A7,7,0,0,1,69,102a7.89,7.89,0,0,1,0,1.13,6.89,6.89,0,0,1-.45,2.25h-1a5.76,5.76,0,0,1-.22-.58c-.1-.37-.28-.88-.4-1.49-.09-.29-.15-.62-.23-.95s-.16-.66-.25-1a3.53,3.53,0,0,0-.34-.84.81.81,0,0,0-.3-.33.71.71,0,0,0-.53,0,4.12,4.12,0,0,0-.88.42,14.29,14.29,0,0,0-1.63,1.23c-.94.82-1.56,1.41-1.56,1.41Z" transform="translate(-47.84 -26.01)"></path><path class="cls-2" d="M72.2,106.64l.28-.56a13.39,13.39,0,0,1,.88-1.38A10.08,10.08,0,0,1,75,102.93a5.42,5.42,0,0,1,1.29-.82,3,3,0,0,1,2-.19,2.85,2.85,0,0,1,1.64,1.27,5.77,5.77,0,0,1,.65,1.45,7,7,0,0,1,.24,1.3,7.89,7.89,0,0,1,0,1.13,6.89,6.89,0,0,1-.45,2.25h-1a5.76,5.76,0,0,1-.22-.58c-.1-.37-.28-.88-.4-1.49-.09-.29-.15-.62-.23-.95s-.16-.66-.25-1a3.53,3.53,0,0,0-.34-.84.81.81,0,0,0-.3-.33.71.71,0,0,0-.53,0,4.12,4.12,0,0,0-.88.42,14.29,14.29,0,0,0-1.63,1.23c-.94.82-1.56,1.41-1.56,1.41Z" transform="translate(-47.84 -26.01)"></path><path class="cls-2" d="M134.39,99.25a21,21,0,0,0-1.16,2.19,15.82,15.82,0,0,0-.89,2.28,8,8,0,0,0-.24,1.16,2.62,2.62,0,0,0,0,.57,2.32,2.32,0,0,0,0,.54,2.13,2.13,0,0,0,.12.5,2.05,2.05,0,0,0,.21.42,2.93,2.93,0,0,0,.31.34l.4.27h0l.43.2a3,3,0,0,0,.45.1,2,2,0,0,0,.47,0,2,2,0,0,0,.49-.09,4.12,4.12,0,0,0,1-.39,8.62,8.62,0,0,0,.95-.59,47,47,0,0,0,3.59-3.08.5.5,0,0,1,.68.73,34.52,34.52,0,0,1-3.57,3.32,8,8,0,0,1-1.07.7,5.33,5.33,0,0,1-1.24.51,3.69,3.69,0,0,1-1.42.13,4.14,4.14,0,0,1-.72-.16c-.23-.08-.44-.2-.66-.3l0,0-.66-.44a3.9,3.9,0,0,1-.53-.6,3.28,3.28,0,0,1-.35-.71,3.32,3.32,0,0,1-.16-.74,3.38,3.38,0,0,1,0-.73,3.58,3.58,0,0,1,.06-.7,9.14,9.14,0,0,1,.3-1.33,17.91,17.91,0,0,1,2.34-4.69.5.5,0,0,1,.84.54Z" transform="translate(-47.84 -26.01)"></path><path class="cls-2" d="M146.48,106c-.38.73-.76,1.47-1.07,2.23a15.67,15.67,0,0,0-.82,2.29,10.55,10.55,0,0,0-.21,1.14,2.48,2.48,0,0,0,0,.55,2.15,2.15,0,0,0,0,.51,2,2,0,0,0,.11.46c.08.12.09.28.19.38s.16.22.28.3l.36.24,0,0h0c.14,0,.26.14.4.18a1.72,1.72,0,0,0,.44.07,1.59,1.59,0,0,0,.48,0,2.23,2.23,0,0,0,.5-.12,5.28,5.28,0,0,0,1-.46c.34-.2.68-.41,1-.64,1.34-.94,2.58-2.12,3.94-3.22a.5.5,0,0,1,.68.73h0a32.82,32.82,0,0,1-3.73,3.68,8.76,8.76,0,0,1-1.13.79,6.83,6.83,0,0,1-1.31.62,3.7,3.7,0,0,1-.74.2,3.09,3.09,0,0,1-.81.06,3.34,3.34,0,0,1-.83-.12,5.29,5.29,0,0,1-.78-.33l.06,0c-.24-.15-.47-.31-.69-.47a4.07,4.07,0,0,1-.57-.64,3.49,3.49,0,0,1-.54-1.53,3.54,3.54,0,0,1,0-.75,3.72,3.72,0,0,1,.07-.72,7.59,7.59,0,0,1,.32-1.35,16.79,16.79,0,0,1,2.49-4.64.5.5,0,0,1,.84.53Z" transform="translate(-47.84 -26.01)"></path><path class="cls-2" d="M131.49,105.84a4.29,4.29,0,0,1-.59.13,12.88,12.88,0,0,1-1.32.15c-1,.09-1.93.08-1.93.08a.5.5,0,0,1-.09-1s1-.19,1.91-.28a12.88,12.88,0,0,1,1.32-.1,4.3,4.3,0,0,1,.61,0,.51.51,0,0,1,.09,1Z" transform="translate(-47.84 -26.01)"></path><path class="cls-2" d="M133,108.26a4.3,4.3,0,0,1-.33.51,12.87,12.87,0,0,1-.84,1c-.63.73-1.33,1.4-1.33,1.4a.5.5,0,0,1-.76-.65s.55-.8,1.17-1.53a12.88,12.88,0,0,1,.88-1,4.3,4.3,0,0,1,.45-.41.51.51,0,0,1,.76.65Z" transform="translate(-47.84 -26.01)"></path><path class="cls-2" d="M136.06,108.51a4.3,4.3,0,0,1,.06.6,12.89,12.89,0,0,1,0,1.33c0,1-.15,1.92-.15,1.92a.5.5,0,0,1-1,0s-.07-1,0-1.93a12.87,12.87,0,0,1,.06-1.32,4.29,4.29,0,0,1,.09-.6.51.51,0,0,1,1,0Z" transform="translate(-47.84 -26.01)"></path><path class="cls-2" d="M143.46,112.58a4.3,4.3,0,0,1-.57.21,12.88,12.88,0,0,1-1.29.32c-.94.22-1.9.34-1.9.34a.5.5,0,0,1-.23-1s.92-.31,1.85-.53a12.88,12.88,0,0,1,1.3-.28,4.3,4.3,0,0,1,.6-.06.51.51,0,0,1,.23,1Z" transform="translate(-47.84 -26.01)"></path><path class="cls-2" d="M144.61,114.94a4.3,4.3,0,0,1-.21.57,12.88,12.88,0,0,1-.6,1.18c-.45.85-1,1.66-1,1.66a.5.5,0,0,1-.88-.47s.36-.9.81-1.75a12.88,12.88,0,0,1,.64-1.16,4.29,4.29,0,0,1,.35-.5.51.51,0,0,1,.88.47Z" transform="translate(-47.84 -26.01)"></path><path class="cls-2" d="M148,115.51a4.29,4.29,0,0,1,.06.6,12.88,12.88,0,0,1,0,1.33c0,1-.15,1.92-.15,1.92a.5.5,0,0,1-1,0s-.07-1,0-1.93a12.88,12.88,0,0,1,.06-1.32,4.3,4.3,0,0,1,.09-.6.51.51,0,0,1,1,0Z" transform="translate(-47.84 -26.01)"></path><path class="cls-3" d="M359.54,278.36c-.71,7.84-7.37,13.16-7.37,13.16L365,298.58l8-12.51Z" transform="translate(-47.84 -26.01)"></path><path class="cls-2" d="M359.8,278.85c0,.28.1.51.12.73a1.94,1.94,0,0,1,0,.32l-.1.49-.22,1-.29,1a19.41,19.41,0,0,1-1.62,3.64,23.84,23.84,0,0,1-2.26,3.27,23.1,23.1,0,0,1-2.78,2.87l-.1-1.22,12.81,7-1.05.27,8-12.49.26,1.06c-2.13-1.25-4.23-2.52-6.33-3.83Zm-.51-1,7,3.67c2.36,1.26,4.72,2.57,7.06,3.88l.69.39-.43.67L365.63,299l-.4.63-.65-.36-12.76-7.11-.94-.53.84-.7a21.88,21.88,0,0,0,2.62-2.62,23.53,23.53,0,0,0,2.18-3,18.13,18.13,0,0,0,1.62-3.36l.3-.88.23-.9.11-.45c0-.21.08-.42.13-.63A10.67,10.67,0,0,1,359.29,277.87Z" transform="translate(-47.84 -26.01)"></path><path class="cls-6" d="M333,240.43c-25.83,36.5-102.83,40.83-102.83,40.83-69.33-1.33-90-58.67-90-58.67-26-59.33-3.54-94.2-3.54-94.2-27.33,20-66.28,8.55-71.24,4S52,112.85,55.22,92.67a25.58,25.58,0,0,0-6.39,13.19c-4,20.67,6.67,41.17,27.33,41.17,0,0,33.09,1.37,60.43-18.63,0,0-29.09,49.47-3.09,108.8,0,0,20.67,57.33,90,58.67,0,0,77-4.33,102.83-40.83,0,0,5.85-5.36,7.78-15.83A14.76,14.76,0,0,1,333,240.43Z" transform="translate(-47.84 -26.01)"></path><path class="cls-2" d="M130.54,91.76l-18.39-3.11q-4.56-.77-9.13-1.49c-3-.5-6.08-1-9.11-1.41s-6.08-.86-9.05-1.08c-.74-.05-1.47-.09-2.16-.09l-2.26,0c-1.51,0-3,.13-4.48.26a40.58,40.58,0,0,0-8.6,1.66,23.22,23.22,0,0,0-7.51,4,19.73,19.73,0,0,0-5.27,6.61A27.55,27.55,0,0,0,52,105.47a39.69,39.69,0,0,0-.42,8.84,40.88,40.88,0,0,0,.51,4.38A37.65,37.65,0,0,0,53.19,123a32,32,0,0,0,3.61,7.85,26.69,26.69,0,0,0,2.57,3.39c.45.54,1,1,1.45,1.53s1,1,1.58,1.38a23.69,23.69,0,0,0,7.23,4,26.52,26.52,0,0,0,8.23,1.37h.22l.19,0c1.06.17,2.33.31,3.52.4s2.43.16,3.65.19c2.45.07,4.9,0,7.36-.13a89.19,89.19,0,0,0,14.63-2.06q1.81-.4,3.6-.9c1.19-.32,2.38-.69,3.56-1s2.36-.76,3.52-1.2,2.31-.9,3.47-1.35,2.3-1,3.42-1.51,2.25-1.08,3.36-1.66,2.2-1.19,3.3-1.8,2.16-1.28,3.24-1.93l1.53-.9-.8,1.55A85.53,85.53,0,0,0,130.5,143a119.5,119.5,0,0,0-3.39,13.39A125.27,125.27,0,0,0,125,183.79a129.65,129.65,0,0,0,1.2,13.7A126.84,126.84,0,0,0,128.82,211a137,137,0,0,0,4,13.12l1.23,3.2c.4,1.07.82,2.13,1.29,3.18l1.36,3.15.34.79.35.86c.21.51.44,1,.68,1.53a87.38,87.38,0,0,0,6.71,11.77,98,98,0,0,0,8.35,10.69,92.47,92.47,0,0,0,20.71,17.23,90,90,0,0,0,12,6.12,93.58,93.58,0,0,0,26,6.71c4.46.53,8.94.8,13.44,1H225c2.23-.1,4.6-.27,6.91-.47s4.65-.44,7-.71c4.65-.53,9.29-1.16,13.91-1.93s9.22-1.62,13.8-2.64,9.11-2.18,13.59-3.52,8.91-2.88,13.24-4.63c2.16-.88,4.31-1.8,6.42-2.8s4.2-2,6.22-3.2a78.69,78.69,0,0,0,11.54-7.85,57,57,0,0,0,9.57-10.07l.06-.08.09-.08a24.39,24.39,0,0,0,3.69-4.83,29.78,29.78,0,0,0,2.58-5.64,33.49,33.49,0,0,0,1.72-12.26,45,45,0,0,0-2.21-12.26,64.49,64.49,0,0,0-5-11.48,95.07,95.07,0,0,0-6.76-10.63c-.59-.87-1.26-1.68-1.9-2.52s-1.29-1.72-1.93-2.45l-1-1.22c-.35-.4-.69-.73-1-1.1-.66-.73-1.45-1.41-2.19-2.11a40.82,40.82,0,0,0-10.3-6.58,54.37,54.37,0,0,0-11.78-3.69,94.89,94.89,0,0,0-25-1.18,164.51,164.51,0,0,0-25,3.92c-4.13,1-8.25,2-12.34,3.17s-8.15,2.43-12.19,3.79c-8.06,2.72-16.06,5.72-23.86,9.15h0l-.58.28L192,194l-18.61-91.33v-.08a11.05,11.05,0,0,0-.67-2.9,13.79,13.79,0,0,0-3.28-5.05A15.56,15.56,0,0,0,167,92.73c-.42-.29-.87-.53-1.31-.79s-.92-.46-1.37-.68l-1.43-.58c-.48-.18-1-.32-1.46-.48a27.53,27.53,0,0,0-3-.71c-1-.21-2-.31-3.07-.44s-2.07-.17-3.11-.18-2.08,0-3.12,0l-1.56.06-1.56.13c-1,.07-2.07.19-3.11.32s-2.07.27-3.1.45-2.06.33-3.08.55-2.05.38-3.07.64Zm0-1,2.95-.69c1-.26,2.06-.43,3.09-.64s2.07-.39,3.11-.56,2.08-.34,3.13-.45,2.1-.26,3.15-.33l1.58-.13,1.59-.06c1.06-.06,2.12,0,3.18,0s2.12.11,3.18.18,2.11.23,3.16.45a28.52,28.52,0,0,1,3.11.74c.51.17,1,.32,1.52.5l1.49.61c.48.24,1,.46,1.44.72s.94.53,1.38.84a16.56,16.56,0,0,1,2.52,2,14.79,14.79,0,0,1,3.52,5.42,11.89,11.89,0,0,1,.73,3.22v-.08L193,193.82l-.71-.35h0c3.83-2,7.72-3.74,11.65-5.45s7.9-3.34,11.92-4.83,8.07-2.92,12.16-4.24,8.21-2.54,12.39-3.6a167.78,167.78,0,0,1,25.46-4.6,100.54,100.54,0,0,1,13-.47,74,74,0,0,1,13,1.44,64.34,64.34,0,0,1,6.4,1.64,53.64,53.64,0,0,1,6.18,2.44,44.49,44.49,0,0,1,11.11,7.34c.8.78,1.63,1.51,2.39,2.37.38.42.79.84,1.14,1.25l1,1.24c.75.9,1.31,1.75,2,2.63s1.3,1.73,1.89,2.64a98.2,98.2,0,0,1,6.72,11.15,67,67,0,0,1,4.81,12.14,49.73,49.73,0,0,1,2,13c.05,1.1-.05,2.19-.08,3.29s-.19,2.19-.39,3.27a35.17,35.17,0,0,1-1.55,6.4,30.59,30.59,0,0,1-6.73,11.39l.15-.17a59.3,59.3,0,0,1-9.68,10.74c-1.82,1.58-3.69,3.11-5.63,4.53s-3.95,2.76-6,4a122.42,122.42,0,0,1-12.69,6.83c-4.35,2-8.81,3.84-13.32,5.46s-9.09,3.08-13.7,4.39-9.27,2.47-14,3.48-9.4,1.89-14.14,2.63q-3.56.55-7.13,1c-2.4.3-4.75.56-7.24.77h-.27a92.6,92.6,0,0,1-14.28-1.17,113.64,113.64,0,0,1-14-3.15,99,99,0,0,1-13.47-5,96,96,0,0,1-12.58-6.88,97.85,97.85,0,0,1-21.39-18.85A102.74,102.74,0,0,1,141,251.06a91.69,91.69,0,0,1-6.7-12.58c-.24-.55-.46-1.11-.69-1.67l-.16-.43-.08-.22,0-.12,0-.06,0,.07-.33-.82-1.3-3.28c-.45-1.09-.85-2.19-1.23-3.3l-1.17-3.33a140.55,140.55,0,0,1-3.74-13.58,130,130,0,0,1-2.34-13.88,132.45,132.45,0,0,1-.82-14,127.46,127.46,0,0,1,3-27.85,121.1,121.1,0,0,1,3.82-13.47,86.51,86.51,0,0,1,5.58-12.85l.73.65c-1,.79-2,1.62-3,2.39s-2.06,1.52-3.13,2.22-2.15,1.4-3.25,2.06-2.23,1.27-3.35,1.9-2.29,1.18-3.47,1.7-2.35,1.06-3.55,1.55-2.41.94-3.63,1.36-2.45.82-3.69,1.19-2.49.71-3.75,1-2.53.57-3.8.83q-3.82.73-7.7,1.14c-2.58.27-5.18.39-7.79.41q-2,0-3.92-.08c-1.33-.07-2.58-.15-4-.34l.42,0a30.53,30.53,0,0,1-10-1.6A27,27,0,0,1,59.12,141a29.66,29.66,0,0,1-6.32-7.77,36.25,36.25,0,0,1-3.64-9.14,43.54,43.54,0,0,1-1.3-9.61,47.55,47.55,0,0,1,.71-9.61,33.92,33.92,0,0,1,2.88-9.3A24.52,24.52,0,0,1,54,91.33a22.7,22.7,0,0,1,3.42-3.66,26.6,26.6,0,0,1,8.62-4.89,38.51,38.51,0,0,1,9.51-2c1.6-.15,3.19-.19,4.77-.21.81,0,1.56,0,2.37,0s1.67.09,2.46.18c3.18.35,6.23.88,9.29,1.44s6.09,1.2,9.12,1.85,6,1.37,9,2.09,6,1.43,9,2.22S127.58,89.9,130.53,90.74Z" transform="translate(-47.84 -26.01)"></path><path class="cls-2" d="M78.5,132.83l-.26-.33c-.16-.22-.42-.51-.71-.85a6.34,6.34,0,0,0-1.08-1,1.15,1.15,0,0,0-.31-.18,1.5,1.5,0,0,0-.31-.15l-.32-.09a1.65,1.65,0,0,1-.31,0c-.11,0-.21.05-.32.07a.75.75,0,0,0-.33.13,2.42,2.42,0,0,0-.64.43,4.09,4.09,0,0,0-.58.54c-.17.2-.34.39-.5.56s-.28.36-.4.52l-.3.41-.28.36v0a.27.27,0,0,1-.47-.24s0-.16.14-.44l.18-.51a4.36,4.36,0,0,1,.27-.65c.13-.23.26-.48.42-.75a4.47,4.47,0,0,1,.6-.79,3.78,3.78,0,0,1,.85-.74,1.82,1.82,0,0,1,.56-.27,2.2,2.2,0,0,1,.63-.18c.22,0,.45,0,.67,0l.64.14a3.45,3.45,0,0,1,1.05.54,4.62,4.62,0,0,1,.77.68,6.43,6.43,0,0,1,.55.69,7.38,7.38,0,0,1,.63,1.12c.07.13.11.26.14.34l0,.12a.57.57,0,0,1-1,.54Z" transform="translate(-47.84 -26.01)"></path><path class="cls-3" d="M173.85,102.59s8.33-11,29.33,0,15,36.85,16.67,41.33,4.67,18.67,19,10.67,0-18,0-18,28.33,4.67,24,30-34,25-34,25,7,8,17,7.67-15,7.67-33,7.67-38.33-13.67-40.67-43.33-2.08-11.57-1.71-10.41-3.62,16.74-3.62,16.74S150.85,143.25,173.85,102.59Z" transform="translate(-47.84 -26.01)"></path><path class="cls-2" d="M173,101.91a15.33,15.33,0,0,1,7.31-4.55,22.42,22.42,0,0,1,8.4-.75,34.34,34.34,0,0,1,8.11,1.8,52.32,52.32,0,0,1,7.57,3.3,32,32,0,0,1,3.55,2.2,29.94,29.94,0,0,1,3.24,2.7,29,29,0,0,1,5.13,6.69,31.32,31.32,0,0,1,3.27,7.75,48.44,48.44,0,0,1,1.29,8.21c.22,2.74.22,5.48.18,8.17,0,1.34-.05,2.68,0,4a12,12,0,0,0,.14,1.73l.08.3.17.48.33,1a28.08,28.08,0,0,0,3,7,9.85,9.85,0,0,0,2.4,2.55,6.87,6.87,0,0,0,3.11,1.2,13,13,0,0,0,7-1.62l.85-.44c.22-.11.56-.32.83-.48.61-.34,1.05-.68,1.57-1a10.73,10.73,0,0,0,2.52-2.56,5.64,5.64,0,0,0,1-3.16,7.25,7.25,0,0,0-.87-3.35,17.52,17.52,0,0,0-5-5.6l-3.3-2.52,4,.71h0a35.41,35.41,0,0,1,5.68,1.1,37.71,37.71,0,0,1,5.47,2,29.38,29.38,0,0,1,9.74,6.83,22.79,22.79,0,0,1,3.57,5.06,24,24,0,0,1,2.12,5.88,26,26,0,0,1,.6,6.16c0,1-.1,2-.2,3.05-.06.53-.12,1-.21,1.55s-.14.88-.25,1.41a32.37,32.37,0,0,1-1.76,5.93,28.71,28.71,0,0,1-3,5.46,30.35,30.35,0,0,1-14.47,11.07,34.24,34.24,0,0,1-11.61,2.09,26.54,26.54,0,0,1-5.85-.56h0l.76-1.66a24.37,24.37,0,0,0,3.84,3,24.67,24.67,0,0,0,4.32,2.23,20.18,20.18,0,0,0,4.59,1.21,16.72,16.72,0,0,0,2.33.15c.4,0,.76,0,1.18,0a12.65,12.65,0,0,1,1.49,0,4.38,4.38,0,0,1,1.05.18,2.58,2.58,0,0,1,.46.19,2.11,2.11,0,0,1,.74.66,2.06,2.06,0,0,1,.32,1.59,2.19,2.19,0,0,1-.4.86,3.71,3.71,0,0,1-1,.88c-.25.16-.48.29-.71.41a23.72,23.72,0,0,1-2.56,1.11c-1.68.63-3.34,1.16-5,1.66q-5,1.48-10.16,2.49c-3.42.68-6.87,1.23-10.37,1.59a57.12,57.12,0,0,1-10.74.25,41.23,41.23,0,0,1-10.69-2.46,42,42,0,0,1-9.63-5.25,43,43,0,0,1-8-7.52,45.34,45.34,0,0,1-5.81-9.22,50.89,50.89,0,0,1-3.62-10.18,63.59,63.59,0,0,1-1.59-10.58L169,153.9c-.12-1.69-.25-3.4-.4-5,0-.4-.08-.82-.13-1.16l0-.21s0,0,0,0l0,.07a1.78,1.78,0,0,0,.19.34,1.94,1.94,0,0,0,1.05.79,2.1,2.1,0,0,0,2.31-.73,1.89,1.89,0,0,0,.25-.44,1.48,1.48,0,0,0,.05-.16c0-.12,0-.11,0-.11a1.28,1.28,0,0,0,0,.17c-.07.69-.09,1.56-.1,2.38s0,1.67,0,2.45l0,.5s0,0,0,0c-.06-.24,0,.21,0,.19V153c0,.09,0,.29,0,.43v.35a13.77,13.77,0,0,1-.24,1.46c-.38,1.76-.83,3.41-1.28,5.08-.93,3.32-1.93,6.61-3,9.88h0l-.62,2.41-1.2-2.15a31.62,31.62,0,0,1-1.9-4.15q-.81-2.1-1.41-4.26a56.85,56.85,0,0,1-1.74-8.77q-.27-2.22-.39-4.45c-.09-1.49-.1-3-.1-4.47s.08-3,.21-4.46.27-3,.47-4.44l.33-2.21.41-2.19c.26-1.46.63-2.9,1-4.35s.74-2.88,1.21-4.29l.67-2.12.75-2.1c.48-1.41,1.06-2.77,1.6-4.15s1.19-2.71,1.78-4.07,1.3-2.66,1.95-4l2.15-4Zm1.77,1.31-2,3.74c-.64,1.3-1.31,2.59-1.93,3.91s-1.23,2.63-1.76,4-1.12,2.68-1.59,4.05l-.74,2L166,123c-.47,1.37-.81,2.78-1.2,4.18s-.7,2.81-1,4.24l-.41,2.13-.33,2.15c-.2,1.43-.37,2.87-.48,4.31s-.18,2.89-.22,4.33,0,2.89.08,4.33.19,2.88.37,4.32a54.89,54.89,0,0,0,1.7,8.47c.39,1.39.84,2.75,1.36,4.09a30.15,30.15,0,0,0,1.77,3.84l-1.83.27h0l1.86-10.09c.3-1.67.6-3.36.81-5a10.32,10.32,0,0,0,.09-1.09c0-.12.12.57-.06-.22-.06-.32-.08-.54-.11-.78-.1-.92-.16-1.79-.21-2.68s-.09-1.74-.06-2.76c0-.14,0-.27,0-.47a3,3,0,0,1,.08-.43,2.47,2.47,0,0,1,.08-.24,2.22,2.22,0,0,1,.28-.51,2.16,2.16,0,0,1,2.38-.76,2.07,2.07,0,0,1,1.11.84,2.48,2.48,0,0,1,.26.49l.08.22.08.28.1.42c.11.5.18.93.26,1.38.29,1.75.5,3.46.71,5.18.4,3.42.77,6.85,1.11,10.24a58.34,58.34,0,0,0,1.74,9.67,51.33,51.33,0,0,0,3.39,9.1,41.76,41.76,0,0,0,5.17,8.09,37.43,37.43,0,0,0,6.89,6.6,36.85,36.85,0,0,0,8.32,4.63,35.88,35.88,0,0,0,9.23,2.34,56.49,56.49,0,0,0,9.78,0c3.33-.23,6.67-.64,10-1.17s6.63-1.17,9.9-2c1.63-.39,3.25-.82,4.81-1.32.77-.25,1.55-.53,2.2-.81l.42-.2c.09,0,.22-.18,0,.08a1.45,1.45,0,0,0-.25.57,1.69,1.69,0,0,0,.26,1.29,1.43,1.43,0,0,0,.5.45.79.79,0,0,0,.16.07c.08,0-.08,0-.21,0A9.13,9.13,0,0,0,246,201c-.44,0-.93,0-1.39,0a20.08,20.08,0,0,1-2.77-.37,21.64,21.64,0,0,1-5.21-1.78,26.55,26.55,0,0,1-8.49-6.57l-1.54-1.79,2.31.13h0c1.74-.48,3.53-.94,5.24-1.48s3.41-1.08,5.05-1.7A50,50,0,0,0,248.4,183a28.87,28.87,0,0,0,4-3,23.25,23.25,0,0,0,3.26-3.65,23.53,23.53,0,0,0,2.41-4.26,26.44,26.44,0,0,0,1.59-4.68c.1-.38.19-.89.29-1.33l.21-1.2c.12-.83.22-1.67.26-2.5a23.84,23.84,0,0,0-.19-4.92,19.41,19.41,0,0,0-3.86-8.92,23.4,23.4,0,0,0-3.54-3.65,30.27,30.27,0,0,0-4.26-3,42.91,42.91,0,0,0-4.76-2.43,41.29,41.29,0,0,0-5.06-1.83h0l.73-1.81a22,22,0,0,1,3.18,2.79,16.47,16.47,0,0,1,2.54,3.45,9.43,9.43,0,0,1,1.19,4.34,7.92,7.92,0,0,1-1.31,4.41,16.91,16.91,0,0,1-6.61,5.45,15.39,15.39,0,0,1-8.41,2,9.53,9.53,0,0,1-4.34-1.58,12.54,12.54,0,0,1-3.15-3.2,30.63,30.63,0,0,1-3.52-7.62l-.32-.91-.18-.47-.2-.66a14.16,14.16,0,0,1-.27-2.26c-.07-1.41-.07-2.74-.1-4.08,0-2.66-.13-5.29-.38-7.88a45,45,0,0,0-1.35-7.62,33.52,33.52,0,0,0-2.56-7.18,26.07,26.07,0,0,0-4.47-6.11,27.11,27.11,0,0,0-2.87-2.51,28.92,28.92,0,0,0-3.23-2.1A48.78,48.78,0,0,0,196,100.8,31.9,31.9,0,0,0,188.47,99a20.08,20.08,0,0,0-7.52.56,15.55,15.55,0,0,0-3.43,1.45A11.3,11.3,0,0,0,174.76,103.22Z" transform="translate(-47.84 -26.01)"></path><path class="cls-3" d="M123.85,73.25s0,12.67,18.67,9.33,31.26-10.91,32,8-3.33,6-16.67,7.33l-13.33,1.33,4.71-8S126.52,103.92,123.85,73.25Z" transform="translate(-47.84 -26.01)"></path><path class="cls-2" d="M172.44,102a10.56,10.56,0,0,1-3.6-1.05,21.43,21.43,0,0,0-10.88-2l-15.29,1.53,4.13-7c-3.39,1.24-9.17,2.56-14.32-.17-5.3-2.81-8.51-9.17-9.52-18.9a7.79,7.79,0,0,1-.1-1.1l2-.09q0,.43.08.85A9,9,0,0,0,128,79.58c3,2.51,7.84,3.19,14.33,2,3.59-.64,7-1.46,10.07-2.18,8.27-2,14.81-3.52,18.91-.41,2.64,2,4,5.67,4.2,11.53.29,7.27-.11,9.95-1.62,11A2.46,2.46,0,0,1,172.44,102ZM159.8,96.82a24.74,24.74,0,0,1,9.79,2.27c1.34.55,2.74,1.12,3.16.83,1.1-.77.85-7.18.77-9.29-.2-5.15-1.32-8.43-3.41-10-3.35-2.54-9.48-1.08-17.23.76-3.06.73-6.53,1.55-10.18,2.2-7.12,1.27-12.5.44-16-2.48q-.35-.29-.65-.59c1.42,5.46,3.88,9.14,7.35,11,6.75,3.59,15.25-1.05,15.34-1.1L152,88.6l-5.57,9.46,11.37-1.14C158.46,96.85,159.14,96.82,159.8,96.82Z" transform="translate(-47.84 -26.01)"></path><path class="cls-5" d="M151.59,120.74s-2.86,5.95-3,7.78a5.13,5.13,0,0,0,2.75,4.7c1.76.92,4.49-.64,4-4.22C153.27,122.41,151.59,120.74,151.59,120.74Z" transform="translate(-47.84 -26.01)"></path><path class="cls-7" d="M152.26,132a4.22,4.22,0,0,1-2.26-3.86,28.08,28.08,0,0,1,2-5.38,4.33,4.33,0,0,0-.45-.6s-2.35,4.89-2.5,6.39a4.22,4.22,0,0,0,2.26,3.86,2.09,2.09,0,0,0,2.2-.24A2,2,0,0,1,152.26,132Z" transform="translate(-47.84 -26.01)"></path><path class="cls-5" d="M146,134.16s-3.45,4.12-4,5.53-.66,3.69,1.23,4.26,3.67.39,4-2.52C147,135.82,146,134.16,146,134.16Z" transform="translate(-47.84 -26.01)"></path><path class="cls-7" d="M144.4,143.53c-1.67-.5-1.54-2.53-1.08-3.77a24.66,24.66,0,0,1,2.89-4.14,3.89,3.89,0,0,0-.26-.65s-3.05,3.65-3.51,4.89-.58,3.27,1.08,3.77a3.55,3.55,0,0,0,2.09.12A5,5,0,0,1,144.4,143.53Z" transform="translate(-47.84 -26.01)"></path><path class="cls-5" d="M150.74,142.15a39,39,0,0,0-1.92,5.25c-.13,1.11.52,2.84,1.64,2.89s2.74-.36,2.49-2.54A24,24,0,0,0,150.74,142.15Z" transform="translate(-47.84 -26.01)"></path><path class="cls-7" d="M149.84,147.53a23.88,23.88,0,0,1,1.31-3.68,7.07,7.07,0,0,0-.35-.64,32.09,32.09,0,0,0-1.58,4.32c-.11.92.42,2.34,1.35,2.38a3.14,3.14,0,0,0,.51,0C150.23,149.74,149.74,148.41,149.84,147.53Z" transform="translate(-47.84 -26.01)"></path><path class="cls-2" d="M-45.94,73.07" transform="translate(-47.84 -26.01)"></path><path class="cls-8" d="M278.36,210.48l-.14.21a17.63,17.63,0,0,0-3.26.57q-.65.16-.76.48a2,2,0,0,0,.06,1,12,12,0,0,0,1,2.94,2.62,2.62,0,0,0,.29.32,1.05,1.05,0,0,1,.27.35,1.15,1.15,0,0,1-.07.49l-.83.2c-.14,0-.37-.07-.68-.3a1.32,1.32,0,0,1-.53-.59,1.11,1.11,0,0,1,0-.34,1.19,1.19,0,0,0,0-.35q-.1-.42-.29-1.28c-.12-.58-.22-1-.29-1.28-.15-.63-.32-.91-.52-.87a27.05,27.05,0,0,0-3.4,1.19,26.78,26.78,0,0,1-3.41,1.19,3.63,3.63,0,0,1-1.81-.17q-1.23-.39-1.38-1-.2-.81,1-2.71.9-1.27,1.8-2.57,1.5-2.13,4.32-6.53.36-.81.72-1.58a1.92,1.92,0,0,1,1.18-1.15,1.09,1.09,0,0,1,.79.11.89.89,0,0,1,.49.59,3.84,3.84,0,0,1,0,.91q-.05.92-.06,1,0,.6.38,4.72a35.55,35.55,0,0,0,.46,3.82.58.58,0,0,0,.35.41l.76-.18.78-.19q2-.49,2.68.13Zm-7.16-8-.29.07a42.76,42.76,0,0,0-3.9,5q-2.92,4.11-2.68,5.07.19.78,1.15.52l.1,0,6.92-2.29Z" transform="translate(-47.84 -26.01)"></path><path class="cls-8" d="M291.48,202.57a12.2,12.2,0,0,1-.17,6.69,6.06,6.06,0,0,1-4.41,4.55,5.9,5.9,0,0,1-5.5-1.28,9.21,9.21,0,0,1-2.94-5,12.71,12.71,0,0,1,.06-5.89,7.66,7.66,0,0,1,3-4.92,6.77,6.77,0,0,1,2.23-.93,6.43,6.43,0,0,1,1.88.12,5.91,5.91,0,0,1,3.88,2.45A11,11,0,0,1,291.48,202.57Zm-1.33.21a10.13,10.13,0,0,0-2.16-4.47,4.32,4.32,0,0,0-4.47-1.4A3.54,3.54,0,0,0,281.8,198a8.37,8.37,0,0,0-2.13,4.36,11.8,11.8,0,0,0,.17,4.9,10.48,10.48,0,0,0,.71,2.12,5.36,5.36,0,0,0,2.59,2.57,5.29,5.29,0,0,0,3.63.38,4.69,4.69,0,0,0,3.51-3.92A12,12,0,0,0,290.15,202.78Z" transform="translate(-47.84 -26.01)"></path><path class="cls-8" d="M309.13,203l-.14.21a17.62,17.62,0,0,0-3.26.57q-.65.16-.76.48a2,2,0,0,0,.06,1,12,12,0,0,0,1,2.94,2.48,2.48,0,0,0,.29.32,1,1,0,0,1,.27.35,1.14,1.14,0,0,1-.07.49l-.83.2c-.14,0-.37-.07-.68-.3a1.33,1.33,0,0,1-.53-.59,1.12,1.12,0,0,1,0-.34,1.14,1.14,0,0,0,0-.35q-.1-.42-.29-1.28c-.12-.58-.22-1-.29-1.28-.15-.63-.32-.91-.51-.87a27,27,0,0,0-3.41,1.19,26.78,26.78,0,0,1-3.41,1.19,3.63,3.63,0,0,1-1.81-.17q-1.23-.39-1.38-1-.2-.81,1-2.71.91-1.27,1.8-2.57,1.49-2.13,4.32-6.53.36-.81.72-1.58a1.92,1.92,0,0,1,1.18-1.15,1.09,1.09,0,0,1,.79.11.89.89,0,0,1,.49.59,3.79,3.79,0,0,1,0,.91q-.05.92-.06,1,0,.6.38,4.72a35.38,35.38,0,0,0,.46,3.82.58.58,0,0,0,.35.41l.76-.18.78-.19q2-.49,2.68.13ZM302,195l-.29.07a43,43,0,0,0-3.9,5q-2.92,4.11-2.68,5.07.19.78,1.15.52l.1,0,6.92-2.29Z" transform="translate(-47.84 -26.01)"></path></svg>