<svg xmlns="http://www.w3.org/2000/svg" xmlns:xlink="http://www.w3.org/1999/xlink" version="1.1" viewBox="0 0 21 21">
    <g id="Iconography" fill="none" fill-rule="evenodd" stroke="none" stroke-width="1">
        <g id="New-Icons---Gold-Release" transform="translate(-1610.000000, -170.000000)">
            <g id="user-home" transform="translate(1608.000000, 168.000000)">
                <g id="Group">
                    <g id="Line_Icons" transform="translate(2.000000, 2.000000)">
                        <g id="Group">
                            <path id="Shape" d="M7.001,17 C7.001,15.159 8.16,14 10.001,14 L10.001,14 C11.842,14 13.001,15.159 13.001,17 L7.001,17 L7.001,17 Z"/>
                            <circle id="Oval" cx="10.001" cy="11" r="2" fill="#fff000"/>
                            <path id="Shape" d="M16.001,20 L4.001,20 C3.449,20 3.001,19.552 3.001,19 L3.001,12 L2.001,12 C1.19,12 0.465,11.516 0.154,10.766 C-0.157,10.015 0.014,9.16 0.587,8.586 L8.588,0.605 C8.965,0.228 9.467,0.02 10.001,0.02 L10.001,0.02 C10.535,0.02 11.037,0.228 11.415,0.606 L19.414,8.585 C19.988,9.159 20.159,10.015 19.849,10.764 C19.54,11.515 18.814,12 18.001,12 L17.001,12 L17.001,19 C17.001,19.551 16.553,20 16.001,20 L16.001,20 Z M5.001,18 L15.001,18 L15.001,11 C15.001,10.448 15.449,10 16.001,10 L18.001,10 L10.002,2.02 L2,10 L4.001,10 C4.553,10 5.001,10.448 5.001,11 L5.001,18 L5.001,18 Z"/>
                        </g>
                    </g>
                </g>
            </g>
        </g>
    </g>
</svg>
