<svg viewBox="0 0 17 12" version="1.1" xmlns="http://www.w3.org/2000/svg" xmlns:xlink="http://www.w3.org/1999/xlink">
    <path d="M16.526,2.149 C16.231,1.966 15.862,1.951 15.553,2.105 L13,3.382 L13,2 C13,0.897 12.103,0 11,0 L2,0 C0.897,0 0,0.897 0,2 L0,10 C0,11.104 0.897,12 2,12 L11,12 C12.103,12 13,11.104 13,10 L13,8.618 L15.553,9.894 C15.694,9.965 15.847,10 16,10 C16.183,10 16.365,9.949 16.526,9.851 C16.82,9.668 17,9.347 17,9 L17,3 C17,2.653 16.82,2.332 16.526,2.149 Z" id="Shape"></path>
</svg>
