<svg>
  <g transform="translate(-4.000000, -2.000000)">
    <path d="M15.414,2 L6,2 C4.897,2 4,2.898 4,4 L4,20 C4,21.103 4.897,22 6,22 L18,22 C19.103,22 20,21.103 20,20 L20,6.586 L15.414,2 Z M14,8 L14,3 L19,8 L14,8 Z M5.64553301,12.9882308 C5.79224017,12.8782005 9.25947618,10.3014428 12,10.3014428 C14.7405238,10.3014428 18.2077598,12.8782005 18.354467,12.9882308 C18.5156743,13.1093495 18.6103516,13.2987041 18.6103516,13.5 C18.6103516,13.7004429 18.5156743,13.8906505 18.354467,14.0117692 C18.2077598,14.1217995 14.7405238,16.6985572 12,16.6985572 C9.25947618,16.6985572 5.79224017,14.1217995 5.64553301,14.0117692 C5.48517868,13.8906505 5.38964844,13.7012959 5.38964844,13.5 C5.38964844,13.2995571 5.48432573,13.1093495 5.64553301,12.9882308 Z M9.05202973,13.4995003 C9.05202973,12.8758707 9.2396859,12.296215 9.5619436,11.8165 C8.34463477,12.3032109 7.17841557,13.0017959 6.42386094,13.4995003 C7.17939806,13.9962053 8.34463477,14.6947903 9.56096111,15.1815012 C9.2396859,14.7007867 9.05202973,14.1231299 9.05202973,13.4995003 Z M17.5761391,13.5004997 C16.8206019,13.0027953 15.6553652,12.3052097 14.4390389,11.8174994 C14.7593316,12.2982139 14.9469878,12.8758707 14.9469878,13.4995003 C14.9469878,14.1231299 14.7593316,14.7027855 14.4370739,15.1835 C15.6553652,14.6957897 16.8206019,13.9982041 17.5761391,13.5004997 Z M12,14.5004997 C12.5522847,14.5004997 13,14.0527845 13,13.5004997 C13,12.948215 12.5522847,12.5004997 12,12.5004997 C11.4477153,12.5004997 11,12.948215 11,13.5004997 C11,14.0527845 11.4477153,14.5004997 12,14.5004997 Z"></path>
  </g>
</svg>
