<?xml version="1.0" encoding="UTF-8" standalone="no"?>
<svg viewBox="0 0 22 22" version="1.1" xmlns="http://www.w3.org/2000/svg" xmlns:xlink="http://www.w3.org/1999/xlink">
    <!-- Generator: sketchtool 3.8.3 (29802) - http://www.bohemiancoding.com/sketch -->
    <title>338BD28C-3513-4B03-8554-884F0F2AEE4F</title>
    <desc>Created with sketchtool.</desc>
    <defs></defs>
    <g id="Room-Final" stroke="none" stroke-width="1" fill="none" fill-rule="evenodd">
        <g id="Assets" transform="translate(-541.000000, -300.000000)" fill="#000000">
            <path d="M562.200765,314.240527 L555.872218,320.925692 C555.247978,321.585088 554.228287,321.593085 553.594404,320.944216 L547.165882,314.362346 C546.532086,313.713227 546.524005,312.652318 547.148158,311.99317 L553.477031,305.307847 C554.101031,304.64836 555.120809,304.640114 555.754845,305.289323 L562.183367,311.871193 C562.817489,312.520153 562.825004,313.58113 562.200765,314.240527 L562.200765,314.240527 L562.200765,314.240527 Z M555.714275,307.48104 C555.112189,306.864513 554.143528,306.872366 553.550386,307.498694 C552.957484,308.125112 552.964948,309.132768 553.567513,309.749477 C554.169838,310.366096 555.138412,310.358491 555.731641,309.731915 C556.324064,309.105315 556.3166,308.097659 555.714275,307.48104 L555.714275,307.48104 L555.714275,307.48104 Z M555.748201,311.982766 C555.145876,311.366148 554.177063,311.373662 553.584073,312.000329 C552.990932,312.626656 552.998636,313.634403 553.600634,314.25118 C554.203373,314.867391 555.172186,314.859877 555.765176,314.23321 C556.357991,313.607041 556.350614,312.599136 555.748201,311.982766 L555.748201,311.982766 L555.748201,311.982766 Z M555.782063,316.483903 C555.179651,315.867533 554.21075,315.875297 553.618087,316.501805 C553.024945,317.128133 553.03241,318.135789 553.634975,318.752498 C554.23706,319.369026 555.20596,319.361263 555.798863,318.734845 C556.391853,318.108178 556.384061,317.10068 555.782063,316.483903 L555.782063,316.483903 L555.782063,316.483903 Z M545.895708,311.806176 C545.495489,312.229153 545.32639,312.792916 545.370515,313.340941 L543.537802,313.507926 C542.651631,313.588461 541.870218,312.906309 541.792932,311.98503 L541.006247,302.638976 C540.92857,301.717267 541.584246,300.904507 542.470896,300.824153 L551.457313,300.006499 C552.343571,299.925715 553.124592,300.607437 553.202182,301.529394 L553.401538,303.901048 C553.360512,303.937692 553.315874,303.96761 553.27748,304.008353 L545.895708,311.806176 L545.895708,311.806176 L545.895708,311.806176 Z M545.706331,303.724893 C545.63269,302.848989 544.890433,302.2014 544.048457,302.278077 C543.206568,302.354505 542.583886,303.126453 542.657527,304.002357 C542.730776,304.87783 543.473273,305.52551 544.315162,305.449082 C545.156898,305.372314 545.77982,304.600457 545.706331,303.724893 L545.706331,303.724893 L545.706331,303.724893 Z M544.581866,308.620088 C543.739651,308.696674 543.117056,309.468373 543.191023,310.344118 C543.264359,311.219343 544.006769,311.867272 544.848745,311.790595 C545.690394,311.714076 546.31349,310.941721 546.239827,310.066655 C546.166099,309.191 545.423602,308.54332 544.581866,308.620088 L544.581866,308.620088 L544.581866,308.620088 Z M551.804418,303.170148 C551.73069,302.294493 550.988281,301.646564 550.146544,301.723331 C549.304655,301.79976 548.681647,302.571866 548.755135,303.44743 C548.828863,304.323085 549.57136,304.970765 550.413336,304.894088 C551.255072,304.81732 551.877907,304.045712 551.804418,303.170148 L551.804418,303.170148 L551.804418,303.170148 Z" id="widgets"></path>
        </g>
    </g>
</svg>