<svg viewBox="0 0 47 51" xmlns="http://www.w3.org/2000/svg">
    <path d="M41.02 37.418c.376-.2.84-.69.83-1.166l.51-17.663-16.194 8.61c-.188.1-.376.2-.276.38l-.664 19.19c-.064 1.24-.794 2.59-1.924 3.19-1.13.6-2.56.63-3.725-.2l-15.795-9.7c-1.742-1-2.844-3.07-2.702-5.08l.663-19.196c.14-2.01 1.334-3.85 3.03-4.75l17.135-9.12c1.883-1 3.89-.86 5.633.144l12.29 7.86s1.48 1.142-.09 2.493c-1.56 1.35-3.44.21-3.44.21L25.35 5.66c-.388-.276-.865-.264-1.43.036l-17.14 9.11c-.378.2-.843.69-.83 1.167L5.28 35.17c.013.477.313 1.042.702 1.32l4.074 2.663s.153-11.865.37-18.18c.022-.66.426-1.784 2.175-1.745 1.75.04 1.78 1.676 1.78 1.676l-.25 20.91 6.78 4.125.69-18.24c.06-1.72.97-3.18 2.48-3.98l16.95-9.01c1.13-.6 2.56-.64 3.73.19.68.37.98.93 1.28 1.5.3.56.42 1.23.53 1.89L45.89 37c-.14 2.007-1.334 3.85-3.03 4.75l-11.28 5.93s-2.01 1.05-2.99-1.13 1.142-3.13 1.142-3.13l11.3-6.007z">
</path>
    <path d="M29.228 43.06c-.192.087-.5.277-.81.57-.845.803-1.144 1.9-.554 3.21.357.794.877 1.3 1.514 1.533.586.215 1.192.18 1.764-.004.176-.06.31-.12.395-.16l11.283-5.93c1.86-.99 3.144-3 3.296-5.16l.677-18.74c-.184-1.16-.3-1.62-.583-2.15-.494-.93-.805-1.34-1.482-1.7-1.215-.87-2.836-.92-4.198-.2l-16.947 9.01c-1.67.89-2.684 2.51-2.742 4.4l-.68 18.24.76-.41-6.78-4.12.24.43.25-20.92c0-.3-.08-.69-.3-1.09-.37-.66-1.02-1.07-1.96-1.1-1.74-.04-2.64.96-2.68 2.23-.06 1.854-.12 4.29-.18 7.17-.05 2.41-.09 4.994-.13 7.575l-.04 2.495-.012.95.777-.413L6 36.14c-.244-.174-.467-.593-.475-.912l.664-19.164c-.01-.235.26-.584.56-.74L23.89 6.21c.41-.217.688-.224.906-.07l10.977 6.99c.126.08.32.177.58.273.865.322 1.788.376 2.667-.023.277-.125.54-.293.786-.506 1.092-.94 1.12-1.98.48-2.84-.15-.198-.3-.342-.41-.43L27.552 1.73c-1.97-1.137-4.157-1.22-6.138-.166L4.28 10.676c-1.86.988-3.143 2.99-3.295 5.157L.32 35.043c-.152 2.18 1.045 4.434 2.954 5.536l15.782 9.71c1.24.88 2.86.93 4.223.2 1.24-.67 2.11-2.15 2.18-3.62l.66-19.2-.06-.25c.05.11.03.27-.05.35l16.31-8.68-.74-.46-.51 17.662c0 .23-.27.58-.56.74l-11.3 6.005z">
</path>
</svg>
