<svg id="Layer_1" xmlns="http://www.w3.org/2000/svg" viewBox="0 0 500 500">
    <style>
        .st0{fill:#FFFFFF;} .st1{fill:#2F2F2F;stroke:#2F2F2F;} .st2{fill:url(#SVGID_1_);} .st3{opacity:0.753;enable-background:new ;} .st4{fill:url(#SVGID_2_);stroke:#FFFFFF;}
    </style>
    <path class="st0" d="M220.1 166.8v157.7h254V166.8h-254zM94.9 311.2c-7.9-1-15.2-5.6-18.7-12-3.6-6.5-3.9-9.9-3.7-38.5.2-22.2.2-23.5 1.1-26.7 2.1-7.6 6.1-12.7 12.4-15.8 8.6-4.3 17.9-3.7 26.1 1.6 5.2 3.4 8.3 8.2 10 15.4.7 3.2.8 5.6.8 28 0 27.2-.1 28.8-2.9 34.7-2.7 5.7-8.8 10.7-15.1 12.4-2.8.8-7.6 1.2-10 .9zm7-17.7c3-2.3 3.1-2.5 3.2-28.7.1-20.4.1-23.8-.6-26.6-.8-3.7-2.3-5.5-5.1-6.3-3.7-1-7.1 1.1-8.3 5.2-.9 3.1-.9 49.3 0 52.4.7 2.3 2.9 4.9 4.5 5.2 2.2.4 4.8-.1 6.3-1.2zm44.7 17.8c-4.4-.6-7-2.3-8.7-5.8-2.2-4.4-2.2-4.4-2.2-48v-40.7h17.8l.2 37.5c.2 40.8.1 39.8 2.6 40.4 2.2.6 4.7-.6 7.8-3.8l3-3 .1-35.6.1-35.6 8.9-.1 8.9-.1v93.2l-1.2.2c-1.5.3-14.9.3-16 0-.7-.2-.8-.8-.8-4.4v-4.2l-2.5 2.5c-6 5.6-12.2 8.2-18 7.5zm-115.3-1.6c-.4-.6-.3-36.6.1-41.7.5-6.5.1-11.7-4.6-24.8-1.5-4.3-4.5-12.9-6.3-18.8C7.3 182.2 8.2 185 9.4 185c8.7-.1 18.8 0 18.9.1.1.1 2.9 10.4 6.3 22.9 3.4 12.5 6.2 22.9 6.3 23.2.1.2 2.1-7.1 4.4-16.2 5-19.1 7.7-29.7 7.8-29.8.2-.2 2.7-.2 10.7-.2l8.9.1-.2 1.4c-.2 1.2-6.2 21.6-12.6 42.4-.7 2.3-2.5 8.2-3.9 13.1s-3.2 10.8-4 13l-1.3 4.1v25.4c0 23.8 0 25.4-.8 25.6-1.4.3-18.3.1-18.6-.4z">
</path>
    <path class="st1" d="M95.1 310c-7.9-1-15.2-5.6-18.7-12-3.6-6.5-3.9-9.9-3.7-38.5.2-22.2.2-23.5 1.1-26.7 2.1-7.6 6.1-12.7 12.4-15.8 8.6-4.3 17.9-3.7 26.1 1.6 5.2 3.4 8.3 8.2 10 15.4.7 3.2.8 5.6.8 28 0 27.2-.1 28.8-2.9 34.7-2.7 5.7-8.8 10.7-15.1 12.4-2.8.7-7.6 1.1-10 .9zm7-17.8c3-2.3 3.1-2.5 3.2-28.7.1-20.4.1-23.8-.6-26.6-.8-3.7-2.3-5.5-5.1-6.3-3.7-1-7.1 1.1-8.3 5.2-.9 3.1-.9 49.3 0 52.4.7 2.3 2.9 4.9 4.5 5.2 2.2.4 4.8-.1 6.3-1.2zm44.7 17.8c-4.4-.6-7-2.3-8.7-5.8-2.2-4.4-2.2-4.4-2.2-48v-40.7h17.8l.2 37.5c.2 40.8.1 39.8 2.6 40.4 2.2.6 4.7-.6 7.8-3.8l3-3 .1-35.6.1-35.6 8.9-.1 8.9-.1v93.2l-1.2.2c-1.5.3-14.9.3-16 0-.7-.2-.8-.8-.8-4.4V300l-2.5 2.5c-6 5.6-12.2 8.2-18 7.5zm-115.3-1.6c-.4-.6-.3-36.6.1-41.7.5-6.5-.6-11.7-5.3-24.8-1.5-4.3-4.3-12.5-6.1-18.4-13.3-42.2-12.6-39.8-11.3-39.8 8.7-.1 19.5 0 19.7.1.1.1 2.9 10.4 6.3 22.9 3.4 12.5 6.2 22.9 6.3 23.2.1.2 2.1-7.1 4.4-16.2 5-19.1 7.7-29.7 7.8-29.8.2-.2 2.7-.2 10.7-.2l8.9.1-.2 1.4c-.2 1.2-6.2 21.6-12.6 42.4-.7 2.3-2.5 8.2-3.9 13.1-1.5 4.9-3.2 10.8-4 13l-1.3 4.1v25.4c0 23.8 0 25.4-.8 25.6-1.5.3-18.4.1-18.7-.4z">
</path>
    <linearGradient id="SVGID_1_" gradientUnits="userSpaceOnUse" x1="96.913" y1="-106.177" x2="96.913" y2="82.305" gradientTransform="matrix(1 0 0 -1 249.856 235.603)">
        <stop offset="0" stop-color="#912420">
</stop>
        <stop offset="1" stop-color="#CF332D">
</stop>
    </linearGradient>
    <path class="st2" d="M315.3 346.2c-10.2-.2-22.4-.5-26.9-.6-30.7-1.1-51.8-2.3-56-3.1-6-1.2-12.7-5.3-16.6-10.1-6.2-7.7-9.6-17-11.2-31.3-3.8-33.3-3.7-72.1.2-104.2 1.7-14.1 6-24.2 13.1-31.3 4.1-4 8-6.3 13.2-7.6 11.3-2.9 99.6-5.2 153.3-4 31 .7 64.5 2.1 73.4 3.1 11.5 1.3 19.6 7.3 25.2 18.6 4.2 8.5 5.6 15.2 7.3 35.7 1.4 16.2 1.7 26.3 1.4 45.1-.3 22.4-1.7 42.2-3.8 53.3-2.3 11.7-7.6 21.7-14.5 27.1-5.3 4.2-11 6-19.9 6.5-2.6.1-6 .4-7.4.5-5.1.4-32.6 1.5-47.7 1.9-22.5.6-61.7.8-83.1.4z">
</path>
    <path class="st3" d="M228.6 187.2v16.6l9.7.1 9.7.1.1 52.8c.1 29 .2 53 .3 53.3.2.4 2.2.5 8.9.4l8.6-.1.2-53.2.2-53.2 10-.1 10-.1-.1-8.2-.1-8.2-28.8-.1-28.7-.1zm125.2 0v123.5h15.8v-4.2c0-2.8.2-4.2.5-4.2s2 1.5 3.9 3.2c6.1 5.8 11.4 7.4 18.1 5.4 2.5-.7 5.6-3.8 7-6.9 2.7-5.9 2.7-6.1 2.7-39.4 0-27.4-.1-30.8-.8-33.7-2.2-9.5-7-13.6-15.1-13-4.5.3-8.1 2.1-12.3 6.3-1.9 1.8-3.5 3.3-3.7 3.3-.2 0-.3-9.1-.3-20.1v-20.1l-15.8-.1zm86.8 30.6c-2.6.1-5.1.5-7.6 1.4-8.5 3.1-13.5 8.7-15.5 17.3-.7 3-.8 5.8-.8 28.1 0 27.4.1 28.5 2.9 34.1 5 10 17.5 15.2 28.8 12 8.4-2.4 14.3-8.1 16.5-16.2.4-1.4.8-5.3.9-8.8l.3-6.2h-16.2l-.2 5.6c-.2 6.4-.9 8.5-3.2 10.6-2.5 2.2-7 2.3-9.9.3-3.5-2.4-4.4-6.3-4.2-19.3l.1-9.2 16.8-.1 16.8-.1-.2-13.7c-.3-15.3-.6-17.6-3.1-23-4-8-13.1-12.9-22.2-12.8zm-150.3 1.3v39.6c0 43.2 0 44.1 2.5 48.3 2.6 4.5 8.8 6 15.4 3.5 3.2-1.2 6.8-3.7 10-6.9 1.4-1.5 2.9-2.7 3.2-2.7.4 0 .6 1.2.6 4.8v4.8h15.8V219H322v70.6l-3.4 3.4c-2.7 2.7-3.8 3.5-5.5 3.9-2.8.8-4.6.2-5.8-1.7-.9-1.5-.9-2.2-1-38.9l-.1-37.3-15.9.1zm150.9 13c3.5 0 5.7 1.4 7.2 4.4 1 1.9 1.1 2.8 1.2 9.9l.1 7.8h-8.6c-7.4 0-8.6-.1-8.9-.7-.4-1.1.2-13.3.7-15.1 1.4-4.2 4.1-6.3 8.3-6.3zm-63.1 1c2.5-.1 4.6 1 5.7 3.4.8 1.6.9 3 .9 27.5.1 23.5 0 26-.7 28-.5 1.5-1.2 2.5-2.2 3.2-2.6 1.8-6.4 1.2-9.9-1.5l-1.5-1.2v-55.8l1.5-1.2c2.1-1.5 4.3-2.3 6.2-2.4z">
</path>
    <linearGradient id="SVGID_2_" gradientUnits="userSpaceOnUse" x1="97.445" y1="4.445" x2="97.445" y2="-160.233" gradientTransform="matrix(1 0 0 -1 249.856 235.603)">
        <stop offset="0" stop-color="#FFF">
</stop>
        <stop offset="1" stop-color="#B3B3B3">
</stop>
    </linearGradient>
    <path class="st4" d="M228.6 185v16.6l9.7.1 9.7.1.1 52.8c.1 29 .2 53 .3 53.3.2.4 2.2.5 8.9.4l8.6-.1.2-53.2.2-53.2 10-.1 10-.1-.1-8.2-.1-8.2-28.8-.1-28.7-.1zm125.2 0v123.5h15.8v-4.2c0-2.8.2-4.2.5-4.2s2 1.5 3.9 3.2c6.1 5.8 11.4 7.4 18.1 5.4 2.5-.7 5.6-3.8 7-6.9 2.7-5.9 2.7-6.1 2.7-39.4 0-27.4-.1-30.8-.8-33.7-2.2-9.5-7-13.6-15.1-13-4.5.3-8.1 2.1-12.3 6.3-1.9 1.8-3.5 3.3-3.7 3.3-.2 0-.3-9.1-.3-20.1V185h-15.8zm86.8 30.7c-2.6.1-5.1.5-7.6 1.4-8.5 3.1-13.5 8.7-15.5 17.3-.7 3-.8 5.8-.8 28.1 0 27.4.1 28.5 2.9 34.1 5 10 17.5 15.2 28.8 12 8.4-2.4 14.3-8.1 16.5-16.2.4-1.4.8-5.3.9-8.8l.3-6.2h-16.2l-.2 5.6c-.2 6.4-.9 8.5-3.2 10.6-2.5 2.2-7 2.3-9.9.3-3.5-2.4-4.4-6.4-4.2-19.3l.1-9.2 16.8-.1 16.8-.1-.2-13.7c-.3-15.3-.6-17.6-3.1-23-4-8-13.1-13-22.2-12.8zM290.3 217v39.6c0 43.2 0 44.1 2.5 48.3 2.6 4.5 8.8 6 15.4 3.5 3.2-1.2 6.8-3.7 10-6.9 1.4-1.5 2.9-2.7 3.2-2.7.4 0 .6 1.2.6 4.8v4.8h15.8V217H322v70.6l-3.4 3.4c-2.7 2.7-3.8 3.5-5.5 3.9-2.8.8-4.6.2-5.8-1.7-.9-1.5-.9-2.2-1-38.9l-.1-37.3h-15.9zm150.9 13c3.5 0 5.7 1.4 7.2 4.4 1 1.9 1.1 2.8 1.2 9.9l.1 7.8h-8.6c-7.4 0-8.6-.1-8.9-.7-.4-1.1.2-13.3.7-15.1 1.4-4.3 4.1-6.3 8.3-6.3zm-63.1 1c2.5-.1 4.6 1 5.7 3.4.8 1.6.9 3 .9 27.5.1 23.5 0 26-.7 28-.5 1.5-1.2 2.5-2.2 3.2-2.6 1.8-6.4 1.2-9.9-1.5l-1.5-1.2v-55.8l1.5-1.2c2.1-1.5 4.3-2.3 6.2-2.4z">
</path>
</svg>
